<svg width="39" height="39" viewBox="0 0 39 39" fill="none" xmlns="http://www.w3.org/2000/svg">
<path d="M19.4286 1.19495C19.5009 1.19511 19.5732 1.19528 19.6478 1.19545C20.7296 1.19938 21.7885 1.22838 22.8516 1.44727C22.9659 1.47057 22.9659 1.47057 23.0825 1.49435C26.5889 2.23158 29.6485 3.87235 32.2636 6.30798C32.3125 6.35352 32.3615 6.39906 32.4119 6.44597C33.433 7.41321 34.2928 8.5618 35.0391 9.75C35.0859 9.82385 35.0859 9.82385 35.1336 9.89918C36.3489 11.8331 37.1324 13.9838 37.5528 16.2246C37.5652 16.2887 37.5777 16.3528 37.5905 16.4188C38.456 21.0561 37.258 26.0605 34.6154 29.926C34.1423 30.5936 33.6179 31.2115 33.0664 31.8151C32.9265 31.9698 32.7925 32.1276 32.6587 32.2874C29.8597 35.4761 25.358 37.4437 21.1758 37.7812C20.635 37.81 20.0938 37.811 19.5524 37.8098C19.4788 37.8098 19.4052 37.8097 19.3294 37.8097C17.4953 37.805 15.7744 37.5495 14.0156 37.0195C13.9528 37.0008 13.89 36.9821 13.8253 36.9628C11.6657 36.3042 9.65176 35.1884 7.9219 33.7441C7.87806 33.708 7.83422 33.6719 7.78904 33.6347C6.82569 32.8397 5.9484 31.9889 5.17971 31.002C5.09237 30.895 5.09237 30.895 5.00327 30.7859C2.59973 27.7844 1.26432 23.9396 1.1426 20.1094C1.14093 20.0572 1.13926 20.0049 1.13754 19.9511C1.01984 15.658 2.45895 11.2066 5.25588 7.92188C5.32445 7.83929 5.39299 7.75667 5.46149 7.67402C6.23045 6.75375 7.05035 5.91739 7.99807 5.17969C8.07201 5.11969 8.14595 5.0597 8.22212 4.99789C11.3847 2.47652 15.4089 1.17852 19.4286 1.19495ZM12.0352 5.56055C11.9467 5.60748 11.8582 5.65442 11.7671 5.70278C10.6926 6.29468 9.72464 7.00153 8.83596 7.8457C8.73481 7.93188 8.63328 8.01761 8.53127 8.10278C5.75553 10.5273 4.08801 14.3582 3.73245 17.9766C3.72041 18.1963 3.71651 18.4156 3.7143 18.6356C3.71355 18.6973 3.7128 18.7589 3.71204 18.8224C3.67936 22.2248 4.41644 25.401 6.32229 28.2598C6.61085 28.1394 6.79828 27.9565 7.02212 27.7408C9.5679 25.3503 12.809 23.8058 16.2246 23.1562C16.289 23.1437 16.3535 23.1311 16.4198 23.1181C20.9221 22.2783 25.9219 23.3688 29.6919 25.9416C30.5061 26.5087 31.2587 27.1356 31.9922 27.8027C32.2953 28.1218 32.2953 28.1218 32.6778 28.2598C32.7906 28.0968 32.8923 27.9355 32.992 27.7646C33.0222 27.7133 33.0525 27.6619 33.0837 27.609C34.3498 25.4323 35.2602 22.9065 35.2858 20.3644C35.2865 20.3027 35.2872 20.2411 35.288 20.1776C35.3284 15.9707 34.1287 12.0669 31.2361 8.93205C31.0933 8.77628 30.957 8.61685 30.8211 8.45508C28.3544 5.63766 24.3501 3.95783 20.6649 3.70564C17.6422 3.53144 14.7098 4.1329 12.0352 5.56055Z" fill="#E2E5E6"/>
<path d="M23.9941 7.54101C25.473 8.74684 26.5881 10.4112 26.8125 12.3398C26.9654 14.5018 26.5924 16.3953 25.201 18.1018C23.95 19.5356 22.2546 20.5994 20.3213 20.7361C18.1012 20.8348 16.2011 20.3776 14.525 18.8525C13.1486 17.5609 12.243 15.8662 12.1583 13.9615C12.1041 11.7905 12.628 9.94613 14.1424 8.331C16.7707 5.66307 20.9873 5.24197 23.9941 7.54101Z" fill="#E2E5E6"/>
</svg>
