<?xml version="1.0" encoding="UTF-8"?>
<svg version="1.1" xmlns="http://www.w3.org/2000/svg" width="512" height="512">
<path d="M0 0 C0.60111099 0.31185242 1.20222198 0.62370483 1.82154846 0.94500732 C2.4743428 1.26733337 3.12713715 1.58965942 3.79971313 1.92175293 C5.91994645 2.97247638 8.02856971 4.04457194 10.13795471 5.11688232 C11.62539846 5.85814859 13.11369122 6.5977135 14.60279846 7.33563232 C17.58895321 8.81686807 20.57154339 10.30491715 23.55152893 11.79852295 C29.06814541 14.55722511 34.63151773 17.2157585 40.20045471 19.86688232 C50.59965278 24.84424699 60.97344707 29.87326204 71.34498596 34.90789795 C80.28703041 39.24814073 89.23587036 43.57331824 98.20045471 47.86688232 C108.59837782 52.84694024 118.97342912 57.87325332 129.34498596 62.90789795 C138.28703041 67.24814073 147.23587036 71.57331824 156.20045471 75.86688232 C163.04124409 79.14326039 169.87581808 82.43200475 176.70045471 85.74188232 C177.39464005 86.07854919 178.08882538 86.41521606 178.80404663 86.76208496 C182.34297381 88.47899249 185.881005 90.19772283 189.41798401 91.91864014 C196.00204618 95.11985111 202.59389891 98.30033899 209.21998596 101.41375732 C210.37240784 101.9577417 211.52482971 102.50172607 212.71217346 103.06219482 C214.8506973 104.06945221 216.99244809 105.06989801 219.13795471 106.06219482 C220.55527893 106.73121826 220.55527893 106.73121826 222.00123596 107.41375732 C222.81761536 107.7937085 223.63399475 108.17365967 224.47511292 108.56512451 C227.29449988 110.21438082 228.74931508 111.17480907 230.70045471 113.86688232 C231.31971622 117.55337703 231.23935005 121.22051756 231.20838928 124.9508667 C231.21774923 126.66685184 231.21774923 126.66685184 231.22729826 128.41750336 C231.24050655 131.59339248 231.23573443 134.76867168 231.22335339 137.94454575 C231.21431531 141.36929346 231.2282664 144.79395775 231.23927307 148.21868896 C231.25707629 154.92790034 231.25321037 161.63693291 231.24162251 168.34615135 C231.23259551 173.79798223 231.23136099 179.24976292 231.23571777 184.70159912 C231.23633071 185.47700342 231.23694364 186.25240771 231.23757514 187.05130911 C231.23885402 188.62644006 231.24015087 190.201571 231.24146551 191.77670193 C231.25287658 206.55293213 231.23974936 221.32906313 231.21826404 236.10527706 C231.20039256 248.78888267 231.20349652 261.47234186 231.22193909 274.15594482 C231.24333652 288.8786485 231.2517779 303.60126519 231.23949003 318.32398224 C231.23821581 319.89337665 231.23695833 321.46277108 231.23571777 323.03216553 C231.23479212 324.19047764 231.23479212 324.19047764 231.23384777 325.37219 C231.23039148 330.81860279 231.2362292 336.26496049 231.24563599 341.71136475 C231.25684486 348.34713723 231.25383952 354.9827204 231.23251301 361.61847115 C231.2219874 365.00534613 231.217906 368.3919053 231.23110962 371.77877808 C231.241984 375.44713656 231.22839825 379.11459721 231.20838928 382.78289795 C231.22177361 384.39552647 231.22177361 384.39552647 231.23542833 386.04073334 C231.15891567 393.23538188 231.15891567 393.23538188 228.80536366 396.47724819 C226.61383864 397.92406515 224.47748007 399.20271698 222.11329651 400.34954834 C220.75357979 401.01658531 220.75357979 401.01658531 219.36639404 401.69709778 C218.38737625 402.16691574 217.40835846 402.6367337 216.39967346 403.12078857 C215.37227554 403.62174545 214.34487762 404.12270233 213.28634644 404.63883972 C209.99058739 406.24344468 206.68938307 407.83647995 203.38795471 409.42938232 C201.23980826 410.47356393 199.09201821 411.51847908 196.94459534 412.56414795 C185.56470872 418.09797334 174.15620371 423.57155939 162.73709106 429.02389526 C155.24234105 432.60331743 147.76390159 436.21524078 140.29444885 439.84710693 C129.94235924 444.88003234 119.58201982 449.89498304 109.20045471 454.86688232 C99.51918527 459.50366732 89.85716421 464.17924465 80.20045471 468.86688232 C69.56693646 474.02869036 58.92392798 479.1694476 48.26246643 484.27337646 C42.23610584 487.16131335 36.21890597 490.06749993 30.20826721 492.98797607 C29.47319946 493.34501617 28.73813171 493.70205627 27.98078918 494.06991577 C24.3623149 495.82778703 20.74464648 497.58728745 17.12818909 499.3493042 C14.51183804 500.62339687 11.89173815 501.8891772 9.26783752 503.14764404 C7.02355803 504.22923563 4.7871653 505.3275065 2.5627594 506.44940186 C1.62593323 506.90814697 0.68910706 507.36689209 -0.27610779 507.83953857 C-1.06324158 508.23536133 -1.85037537 508.63118408 -2.66136169 509.03900146 C-9.51806535 511.19068406 -14.66254013 509.77634236 -20.85813904 506.57000732 C-21.90405464 506.0531562 -21.90405464 506.0531562 -22.97109985 505.52586365 C-25.23388411 504.40386343 -27.48510989 503.26047723 -29.73704529 502.11688232 C-31.31937735 501.32816984 -32.90255794 500.54115755 -34.48655701 499.75579834 C-37.64571042 498.1880294 -40.80133843 496.61350765 -43.95433044 495.03338623 C-49.57809829 492.22112002 -55.24715258 489.50640863 -60.92454529 486.80438232 C-70.56562938 482.19151533 -80.18479251 477.53428449 -89.79954529 472.86688232 C-99.45624066 468.17921548 -109.11828905 463.50369452 -118.79954529 458.86688232 C-129.1974684 453.88682441 -139.57251969 448.86051132 -149.94407654 443.8258667 C-158.88612099 439.48562392 -167.83496093 435.16044641 -176.79954529 430.86688232 C-183.64033465 427.59050426 -190.47490925 424.30176111 -197.29954529 420.99188232 C-198.34095924 420.48681404 -198.34095924 420.48681404 -199.40341187 419.97154236 C-202.9407714 418.25539008 -206.47724455 416.53743419 -210.01268005 414.81732178 C-216.62179096 411.60401585 -223.23891614 408.41177306 -229.88938904 405.28485107 C-231.05083435 404.73635498 -232.21227966 404.18785889 -233.40892029 403.6227417 C-235.57357591 402.60266044 -237.74139969 401.58926617 -239.91282654 400.5836792 C-240.86415466 400.13444092 -241.81548279 399.68520264 -242.79563904 399.22235107 C-243.62249207 398.83716309 -244.44934509 398.4519751 -245.30125427 398.05511475 C-247.29954529 396.86688232 -247.29954529 396.86688232 -249.29954529 393.86688232 C-249.55254495 391.70352131 -249.55254495 391.70352131 -249.55681419 389.13604832 C-249.56326309 388.15719121 -249.56971198 387.17833409 -249.57635629 386.16981465 C-249.57325909 385.09181613 -249.57016188 384.01381761 -249.56697083 382.90315247 C-249.57150194 381.76001679 -249.57603305 380.61688112 -249.58070147 379.43910497 C-249.59119404 376.26112152 -249.59266751 373.08327986 -249.59031272 369.90528452 C-249.58990531 366.47985428 -249.60093634 363.05445805 -249.61042786 359.62904358 C-249.62705483 352.91640481 -249.63253815 346.20380117 -249.63365261 339.49114353 C-249.6346022 334.03643818 -249.63870803 328.58174445 -249.64505386 323.12704277 C-249.66267025 307.67051602 -249.67189202 292.21401707 -249.67039292 276.75748021 C-249.670313 275.92386855 -249.67023309 275.09025689 -249.67015076 274.23138428 C-249.670069 273.39675789 -249.66998723 272.5621315 -249.669903 271.7022134 C-249.66908979 258.17061871 -249.68823502 244.63913525 -249.71642749 231.10757274 C-249.74513016 217.22185812 -249.75896926 203.3361978 -249.75723994 189.45045274 C-249.75657517 181.65124245 -249.76210543 173.85214879 -249.78359604 166.05296516 C-249.80177341 159.4135272 -249.80618365 152.77425873 -249.79257719 146.1348067 C-249.78603018 142.7459007 -249.785992 139.35732021 -249.80328369 135.96844482 C-249.81861783 132.29786705 -249.80950564 128.62815371 -249.79402161 124.95759583 C-249.80430873 123.88182803 -249.81459586 122.80606023 -249.82519472 121.69769341 C-249.75771833 114.49736257 -249.75771833 114.49736257 -247.40054989 111.25372314 C-245.26763142 109.84581647 -243.19721201 108.59069572 -240.89598083 107.47601318 C-239.59632637 106.83900734 -239.59632637 106.83900734 -238.27041626 106.18913269 C-237.33514603 105.74118851 -236.39987579 105.29324432 -235.43626404 104.83172607 C-234.45325821 104.35296524 -233.47025238 103.87420441 -232.4574585 103.38093567 C-229.30435786 101.84764594 -226.1458227 100.32593698 -222.98704529 98.80438232 C-220.93525221 97.80838042 -218.88381638 96.81164222 -216.83274841 95.81414795 C-205.70553145 90.41011129 -194.54966108 85.06616736 -183.38720703 79.73538208 C-175.87567699 76.146996 -168.38008438 72.5268346 -160.89353943 68.88665771 C-150.54144981 63.85373231 -140.1811104 58.83878161 -129.79954529 53.86688232 C-120.11827585 49.23009733 -110.45625479 44.55452 -100.79954529 39.86688232 C-90.16455323 34.70435886 -79.51996912 29.5631025 -68.85716248 24.45819092 C-62.8559687 21.58217282 -56.86354677 18.68866954 -50.87767029 15.78094482 C-50.14733582 15.42627136 -49.41700134 15.0715979 -48.66453552 14.70617676 C-45.07648925 12.96338604 -41.48920937 11.21904348 -37.90306091 9.47235107 C-35.28301765 8.19671175 -32.6591813 6.9294393 -30.03196716 5.66864014 C-27.57690583 4.49042067 -25.13840492 3.28501257 -22.70774841 2.05731201 C-21.58819763 1.50720459 -20.46864685 0.95709717 -19.31517029 0.39031982 C-18.34353943 -0.09775146 -17.37190857 -0.58582275 -16.37083435 -1.08868408 C-10.39850343 -3.11965639 -5.62860148 -2.73560687 0 0 Z M-15.46287537 16.68353271 C-16.2750502 17.08137466 -17.08722504 17.47921661 -17.92401123 17.88911438 C-18.79688278 18.32650436 -19.66975433 18.76389435 -20.56907654 19.21453857 C-21.48227158 19.6640538 -22.39546661 20.11356903 -23.33633423 20.57670593 C-26.26528775 22.02021206 -29.18878927 23.47437782 -32.11204529 24.92938232 C-35.92972252 26.81880358 -39.74941544 28.70413189 -43.56907654 30.58953857 C-44.49060516 31.04543365 -45.41213379 31.50132874 -46.36158752 31.97103882 C-53.95493032 35.71985283 -61.60171971 39.33767913 -69.29954529 42.86688232 C-67.08224488 45.3074953 -64.95194836 46.72288691 -62.00267029 48.17938232 C-61.13924011 48.60888184 -60.27580994 49.03838135 -59.38621521 49.480896 C-58.45011414 49.93827148 -57.51401306 50.39564697 -56.54954529 50.86688232 C-55.56510437 51.35326172 -54.58066345 51.83964111 -53.56639099 52.34075928 C-45.96578509 56.08344074 -38.32907935 59.75039585 -30.67893982 63.39056396 C-22.07333986 67.48598286 -13.49737044 71.64095486 -4.92454529 75.80438232 C4.77363179 80.51327531 14.47706284 85.21019284 24.20045471 89.86688232 C34.59839174 94.84691089 44.9734293 99.87325341 55.34498596 104.90789795 C65.26679687 109.72369465 75.19980882 114.51504035 85.14723206 119.277771 C91.12325969 122.14186912 97.09090048 125.02269542 103.05201721 127.91766357 C103.77761841 128.2699704 104.5032196 128.62227722 105.25080872 128.98526001 C108.80842639 130.71297147 112.36531668 132.44215827 115.92115784 134.17352295 C118.54167022 135.44946396 121.16681624 136.71511846 123.79518127 137.97479248 C126.4901937 139.26902618 129.15729015 140.60795475 131.81666565 141.97381592 C133.15020819 142.64022711 134.48386305 143.30641359 135.81764221 143.97235107 C136.42157806 144.29335281 137.02551392 144.61435455 137.64775085 144.94508362 C140.71574128 146.45147846 142.37235037 146.93588371 145.75245667 146.22503662 C146.72529602 145.7768457 147.69813538 145.32865479 148.70045471 144.86688232 C150.15898865 144.21260254 150.15898865 144.21260254 151.64698792 143.54510498 C152.67138977 143.04543213 153.69579163 142.54575928 154.75123596 142.03094482 C155.91364807 141.46665771 157.07606018 140.90237061 158.2736969 140.32098389 C159.5201919 139.7114382 160.76660953 139.10173428 162.01295471 138.49188232 C164.60742101 137.22765702 167.20281376 135.96533828 169.79811096 134.70281982 C170.78156998 134.22365112 170.78156998 134.22365112 171.78489685 133.73480225 C176.22144765 131.57599758 180.67240111 129.44983431 185.13404846 127.34344482 C186.28413391 126.79865479 187.43421936 126.25386475 188.61915588 125.69256592 C190.80853668 124.65700244 193.00005211 123.62593778 195.19386292 122.59979248 C196.17056946 122.13621338 197.147276 121.67263428 198.15357971 121.19500732 C199.01112854 120.79185303 199.86867737 120.38869873 200.75221252 119.97332764 C202.85752102 119.01683505 202.85752102 119.01683505 203.70045471 116.86688232 C191.88491308 110.90244851 180.0329075 105.02957728 168.08058167 99.34393311 C159.47512369 95.24745772 150.89857556 91.0929534 142.32545471 86.92938232 C132.62727764 82.22048934 122.92384658 77.52357181 113.20045471 72.86688232 C102.80251768 67.88685376 92.42748013 62.86051124 82.05592346 57.8258667 C72.13263888 53.00935471 62.1980606 48.21748977 52.24928284 43.45379639 C44.84444983 39.90474859 37.45449041 36.32574981 30.06837463 32.73797607 C25.13789485 30.34303999 20.20494386 27.95321817 15.27108765 25.56524658 C12.39353326 24.17234835 9.51703474 22.77747205 6.64332581 21.37664795 C4.22819891 20.19965294 1.80906288 19.03150753 -0.61204529 17.86688232 C-1.26237732 17.54687256 -1.91270935 17.22686279 -2.58274841 16.89715576 C-7.41757007 14.59193417 -10.661084 14.30248055 -15.46287537 16.68353271 Z M-93.29026794 54.70281982 C-94.11096771 55.10323486 -94.93166748 55.5036499 -95.77723694 55.91619873 C-96.66373932 56.35367432 -97.5502417 56.7911499 -98.46360779 57.24188232 C-99.82441971 57.90776367 -99.82441971 57.90776367 -101.21272278 58.58709717 C-104.11848273 60.01001521 -107.02152613 61.43838215 -109.92454529 62.86688232 C-111.89051502 63.83078325 -113.85665866 64.79432956 -115.82298279 65.75750732 C-120.65053134 68.12318333 -125.4758589 70.49334204 -130.29954529 72.86688232 C-127.65976118 75.64678013 -125.16372172 77.07738646 -121.68235779 78.73016357 C-120.53315857 79.27994873 -119.38395935 79.82973389 -118.19993591 80.3961792 C-116.94149613 80.99063054 -115.6830319 81.58503014 -114.42454529 82.17938232 C-113.11628252 82.80306036 -111.80834493 83.42742089 -110.50071716 84.0524292 C-107.78289581 85.35081707 -105.06369618 86.64625136 -102.3434906 87.93963623 C-96.14893329 90.88795572 -89.97536208 93.87955176 -83.79954529 96.86688232 C-81.3831019 98.03401166 -78.96632307 99.2004456 -76.54954529 100.36688232 C-75.34120578 100.95020286 -74.13287244 101.53353619 -72.92454529 102.11688232 C-72.32642029 102.40563232 -71.72829529 102.69438232 -71.11204529 102.99188232 C21.32545473 147.61688233 21.32545473 147.61688233 23.13757324 148.49169922 C24.34717704 149.07564518 25.55678194 149.65958886 26.76638794 150.24353027 C29.7677921 151.69247183 32.76917355 153.14146039 35.77052307 154.59051514 C41.43972368 157.32755713 47.10910287 160.06422689 52.77909851 162.79962158 C55.46112307 164.09354683 58.14304863 165.38767721 60.82496643 166.68182373 C62.10502753 167.29943951 63.38513729 167.91695446 64.66529846 168.53436279 C66.43885864 169.38973999 68.21223874 170.24549053 69.98561096 171.10125732 C70.99502747 171.58820068 72.00444397 172.07514404 73.04444885 172.57684326 C75.70045471 173.86688232 75.70045471 173.86688232 77.62013245 175.10223389 C82.12780397 176.75908487 86.48490084 175.09185556 90.67628479 173.2086792 C92.11239879 172.51095376 93.54346681 171.8027706 94.96998596 171.08563232 C95.73219955 170.71208618 96.49441315 170.33854004 97.27972412 169.95367432 C99.6954143 168.76718145 102.10416072 167.56730362 104.51295471 166.36688232 C106.14988374 165.55999795 107.78724965 164.75399923 109.42506409 163.94891357 C114.19097184 161.60312182 118.94931089 159.24245424 123.70045471 156.86688232 C123.70045471 156.20688232 123.70045471 155.54688232 123.70045471 154.86688232 C117.42884044 151.7911821 111.15634903 148.71727585 104.88331604 145.64447021 C102.76072987 144.60449401 100.63832647 143.56414468 98.51612854 142.52337646 C85.36550207 136.07442156 72.18712313 129.68912039 58.96730042 123.38323975 C52.39534734 120.24715583 45.84319346 117.07084868 39.29444885 113.88665771 C28.94235924 108.85373231 18.58201982 103.83878161 8.20045471 98.86688232 C-1.48081566 94.23009688 -11.14277857 89.55440344 -20.79954529 84.86688232 C-32.59935205 79.13957353 -44.40981515 73.43553157 -56.24095154 67.77313232 C-60.60912091 65.68159665 -64.96952914 63.5745931 -69.32688904 61.46063232 C-70.48253357 60.90150146 -71.6381781 60.34237061 -72.82884216 59.76629639 C-75.05690707 58.68801512 -77.28353477 57.60675775 -79.50852966 56.52215576 C-80.50046326 56.04294678 -81.49239685 55.56373779 -82.51438904 55.07000732 C-83.39216003 54.6436499 -84.26993103 54.21729248 -85.17430115 53.77801514 C-88.59188077 52.31283338 -90.07942778 53.12694735 -93.29026794 54.70281982 Z M-162.45579529 87.41375732 C-163.92393677 88.14251068 -163.92393677 88.14251068 -165.42173767 88.88598633 C-168.55632175 90.44631456 -171.6779638 92.03072661 -174.79954529 93.61688232 C-176.83646308 94.638096 -178.87421745 95.65764286 -180.91282654 96.67547607 C-183.96281904 98.19864379 -187.01206545 99.72312464 -190.05784607 101.25469971 C-200.73025037 106.61524663 -211.50519079 111.75733014 -222.29954529 116.86688232 C-220.17313573 119.18701556 -218.2029994 120.59146594 -215.37669373 121.96063232 C-214.58938873 122.34575485 -213.80208374 122.73087738 -212.99092102 123.12767029 C-211.71283066 123.74108025 -211.71283066 123.74108025 -210.40892029 124.36688232 C-209.52116913 124.79890457 -208.63341797 125.23092682 -207.71876526 125.67604065 C-204.83190434 127.079013 -201.94082889 128.47305031 -199.04954529 129.86688232 C-197.05858804 130.83213753 -195.06786575 131.79787753 -193.07737732 132.76409912 C-182.6054008 137.84251208 -172.12202734 142.89800459 -161.61253357 147.89837646 C-153.36241196 151.82432302 -145.14343568 155.81360473 -136.92454529 159.80438232 C-127.22626425 164.51308333 -117.52230024 169.20884767 -107.79954529 173.86688232 C-105.82686071 174.81474004 -103.85420516 175.76265816 -101.88157654 176.71063232 C-97.54072784 178.79565512 -93.19439298 180.86876587 -88.845047 182.93597412 C-85.80604391 184.38264274 -82.77052714 185.83653089 -79.73558044 187.29168701 C-78.24924164 188.0024184 -76.76146728 188.71015622 -75.27220154 189.41473389 C-73.18764693 190.4014105 -71.10841804 191.39857838 -69.03001404 192.39813232 C-68.4082579 192.6893396 -67.78650177 192.98054688 -67.14590454 193.28057861 C-63.5712119 195.01518316 -60.82498652 196.77678658 -58.29954529 199.86688232 C-57.68759384 203.53859102 -57.81248023 205.15501801 -59.92454529 208.24188232 C-63.09164155 210.40884292 -64.47424966 210.27392148 -68.29954529 209.86688232 C-71.48152196 208.70230297 -74.46392173 207.19160333 -77.48313904 205.65985107 C-78.36664536 205.22358398 -79.25015167 204.78731689 -80.16043091 204.33782959 C-83.02475041 202.92070607 -85.880725 201.48754989 -88.73704529 200.05438232 C-90.71345341 199.07367531 -92.69050676 198.09426756 -94.66819763 197.1161499 C-98.52486962 195.20798428 -102.37918578 193.29519788 -106.23167419 191.37860107 C-111.93552326 188.54561467 -117.66847072 185.77981925 -123.42454529 183.05438232 C-132.53051817 178.72564033 -141.60477902 174.33331257 -150.67454529 169.92938232 C-161.34707082 164.74766698 -172.02771347 159.58415498 -182.73045349 154.46502686 C-188.79796397 151.5592917 -194.85167296 148.62657974 -200.89720154 145.67547607 C-202.39717681 144.94430555 -203.89717683 144.2131858 -205.39720154 143.4821167 C-207.60759135 142.40478587 -209.81736677 141.32629295 -212.02513123 140.24359131 C-214.07468064 139.23849645 -216.12636473 138.23787789 -218.17845154 137.23797607 C-219.95071106 136.37063843 -219.95071106 136.37063843 -221.7587738 135.48577881 C-225.52715401 133.76281603 -229.41978649 132.32179187 -233.29954529 130.86688232 C-233.29954529 215.01688232 -233.29954529 299.16688232 -233.29954529 385.86688232 C-225.04954529 389.82688232 -216.79954529 393.78688232 -208.29954529 397.86688232 C-203.44584278 400.21600525 -198.59240977 402.56533253 -193.74266052 404.92254639 C-183.44039215 409.92935303 -173.13027451 414.91900675 -162.79954529 419.86688232 C-152.40162218 424.84694024 -142.02657088 429.87325332 -131.65501404 434.90789795 C-122.71296959 439.24814073 -113.76412964 443.57331824 -104.79954529 447.86688232 C-95.11828672 452.50369564 -85.45638383 457.17950716 -75.79954529 461.86688232 C-61.98431292 468.57146745 -48.15965815 475.2554047 -34.29954529 481.86688232 C-33.481474 482.25795166 -32.66340271 482.649021 -31.82054138 483.05194092 C-29.66985964 484.07820735 -27.51667348 485.09893314 -25.36204529 486.11688232 C-24.21864685 486.65828857 -23.07524841 487.19969482 -21.89720154 487.75750732 C-19.46376851 488.99779921 -19.46376851 488.99779921 -17.29954529 488.86688232 C-17.29954529 405.04688232 -17.29954529 321.22688232 -17.29954529 234.86688232 C-22.57954529 232.22688232 -27.85954529 229.58688232 -33.29954529 226.86688232 C-39.29954529 222.86688232 -39.29954529 222.86688232 -40.29954529 221.86688232 C-40.76108375 215.63611309 -40.76108375 215.63611309 -39.17454529 212.99188232 C-36.33508711 211.28820742 -34.67353614 210.97487982 -31.29954529 210.86688232 C-26.66105043 212.61939456 -22.35651014 215.09009792 -17.99876404 217.43914795 C-16.64718201 218.13234131 -16.64718201 218.13234131 -15.26829529 218.83953857 C-14.45811951 219.27532227 -13.64794373 219.71110596 -12.81321716 220.16009521 C-6.89747823 221.82346586 -0.23864628 216.99972465 5.00904846 214.40203857 C5.8939949 213.96806259 6.77894135 213.53408661 7.69070435 213.08695984 C10.50822032 211.70466123 13.32322824 210.3173511 16.13795471 208.92938232 C18.94945081 207.54569515 21.76148415 206.16312492 24.57449341 204.78251648 C26.32068307 203.92522753 28.06596361 203.06608347 29.81018066 202.20478821 C44.38512444 195.04005317 44.38512444 195.04005317 49.70045471 195.86688232 C52.07545471 197.49188232 52.07545471 197.49188232 53.70045471 199.86688232 C54.20045471 202.86688232 54.20045471 202.86688232 53.70045471 205.86688232 C50.3240369 210.23758613 45.56048947 212.14530087 40.69264221 214.45672607 C39.8119809 214.88312881 38.93131958 215.30953156 38.02397156 215.74885559 C35.21150832 217.10855114 32.39369435 218.45670668 29.57545471 219.80438232 C27.70268291 220.70659711 25.83028295 221.6095842 23.95826721 222.5133667 C21.30081365 223.79628391 18.64293725 225.07817675 15.98191833 226.35368347 C10.18850857 229.13220861 4.44941087 231.99240425 -1.29954529 234.86688232 C-1.29954529 318.68688232 -1.29954529 402.50688232 -1.29954529 488.86688232 C6.33406945 486.34722654 6.33406945 486.34722654 13.45826721 483.11688232 C14.48315247 482.5969873 15.50803772 482.07709229 16.5639801 481.54144287 C18.17841003 480.7125354 18.17841003 480.7125354 19.82545471 479.86688232 C22.15927913 478.68429089 24.49392953 477.50332823 26.82936096 476.32391357 C27.99096741 475.73690674 29.15257385 475.1498999 30.34938049 474.54510498 C35.12511126 472.15341233 39.93787481 469.84450918 44.76295471 467.55438232 C54.22332373 463.05911861 63.65390366 458.50525055 73.07545471 453.92938232 C82.77360342 449.22043159 92.47706332 444.52357158 102.20045471 439.86688232 C111.88172415 435.23009733 121.54374521 430.55452 131.20045471 425.86688232 C141.83249914 420.70578972 152.47393167 415.56553084 163.13404846 410.46258545 C169.18557655 407.56273096 175.22755122 404.64385489 181.26295471 401.71063232 C182.00275574 401.35122559 182.74255676 400.99181885 183.504776 400.621521 C187.15367772 398.84856793 190.80173367 397.07390766 194.44850159 395.29656982 C195.7928766 394.64287046 197.13727652 393.98922231 198.48170471 393.33563232 C200.24610901 392.4761499 200.24610901 392.4761499 202.04615784 391.5993042 C206.2304746 389.61561154 210.4688517 387.74759477 214.70045471 385.86688232 C214.70045471 301.71688232 214.70045471 217.56688232 214.70045471 130.86688232 C205.36330526 134.95188521 196.1449755 138.99640012 187.03248596 143.51141357 C186.02376938 144.00727463 185.0150528 144.50313568 183.97576904 145.01402283 C180.8198723 146.56586795 177.66624898 148.12225685 174.51295471 149.67938232 C171.32009346 151.25375581 168.12673218 152.82709203 164.93231201 154.39830017 C162.96137859 155.3679336 160.99136984 156.33944953 159.02243042 157.31312561 C158.1334758 157.750858 157.24452118 158.18859039 156.32862854 158.6395874 C155.55304092 159.02262527 154.77745331 159.40566315 153.97836304 159.80030823 C151.58580965 160.92056203 149.16181162 161.90850538 146.70045471 162.86688232 C146.69680908 164.03563904 146.69316345 165.20439575 146.68940735 166.40856934 C146.65248951 177.41516692 146.59475202 188.42148389 146.51655197 199.42786789 C146.47701819 205.08658775 146.44485863 210.74515061 146.42945862 216.4039917 C146.41433097 221.86362377 146.37995459 227.3228244 146.33214569 232.78226471 C146.3172917 234.86665348 146.30941141 236.95110383 146.30857086 239.03554535 C146.30621155 241.95212474 146.27921545 244.86750172 146.24635315 247.78387451 C146.25138351 248.64846283 146.25641388 249.51305115 146.26159668 250.40383911 C146.15922232 256.2641874 146.15922232 256.2641874 143.80938721 259.35122681 C141.55574482 260.97088298 139.37681203 262.21662244 136.86061096 263.39031982 C135.89357239 263.84753418 134.92653381 264.30474854 133.93019104 264.77581787 C132.88500305 265.25961914 131.83981506 265.74342041 130.76295471 266.24188232 C128.5177257 267.29694171 126.27295336 268.35297334 124.02857971 269.40985107 C122.84328674 269.96592041 121.65799377 270.52198975 120.43678284 271.09490967 C116.54124974 272.93318029 112.67460654 274.8282743 108.80982971 276.73016357 C107.49731302 277.37368745 106.18473211 278.01708037 104.87208557 278.66033936 C102.95340584 279.60066821 101.03588537 280.5430034 99.12187195 281.49279785 C97.33517413 282.3785234 95.54328701 283.25375716 93.75123596 284.12860107 C92.72683411 284.63351074 91.70243225 285.13842041 90.64698792 285.65863037 C87.60135592 286.90751866 84.97676872 287.57782102 81.70045471 287.86688232 C77.13523732 285.73644754 77.13523732 285.73644754 75.70045471 282.86688232 C75.57763746 279.9689921 75.51469168 277.09359804 75.49513245 274.19451904 C75.48523285 273.2968985 75.47533325 272.39927795 75.46513367 271.47445679 C75.43346972 268.49852157 75.4087419 265.52257038 75.38404846 262.54656982 C75.36348316 260.48676125 75.34248681 258.42695694 75.32107544 256.36715698 C75.26581099 250.93875575 75.21642101 245.51031615 75.16822815 240.08184814 C75.11804503 234.54531428 75.06234234 229.00883631 75.00709534 223.47235107 C74.89946028 212.6039092 74.7980272 201.73541886 74.70045471 190.86688232 C71.65376325 189.25769685 68.60614612 187.65027219 65.55836487 186.04315186 C64.70013626 185.58982986 63.84190765 185.13650787 62.95767212 184.66944885 C57.05671288 181.55928997 51.1179095 178.56846313 45.07545471 175.74188232 C43.13228746 174.82227851 41.18961023 173.90163879 39.24732971 172.98016357 C38.21027893 172.48854736 37.17322815 171.99693115 36.10475159 171.49041748 C29.49489442 168.33812616 22.91217132 165.1296644 16.32545471 161.92938232 C6.62750184 157.22003286 -3.07615718 152.52357001 -12.79954529 147.86688232 C-22.4808152 143.23009711 -32.1428072 138.55446175 -41.79954529 133.86688232 C-51.54014094 129.13879109 -61.28559373 124.42162739 -71.04954529 119.74188232 C-79.20168711 115.83465836 -87.34976847 111.91923952 -95.49101257 107.98934937 C-97.29112646 107.12094371 -99.09196524 106.25404122 -100.89280701 105.387146 C-106.92628424 102.48029076 -112.94861972 99.55303915 -118.95133972 96.58309937 C-121.95728362 95.09671927 -124.96669967 93.61744214 -127.9763031 92.13848877 C-129.4282692 91.42242308 -130.87850689 90.7028407 -132.32688904 89.97955322 C-134.35257238 88.96824402 -136.38390508 87.96920352 -138.41673279 86.97235107 C-140.15865906 86.10839722 -140.15865906 86.10839722 -141.93577576 85.22698975 C-150.37149737 81.81608794 -154.72342299 83.43107593 -162.45579529 87.41375732 Z M121.46217346 175.29656982 C120.74439224 175.6469632 120.02661102 175.99735657 119.28707886 176.35836792 C116.98554396 177.48251607 114.68661994 178.61187934 112.38795471 179.74188232 C110.09965335 180.86400928 107.81080573 181.98498976 105.52096558 183.10397339 C104.09533326 183.80092617 102.6706357 184.49979519 101.24700928 185.20083618 C97.76424184 186.90629282 94.3080879 188.42382905 90.70045471 189.86688232 C90.70045471 215.60688232 90.70045471 241.34688232 90.70045471 267.86688232 C104.04058307 261.54787415 117.37327653 255.21315765 130.70045471 248.86688232 C130.70045471 223.45688232 130.70045471 198.04688232 130.70045471 171.86688232 C127.31653373 171.86688232 124.44822004 173.82160064 121.46217346 175.29656982 Z " fill="#000000" transform="translate(265.29954528808594,2.13311767578125)"/>
<path d="M0 0 C3.80424271 1.53804715 7.45483369 3.35574888 11.125 5.1875 C13.35017254 6.27752316 15.57543685 7.367359 17.80078125 8.45703125 C18.96818848 9.03275879 20.1355957 9.60848633 21.33837891 10.20166016 C25.10451114 12.05589834 28.88462857 13.88039933 32.66796875 15.69921875 C33.30661865 16.00637314 33.94526855 16.31352753 34.60327148 16.62998962 C35.88137314 17.24458078 37.15951004 17.85909864 38.43768311 18.47354126 C42.53083181 20.44162928 46.62242527 22.41258815 50.70556641 24.40136719 C52.9355921 25.48349319 55.17252475 26.55148055 57.41552734 27.60644531 C58.48883301 28.12045898 59.56213867 28.63447266 60.66796875 29.1640625 C61.62340576 29.61475098 62.57884277 30.06543945 63.56323242 30.52978516 C66.16428385 32.09912006 67.45998341 33.3988725 69 36 C69.4112874 39.29029921 69.32431433 41.2941394 67.9375 44.3125 C65.16460016 46.72760631 62.58163537 47.20730382 59 47 C55.35501214 45.80466459 52.02751372 44.07082452 48.625 42.3125 C46.5679337 41.28860959 44.5106338 40.26518842 42.453125 39.2421875 C41.39158203 38.7069043 40.33003906 38.17162109 39.23632812 37.62011719 C33.98238707 34.98997591 28.67687457 32.46918527 23.375 29.9375 C21.2981277 28.93760258 19.22130447 27.9376032 17.14453125 26.9375 C13.05035935 24.9719855 8.9437679 23.03673341 4.82421875 21.125 C3.85242676 20.67133057 2.88063477 20.21766113 1.87939453 19.75024414 C0.04640189 18.89602318 -1.78972602 18.04848734 -3.62939453 17.20874023 C-4.44134277 16.82919189 -5.25329102 16.44964355 -6.08984375 16.05859375 C-6.80003662 15.73173584 -7.51022949 15.40487793 -8.24194336 15.06811523 C-10 14 -10 14 -12 11 C-12.33521079 7.98310293 -12.55946915 5.90224621 -12 3 C-8.40029715 -1.47235809 -5.19581744 -1.4351482 0 0 Z " fill="#000000" transform="translate(60,306)"/>
<path d="M0 0 C2.86341395 0.92847468 5.50648596 2.2051795 8.19921875 3.54296875 C8.956689 3.90844315 9.71415924 4.27391754 10.49458313 4.65046692 C12.08698268 5.42311031 13.67607737 6.20259839 15.26196289 6.98852539 C17.68180959 8.18468715 20.11396157 9.35235039 22.54882812 10.51757812 C24.09977346 11.27437345 25.64993212 12.03278354 27.19921875 12.79296875 C27.9221965 13.13901657 28.64517426 13.48506439 29.39006042 13.84159851 C33.58525412 15.94575556 36.47351364 17.88462085 39 22 C39 25.77910616 38.83289714 28.00693033 36.375 30.9375 C32.62117209 32.61684407 28.97639523 32.65068224 25.04553223 31.35653687 C22.91384896 30.43235116 20.8409326 29.43135332 18.765625 28.38671875 C18.00578308 28.01650101 17.24594116 27.64628326 16.46307373 27.2648468 C14.86655613 26.48359691 13.27326468 25.6957231 11.68310547 24.90161133 C9.25049147 23.68774524 6.80811137 22.49567917 4.36328125 21.30664062 C2.80927888 20.54292074 1.25587185 19.77798805 -0.296875 19.01171875 C-1.02501404 18.65534836 -1.75315308 18.29897797 -2.50335693 17.93180847 C-8.73995739 14.80271459 -8.73995739 14.80271459 -11 12 C-11.75471698 5.20754717 -11.75471698 5.20754717 -9.4375 1.5 C-6.05009476 -0.58455707 -3.95648878 -0.32305528 0 0 Z " fill="#000000" transform="translate(59,341)"/>
</svg>
