<svg width="28" height="28" viewBox="0 0 28 28" fill="none" xmlns="http://www.w3.org/2000/svg">
<path d="M22.0938 6.07017C22.1475 6.12051 22.1475 6.12051 22.2023 6.17186C22.4844 6.44361 22.7276 6.74655 22.9688 7.05455C22.9919 7.08386 23.015 7.11317 23.0389 7.14336C24.4087 8.89289 25.3126 11.1618 25.375 13.3983C25.3764 13.442 25.3779 13.4856 25.3793 13.5306C25.4657 16.5753 24.4701 19.5522 22.3803 21.7956C22.3034 21.877 22.226 21.958 22.1485 22.0389C22.1098 22.0798 22.1098 22.0798 22.0703 22.1216C21.6555 22.5588 21.2132 22.9414 20.7266 23.2967C20.6957 23.3194 20.6648 23.3421 20.633 23.3654C18.2877 25.0628 15.2399 25.7804 12.3765 25.3612C12.2059 25.3331 12.0366 25.3006 11.8672 25.2655C11.8073 25.2536 11.8073 25.2536 11.7461 25.2415C10.6637 25.0237 9.50579 24.6648 8.5817 24.0468C8.26771 23.93 7.88278 24.162 7.59498 24.2835C7.54155 24.3057 7.48812 24.3279 7.43308 24.3508C7.26239 24.4218 7.0919 24.4933 6.92142 24.5648C6.80868 24.6119 6.69592 24.6589 6.58315 24.7059C6.50061 24.7403 6.50061 24.7403 6.41641 24.7754C6.2033 24.8642 5.99016 24.9529 5.77697 25.0415C5.68525 25.0796 5.59356 25.1179 5.50193 25.1563C5.38894 25.2036 5.27574 25.2503 5.16245 25.2969C5.10171 25.3221 5.04097 25.3473 4.97839 25.3733C4.62859 25.4919 4.30582 25.488 3.9683 25.3373C3.72989 25.1995 3.58762 25.036 3.50004 24.7733C3.46037 24.229 3.53373 23.7194 3.63504 23.1873C3.66003 23.0559 3.68412 22.9243 3.708 22.7926C3.76734 22.4665 3.82802 22.1406 3.88892 21.8147C3.94071 21.5375 3.99184 21.2602 4.04207 20.9827C4.06573 20.8534 4.09033 20.7244 4.11497 20.5953C4.12941 20.516 4.1438 20.4367 4.15813 20.3574C4.17744 20.2541 4.17744 20.2541 4.19714 20.1487C4.2177 19.8694 4.12649 19.6591 3.98859 19.4214C2.53019 16.8288 2.2625 13.7325 3.05268 10.8852C3.5279 9.25671 4.32472 7.76329 5.46879 6.50767C5.52469 6.44516 5.58059 6.38264 5.63648 6.32011C5.92755 5.9971 6.2222 5.68582 6.56254 5.41392C6.61273 5.37325 6.66292 5.33257 6.71464 5.29066C10.4898 2.28117 15.9384 1.86886 22.0938 6.07017ZM11.6485 4.70299C11.6021 4.71441 11.5556 4.72584 11.5078 4.73762C9.53389 5.23928 7.68808 6.4114 6.45316 8.03892C6.41488 8.08601 6.3766 8.13311 6.33716 8.18162C4.80045 10.121 4.14019 12.7235 4.41711 15.1684C4.596 16.524 5.03216 17.743 5.68861 18.9363C5.72471 19.0043 5.76081 19.0724 5.79691 19.1405C5.82983 19.2 5.86276 19.2595 5.89667 19.3208C6.04074 19.7745 5.88153 20.3145 5.80524 20.776C5.79561 20.8354 5.78598 20.8949 5.77605 20.9561C5.7456 21.1439 5.71488 21.3317 5.68412 21.5194C5.65319 21.7087 5.62232 21.898 5.5916 22.0873C5.57256 22.2046 5.5534 22.3219 5.53409 22.4392C5.52551 22.492 5.51692 22.5448 5.50808 22.5991C5.49667 22.6687 5.49667 22.6687 5.48503 22.7397C5.4651 22.8662 5.4651 22.8662 5.46879 23.0233C5.78499 22.9273 6.0848 22.8083 6.38694 22.6757C6.46633 22.6414 6.54572 22.607 6.62513 22.5727C6.74747 22.5197 6.86955 22.4664 6.99109 22.4117C7.57455 22.1499 8.15577 21.9185 8.79557 22.1495C8.93798 22.2231 9.06834 22.3048 9.20121 22.3944C9.29977 22.4554 9.39862 22.5159 9.49772 22.576C9.54647 22.6057 9.59521 22.6355 9.64544 22.6662C10.3609 23.083 11.1764 23.3225 11.9766 23.5155C12.0162 23.5253 12.0559 23.5351 12.0967 23.5452C13.3059 23.8298 14.8194 23.8147 16.0235 23.5155C16.0691 23.5043 16.1147 23.4932 16.1618 23.4817C17.7953 23.0713 19.2788 22.3255 20.5079 21.1639C20.5839 21.0987 20.6603 21.0337 20.7369 20.9691C21.3806 20.405 21.8887 19.6589 22.3125 18.9217C22.3307 18.8903 22.3489 18.8589 22.3676 18.8265C23.6502 16.5899 23.9022 13.9214 23.232 11.4466C23.0669 10.868 22.855 10.3265 22.586 9.78892C22.5597 9.73507 22.5597 9.73507 22.5328 9.68014C22.2722 9.14984 21.96 8.67208 21.6016 8.20299C21.5445 8.12738 21.5445 8.12738 21.4862 8.05025C19.9027 6.03506 17.5182 4.80453 14.9905 4.49586C14.8092 4.4776 14.6279 4.47325 14.4459 4.4712C14.4062 4.47067 14.3665 4.47013 14.3256 4.46958C13.4131 4.45981 12.539 4.47929 11.6485 4.70299Z" fill="black"/>
<path d="M16.0781 9.3515C16.7986 9.89876 17.3423 10.6906 17.5 11.5937C17.6002 12.6458 17.3516 13.5635 16.679 14.3926C16.4585 14.6548 16.227 14.8963 15.9634 15.1157C15.378 15.6073 15.0192 16.1305 14.8818 16.8847C14.8322 17.1217 14.74 17.2388 14.5469 17.3906C14.276 17.5569 13.9792 17.5321 13.6719 17.4999C13.4514 17.4321 13.3198 17.332 13.1985 17.1314C12.9786 16.5977 13.1341 15.9901 13.3438 15.4765C13.644 14.7986 14.0937 14.2329 14.6618 13.7588C15.052 13.432 15.6021 12.9227 15.6537 12.3884C15.6656 11.8989 15.5734 11.5519 15.3057 11.1425C14.8489 10.7056 14.4321 10.5888 13.815 10.5939C13.3909 10.6269 13.037 10.7933 12.7422 11.1015C12.4267 11.4749 12.3484 11.8855 12.2804 12.3569C12.2322 12.6592 12.1755 12.8208 11.9219 13.0156C11.6599 13.1888 11.3484 13.1565 11.0469 13.1249C10.8297 13.0581 10.697 12.9581 10.5735 12.7633C10.4835 12.5364 10.4728 12.3514 10.4761 12.1098C10.4765 12.0664 10.477 12.0229 10.4775 11.9782C10.5022 11.1059 10.9074 10.3251 11.5066 9.70334C12.7694 8.51847 14.6504 8.41004 16.0781 9.3515Z" fill="black"/>
<path d="M14.3283 18.3752C14.5955 18.4992 14.7512 18.6549 14.8752 18.9221C14.9164 19.2283 14.9175 19.4873 14.7863 19.7697C14.5362 20.033 14.3661 20.1389 14.0002 20.1525C13.6343 20.1389 13.4642 20.033 13.2141 19.7697C13.0829 19.4873 13.084 19.2283 13.1252 18.9221C13.3701 18.3946 13.7895 18.3027 14.3283 18.3752Z" fill="black"/>
</svg>
