<svg width="289" height="51" viewBox="0 0 289 51" fill="none" xmlns="http://www.w3.org/2000/svg">
<path d="M34.259 0.124773C36.1204 0.125113 36.1204 0.125113 38.0194 0.12546C39.3632 0.140777 40.707 0.156425 42.0508 0.172381C43.4337 0.177981 44.8166 0.182249 46.1995 0.185244C49.8279 0.196663 53.4559 0.226104 57.0842 0.259356C60.7911 0.290121 64.4981 0.303763 68.2051 0.318865C75.4702 0.350977 82.7351 0.402137 90 0.46535C89.2178 4.86811 87.7684 8.21229 85.6914 12.1919C85.3646 12.8214 85.0378 13.4509 84.7012 14.0995C84.0123 15.4238 83.3204 16.7466 82.6257 18.0679C81.5639 20.0878 80.5106 22.112 79.459 24.1372C74.347 33.9449 74.347 33.9449 72 37.4654C71.01 37.4654 70.02 37.4654 69 37.4654C67.8479 33.7589 66.7044 30.0499 65.5625 26.3403C65.237 25.2936 64.9115 24.2469 64.5762 23.1685C64.2636 22.1501 63.951 21.1318 63.6289 20.0825C63.1969 18.6843 63.1969 18.6843 62.7561 17.2578C61.9666 14.342 61.4488 11.4509 61 8.46535C60.34 8.46535 59.68 8.46535 59 8.46535C59.2779 9.36777 59.5557 10.2702 59.842 11.2C60.8729 14.5719 61.8907 17.9471 62.9001 21.3255C63.3384 22.7827 63.7817 24.2385 64.2302 25.6926C64.8766 27.7915 65.5043 29.8951 66.1289 32.0005C66.5112 33.2626 66.8935 34.5247 67.2874 35.825C68.0948 39.9496 68.3607 42.4652 67 46.4654C61.2457 51.9634 52.6709 50.9776 45.3125 50.856C44.0143 50.8503 42.716 50.8447 41.3784 50.8388C37.9521 50.8237 34.5265 50.7845 31.1005 50.74C27.5945 50.6989 24.0883 50.6808 20.582 50.6607C13.7211 50.618 6.86057 50.5498 0 50.4654C0.503524 45.1744 1.76628 41.4154 4.30859 36.7622C4.63538 36.1578 4.96216 35.5533 5.29884 34.9305C6.3351 33.0198 7.38612 31.1177 8.4375 29.2153C9.13963 27.9242 9.84081 26.6325 10.541 25.3403C15.5294 16.1713 15.5294 16.1713 18 12.4653C18.99 12.7953 19.98 13.1253 21 13.4653C22.075 16.0574 22.075 16.0574 23.043 19.4693C23.3942 20.6842 23.7455 21.8991 24.1074 23.1509C24.4677 24.4431 24.8277 25.7355 25.1875 27.0278C25.5581 28.3244 25.9298 29.6206 26.3027 30.9165C27.213 34.0965 28.1115 37.2793 29 40.4654C29.33 40.4654 29.66 40.4654 30 40.4654C29.5753 39.0506 29.5753 39.0506 29.1421 37.6072C28.0936 34.0988 27.0662 30.5845 26.0449 27.0681C25.6004 25.5485 25.1503 24.0306 24.6943 22.5144C24.039 20.3316 23.4044 18.1436 22.7734 15.9536C22.5663 15.2795 22.3591 14.6053 22.1456 13.9107C21.3034 10.9206 20.9419 8.74542 21.5767 5.68483C24.6891 0.831521 28.7789 0.0912899 34.259 0.124773Z" fill="#267FBA"/>
<path d="M158.74 0.345093C159.963 0.347313 161.187 0.349534 162.448 0.351822C163.457 0.351603 163.457 0.351603 164.487 0.351379C166.722 0.352079 168.957 0.359871 171.191 0.367691C172.737 0.369555 174.283 0.370979 175.828 0.371979C179.904 0.375804 183.979 0.385634 188.054 0.396683C192.21 0.406897 196.366 0.411476 200.521 0.416519C208.681 0.427256 216.84 0.444333 225 0.465347C223.672 4.55855 222.191 8.27461 220.18 12.0825C219.645 13.1009 219.11 14.1193 218.559 15.1685C218.003 16.2152 217.447 17.2619 216.875 18.3403C216.03 19.9452 216.03 19.9452 215.168 21.5825C213.783 24.2123 212.393 26.8398 211 29.4653C210.01 29.4653 209.02 29.4653 208 29.4653C206.02 23.5253 204.04 17.5853 202 11.4653C199.216 15.1768 197.132 18.8895 195.059 23.0044C194.506 24.0875 194.506 24.0875 193.942 25.1925C192.372 28.2705 190.811 31.353 189.249 34.4351C188.105 36.6889 186.957 38.9405 185.809 41.1919C185.456 41.8909 185.104 42.5898 184.742 43.31C183.353 46.0301 182.174 48.2914 180 50.4653C177.111 50.6924 177.111 50.6924 173.461 50.6607C171.508 50.651 171.508 50.651 169.516 50.6411C168.135 50.6244 166.755 50.6075 165.375 50.5903C163.987 50.5803 162.599 50.5712 161.211 50.563C157.807 50.5394 154.404 50.5064 151 50.4653C150 47.4653 150 47.4653 151.539 43.9119C152.296 42.4413 153.063 40.9764 153.84 39.5161C154.241 38.7435 154.642 37.9709 155.055 37.1749C156.34 34.7042 157.638 32.2411 158.938 29.7778C159.81 28.1058 160.682 26.4333 161.553 24.7603C163.691 20.6564 165.842 16.5593 168 12.4653C164.252 14.2341 161.311 16.5881 158.188 19.2778C146.136 29.4653 146.136 29.4653 142 29.4653C142.607 25.5246 143.831 22.5002 145.688 18.981C146.221 17.9639 146.755 16.9468 147.305 15.8989C147.864 14.8484 148.424 13.7978 149 12.7153C149.839 11.1163 149.839 11.1163 150.695 9.48488C155.439 0.489965 155.439 0.489965 158.74 0.345093Z" fill="#267FBA"/>
<path d="M130 0.465352C131.861 6.77976 133.711 13.0972 135.554 19.4168C136.182 21.5659 136.813 23.7144 137.446 25.8621C138.356 28.9507 139.257 32.0417 140.156 35.1333C140.441 36.0918 140.725 37.0503 141.018 38.0379C141.278 38.9385 141.538 39.839 141.807 40.7669C142.038 41.5552 142.268 42.3435 142.506 43.1557C143 45.4654 143 45.4654 143 50.4654C131.12 50.4654 119.24 50.4654 107 50.4654C103.961 40.8743 103.961 40.8743 102.539 36.3404C101.679 33.6032 100.804 30.8755 99.8984 28.1529C99.6225 27.3072 99.3467 26.4616 99.0624 25.5904C98.8266 24.8917 98.5907 24.193 98.3476 23.4732C97.752 20.0335 98.4277 17.3323 100.344 14.429C102.231 12.2955 104.16 10.215 106.125 8.15285C107.074 7.042 107.074 7.042 108.043 5.90871C114.55 -0.892728 121.142 -0.340947 130 0.465352Z" fill="#267FBA"/>
<path d="M242.887 0.367642C243.825 0.370864 244.762 0.374087 245.729 0.377407C247.193 0.389976 247.193 0.389976 248.688 0.402798C249.676 0.40731 250.664 0.411821 251.682 0.41647C254.121 0.428255 256.561 0.444708 259 0.465298C258.413 3.99795 257.488 6.86025 255.883 10.0561C255.446 10.9334 255.009 11.8107 254.558 12.7146C253.849 14.1149 253.849 14.1149 253.125 15.5434C252.641 16.5106 252.156 17.4778 251.657 18.4743C250.634 20.5131 249.608 22.5504 248.58 24.5864C247 27.7148 245.429 30.8474 243.859 33.9809C242.865 35.9603 241.87 37.9395 240.875 39.9184C240.402 40.86 239.929 41.8016 239.442 42.7718C238.786 44.0688 238.786 44.0688 238.117 45.3921C237.732 46.1564 237.346 46.9208 236.949 47.7083C236 49.4653 236 49.4653 235 50.4653C232.589 50.6199 230.226 50.697 227.813 50.7153C225.842 50.754 225.842 50.754 223.832 50.7934C219.159 50.3933 215.988 49.1294 212.39 46.1169C209.78 43.0147 209.804 39.3933 210 35.4653C210.921 32.1026 212.347 29.1223 213.938 26.0278C214.35 25.1981 214.762 24.3685 215.187 23.5136C220.988 12.1753 228.843 0.282528 242.887 0.367642Z" fill="#267FBA"/>
<path d="M263 0.465352C266.043 0.329765 269.08 0.230979 272.125 0.152852C273.409 0.0900097 273.409 0.0900097 274.719 0.0258984C278.984 -0.0561326 282.08 0.0182092 285.555 2.66457C288.974 6.58051 289.09 8.67362 288.852 13.7349C286.249 25.1348 279.03 37.7234 269.91 45.1724C269.3 45.5372 268.691 45.902 268.062 46.2779C267.455 46.6555 266.848 47.0332 266.223 47.4224C260.161 50.2667 254.616 50.7364 248.062 50.5904C247.283 50.5813 246.504 50.5723 245.701 50.563C243.801 50.5397 241.9 50.5038 240 50.4654C240.385 43.6653 243.209 38.6832 246.438 32.7779C247.526 30.7422 248.613 28.7057 249.699 26.6685C250.249 25.6417 250.798 24.615 251.365 23.5571C253.906 18.7533 256.333 13.8951 258.75 9.02785C259.395 7.73198 259.395 7.73198 260.052 6.40993C261.037 4.4293 262.019 2.44748 263 0.465352Z" fill="#267FBA"/>
<path d="M95 21.4653C98.3856 23.7224 98.5466 24.309 99.6055 28.0435C99.997 29.4144 99.997 29.4144 100.396 30.813C100.658 31.7708 100.919 32.7285 101.188 33.7153C101.46 34.6576 101.733 35.5999 102.014 36.5708C103.412 41.5694 104 45.1312 104 50.4653C92.45 50.4653 80.9 50.4653 69 50.4653C69 46.0352 69.6268 45.3781 72.6079 42.3786C73.1266 41.8774 73.6453 41.3762 74.1797 40.8599C74.7076 40.3352 75.2356 39.8105 75.7796 39.2699C76.8964 38.1635 78.0181 37.0618 79.144 35.9646C80.8702 34.2825 82.5827 32.5874 84.293 30.8892C85.3794 29.8161 86.4667 28.7438 87.5547 27.6724C88.0693 27.1651 88.584 26.6578 89.1142 26.1352C92.7632 22.5837 92.7632 22.5837 95 21.4653Z" fill="#267FBA"/>
</svg>
