<?xml version="1.0" encoding="UTF-8"?>
<svg version="1.1" xmlns="http://www.w3.org/2000/svg" width="512" height="512">
<path d="M0 0 C1.22388188 -0.00623996 2.44776376 -0.01247993 3.70873296 -0.01890898 C7.08008389 -0.03203694 10.45053444 -0.02740335 13.82182932 -0.0149641 C17.46740615 -0.00587412 21.11290711 -0.01990267 24.75846863 -0.03088379 C31.88930741 -0.04863062 39.01997738 -0.04484653 46.15082265 -0.03323323 C51.94715443 -0.02418544 57.74343903 -0.02298071 63.53977585 -0.02732849 C64.77902834 -0.02824789 64.77902834 -0.02824789 66.04331624 -0.02918586 C67.72183806 -0.03046481 69.40035987 -0.03176166 71.07888167 -0.03307623 C86.80188995 -0.04447041 102.52480481 -0.03138584 118.24779777 -0.00987476 C131.73168202 0.00800182 145.21542853 0.00488527 158.6993103 -0.0135498 C174.37064104 -0.03496561 190.04189003 -0.04337887 205.71323335 -0.03110075 C207.38483515 -0.02982659 209.05643696 -0.02856911 210.72803879 -0.02732849 C211.55043218 -0.02671139 212.37282558 -0.02609429 213.22013999 -0.02545848 C219.00888759 -0.02200821 224.79758323 -0.02782683 230.58632278 -0.0372467 C237.64160798 -0.04847567 244.69671522 -0.04540756 251.75198008 -0.02412373 C255.3500137 -0.01362631 258.9477508 -0.00946894 262.54578209 -0.02272034 C266.44873846 -0.03687723 270.35121145 -0.01994999 274.25415039 0 C275.38742 -0.00892289 276.52068961 -0.01784577 277.68830073 -0.02703905 C286.58684615 0.06125252 292.51778694 2.20357373 299.13192749 8.40246582 C300.40127136 9.58896729 300.40127136 9.58896729 301.69625854 10.79943848 C307.30702254 16.21942331 312.86626433 21.68751011 318.39071655 27.19543457 C319.03601067 27.83790131 319.68130478 28.48036804 320.34615326 29.14230347 C323.75333673 32.53461387 327.15772709 35.92969678 330.55966187 39.32727051 C334.05168669 42.81379127 337.55291448 46.29091591 341.05633926 49.76597595 C343.7724472 52.46338804 346.48175387 55.16755514 349.18929291 57.87356567 C350.47687532 59.15814278 351.76693273 60.4402445 353.05960846 61.71969604 C371.24387092 79.73095318 371.24387092 79.73095318 371.63004339 88.43794578 C371.63353935 90.25369396 371.63353935 90.25369396 371.63710594 92.10612392 C371.63975777 92.78302815 371.6424096 93.45993237 371.64514178 94.15734884 C371.65284553 96.44206618 371.65339436 98.72672987 371.6539917 101.01145935 C371.65800564 102.65954221 371.66244374 104.30762408 371.66727126 105.95570475 C371.67925067 110.49778972 371.6848884 115.03986407 371.68945241 119.58196175 C371.69540347 124.47585189 371.70701469 129.36972929 371.71774292 134.26361084 C371.74228051 146.09047498 371.7568972 157.91734334 371.76980299 169.74422511 C371.77351429 173.08449342 371.77748759 176.4247613 371.78155565 179.76502919 C371.80679437 200.50478371 371.82884896 221.24453889 371.8412838 241.98430538 C371.84421354 246.78978922 371.84717519 251.59527305 371.85018921 256.40075684 C371.85093526 257.59514913 371.85168131 258.78954142 371.85244997 260.02012742 C371.86510003 279.36295533 371.89831733 298.70569124 371.93999104 318.04847615 C371.98242139 337.90520759 372.00598022 357.76189196 372.01120436 377.61866862 C372.0146175 388.76827672 372.02636115 399.91774113 372.0593071 411.06730461 C372.08732401 420.56442939 372.09829975 430.06138102 372.08711164 439.55854391 C372.08192899 444.40260217 372.08478625 449.24629795 372.10957718 454.09030342 C372.13210964 458.53017984 372.13129889 462.96943424 372.11237331 467.40932185 C372.10957887 469.01038578 372.11514081 470.61149225 372.13018624 472.21248793 C372.22694177 483.18452755 370.91776118 492.41678506 364.3243103 501.50793457 C356.76678457 508.58188918 349.96293836 512.6247461 339.44481468 512.64215565 C338.19596186 512.64661349 336.94710904 512.65107134 335.66041219 512.65566427 C334.27204155 512.65557497 332.88367091 512.65538512 331.49530029 512.65510559 C330.02229548 512.65840516 328.54929157 512.66213093 327.07628882 512.66624707 C323.02286756 512.6762646 318.9694611 512.67998347 314.91602921 512.68263638 C310.54639955 512.68654016 306.17678161 512.69611844 301.80715942 512.70484924 C291.25177431 512.72461144 280.69638824 512.73467949 270.14098924 512.74357703 C265.17026198 512.74796028 260.19953578 512.75332699 255.22880936 512.7585659 C238.70503396 512.77557783 222.18125923 512.79007208 205.65747643 512.79731464 C201.36950047 512.79922454 197.08152452 512.80114487 192.79354858 512.80310059 C191.19491612 512.8038262 191.19491612 512.8038262 189.56398804 512.80456647 C172.29887266 512.81286704 155.03382655 512.83820459 137.76874141 512.87068126 C120.04319058 512.90375228 102.31767496 512.92176344 84.59209311 512.92495888 C74.63977553 512.92712392 64.68755897 512.93587176 54.73527145 512.96142006 C46.25956975 512.9831276 37.78399363 512.99117719 29.30826728 512.98145328 C24.98498357 512.97690876 20.66195895 512.97880358 16.33871078 512.99821472 C12.37706069 513.01584843 8.41585866 513.0148472 4.4542038 512.99931743 C3.02480893 512.99694166 1.59538303 513.00126338 0.16603558 513.01314608 C-11.96681157 513.10772323 -20.62034408 511.13076618 -29.52334595 502.65246582 C-37.80853133 493.66320342 -38.8076192 484.91149705 -38.62490845 473.07043457 C-38.61588501 471.9573291 -38.60686157 470.84422363 -38.5975647 469.6973877 C-38.57413085 466.96734434 -38.54132245 464.23775447 -38.49990845 461.50793457 C-39.18815704 461.51459641 -39.87640564 461.52125824 -40.58551025 461.52812195 C-47.75565922 461.59454713 -54.9257206 461.63976526 -62.09609985 461.67272949 C-64.77140566 461.68611008 -67.44622994 461.70826842 -70.12149048 461.73425293 C-73.96904596 461.77068541 -77.8162743 461.78767285 -81.66397095 461.80090332 C-83.45491684 461.8241291 -83.45491684 461.8241291 -85.28204346 461.8478241 C-91.92105482 461.84916642 -97.04818256 461.73009199 -102.1444397 456.97277832 C-105.83066204 452.15233372 -106.62577003 450.06184755 -106.64707947 444.00579834 C-106.65075616 443.33045319 -106.65443284 442.65510805 -106.65822095 441.9592979 C-106.66927613 439.68546346 -106.67310472 437.4116747 -106.6769104 435.13781738 C-106.6831737 433.51180882 -106.68982038 431.88580169 -106.69682312 430.25979614 C-106.71424591 425.83403801 -106.72478849 421.40829069 -106.73302865 416.98250675 C-106.7381764 414.21820195 -106.74425225 411.45390051 -106.75053978 408.68959808 C-106.76959595 400.04303616 -106.78382584 391.39648281 -106.79215175 382.74990392 C-106.80192491 372.76475444 -106.82824467 362.77982659 -106.86865264 352.79475522 C-106.89880272 345.08003336 -106.91361959 337.36537507 -106.91693276 329.65059543 C-106.91928464 325.04153288 -106.92826272 320.43270699 -106.95339394 315.82370758 C-106.97666017 311.48656739 -106.98091382 307.14981991 -106.97063255 302.81263351 C-106.97013672 301.22193217 -106.9764713 299.63121159 -106.9901886 298.04056931 C-107.00789084 295.86591112 -107.00081129 293.69266484 -106.98765564 291.51800537 C-106.99004399 290.30199268 -106.99243235 289.08598 -106.99489307 287.83311844 C-106.22506926 282.6616331 -103.73127187 279.59270711 -99.87490845 276.19543457 C-96.27784304 273.63962494 -94.42514355 273.38475123 -90.04043579 273.39440918 C-88.32888809 273.39452248 -88.32888809 273.39452248 -86.58276367 273.39463806 C-85.34628082 273.39979935 -84.10979797 273.40496063 -82.83584595 273.41027832 C-81.57350128 273.41169327 -80.31115662 273.41310822 -79.01055908 273.41456604 C-75.65352546 273.41922379 -72.29655944 273.42821049 -68.93954468 273.43927002 C-65.51435938 273.44949687 -62.08916711 273.45406639 -58.66397095 273.45910645 C-51.94259802 273.47015219 -45.22125714 273.48690263 -38.49990845 273.50793457 C-38.50267383 272.24841256 -38.50543921 270.98889055 -38.50828838 269.69120121 C-38.57329323 239.77770719 -38.62274565 209.86423141 -38.65310444 179.95068404 C-38.65685646 176.26704933 -38.66073943 172.58341477 -38.66470337 168.89978027 C-38.6654903 168.16644983 -38.66627723 167.43311939 -38.66708801 166.67756682 C-38.68013398 154.81108113 -38.70378336 142.94463915 -38.73136684 131.07817937 C-38.75944356 118.89773497 -38.7760895 106.71731342 -38.78217393 94.536838 C-38.78628568 87.02373958 -38.79926183 79.5107647 -38.82365785 71.99770432 C-38.8414237 66.23200353 -38.84326834 60.4663815 -38.83923149 54.7006588 C-38.84005616 52.33880987 -38.84601469 49.97695622 -38.85752487 47.61513519 C-38.87248697 44.38636475 -38.86884815 41.15811956 -38.860672 37.92933655 C-38.86941052 36.99837884 -38.87814905 36.06742113 -38.88715237 35.10825258 C-38.81307519 24.25881042 -35.27481557 16.6366963 -27.90615845 8.81652832 C-19.84943167 1.2348444 -10.691994 -0.08451698 0 0 Z M-17.81240845 25.07043457 C-20.07114516 28.33305427 -20.6249515 30.79936483 -20.62295628 34.67209911 C-20.62494732 35.52453738 -20.62693837 36.37697565 -20.62898976 37.25524539 C-20.62607691 38.1920073 -20.62316407 39.12876921 -20.62016296 40.09391785 C-20.62101739 41.08878434 -20.62187181 42.08365084 -20.62275213 43.10866481 C-20.62440524 46.45751172 -20.61888829 49.80630904 -20.61343384 53.15515137 C-20.6131519 55.54965209 -20.61330982 57.94415289 -20.61387634 60.33865356 C-20.6141044 65.50168529 -20.61125959 70.66470571 -20.6056385 75.82773399 C-20.59751661 83.29263556 -20.59490757 90.75753102 -20.59365051 98.22243652 C-20.59146108 110.33331238 -20.58480393 122.44418151 -20.5753479 134.55505371 C-20.56617098 146.32067837 -20.55909151 158.0863012 -20.55484009 169.85192871 C-20.55457736 170.57698047 -20.55431464 171.30203222 -20.55404396 172.04905524 C-20.55273893 175.68637264 -20.55147522 179.32369005 -20.55023205 182.96100748 C-20.53986282 213.14332133 -20.52217319 243.32562701 -20.49990845 273.50793457 C-19.42407722 273.50940113 -18.34824598 273.51086769 -17.2398138 273.51237869 C8.93327098 273.54896794 35.10622774 273.60841005 61.27920628 273.69183731 C73.93625159 273.73165259 86.5932345 273.76403248 99.25033569 273.77893066 C110.28181243 273.79193423 121.31315201 273.8188659 132.3445515 273.86254764 C138.18602064 273.88519142 144.02732043 273.90084349 149.86883736 273.89981842 C155.3673937 273.89907355 160.86557526 273.91695535 166.36403465 273.9491024 C168.38161129 273.95761888 170.39922988 273.95933951 172.41681671 273.95373726 C175.17361521 273.94710226 177.92921954 273.96500603 180.68589783 273.98895264 C181.48260708 273.98119222 182.27931633 273.9734318 183.10016829 273.96543622 C188.65843713 274.05079237 191.91474777 275.33198493 196.50009155 278.50793457 C200.24888511 283.50632597 200.6249216 287.89072155 200.64053345 294.0160675 C200.64350457 294.66791462 200.64647569 295.31976174 200.64953685 295.9913618 C200.65820251 298.1737383 200.65973028 300.35605981 200.66122437 302.53845215 C200.66585403 304.10402035 200.67087889 305.66958743 200.67626953 307.2351532 C200.6893808 311.48731642 200.69583595 315.73946387 200.70028019 319.99164414 C200.70321283 322.64909658 200.707318 325.30654471 200.71178436 327.96399498 C200.72545564 336.28111622 200.73512423 344.59822762 200.73898625 352.91535932 C200.74346691 362.51160724 200.7610167 372.10771272 200.78998685 381.70391732 C200.81161137 389.12485572 200.82169094 396.54575406 200.82302737 403.96672362 C200.8240748 408.39745066 200.8299695 412.82804373 200.84784698 417.25873756 C200.86434111 421.42760399 200.86647671 425.59623592 200.85770798 429.76512337 C200.85693833 431.29250975 200.86127078 432.81990881 200.87116623 434.34726334 C200.88391445 436.43806974 200.8779943 438.52804916 200.86758423 440.61885071 C200.86905079 441.7870979 200.87051735 442.9553451 200.87202835 444.15899372 C200.36610797 448.71433061 199.05538375 452.74289559 195.9649353 456.25012207 C190.71352527 460.14502977 187.71662613 460.65840132 181.28717041 460.66615295 C180.42791556 460.67109093 179.56866072 460.67602891 178.68336785 460.68111652 C175.7874796 460.69654541 172.8916136 460.70486669 169.99569702 460.71325684 C167.9264608 460.72283113 165.85722655 460.73284094 163.78799438 460.74325562 C158.15607362 460.77035941 152.52414442 460.79133928 146.89219427 460.8112576 C141.01181333 460.83308346 135.13145852 460.86048874 129.25109863 460.88731384 C118.1093162 460.93728681 106.96751931 460.98220852 95.82570851 461.02533621 C83.14390308 461.07466929 70.46212386 461.12960196 57.78034377 461.1850158 C31.68695081 461.29890651 5.59353272 461.40573006 -20.49990845 461.50793457 C-20.61709775 464.86180218 -20.68748429 468.21513606 -20.74990845 471.57043457 C-20.78342407 472.51338379 -20.8169397 473.45633301 -20.85147095 474.42785645 C-20.93924854 480.72589892 -20.21813416 484.37678309 -16.49990845 489.50793457 C-12.07487936 493.51153232 -9.67332291 494.63224964 -3.77325821 494.64215565 C-1.93360249 494.64884241 -1.93360249 494.64884241 -0.05678201 494.65566427 C1.3166477 494.65557496 2.6900774 494.65538509 4.06350708 494.65510559 C5.51288777 494.65840325 6.96226754 494.66212861 8.41164613 494.66624707 C12.40889912 494.67628631 16.40613709 494.67998695 20.4034009 494.68263638 C24.70891238 494.68653374 29.0144119 494.69611246 33.31991577 494.70484924 C43.72483429 494.72462973 54.12975382 494.73468185 64.53468645 494.74357703 C69.43121872 494.74795733 74.3277499 494.7533248 79.22428131 494.7585659 C95.49577993 494.77557974 111.76727787 494.79007474 128.03878403 494.79731464 C132.26319123 494.79922463 136.48759843 494.80114494 140.71200562 494.80310059 C142.28699292 494.8038262 142.28699292 494.8038262 143.89379814 494.80456647 C160.90954887 494.81286982 177.92522936 494.8382112 194.94094941 494.87068126 C212.39973471 494.90372593 229.85848429 494.92176105 247.31730103 494.92495888 C257.12420393 494.92712638 266.93100442 494.93591004 276.73787689 494.96142006 C285.08857744 494.98309168 293.43915071 494.99119496 301.78987619 494.98145328 C306.05189372 494.97689827 310.31364844 494.97886415 314.57563019 494.99821472 C318.47670636 495.01577399 322.3773266 495.01490806 326.27840713 494.99931743 C327.69029414 494.99693029 329.10221213 495.00132203 330.51405165 495.01314608 C340.37469005 495.30182282 340.37469005 495.30182282 348.50009155 490.50793457 C352.65974827 485.78616208 353.62514983 483.43918638 353.62313938 477.18668175 C353.62487015 476.19805417 353.62487015 476.19805417 353.62663588 475.18945432 C353.62930323 472.95943848 353.62477941 470.72949344 353.62034607 468.4994812 C353.62078175 466.89320758 353.62165659 465.28693402 353.62293524 463.68066084 C353.62518087 459.24995832 353.62115797 454.81927978 353.61615717 450.38858032 C353.61185385 445.61692808 353.61329901 440.84527729 353.61405945 436.07362366 C353.61458476 427.80083265 353.61143722 419.5280495 353.60582161 411.25526047 C353.59770756 399.29407605 353.59509149 387.33289546 353.59383362 375.37170859 C353.59164295 355.9672453 353.58498246 336.5627862 353.57553101 317.1583252 C353.56635728 298.30448426 353.55927625 279.45064447 353.55502319 260.59680176 C353.55476047 259.43538593 353.55449775 258.27397009 353.55422706 257.07735984 C353.55292206 251.2510974 353.55165834 245.42483495 353.55041516 239.59857249 C353.54004208 191.23502362 353.52242336 142.8714793 353.50009155 94.50793457 C351.63260254 94.49391602 351.63260254 94.49391602 349.72738647 94.47961426 C345.06216007 94.43942746 340.39757341 94.37359158 335.73275757 94.30041504 C333.72242516 94.27237064 331.71198588 94.25107478 329.70150757 94.23693848 C314.99667494 94.12739167 302.21645459 93.474595 290.50009155 83.50793457 C283.59901184 76.26521725 278.50400503 67.26944621 278.29476929 57.10656738 C278.27482407 56.24597717 278.25487885 55.38538696 278.23432922 54.49871826 C278.20926048 53.11882721 278.20926048 53.11882721 278.1836853 51.71105957 C278.16290421 50.76228943 278.14212311 49.81351929 278.12071228 48.83599854 C278.05541221 45.81004975 277.99642267 42.78401537 277.93759155 39.75793457 C277.89438775 37.70454036 277.85077286 35.65115475 277.80673218 33.59777832 C277.69975082 28.56791777 277.59842833 23.53797125 277.50009155 18.50793457 C241.04014205 18.41640088 204.58021268 18.34590696 168.12017196 18.30367325 C163.81679861 18.29867036 159.5134255 18.29349308 155.21005249 18.28820801 C154.35331991 18.28715877 153.49658734 18.28610952 152.61389317 18.28502849 C138.73751235 18.26761808 124.86119775 18.23607689 110.98485623 18.19932339 C96.74893517 18.16193165 82.51304881 18.13970246 68.27708066 18.13158059 C59.49103847 18.12608914 50.70518342 18.10873816 41.91919883 18.0762687 C35.89623495 18.05514262 29.87336798 18.04873019 23.85036974 18.05392906 C20.37414061 18.05649384 16.89823874 18.0525323 13.42206764 18.03111267 C9.65353155 18.01127274 5.88580249 18.0159746 2.11724854 18.0269165 C1.01802342 18.01526514 -0.08120169 18.00361377 -1.21373665 17.99160933 C-8.95052606 18.05251519 -12.54571299 19.23436663 -17.81240845 25.07043457 Z M295.50009155 31.50793457 C295.35331485 35.79923382 295.26552569 40.08987681 295.18759155 44.38293457 C295.14569702 45.58691895 295.10380249 46.79090332 295.06063843 48.03137207 C294.95365572 55.90529955 295.79594537 62.01800564 300.50009155 68.50793457 C306.3153882 74.00389212 311.79932415 76.77997976 319.8946228 76.70324707 C321.09667358 76.69680176 322.29872437 76.69035645 323.53720093 76.68371582 C324.78307983 76.66695801 326.02895874 76.6502002 327.31259155 76.63293457 C328.5778064 76.62391113 329.84302124 76.6148877 331.14657593 76.60559082 C334.26460719 76.58205851 337.38225252 76.54918002 340.50009155 76.50793457 C335.81606443 70.88233337 330.81800415 65.67987704 325.6368103 60.51184082 C324.80422195 59.67829575 323.97163361 58.84475067 323.11381531 57.98594666 C321.36611688 56.23757129 319.61716926 54.49044383 317.86703491 52.74450684 C315.17519527 50.05806313 312.48878368 47.36627335 309.80282593 44.6739502 C308.10197497 42.9737593 306.40081422 41.27387825 304.6993103 39.57434082 C303.8920903 38.76509659 303.0848703 37.95585236 302.25318909 37.12208557 C301.51184219 36.38389084 300.7704953 35.64569611 300.00668335 34.88513184 C299.35193527 34.23117935 298.69718719 33.57722687 298.02259827 32.90345764 C296.72144676 31.39531854 296.72144676 31.39531854 295.50009155 31.50793457 Z M-88.49990845 291.50793457 C-88.49990845 341.66793457 -88.49990845 391.82793457 -88.49990845 443.50793457 C1.26009155 443.50793457 91.02009155 443.50793457 183.50009155 443.50793457 C183.50009155 393.34793457 183.50009155 343.18793457 183.50009155 291.50793457 C93.74009155 291.50793457 3.98009155 291.50793457 -88.49990845 291.50793457 Z " fill="#000000" transform="translate(123.49990844726563,-0.5079345703125)"/>
<path d="M0 0 C1.54481197 -0.00761181 1.54481197 -0.00761181 3.12083226 -0.0153774 C4.25583077 -0.01587516 5.39082927 -0.01637292 6.56022167 -0.01688576 C7.7631995 -0.02126801 8.96617732 -0.02565027 10.20560902 -0.03016531 C13.55072329 -0.04123532 16.89579077 -0.0477794 20.24091661 -0.05234647 C23.84633892 -0.05830214 27.45174398 -0.06991193 31.05715466 -0.08063698 C39.76641893 -0.10515953 48.47568891 -0.11978675 57.18497708 -0.13269705 C59.64423148 -0.13640871 62.1034853 -0.14038195 64.56273913 -0.14444971 C79.83038188 -0.16968301 95.09802551 -0.19173872 110.36568451 -0.20417786 C113.90206245 -0.2071076 117.43844036 -0.21006926 120.97481823 -0.21308327 C121.85377922 -0.21382932 122.73274021 -0.21457537 123.63833638 -0.21534403 C137.8831443 -0.22800294 152.12782756 -0.26123355 166.37257717 -0.3028851 C180.9928024 -0.34528469 195.61296376 -0.36887049 210.23325032 -0.37409842 C218.4439221 -0.3775145 226.65439894 -0.3892929 234.86501026 -0.42220116 C241.85610519 -0.45017557 248.84696523 -0.4612125 255.8381118 -0.4500057 C259.40555811 -0.4448125 262.97251233 -0.4477477 266.53988743 -0.47247124 C270.40672973 -0.49904679 274.27289811 -0.48692585 278.13981152 -0.47098732 C279.83227102 -0.49181045 279.83227102 -0.49181045 281.55892164 -0.51305425 C290.02342406 -0.42681892 290.02342406 -0.42681892 293.73667717 2.54610825 C296.84649522 6.04345811 296.84649522 6.04345811 296.72799206 9.13701439 C296.73185925 9.77638939 296.73572643 10.41576439 296.73971081 11.07451439 C295.63092378 14.34512641 293.9664886 16.39262509 291.04049206 18.13701439 C287.08578353 18.89653722 283.16932902 18.8068222 279.15290356 18.76520348 C277.93455509 18.77229786 276.71620663 18.77939225 275.46093851 18.78670162 C272.08178777 18.80126307 268.70403747 18.79338333 265.3249892 18.77597868 C261.68007412 18.76261566 258.03526562 18.77803782 254.39036083 18.78980064 C247.25144949 18.80818913 240.11281168 18.79965723 232.97390883 18.78171242 C227.17312686 18.76769337 221.37241919 18.76379211 215.57162189 18.76715469 C214.74639659 18.76763214 213.92117128 18.76810958 213.07093914 18.76860149 C211.39458372 18.7696278 209.71822831 18.77068316 208.04187293 18.77176725 C193.21575564 18.78033662 178.38977054 18.76365109 163.56368542 18.73393822 C149.17137635 18.705095 134.77925765 18.69801942 120.3869276 18.7134304 C104.71969405 18.73018352 89.0525509 18.73423629 73.385315 18.71672004 C71.71539216 18.71487562 70.04546931 18.7130409 68.37554646 18.71121597 C67.55387938 18.71030388 66.73221231 18.70939179 65.88564624 18.70845206 C60.09007234 18.70284152 54.2945425 18.70615861 48.49897099 18.71276093 C41.43868345 18.7204846 34.37858347 18.7137764 27.3183338 18.68858588 C23.71476065 18.6760688 20.11147982 18.66997077 16.50789547 18.68112755 C12.60544793 18.6929817 8.70350723 18.67395336 4.80109692 18.65167809 C3.08443597 18.66403924 3.08443597 18.66403924 1.33309501 18.67665011 C-0.23130386 18.66007857 -0.23130386 18.66007857 -1.82730675 18.64317226 C-2.72833077 18.64198078 -3.62935479 18.6407893 -4.55768257 18.63956171 C-7.72653602 17.97652482 -8.918602 16.58994517 -10.95950794 14.13701439 C-12.38613013 11.28377002 -12.26984662 9.3024689 -11.95950794 6.13701439 C-8.62811667 0.96761414 -5.95627813 0.01556712 0 0 Z " fill="#000000" transform="translate(147.9595079421997,186.8629856109619)"/>
<path d="M0 0 C1.03546709 -0.00507454 2.07093418 -0.01014909 3.13777906 -0.0153774 C4.28415442 -0.01587516 5.43052978 -0.01637292 6.61164379 -0.01688576 C7.82263986 -0.02126801 9.03363593 -0.02565027 10.28132886 -0.03016531 C13.65343616 -0.04124744 17.02549696 -0.04778317 20.39761579 -0.05234647 C24.03030329 -0.05829606 27.6629736 -0.06990743 31.29564953 -0.08063698 C40.07355075 -0.10517458 48.85145767 -0.11978951 57.62938264 -0.13269705 C60.1075627 -0.13640779 62.58574219 -0.14038111 65.06392169 -0.14444971 C80.4448381 -0.1696835 95.82575538 -0.19174204 111.20668793 -0.20417786 C114.77039944 -0.20710767 118.33411093 -0.21006932 121.89782238 -0.21308327 C122.78359241 -0.21382932 123.66936244 -0.21457537 124.58197399 -0.21534403 C138.93745153 -0.22800317 153.29280537 -0.26123302 167.64822505 -0.3028851 C182.37802499 -0.34527405 197.10776155 -0.36886931 211.83762234 -0.37409842 C220.11143366 -0.37751585 228.38505161 -0.38931003 236.65880299 -0.42220116 C243.70374903 -0.45016107 250.7484621 -0.46121894 257.79345933 -0.4500057 C261.38912699 -0.44480863 264.98430644 -0.4477726 268.5799036 -0.47247124 C272.47561206 -0.49900849 276.37065006 -0.48693892 280.26642895 -0.47098732 C281.40611214 -0.48486941 282.54579534 -0.49875149 283.72001439 -0.51305425 C292.22984368 -0.42682187 292.22984368 -0.42682187 295.33164787 2.54391098 C298.11569073 6.55940446 297.81559279 8.33444772 297.12951183 13.13701439 C295.25936089 15.56821061 293.84812838 16.77770611 291.12951183 18.13701439 C289.51352591 18.23424902 287.89354642 18.2680028 286.27464104 18.27123547 C284.7266655 18.27792223 284.7266655 18.27792223 283.14741772 18.28474408 C281.4336911 18.28446754 281.4336911 18.28446754 279.68534374 18.28418541 C278.47843122 18.2878621 277.2715187 18.29153879 276.02803308 18.29532689 C272.66732531 18.30446589 269.30666643 18.30906607 265.94595087 18.3117162 C262.32553526 18.31561479 258.70513385 18.32519339 255.08472729 18.33392906 C246.33648508 18.35370548 237.58824169 18.36376091 228.83998272 18.37265685 C224.72284635 18.37703759 220.60571128 18.38240493 216.48857594 18.38764572 C202.80688239 18.40465874 189.12518966 18.41915388 175.44348717 18.42639446 C171.89180723 18.42830443 168.34012729 18.43022476 164.78844738 18.4321804 C163.90566796 18.43266414 163.02288855 18.43314789 162.11335824 18.43364628 C147.80640017 18.4419502 133.49952561 18.46729286 119.19260403 18.49976108 C104.51252378 18.53280527 89.83248601 18.5508408 75.15236837 18.5540387 C66.9065345 18.55620619 58.66082244 18.5649897 50.41502476 18.59049988 C43.3938873 18.61217082 36.37290123 18.62027514 29.35173412 18.6105331 C25.76828593 18.60597791 22.18515029 18.60794465 18.60174465 18.62729454 C14.71924241 18.64807881 10.83717441 18.63797457 6.95463085 18.62476158 C5.8188386 18.63573083 4.68304635 18.64670007 3.51283616 18.65800172 C-4.10679278 18.59512157 -4.10679278 18.59512157 -8.04705811 16.23153019 C-10.23575996 13.71743836 -10.8134888 12.65000869 -11.18298817 9.32451439 C-10.79884459 5.40624989 -9.577925 3.92408172 -6.87048817 1.13701439 C-4.39827369 -0.09909285 -2.76620949 0.00717338 0 0 Z " fill="#000000" transform="translate(146.87048816680908,229.8629856109619)"/>
<path d="M0 0 C1.04293258 -0.00905664 2.08586516 -0.01811328 3.16040176 -0.02744436 C4.30484239 -0.02211644 5.44928302 -0.01678851 6.62840366 -0.01129913 C7.84519214 -0.01739024 9.06198061 -0.02348134 10.31564146 -0.02975702 C13.69478442 -0.04354384 17.07344227 -0.04383301 20.45257699 -0.03838205 C24.09615574 -0.03571536 27.7396719 -0.0502368 31.38322544 -0.06247711 C38.52186491 -0.0835483 45.66042319 -0.08807102 52.79909008 -0.08628923 C58.6003545 -0.0849825 64.40159356 -0.08878114 70.2028532 -0.09621429 C71.87277605 -0.09831345 73.5426989 -0.10041105 75.21262175 -0.10250711 C76.0437411 -0.10355064 76.87486045 -0.10459417 77.73116524 -0.10566932 C93.45546387 -0.12457833 109.17971586 -0.1235194 124.90402115 -0.11669999 C139.2949501 -0.11112341 153.68570109 -0.13195366 168.07658844 -0.16506046 C182.84714667 -0.19877745 197.61761959 -0.21396833 212.38821703 -0.20934343 C220.68321865 -0.2070968 228.97805577 -0.21237016 237.27302456 -0.23723602 C244.33441199 -0.25822345 251.3955447 -0.26186673 258.45694249 -0.24293643 C262.06070953 -0.23376275 265.66400133 -0.23268456 269.26773167 -0.25329208 C273.17212232 -0.27537227 277.07579815 -0.25882402 280.9802103 -0.23834991 C282.12242021 -0.25086776 283.26463012 -0.26338561 284.44145244 -0.27628279 C292.07528012 -0.19008819 292.07528012 -0.19008819 296.07561684 2.70320129 C298.44481464 6.24594084 298.5404335 8.19782753 297.86779881 12.38311005 C295.73100595 15.7725056 294.69032211 17.10893561 290.86779881 18.38311005 C289.22615355 18.47558908 287.58097979 18.51043754 285.93673229 18.5117445 C284.91320774 18.51496895 283.88968318 18.51819339 282.83514273 18.52151555 C281.14329464 18.51919265 281.14329464 18.51919265 279.4172678 18.51682281 C278.22175151 18.51908837 277.02623523 18.52135393 275.79449117 18.52368814 C272.4702433 18.52893519 269.14604939 18.529671 265.82180119 18.52849376 C262.23889876 18.52829009 258.65600447 18.53380534 255.07310581 18.53855133 C248.05132109 18.54686566 241.02954476 18.54960653 234.00775553 18.55016371 C228.30134637 18.5506385 222.59493997 18.55269141 216.88853168 18.55586433 C200.71768722 18.56467307 184.54684939 18.56928337 168.37600251 18.56853386 C167.50382263 18.5684939 166.63164275 18.56845395 165.73303318 18.56841278 C164.85979111 18.5683719 163.98654904 18.56833102 163.08684509 18.5682889 C148.93194253 18.56788237 134.77706657 18.57745296 120.62217171 18.59155115 C106.09574129 18.60590547 91.56932384 18.61282185 77.04288614 18.61195737 C68.88429891 18.61162507 60.72573955 18.6143865 52.5671587 18.62513542 C45.62109917 18.63422803 38.67508016 18.63642591 31.72901727 18.629626 C28.18413219 18.62635449 24.63932489 18.62632674 21.09444714 18.63497925 C17.25369415 18.64425764 13.41305556 18.63808465 9.5722971 18.63034821 C8.44885981 18.63549177 7.32542253 18.64063533 6.16794169 18.64593476 C5.13920164 18.64133596 4.11046159 18.63673717 3.0505476 18.63199902 C2.16400797 18.63221638 1.27746833 18.63243375 0.36406386 18.63265771 C-3.32335643 18.26403215 -6.15983046 17.19341899 -9.00720119 14.82061005 C-10.73331102 11.08070541 -10.44117 7.26709946 -9.13220119 3.38311005 C-6.1168652 0.56943226 -4.07769409 0.00711067 0 0 Z " fill="#000000" transform="translate(146.13220119476318,144.61688995361328)"/>
<path d="M0 0 C7.95101977 5.93693695 12.81181416 13.96454285 14.359375 23.76171875 C14.52645838 26.93052092 14.54718197 30.09677453 14.5625 33.26953125 C14.56820007 34.19079803 14.57390015 35.11206482 14.57977295 36.06124878 C14.58920234 38.00957092 14.59574873 39.95790886 14.59960938 41.90625 C14.60927356 44.85576015 14.64029954 47.80456064 14.671875 50.75390625 C14.74784588 64.08969501 14.5373017 76.18715103 5.359375 86.76171875 C-2.88439301 94.6085646 -11.2973132 97.76171875 -22.640625 97.76171875 C-31.25871635 96.94700997 -39.377622 93.85990588 -45.640625 87.76171875 C-52.76626875 78.58199913 -55.10642683 70.61714382 -55.07421875 59.140625 C-55.0794606 58.04129135 -55.08470245 56.9419577 -55.09010315 55.80931091 C-55.09650134 53.49389487 -55.09521506 51.17844623 -55.08666992 48.86303711 C-55.07815933 45.3384361 -55.10695559 41.81545693 -55.13867188 38.29101562 C-55.1402842 36.03255257 -55.13970576 33.77408666 -55.13671875 31.515625 C-55.14795273 30.47161026 -55.15918671 29.42759552 -55.17076111 28.35194397 C-55.07579377 18.28362184 -51.57491321 10.09844333 -44.640625 2.76171875 C-31.65856302 -8.44545195 -14.21017457 -9.11304674 0 0 Z M-32.453125 17.19921875 C-35.52431913 20.7969033 -36.88303314 23.39941716 -36.93115234 28.14379883 C-36.94391205 29.00181595 -36.95667175 29.85983307 -36.96981812 30.74385071 C-36.97204376 31.66369247 -36.97426941 32.58353424 -36.9765625 33.53125 C-36.9832193 34.48561447 -36.9898761 35.43997894 -36.99673462 36.42326355 C-37.00685233 38.44141719 -37.01155191 40.45960423 -37.01123047 42.4777832 C-37.01559462 45.55281304 -37.05189877 48.62639674 -37.08984375 51.70117188 C-37.09571402 53.6653597 -37.09968201 55.62955431 -37.1015625 57.59375 C-37.11593353 58.50751907 -37.13030457 59.42128815 -37.14511108 60.36274719 C-37.1026284 66.35186743 -36.09722961 69.83873734 -32.640625 74.76171875 C-29.0069313 77.99719945 -24.46561698 79.56067742 -19.640625 79.76171875 C-13.46852171 78.5706111 -9.51509205 76.43952882 -5.890625 71.26171875 C-3.45146413 66.38339701 -3.46659168 61.71656516 -3.4375 56.33984375 C-3.42894989 55.11161896 -3.42894989 55.11161896 -3.42022705 53.85858154 C-3.41079415 52.12708826 -3.40424987 50.39557717 -3.40039062 48.6640625 C-3.3907101 46.03483137 -3.35968145 43.40639077 -3.328125 40.77734375 C-3.32159162 39.08984836 -3.31634247 37.40234741 -3.3125 35.71484375 C-3.3001532 34.93747864 -3.2878064 34.16011353 -3.27508545 33.35919189 C-3.29821126 27.6008658 -4.05580439 21.78137574 -7.95111084 17.23077393 C-15.83569641 10.17536904 -24.52648801 10.32946669 -32.453125 17.19921875 Z " fill="#000000" transform="translate(182.640625,321.23828125)"/>
<path d="M0 0 C5.77457713 4.68895663 10.97171386 10.13135769 12.32421875 17.6484375 C12.45956695 21.59742032 12.20497937 23.21960387 9.890625 26.5859375 C6.17505274 29.11568883 4.3648767 29.3737503 -0.046875 28.5859375 C-3.09084719 26.17907577 -4.91351273 23.79673593 -6.984375 20.5234375 C-10.12747966 16.0468945 -13.60637656 13.6262554 -18.984375 12.6484375 C-23.3176153 12.3176558 -26.27140646 13.37764458 -30.046875 15.5859375 C-33.32093964 18.69079983 -35.84583221 21.84479635 -36.18731689 26.50080872 C-36.1941449 27.22217514 -36.2009729 27.94354156 -36.20800781 28.68676758 C-36.21761536 29.50804642 -36.2272229 30.32932526 -36.23712158 31.17549133 C-36.2434964 32.50208015 -36.2434964 32.50208015 -36.25 33.85546875 C-36.25855011 35.22610725 -36.25855011 35.22610725 -36.26727295 36.62443542 C-36.27671918 38.5586125 -36.28325543 40.49280565 -36.28710938 42.42700195 C-36.29680373 45.37675286 -36.32782598 48.32580357 -36.359375 51.27539062 C-36.36590648 53.15624587 -36.37115638 55.03710609 -36.375 56.91796875 C-36.3873468 57.7962886 -36.3996936 58.67460846 -36.41241455 59.57954407 C-36.38981953 65.83408189 -35.35584277 70.1411481 -30.921875 74.8359375 C-26.50515779 77.52437406 -22.07301998 79.05691176 -16.86328125 78.24609375 C-11.80862654 76.63127967 -8.98229633 74.07540542 -6.046875 69.5859375 C-5.14936063 67.2458215 -4.58811514 65.04611995 -4.046875 62.5859375 C-4.85511719 62.64394531 -5.66335938 62.70195312 -6.49609375 62.76171875 C-15.19140665 63.12883087 -15.19140665 63.12883087 -19.296875 60.5234375 C-21.51902856 56.79339403 -21.81001099 54.85949906 -21.046875 50.5859375 C-18.50550341 47.42639445 -16.90064841 45.87052864 -13.046875 44.5859375 C-9.92581007 44.35985598 -6.80030442 44.40078617 -3.671875 44.3984375 C-2.82109375 44.38619141 -1.9703125 44.37394531 -1.09375 44.36132812 C4.30753886 44.34870829 8.49439533 44.44463682 12.73828125 48.140625 C14.61614143 51.9204979 14.44058161 55.54560385 14.390625 59.7109375 C14.38450195 60.56389404 14.37837891 61.41685059 14.37207031 62.2956543 C14.21236733 68.73598409 13.23419605 73.95798924 9.953125 79.5859375 C9.375625 80.6378125 8.798125 81.6896875 8.203125 82.7734375 C1.35586642 91.33251073 -6.51436729 96.03248321 -17.421875 97.5234375 C-27.48988053 98.09225137 -36.37918251 95.07398499 -44.046875 88.5859375 C-51.27971572 82.04193875 -55.04463493 73.87787587 -55.56445312 64.10546875 C-55.59039109 62.20329638 -55.59419184 60.30071886 -55.578125 58.3984375 C-55.5819519 57.37468018 -55.58577881 56.35092285 -55.58972168 55.29614258 C-55.59242352 53.14826464 -55.58518467 51.0003528 -55.56835938 48.85253906 C-55.54692568 45.59364387 -55.56822137 42.33695288 -55.59375 39.078125 C-55.59110642 36.97655771 -55.58598081 34.87499177 -55.578125 32.7734375 C-55.58622192 31.81477783 -55.59431885 30.85611816 -55.60266113 29.8684082 C-55.45410021 18.9736239 -52.04001555 10.56143512 -44.4765625 2.75 C-31.71998708 -8.61196589 -14.16879328 -9.50345891 0 0 Z " fill="#000000" transform="translate(268.046875,321.4140625)"/>
<path d="M0 0 C1.27874683 -0.00445668 1.27874683 -0.00445668 2.58332694 -0.0090034 C5.45063153 -0.01770104 8.31789443 -0.01919954 11.18521118 -0.02069092 C13.23662913 -0.02531829 15.28804621 -0.03034284 17.33946228 -0.03573608 C22.92002056 -0.04886876 28.50056681 -0.05530658 34.08113813 -0.05974674 C37.56556454 -0.0626757 41.04998764 -0.06678014 44.53441238 -0.07125092 C55.43044373 -0.08492732 66.32646754 -0.09459362 77.22250688 -0.09845281 C89.811707 -0.10293588 102.40079866 -0.1204948 114.9899658 -0.1494534 C124.71401772 -0.1710472 134.43803908 -0.18115583 144.16211474 -0.18249393 C149.97329602 -0.18354348 155.78437537 -0.18948351 161.59553146 -0.20731354 C167.06036664 -0.22375469 172.52502284 -0.22596897 177.98987389 -0.21717453 C179.99702749 -0.21640207 182.00419057 -0.2207743 184.01132011 -0.23063278 C186.74872844 -0.2432911 189.48549698 -0.23750888 192.22290039 -0.22705078 C193.01949802 -0.23510719 193.81609565 -0.24316359 194.63683259 -0.25146413 C199.18263784 -0.21077029 202.14737949 0.28422852 205.73843384 3.14044189 C208.06379447 6.62848285 208.07301281 8.04184943 207.73843384 12.14044189 C206.53136504 15.48309394 205.81786534 16.08748756 202.73843384 18.14044189 C199.89935532 18.33868115 197.15804083 18.41862879 194.31828308 18.40786743 C193.01397658 18.4146641 193.01397658 18.4146641 191.68332046 18.42159808 C188.75836016 18.43429757 185.83358474 18.43261815 182.90859985 18.43096924 C180.81614949 18.43695098 178.72370133 18.4437557 176.6312561 18.45132446 C170.9391862 18.46902659 165.24717638 18.47368158 159.55508161 18.47495604 C154.80832465 18.47685242 150.06158179 18.48420686 145.31483024 18.49130023 C134.11935429 18.50759739 122.92391052 18.51246792 111.72842407 18.51104736 C100.16710139 18.50984521 88.60596519 18.53095872 77.04468971 18.56253469 C67.12871626 18.58865521 57.21280387 18.59941645 47.29679626 18.59813654 C41.36992751 18.59762572 35.44322443 18.60337561 29.51638985 18.62449265 C23.94398595 18.6438042 18.37190699 18.64404811 12.79949188 18.62945938 C10.75160436 18.62736144 8.70369688 18.63213039 6.65584373 18.6441803 C3.86536549 18.6595395 1.07602079 18.65038677 -1.71443176 18.63491821 C-2.52950602 18.64520534 -3.34458029 18.65549247 -4.18435377 18.66609132 C-7.79173784 18.62173863 -9.83254388 18.47125751 -12.73326206 16.23453712 C-15.30935732 12.70474958 -15.69138137 10.52455698 -15.26156616 6.14044189 C-11.16475972 -0.21667156 -7.04110569 -0.00761616 0 0 Z " fill="#000000" transform="translate(151.26156616210938,58.85955810546875)"/>
<path d="M0 0 C0.85981057 -0.00367669 1.71962114 -0.00735338 2.60548657 -0.01114148 C5.50353243 -0.02220634 8.40154247 -0.02602688 11.29960632 -0.02983093 C13.37058121 -0.03609341 15.44155496 -0.04274002 17.51252747 -0.04974365 C23.15099077 -0.06717218 28.78944558 -0.07771023 34.42792916 -0.08594918 C37.9480296 -0.09109486 41.46812737 -0.09717075 44.98822594 -0.10346031 C55.99424947 -0.1225166 67.00026627 -0.13674743 78.00630313 -0.14507228 C90.72515563 -0.15485067 103.44383437 -0.18118416 116.16262561 -0.22157317 C125.98432037 -0.25169579 135.80596521 -0.26653745 145.62770528 -0.26985329 C151.49818221 -0.27220798 157.36847361 -0.28122283 163.23890114 -0.30631447 C168.76039303 -0.32953306 174.28157641 -0.33385343 179.8031044 -0.32355309 C181.83122596 -0.32305612 183.85936238 -0.32942371 185.88743782 -0.34310913 C188.65352167 -0.36073232 191.4184868 -0.35376926 194.18457031 -0.34057617 C195.39216278 -0.35703004 195.39216278 -0.35703004 196.62415105 -0.37381631 C200.38945081 -0.33037294 202.55488382 0.00121063 205.75764751 2.05265522 C208.1732119 4.55100346 208.71172106 5.50781494 209.09526062 8.95967102 C208.71111704 12.87793552 207.49019745 14.36010369 204.78276062 17.14717102 C201.57617405 18.7504643 198.0881219 18.29514208 194.56552124 18.29434204 C193.70571067 18.29801873 192.8459001 18.30169542 191.96003467 18.30548352 C189.06198881 18.31654838 186.16397877 18.32036892 183.26591492 18.32417297 C181.19494003 18.33043545 179.12396628 18.33708206 177.05299377 18.34408569 C171.41453047 18.36151423 165.77607566 18.37205227 160.13759208 18.38029122 C156.61749164 18.3854369 153.09739387 18.39151279 149.5772953 18.39780235 C138.57127177 18.41685864 127.56525497 18.43108947 116.55921811 18.43941432 C103.84036561 18.44919271 91.12168687 18.4755262 78.40289563 18.51591522 C68.58120087 18.54603783 58.75955603 18.56087949 48.93781596 18.56419533 C43.06733903 18.56655002 37.19704763 18.57556487 31.3266201 18.60065651 C25.80512821 18.6238751 20.28394483 18.62819548 14.76241684 18.61789513 C12.73429528 18.61739816 10.70615886 18.62376575 8.67808342 18.63745117 C5.91199957 18.65507436 3.14703444 18.6481113 0.38095093 18.63491821 C-0.82664154 18.65137208 -0.82664154 18.65137208 -2.05862981 18.66815835 C-5.82392957 18.62471498 -7.98936258 18.29313141 -11.19212627 16.24168682 C-13.60769066 13.74333858 -14.14619982 12.7865271 -14.52973938 9.33467102 C-14.1455958 5.41640652 -12.92467621 3.93423835 -10.21723938 1.14717102 C-7.01065281 -0.45612226 -3.52260065 -0.00080004 0 0 Z " fill="#000000" transform="translate(150.2172393798828,101.85282897949219)"/>
<path d="M0 0 C2.19036865 1.56158447 2.19036865 1.56158447 4 4 C4.37421307 6.76649871 4.50754576 9.12834634 4.45410156 11.88964844 C4.45468567 12.68027176 4.45526978 13.47089508 4.45587158 14.28547668 C4.45308899 16.89389233 4.42198983 19.50115947 4.390625 22.109375 C4.38316321 23.91969173 4.37746998 25.73001654 4.37347412 27.54034424 C4.35821288 32.30151735 4.31892691 37.06220116 4.2746582 41.82318115 C4.23371603 46.68283469 4.21546536 51.5425674 4.1953125 56.40234375 C4.15243309 65.93511063 4.08417585 75.4675146 4 85 C5.13018555 84.98428955 6.26037109 84.9685791 7.42480469 84.95239258 C11.62167217 84.89805405 15.81850861 84.86363569 20.015625 84.83520508 C21.83143342 84.82012738 23.64720547 84.79966202 25.46289062 84.77368164 C28.07431008 84.7372532 30.68524765 84.72026362 33.296875 84.70703125 C34.51271271 84.68380547 34.51271271 84.68380547 35.75311279 84.66011047 C39.10611337 84.65911142 41.53124087 84.73922149 44.49487305 86.38793945 C46.91025731 88.97492766 46.98710753 91.34631165 47.23828125 94.7734375 C47 97 47 97 44.75 100 C40.22116662 103.29369701 36.24916097 103.16019833 30.859375 103.16796875 C30.0589679 103.17129715 29.25856079 103.17462555 28.43389893 103.17805481 C26.73930434 103.18311678 25.04469979 103.18546336 23.35009766 103.18530273 C20.77359271 103.18748006 18.19752243 103.20561789 15.62109375 103.22460938 C13.97135562 103.22754539 12.32161547 103.22952879 10.671875 103.23046875 C9.90808533 103.23765427 9.14429565 103.24483978 8.35736084 103.25224304 C2.16329201 103.22615763 -2.9634478 102.33159182 -8.25 98.875 C-13.54387444 93.34049491 -14.45000672 87.0770301 -14.38818359 79.64379883 C-14.39344055 78.85086929 -14.39869751 78.05793976 -14.40411377 77.24098206 C-14.41721086 74.64612552 -14.40861521 72.05189291 -14.3984375 69.45703125 C-14.4004606 67.64198184 -14.403374 65.82693323 -14.40713501 64.0118866 C-14.41154388 60.22016612 -14.40517149 56.42865852 -14.39111328 52.63696289 C-14.37398547 47.78132941 -14.38389434 42.92619215 -14.40183067 38.07057667 C-14.41267611 34.32761399 -14.40921931 30.58476883 -14.4014473 26.8418026 C-14.3994493 25.05126575 -14.4018905 23.26071816 -14.40888596 21.47019386 C-14.41651708 18.96918091 -14.40487505 16.46897082 -14.38818359 13.96801758 C-14.39425629 13.23180176 -14.40032898 12.49558594 -14.40658569 11.73706055 C-14.35201214 7.31624531 -13.68380351 4.53514809 -11 1 C-7.44544736 -1.79286279 -4.2131487 -1.05328717 0 0 Z " fill="#000000" transform="translate(73,316)"/>
<path d="M0 0 C0.81170654 -0.00832352 1.62341309 -0.01664703 2.4597168 -0.02522278 C5.14653298 -0.04934381 7.83310651 -0.05809738 10.52001953 -0.06469727 C12.38705519 -0.07366196 14.25409011 -0.08278377 16.12112427 -0.09205627 C20.03682197 -0.10855451 23.95243408 -0.11624791 27.86816406 -0.11914062 C32.88441734 -0.12452549 37.89986572 -0.16220605 42.91589165 -0.20788479 C46.77294854 -0.23763522 50.62981114 -0.24486374 54.48697281 -0.24586678 C56.33615938 -0.25007305 58.18534632 -0.26252368 60.03442001 -0.28338432 C62.62250605 -0.31025779 65.20872043 -0.3054862 67.796875 -0.29296875 C68.55964752 -0.30780304 69.32242004 -0.32263733 70.10830688 -0.33792114 C74.11843494 -0.2827231 75.84316074 0.15702981 79.00296021 2.7127533 C80.99233187 5.26092459 81.69695247 6.21418575 81.59033203 9.36889648 C81.02783203 13.30639648 81.02783203 13.30639648 79.15283203 15.74389648 C75.222668 18.63372298 71.98957992 18.46669195 67.26098633 18.48339844 C66.45917938 18.48996964 65.65737244 18.49654083 64.83126831 18.50331116 C62.17152823 18.52306009 59.51184466 18.53471022 56.85205078 18.54467773 C55.49060912 18.55079103 55.49060912 18.55079103 54.10166359 18.55702782 C49.29783988 18.57789527 44.4940448 18.59219411 39.69018555 18.6015625 C34.72673258 18.61262895 29.76372768 18.64702953 24.80043316 18.6867342 C20.98542951 18.71287174 17.17053308 18.72125178 13.35544777 18.72484398 C11.52580552 18.72971729 9.6961683 18.74135242 7.86661339 18.75988197 C5.30500095 18.78421315 2.74455379 18.78331971 0.18286133 18.77636719 C-0.5721315 18.78917725 -1.32712433 18.8019873 -2.10499573 18.81518555 C-5.7175097 18.77947065 -7.81710234 18.40186749 -10.9193573 16.49186707 C-13.75418909 13.47383838 -13.97216797 11.402019 -13.97216797 7.30639648 C-10.95394531 0.5153955 -6.85420469 0.00594116 0 0 Z " fill="#000000" transform="translate(362.97216796875,357.693603515625)"/>
<path d="M0 0 C0.79073914 -0.00832352 1.58147827 -0.01664703 2.3961792 -0.02522278 C5.00782203 -0.04930007 7.61921501 -0.05809189 10.23095703 -0.06469727 C12.04932733 -0.07366506 13.86769688 -0.08278693 15.68606567 -0.09205627 C19.49743441 -0.10854245 23.30871534 -0.11624576 27.12011719 -0.11914062 C31.99836955 -0.12452523 36.87579418 -0.16220982 41.75381279 -0.20788479 C45.50968422 -0.23766071 49.2653564 -0.24486429 53.0213356 -0.24586678 C54.81945717 -0.25006773 56.61757941 -0.26249707 58.41558456 -0.28338432 C60.93392174 -0.31031181 63.45034125 -0.30547042 65.96875 -0.29296875 C66.70765472 -0.30780304 67.44655945 -0.32263733 68.20785522 -0.33792114 C73.92372236 -0.25732406 76.26293745 1.37531462 80.11376953 5.30639648 C80.87548828 7.36889648 80.87548828 7.36889648 80.80126953 9.30639648 C80.80513672 9.94577148 80.80900391 10.58514648 80.81298828 11.24389648 C79.68055672 14.58425327 77.83634507 16.10074464 75.11376953 18.30639648 C72.14999203 18.79618159 69.76432196 18.98237554 66.80688477 18.9375 C65.57184708 18.94823296 65.57184708 18.94823296 64.31185913 18.95918274 C61.59812451 18.97605207 58.88604588 18.95668012 56.17236328 18.93530273 C54.28336958 18.93613152 52.39437595 18.93859126 50.50538635 18.94261169 C46.55016321 18.94546837 42.59550677 18.93077982 38.64038086 18.90332031 C33.57030142 18.86921436 28.50123369 18.87526469 23.43110561 18.89398289 C19.53200341 18.90454956 15.63313677 18.89561849 11.73405647 18.88059807 C9.86455039 18.87541492 7.99501973 18.87589967 6.12551689 18.88214302 C3.51355925 18.88759218 0.90305212 18.86723167 -1.70874023 18.83984375 C-2.48131668 18.84636963 -3.25389313 18.85289551 -4.04988098 18.85961914 C-7.54232497 18.7973333 -9.51511928 18.58689048 -12.33872986 16.45274353 C-14.37685036 13.62591821 -14.81652319 11.7917602 -14.88623047 8.30639648 C-13.77251204 5.25832501 -12.95287317 3.06519192 -10.26583862 1.15367126 C-6.87004496 -0.0554229 -3.56080405 0.00318562 0 0 Z " fill="#000000" transform="translate(363.88623046875,442.693603515625)"/>
<path d="M0 0 C0.79073914 -0.00832352 1.58147827 -0.01664703 2.3961792 -0.02522278 C5.00782203 -0.04930007 7.61921501 -0.05809189 10.23095703 -0.06469727 C12.04932733 -0.07366506 13.86769688 -0.08278693 15.68606567 -0.09205627 C19.49743441 -0.10854245 23.30871534 -0.11624576 27.12011719 -0.11914062 C31.99836955 -0.12452523 36.87579418 -0.16220982 41.75381279 -0.20788479 C45.50968422 -0.23766071 49.2653564 -0.24486429 53.0213356 -0.24586678 C54.81945717 -0.25006773 56.61757941 -0.26249707 58.41558456 -0.28338432 C60.93392174 -0.31031181 63.45034125 -0.30547042 65.96875 -0.29296875 C66.70765472 -0.30780304 67.44655945 -0.32263733 68.20785522 -0.33792114 C73.92372236 -0.25732406 76.26293745 1.37531462 80.11376953 5.30639648 C80.87548828 7.36889648 80.87548828 7.36889648 80.80126953 9.30639648 C80.80513672 9.94577148 80.80900391 10.58514648 80.81298828 11.24389648 C79.68055672 14.58425327 77.83634507 16.10074464 75.11376953 18.30639648 C72.14999203 18.79618159 69.76432196 18.98237554 66.80688477 18.9375 C65.57184708 18.94823296 65.57184708 18.94823296 64.31185913 18.95918274 C61.59812451 18.97605207 58.88604588 18.95668012 56.17236328 18.93530273 C54.28336958 18.93613152 52.39437595 18.93859126 50.50538635 18.94261169 C46.55016321 18.94546837 42.59550677 18.93077982 38.64038086 18.90332031 C33.57030142 18.86921436 28.50123369 18.87526469 23.43110561 18.89398289 C19.53200341 18.90454956 15.63313677 18.89561849 11.73405647 18.88059807 C9.86455039 18.87541492 7.99501973 18.87589967 6.12551689 18.88214302 C3.51355925 18.88759218 0.90305212 18.86723167 -1.70874023 18.83984375 C-2.48131668 18.84636963 -3.25389313 18.85289551 -4.04988098 18.85961914 C-7.54232497 18.7973333 -9.51511928 18.58689048 -12.33872986 16.45274353 C-14.37685036 13.62591821 -14.81652319 11.7917602 -14.88623047 8.30639648 C-13.77251204 5.25832501 -12.95287317 3.06519192 -10.26583862 1.15367126 C-6.87004496 -0.0554229 -3.56080405 0.00318562 0 0 Z " fill="#000000" transform="translate(363.88623046875,314.693603515625)"/>
<path d="M0 0 C0.82160614 -0.00861557 1.64321228 -0.01723114 2.48971558 -0.02610779 C5.20383265 -0.04879808 7.9169197 -0.04202321 10.63110352 -0.03295898 C12.51913256 -0.03819349 14.40715898 -0.04446933 16.29518127 -0.05174255 C20.25208847 -0.0621526 24.20863619 -0.05757703 28.16552734 -0.04296875 C33.23451514 -0.02578609 38.3023689 -0.04926645 43.37123013 -0.08445835 C47.27036541 -0.10642793 51.16922921 -0.10499185 55.06840706 -0.09669304 C56.93710638 -0.09587316 58.80582556 -0.1027436 60.67446709 -0.11746407 C63.28889338 -0.13490081 65.90128046 -0.12037592 68.515625 -0.09765625 C69.28617722 -0.10934845 70.05672943 -0.12104065 70.85063171 -0.13308716 C74.81314239 -0.06308611 76.64208867 0.39313266 79.80653381 2.85414124 C81.82250977 5.53344727 81.82250977 5.53344727 82.38500977 9.03344727 C81.73839325 13.05683889 80.72232651 14.71648243 77.82250977 17.53344727 C74.23725155 18.72853334 70.9654913 18.68884817 67.23339844 18.69458008 C66.46231247 18.69954498 65.6912265 18.70450989 64.89677429 18.70962524 C62.34466663 18.72423534 59.79262114 18.7310472 57.24047852 18.73657227 C55.46552021 18.74232499 53.69056191 18.74808271 51.91560364 18.75384521 C48.19243073 18.76435215 44.4692794 18.77019672 40.74609375 18.77368164 C35.98126249 18.77916348 31.2167174 18.80318611 26.45197582 18.83165359 C22.78448155 18.85030175 19.11705588 18.85548675 15.4495182 18.85701752 C13.69328562 18.86004003 11.93705412 18.86805501 10.18086815 18.8812027 C7.72029396 18.89830771 5.26041464 18.89637219 2.79980469 18.88989258 C2.0780304 18.89910736 1.3562561 18.90832214 0.61260986 18.91781616 C-4.04194714 18.87952927 -7.23140853 18.00388156 -11.17749023 15.53344727 C-12.99827747 12.60435476 -13.19306477 10.91502328 -13.05249023 7.47094727 C-10.97225397 0.48729693 -6.62994311 -0.05600249 0 0 Z " fill="#000000" transform="translate(362.177490234375,400.466552734375)"/>
<path d="M0 0 C0.82160614 -0.00861557 1.64321228 -0.01723114 2.48971558 -0.02610779 C5.20383265 -0.04879808 7.9169197 -0.04202321 10.63110352 -0.03295898 C12.51913256 -0.03819349 14.40715898 -0.04446933 16.29518127 -0.05174255 C20.25208847 -0.0621526 24.20863619 -0.05757703 28.16552734 -0.04296875 C33.23451514 -0.02578609 38.3023689 -0.04926645 43.37123013 -0.08445835 C47.27036541 -0.10642793 51.16922921 -0.10499185 55.06840706 -0.09669304 C56.93710638 -0.09587316 58.80582556 -0.1027436 60.67446709 -0.11746407 C63.28889338 -0.13490081 65.90128046 -0.12037592 68.515625 -0.09765625 C69.28617722 -0.10934845 70.05672943 -0.12104065 70.85063171 -0.13308716 C74.81314239 -0.06308611 76.64208867 0.39313266 79.80653381 2.85414124 C81.82250977 5.53344727 81.82250977 5.53344727 82.38500977 9.03344727 C81.73839325 13.05683889 80.72232651 14.71648243 77.82250977 17.53344727 C74.23725155 18.72853334 70.9654913 18.68884817 67.23339844 18.69458008 C66.46231247 18.69954498 65.6912265 18.70450989 64.89677429 18.70962524 C62.34466663 18.72423534 59.79262114 18.7310472 57.24047852 18.73657227 C55.46552021 18.74232499 53.69056191 18.74808271 51.91560364 18.75384521 C48.19243073 18.76435215 44.4692794 18.77019672 40.74609375 18.77368164 C35.98126249 18.77916348 31.2167174 18.80318611 26.45197582 18.83165359 C22.78448155 18.85030175 19.11705588 18.85548675 15.4495182 18.85701752 C13.69328562 18.86004003 11.93705412 18.86805501 10.18086815 18.8812027 C7.72029396 18.89830771 5.26041464 18.89637219 2.79980469 18.88989258 C2.0780304 18.89910736 1.3562561 18.90832214 0.61260986 18.91781616 C-4.04194714 18.87952927 -7.23140853 18.00388156 -11.17749023 15.53344727 C-12.99827747 12.60435476 -13.19306477 10.91502328 -13.05249023 7.47094727 C-10.97225397 0.48729693 -6.62994311 -0.05600249 0 0 Z " fill="#000000" transform="translate(362.177490234375,272.466552734375)"/>
</svg>
