<?xml version="1.0" encoding="UTF-8"?>
<svg version="1.1" xmlns="http://www.w3.org/2000/svg" width="512" height="512">
<path d="M0 0 C1.01790619 0.00215515 2.03581238 0.0043103 3.08456421 0.00653076 C17.69363523 0.05620146 32.02575853 0.30709809 46.375 3.3125 C47.34985352 3.51117676 48.32470703 3.70985352 49.32910156 3.91455078 C97.7109774 14.03517194 141.69928269 35.9516877 177.375 70.3125 C178.3640332 71.26068604 178.3640332 71.26068604 179.37304688 72.22802734 C188.86130305 81.37247479 197.6012044 90.66984009 205.375 101.3125 C206.23306152 102.46355017 207.09113451 103.61459177 207.94921875 104.765625 C213.98736829 112.95680614 219.34595521 121.47054105 224.375 130.3125 C224.73948242 130.94430176 225.10396484 131.57610352 225.47949219 132.22705078 C247.08534998 169.97532572 256.85198095 212.74189997 256.6875 255.9375 C256.68534485 256.95540619 256.6831897 257.97331238 256.68096924 259.02206421 C256.63129854 273.63113523 256.38040191 287.96325853 253.375 302.3125 C253.07698486 303.77478027 253.07698486 303.77478027 252.77294922 305.26660156 C242.65232806 353.6484774 220.7358123 397.63678269 186.375 433.3125 C185.74287598 433.97185547 185.11075195 434.63121094 184.45947266 435.31054688 C175.31502521 444.79880305 166.01765991 453.5387044 155.375 461.3125 C154.22394983 462.17056152 153.07290823 463.02863451 151.921875 463.88671875 C143.73224019 469.92427396 135.22961724 475.30707302 126.375 480.3125 C125.66778809 480.7146875 124.96057617 481.116875 124.23193359 481.53125 C101.09654164 494.5566741 75.92537591 503.30551461 49.9375 508.625 C49.21860596 508.77235596 48.49971191 508.91971191 47.7590332 509.0715332 C33.08339502 511.86090125 18.55831162 512.66142619 3.64770508 512.62817383 C0.70811513 512.6250221 -2.2304558 512.64854926 -5.16992188 512.67382812 C-18.54306192 512.71848737 -31.43916711 511.51301542 -44.625 509.3125 C-46.33055054 509.03031616 -46.33055054 509.03031616 -48.07055664 508.74243164 C-91.33802759 500.97044532 -132.38793216 480.98345309 -165.625 452.3125 C-166.37007813 451.67828125 -167.11515625 451.0440625 -167.8828125 450.390625 C-181.38779833 438.57948485 -194.05918743 425.82889772 -204.625 411.3125 C-205.48149066 410.16255169 -206.33826433 409.01281411 -207.1953125 407.86328125 C-213.23534209 399.67315742 -218.61867614 391.16870382 -223.625 382.3125 C-224.0271875 381.60528809 -224.429375 380.89807617 -224.84375 380.16943359 C-237.8691741 357.03404164 -246.61801461 331.86287591 -251.9375 305.875 C-252.08485596 305.15610596 -252.23221191 304.43721191 -252.3840332 303.6965332 C-255.35789088 288.05024391 -255.99800362 272.57681954 -255.9375 256.6875 C-255.93534485 255.66959381 -255.9331897 254.65168762 -255.93096924 253.60293579 C-255.88129854 238.99386477 -255.63040191 224.66174147 -252.625 210.3125 C-252.42632324 209.33764648 -252.22764648 208.36279297 -252.02294922 207.35839844 C-241.90232806 158.9765226 -219.9858123 114.98821731 -185.625 79.3125 C-184.99287598 78.65314453 -184.36075195 77.99378906 -183.70947266 77.31445312 C-174.56502521 67.82619695 -165.26765991 59.0862956 -154.625 51.3125 C-153.47394983 50.45443848 -152.32290823 49.59636549 -151.171875 48.73828125 C-142.98224019 42.70072604 -134.47961724 37.31792698 -125.625 32.3125 C-124.91778809 31.9103125 -124.21057617 31.508125 -123.48193359 31.09375 C-100.34654164 18.0683259 -75.17537591 9.31948539 -49.1875 4 C-48.46860596 3.85264404 -47.74971191 3.70528809 -47.0090332 3.5534668 C-31.36274391 0.57960912 -15.88931954 -0.06050362 0 0 Z " fill="#E04F5F" transform="translate(255.625,-0.3125)"/>
<path d="M0 0 C0.71688525 -0.00508782 1.43377051 -0.01017564 2.17237955 -0.01541764 C4.58110939 -0.03114732 6.9898092 -0.0396687 9.39857483 -0.04811096 C11.12336925 -0.05764937 12.84816175 -0.06754053 14.57295227 -0.07775879 C20.24535346 -0.10915782 25.91776934 -0.12941824 31.59022522 -0.14796448 C32.55603996 -0.1512618 33.52185469 -0.15455912 34.51693654 -0.15795636 C43.63088837 -0.18874781 52.74484353 -0.21544899 61.85883236 -0.23237514 C73.5037924 -0.25425661 85.14828986 -0.29616802 96.79306501 -0.36581272 C104.98687315 -0.41314633 113.18055694 -0.43732153 121.37449747 -0.44457203 C126.26443456 -0.44951588 131.15385047 -0.46447483 136.04363823 -0.50431633 C140.65096137 -0.5413597 145.25746953 -0.54953477 149.86491394 -0.5363102 C151.54825677 -0.53636386 153.23163732 -0.54654304 154.91484261 -0.56806183 C167.37346339 -0.71871181 176.87097503 1.34179557 186.43788147 9.91062927 C192.23407478 16.17776329 196.10141994 23.9981552 196.16151428 32.56248474 C196.17112183 33.6672818 196.18072937 34.77207886 196.19062805 35.91035461 C196.19700287 37.70099838 196.19700287 37.70099838 196.20350647 39.52781677 C196.20920654 40.75469208 196.21490662 41.98156738 196.22077942 43.24562073 C196.23023191 45.84309526 196.23676438 48.4405818 196.24061584 51.03807068 C196.25032553 55.01272977 196.28134925 58.98687275 196.31288147 62.96141052 C196.31941108 65.48354286 196.32466172 68.00567891 196.32850647 70.52781677 C196.34085327 71.71753082 196.35320007 72.90724487 196.36592102 74.13301086 C196.36291992 75.24411224 196.35991882 76.35521362 196.35682678 77.49998474 C196.36229523 78.96200821 196.36229523 78.96200821 196.36787415 80.4535675 C195.82894539 84.42347906 194.01241036 87.03182781 191.37538147 89.97312927 C187.6428352 91.83940241 184.08460882 91.81702295 180.00038147 91.16062927 C175.87472475 88.79057116 174.4701864 86.58901448 173.00038147 82.16062927 C172.73536682 79.65684509 172.73536682 79.65684509 172.71327209 76.9907074 C172.69985779 75.98616516 172.68644348 74.98162292 172.67262268 73.94664001 C172.66470703 72.33553345 172.66470703 72.33553345 172.65663147 70.69187927 C172.64200867 69.57881409 172.62738586 68.4657489 172.61231995 67.31895447 C172.55014722 62.56365744 172.51047677 57.80823147 172.46864319 53.05271912 C172.43488166 49.57813527 172.3897767 46.10382402 172.34413147 42.62937927 C172.33621582 41.01827271 172.33621582 41.01827271 172.32814026 39.37461853 C172.31472595 38.37007629 172.30131165 37.36553406 172.28749084 36.33055115 C172.27655396 35.01081299 172.27655396 35.01081299 172.26539612 33.66441345 C171.95268681 30.71002353 171.51715704 28.73343102 170.00038147 26.16062927 C165.90736003 24.4556466 162.41184258 23.91214562 158.00187683 23.92012024 C156.82406143 23.91737091 155.64624603 23.91462158 154.43273926 23.91178894 C153.15455826 23.91897949 151.87637726 23.92617004 150.5594635 23.93357849 C149.18913786 23.93414312 147.81881162 23.93382504 146.44848633 23.93269348 C142.74022881 23.93212097 139.03210136 23.94385874 135.323874 23.9578414 C131.44414846 23.97036576 127.56441976 23.9715206 123.68467712 23.97389221 C116.34311824 23.98010197 109.00161911 23.99650596 101.66008651 24.01659119 C93.29977628 24.03896589 84.93946315 24.04994757 76.57913041 24.05998206 C59.38617957 24.08087264 42.19328684 24.11603881 25.00038147 24.16062927 C28.56347205 26.21642718 32.12658293 28.27218992 35.68971157 30.32792187 C36.89863396 31.02541082 38.10755106 31.72290893 39.31646252 32.42041683 C46.7654429 36.71825954 54.21554645 41.01413043 61.66859436 45.30491638 C64.79159626 47.10495619 67.91168014 48.90999531 71.03163147 50.71531677 C74.70910886 52.8429667 78.39493591 54.95380861 82.09413147 57.04344177 C94.96520329 64.35760501 104.82384602 71.06287798 109.56122494 85.91945267 C110.14411983 88.89417876 110.12299743 91.72173093 110.12063599 94.75382996 C110.12191762 95.7451344 110.12191762 95.7451344 110.12322515 96.7564652 C110.12487114 98.96901368 110.11937301 101.18148622 110.11390686 103.39402771 C110.11362477 104.98080443 110.11378314 106.56758127 110.11434937 108.15435791 C110.1146365 112.46184633 110.10875332 116.76930695 110.10177541 121.0767889 C110.0955279 125.5784688 110.09493696 130.08014932 110.09375 134.58183289 C110.09064081 143.10632916 110.08243297 151.63081261 110.07240051 160.15530324 C110.06122659 169.86016728 110.05572569 179.56503193 110.05070508 189.2699008 C110.04025003 209.23348411 110.02265854 229.19705588 110.00038147 249.16062927 C117.74198623 249.09364097 125.48308552 249.00383824 133.22425842 248.8981781 C135.85766083 248.86492602 138.49113455 248.83689503 141.12464905 248.81419373 C144.91035858 248.78065398 148.69541436 248.72833607 152.48085022 248.67234802 C154.24672737 248.66276314 154.24672737 248.66276314 156.04827881 248.65298462 C157.14904251 248.63319046 158.24980621 248.6133963 159.38392639 248.59300232 C160.34989243 248.58189926 161.31585846 248.5707962 162.31109619 248.55935669 C165.49350549 248.08751614 167.3959936 247.01919545 170.00038147 245.16062927 C171.9784903 242.27103414 172.24740267 239.94437571 172.23988342 236.48728943 C172.24361465 235.56598236 172.24734589 234.64467529 172.25119019 233.69544983 C172.24498909 232.21254959 172.24498909 232.21254959 172.23866272 230.69969177 C172.25408122 228.59812281 172.27038476 226.49656018 172.28749084 224.39500427 C172.30394779 221.08789573 172.31287211 217.78125198 172.30580139 214.47410583 C172.30318002 211.27793477 172.33131141 208.08317434 172.36366272 204.88719177 C172.35345596 203.90264008 172.34324921 202.91808838 172.33273315 201.90370178 C172.39713523 197.37372007 172.49852943 194.16129409 175.41517639 190.55271912 C179.2244751 187.02797563 181.62924908 186.76871874 186.67225647 186.80125427 C190.59042383 187.40607205 192.30396963 189.32939684 195.00038147 192.16062927 C196.210823 194.58151234 196.15304405 196.17327066 196.19325256 198.87889099 C196.20931549 199.86106598 196.22537842 200.84324097 196.2419281 201.85517883 C196.28657236 206.38407173 196.32751102 210.91281701 196.35047913 215.44187927 C196.36695732 217.81990908 196.39413797 220.19789105 196.43251038 222.57566833 C196.48775791 226.01831058 196.5092345 229.45978862 196.52381897 232.90281677 C196.54648834 233.95016998 196.56915771 234.99752319 196.59251404 236.07661438 C196.56461224 246.00068423 193.56223331 255.42728634 186.58241272 262.70750427 C176.87260622 271.62614135 166.41900095 273.77611712 153.45741272 273.55125427 C152.20780258 273.54559448 150.95819244 273.53993469 149.67071533 273.53410339 C146.38745767 273.51565141 143.10502302 273.47987198 139.82203674 273.43528748 C136.45645591 273.39398197 133.0907534 273.37601804 129.72499084 273.35594177 C123.14980591 273.31207091 116.57516081 273.24530719 110.00038147 273.16062927 C110.02394714 274.03630554 110.02394714 274.03630554 110.04798889 274.92967224 C110.11120175 277.63155523 110.1496407 280.33328186 110.18788147 283.03562927 C110.21301819 283.95344177 110.23815491 284.87125427 110.26405334 285.81687927 C110.38459453 297.22811127 107.13093086 306.40012368 99.44178772 314.87937927 C91.1942299 322.63247919 82.2031166 324.71574942 71.18788147 324.72703552 C61.5133529 323.8544032 53.07168619 318.77136653 44.93788147 313.84812927 C42.82247097 312.59081946 40.70656826 311.33433752 38.59022522 310.07859802 C37.50596252 309.43197205 36.42169983 308.78534607 35.30458069 308.11912537 C29.89923936 304.91522052 24.44847882 301.79106617 19.00038147 298.66062927 C16.8361482 297.41092496 14.67208571 296.16092485 12.50819397 294.91062927 C8.11554345 292.37482982 3.71326452 289.85679563 -0.69493103 287.34812927 C-2.83827352 286.11916022 -4.9815069 284.89000086 -7.12461853 283.66062927 C-8.10172791 283.10955505 -9.07883728 282.55848083 -10.08555603 281.9907074 C-18.19504426 277.31869078 -25.46688718 272.68337843 -29.43711853 263.91062927 C-29.91020447 262.89484802 -30.38329041 261.87906677 -30.87071228 260.83250427 C-32.9820206 255.83549773 -33.14792164 251.56338301 -33.14678955 246.21139526 C-33.15046624 245.28483771 -33.15414293 244.35828015 -33.15793103 243.4036451 C-33.16898204 240.28544352 -33.17281415 237.16727525 -33.17662048 234.04905701 C-33.18288415 231.81856174 -33.18953086 229.58806753 -33.1965332 227.35757446 C-33.21395386 221.28702997 -33.22449827 215.21649336 -33.23273873 209.14593005 C-33.23788753 205.35324704 -33.24396337 201.56056649 -33.25024986 197.76788521 C-33.26712208 187.26187058 -33.28175588 176.75585709 -33.2889986 166.2498312 C-33.29090843 163.52372677 -33.29282877 160.79762234 -33.29478455 158.07151794 C-33.29526829 157.39397739 -33.29575203 156.71643683 -33.29625043 156.01836473 C-33.30454425 145.05156339 -33.32986958 134.08487134 -33.36236522 123.11811768 C-33.3954756 111.85175133 -33.41311857 100.58543837 -33.41664284 89.31901699 C-33.41899296 82.99623989 -33.42794853 76.67363546 -33.45310402 70.35090446 C-33.4763996 64.39930387 -33.48061177 58.44798945 -33.47034264 52.49635506 C-33.4698475 50.31552808 -33.47616118 48.13468696 -33.48989868 45.9539032 C-33.50764762 42.96851108 -33.50049625 39.9841426 -33.48736572 36.99874878 C-33.49833497 36.14278734 -33.50930421 35.2868259 -33.52060586 34.40492624 C-33.41337306 24.25417791 -29.41662907 16.68575625 -22.51524353 9.43016052 C-15.67286936 3.25714905 -9.20141369 0.04912863 0 0 Z " fill="#FEFEFE" transform="translate(163.99961853027344,103.83937072753906)"/>
<path d="M0 0 C5.28151953 2.46179437 9.06650592 6.79660115 13.109375 10.87890625 C13.87679016 11.64677963 14.64420532 12.41465302 15.43487549 13.20579529 C17.05091851 14.82485232 18.66453751 16.44633203 20.27587891 18.07006836 C22.74978262 20.56228101 25.23164766 23.0463463 27.71484375 25.52929688 C29.2843279 27.10369455 30.85335439 28.67854863 32.421875 30.25390625 C33.16661072 30.99975479 33.91134644 31.74560333 34.6786499 32.51405334 C35.36316223 33.20494553 36.04767456 33.89583771 36.75292969 34.60766602 C37.65963409 35.52008812 37.65963409 35.52008812 38.58465576 36.45094299 C41.33948123 39.46602694 41.67272388 42.38174193 41.55541992 46.359375 C40.85830614 49.67365308 39.64428715 50.98430203 37.32421875 53.4375 C36.09832031 54.74074219 36.09832031 54.74074219 34.84765625 56.0703125 C33.90014922 57.04853588 32.95082707 58.02500337 32 59 C31.48300537 59.53334961 30.96601074 60.06669922 30.43334961 60.61621094 C26.98509259 64.1655703 23.50451414 67.68126283 20.00512695 71.18017578 C18.16784321 73.01968055 16.33875661 74.86709763 14.50976562 76.71484375 C13.33382167 77.89371649 12.15740674 79.07211966 10.98046875 80.25 C10.43875534 80.79889893 9.89704193 81.34779785 9.33891296 81.91333008 C5.28455842 85.94328413 2.33514766 88.27495411 -3.4375 88.375 C-6.79883618 88.29760081 -7.94646375 88.03189393 -10.9375 86.25 C-13.78206465 83.14683856 -14.82909642 81.31026074 -15.375 77.125 C-14.60909792 70.74248268 -9.68478377 66.40846569 -5.25 62.125 C-4.74339844 61.62742187 -4.23679687 61.12984375 -3.71484375 60.6171875 C-2.48114693 59.40676798 -1.24122216 58.20270147 0 57 C-1.08692642 57.00079559 -2.17385284 57.00159119 -3.29371643 57.00241089 C-13.54891148 57.00601692 -23.80360591 56.97817211 -34.05864048 56.9197216 C-39.33063598 56.89067861 -44.60218716 56.8726262 -49.87426758 56.87988281 C-54.964479 56.88648154 -60.05381286 56.86395972 -65.1438427 56.82144547 C-67.08341281 56.81032398 -69.02307202 56.80960545 -70.96264839 56.81957626 C-73.68513168 56.83177528 -76.40494716 56.80662263 -79.12719727 56.77294922 C-79.92489532 56.78517014 -80.72259338 56.79739105 -81.54446411 56.8099823 C-86.93344241 56.69027064 -89.73162838 55.22572464 -93.68302822 51.57829475 C-95.74875815 49.1026679 -96.01686719 46.85100652 -96.375 43.6875 C-95.87239265 38.74519437 -94.51987555 37.43987838 -91 34 C-87.19716882 31.33169447 -83.01884833 31.7328249 -78.55957031 31.77294922 C-77.2858532 31.77251114 -77.2858532 31.77251114 -75.98640442 31.77206421 C-73.18354017 31.77345602 -70.38094273 31.78901024 -67.578125 31.8046875 C-65.63328191 31.80841816 -63.68843695 31.81126488 -61.74359131 31.81326294 C-56.62749025 31.82089523 -51.51150293 31.8405403 -46.39544678 31.8626709 C-41.17380309 31.883138 -35.952141 31.89226651 -30.73046875 31.90234375 C-20.48692922 31.92378652 -10.24347407 31.95791765 0 32 C-1.12116295 30.71785438 -2.24244173 29.43581004 -3.36376953 28.15380859 C-3.98816925 27.43985931 -4.61256897 26.72591003 -5.25588989 25.99032593 C-6.55945685 24.50273457 -7.86824889 23.01971899 -9.1796875 21.5390625 C-9.73914063 20.90742188 -10.29859375 20.27578125 -10.875 19.625 C-11.44992187 18.97789062 -12.02484375 18.33078125 -12.6171875 17.6640625 C-15.28025121 14.45935871 -15.32239283 12.1105086 -15 8 C-11.96933505 1.14112669 -7.28818465 -0.78087693 0 0 Z " fill="#FEFBFB" transform="translate(380,196)"/>
</svg>
