<svg width="45" height="45" viewBox="0 0 45 45" fill="none" xmlns="http://www.w3.org/2000/svg">
<path d="M22.511 -0.0273089C22.5985 -0.0271195 22.6859 -0.02693 22.7759 -0.0267349C24.0488 -0.0223081 25.2919 0.00926751 26.543 0.263829C26.6307 0.280823 26.7185 0.297818 26.8088 0.315327C31.5796 1.25813 36.3297 3.76114 39.4629 7.55875C39.5336 7.63931 39.6043 7.71986 39.6772 7.80285C40.636 8.89889 41.4647 10.0908 42.1854 11.3557C42.2723 11.5084 42.3609 11.6601 42.4495 11.8118C44.0059 14.583 45.0001 17.9433 45.021 21.1265C45.0217 21.2315 45.0224 21.3365 45.0232 21.4447C45.0244 21.6671 45.0253 21.8895 45.026 22.112C45.027 22.3351 45.0288 22.5583 45.0314 22.7814C45.0883 27.6394 43.4892 32.359 40.5176 36.2111C40.4269 36.3301 40.4269 36.3301 40.3343 36.4514C39.1941 37.9128 37.8566 39.3021 36.3642 40.404C36.2079 40.52 36.0539 40.6386 35.8999 40.7577C33.486 42.6047 30.6314 43.8298 27.6911 44.5497C27.6269 44.5655 27.5628 44.5812 27.4967 44.5974C27.2675 44.6495 27.0378 44.6937 26.8067 44.7365C26.7505 44.7474 26.6943 44.7583 26.6364 44.7695C25.3906 45.0053 24.1624 45.0438 22.8966 45.0394C22.5734 45.0386 22.2504 45.0412 21.9272 45.0439C16.0457 45.0613 10.7211 42.4943 6.50396 38.4963C6.40455 38.4024 6.40455 38.4024 6.30312 38.3067C5.87441 37.8908 5.4947 37.4415 5.12522 36.9725C5.04449 36.8703 4.96328 36.7683 4.88172 36.6667C2.51756 33.7158 0.948006 30.2613 0.263729 26.5431C0.242529 26.4376 0.242529 26.4376 0.2209 26.3299C-0.295309 23.6908 -0.20298 20.6411 0.35162 18.0177C0.370923 17.9262 0.390226 17.8346 0.410113 17.7402C1.31285 13.6016 3.32496 9.91658 6.24029 6.85563C6.29041 6.80299 6.34053 6.75035 6.39217 6.69611C7.09508 5.96332 7.81701 5.29138 8.63295 4.68643C8.79393 4.56689 8.95342 4.44553 9.11287 4.32396C9.85356 3.76425 10.6179 3.26928 11.4258 2.81266C11.4812 2.78075 11.5366 2.74884 11.5937 2.71597C13.8816 1.40619 16.4671 0.558868 19.0723 0.175938C19.2304 0.15256 19.2304 0.15256 19.3916 0.12871C20.431 -0.0144229 21.4631 -0.0313978 22.511 -0.0273089ZM16.1445 12.4312C15.0002 13.7856 14.7052 15.321 14.5899 17.0509C16.4462 17.0509 18.3024 17.0509 20.2149 17.0509C20.3019 16.6449 20.3889 16.2388 20.4786 15.8205C20.7696 15.1924 21.0329 14.8096 21.6761 14.5241C22.308 14.3075 23.0136 14.338 23.6361 14.5749C24.0777 14.8244 24.3634 15.1895 24.5363 15.6608C24.7739 16.7505 24.7071 17.8382 24.1058 18.7844C23.6257 19.481 23.0499 20.0588 22.4122 20.6105C20.9117 21.9145 20.1679 23.3444 19.9512 25.3127C19.9222 25.8927 19.8932 26.4728 19.8633 27.0705C21.4296 27.0705 22.9958 27.0705 24.6094 27.0705C24.6674 26.6064 24.7254 26.1423 24.7852 25.6642C25.1309 24.3712 25.7932 23.517 26.7858 22.6505C28.6659 21.0084 30.2026 19.4023 30.4312 16.8137C30.4815 15.2094 30.0333 13.5802 28.9655 12.3653C28.8334 12.2264 28.6999 12.0889 28.5645 11.9533C28.4931 11.8804 28.4931 11.8804 28.4203 11.806C26.6466 10.1443 24.0103 9.93556 21.7089 10.0063C19.6052 10.1132 17.5957 10.8725 16.1445 12.4312ZM19.8304 30.4543C19.3257 31.089 19.1811 31.7244 19.2481 32.5197C19.3779 33.2782 19.7202 33.889 20.344 34.3499C21.2838 34.9345 22.3066 35.0711 23.3893 34.8323C23.606 34.7513 23.7956 34.6596 23.9942 34.5412C24.057 34.5039 24.1197 34.4666 24.1844 34.4282C24.7474 34.0497 25.0954 33.546 25.3455 32.9207C25.4982 32.0505 25.4071 31.2834 24.8968 30.5404C24.292 29.8125 23.6099 29.4653 22.6758 29.3556C21.5755 29.2669 20.5724 29.6322 19.8304 30.4543Z" fill="#FFDA61"/>
</svg>
