<?xml version="1.0" encoding="UTF-8"?>
<svg version="1.1" xmlns="http://www.w3.org/2000/svg" width="512" height="512">
<path d="M0 0 C0.53189941 0.42893555 1.06379883 0.85787109 1.61181641 1.29980469 C14.02349221 11.35285222 25.20230782 22.36680001 35 35 C35.01401855 34.12432373 35.01401855 34.12432373 35.02832031 33.23095703 C35.51551519 9.03838792 35.51551519 9.03838792 41.64453125 2.15234375 C47.55444496 -3.29404732 53.07012274 -4.46821626 60.9921875 -4.3125 C66.96752727 -3.69168548 70.57593901 -1.39241519 74.8125 2.75 C79.35237809 9.49496173 80.44632961 15.38750254 80.38818359 23.31835938 C80.39606903 24.66145927 80.39606903 24.66145927 80.40411377 26.0316925 C80.41723598 28.96922644 80.40860332 31.90621127 80.3984375 34.84375 C80.40046047 36.8982351 80.40337376 38.9527195 80.40713501 41.00720215 C80.41154783 45.30418767 80.40516083 49.60098557 80.39111328 53.89794922 C80.37402215 59.39223925 80.38386891 64.88608955 80.40183067 70.38036346 C80.41269662 74.62013024 80.40920926 78.85979362 80.4014473 83.0995636 C80.39945307 85.12486321 80.40187713 87.15017235 80.40888596 89.17546082 C80.41654674 92.0111053 80.40483156 94.84604809 80.38818359 97.68164062 C80.39425629 98.50992874 80.40032898 99.33821686 80.40658569 100.19160461 C80.32475429 107.75570013 78.50796513 114.49203487 73 120 C66.42786511 124.54521478 60.98430888 125.1519656 53.16748047 125.17700195 C52.27587723 125.18357315 51.38427399 125.19014435 50.46565247 125.19691467 C47.51616323 125.2166169 44.56672491 125.22830494 41.6171875 125.23828125 C40.10236975 125.24439454 40.10236975 125.24439454 38.55694962 125.25063133 C33.20919246 125.27148137 27.86146087 125.28578636 22.51367188 125.29516602 C17.00598091 125.30621363 11.49869581 125.34059778 5.99114799 125.38033772 C1.74273966 125.40655932 -2.50557289 125.4148629 -6.75405502 125.41844749 C-8.78331104 125.42330099 -10.81256313 125.43487945 -12.84173965 125.45348549 C-35.92502486 125.65194564 -35.92502486 125.65194564 -42.90945435 119.24971008 C-48.37645671 113.45045403 -49.46619431 107.82701065 -49.3125 100.0078125 C-48.69168548 94.03247273 -46.39241519 90.42406099 -42.25 86.1875 C-35.31378095 81.51889102 -29.18735061 80.54767988 -21.03125 80.48828125 C-20.11033569 80.47033005 -19.18942139 80.45237885 -18.24060059 80.43388367 C-15.3271123 80.38011985 -12.4137846 80.34599455 -9.5 80.3125 C-7.51299865 80.27929693 -5.5260184 80.24480454 -3.5390625 80.20898438 C1.30717514 80.12441316 6.15336796 80.05744109 11 80 C9.60018378 77.78655716 8.19592425 75.57614639 6.7890625 73.3671875 C6.39855713 72.7486792 6.00805176 72.1301709 5.60571289 71.49291992 C1.84182685 65.5970696 -2.43187941 60.30002941 -7 55 C-7.60714844 54.27039063 -8.21429688 53.54078125 -8.83984375 52.7890625 C-12.86065905 48.0297301 -17.23189922 43.99666967 -22 40 C-22.86238281 39.23816406 -23.72476562 38.47632812 -24.61328125 37.69140625 C-59.31267995 7.59355163 -103.82105415 -4.18332208 -149 -2 C-193.6334241 1.3896035 -235.69462823 24.23933447 -264.69677734 57.97363281 C-281.28830656 78.14332908 -291.66212781 101.16498522 -298.47949219 126.22363281 C-300.39226697 132.98401409 -302.56371217 138.33189255 -308.2890625 142.77734375 C-315.25044333 146.23475195 -321.6542684 147.5695585 -329.26171875 145.3359375 C-335.1416585 142.75996389 -339.43828073 138.36577429 -342.1328125 132.55859375 C-348.3702283 114.15540749 -333.37789017 85.92257962 -325.25390625 69.35546875 C-316.25190988 51.61188089 -304.55683618 35.51813911 -291 21 C-289.47822548 19.27166158 -287.95739927 17.54248774 -286.4375 15.8125 C-282.54169638 11.5016795 -278.50365878 7.66489011 -274 4 C-273.00484375 3.17886719 -272.0096875 2.35773438 -270.984375 1.51171875 C-238.79701697 -24.6646337 -199.45477493 -41.86526209 -158 -46 C-157.02546875 -46.10957031 -156.0509375 -46.21914063 -155.046875 -46.33203125 C-99.51707018 -51.67143556 -43.28287139 -35.25362396 0 0 Z " fill="#000000" transform="translate(390,89)"/>
<path d="M0 0 C5.72360832 3.36261989 9.50667797 8.18749582 11.625 14.4375 C15.51661766 35.0930091 0.13168551 62.67755529 -9.375 80.4375 C-9.69581543 81.04045898 -10.01663086 81.64341797 -10.34716797 82.26464844 C-21.95817369 103.88270174 -38.17024906 125.03940505 -57.375 140.4375 C-58.86 141.66146484 -58.86 141.66146484 -60.375 142.91015625 C-95.55653458 171.54509776 -140.69181937 190.24078798 -186.375 191.4375 C-187.14424805 191.45796387 -187.91349609 191.47842773 -188.70605469 191.49951172 C-249.43178513 192.88016061 -303.59948511 171.09733722 -347.94140625 130.0625 C-354.75839012 123.42335049 -360.68625802 116.05170884 -366.375 108.4375 C-366.3843457 109.05157715 -366.39369141 109.6656543 -366.40332031 110.29833984 C-366.45769741 113.13714433 -366.54120552 115.97441732 -366.625 118.8125 C-366.63917969 119.77800781 -366.65335938 120.74351562 -366.66796875 121.73828125 C-366.91680508 129.15360381 -367.99144168 136.67137856 -373.12402344 142.38427734 C-378.98851403 147.77899816 -384.52552556 148.90413586 -392.3671875 148.75 C-398.34252727 148.12918548 -401.95093901 145.82991519 -406.1875 141.6875 C-410.72737809 134.94253827 -411.82132961 129.04999746 -411.76318359 121.11914062 C-411.76844055 120.22374069 -411.77369751 119.32834076 -411.77911377 118.4058075 C-411.79223598 115.46827356 -411.78360332 112.53128873 -411.7734375 109.59375 C-411.77546047 107.5392649 -411.77837376 105.4847805 -411.78213501 103.43029785 C-411.78654783 99.13331233 -411.78016083 94.83651443 -411.76611328 90.53955078 C-411.74902215 85.04526075 -411.75886891 79.55141045 -411.77683067 74.05713654 C-411.78769662 69.81736976 -411.78420926 65.57770638 -411.7764473 61.3379364 C-411.77445307 59.31263679 -411.77687713 57.28732765 -411.78388596 55.26203918 C-411.79154674 52.4263947 -411.77983156 49.59145191 -411.76318359 46.75585938 C-411.76925629 45.92757126 -411.77532898 45.09928314 -411.78158569 44.24589539 C-411.69975429 36.68179987 -409.88296513 29.94546513 -404.375 24.4375 C-397.80286511 19.89228522 -392.35930888 19.2855344 -384.54248047 19.26049805 C-383.65087723 19.25392685 -382.75927399 19.24735565 -381.84065247 19.24058533 C-378.89116323 19.2208831 -375.94172491 19.20919506 -372.9921875 19.19921875 C-371.982309 19.19514322 -370.9724305 19.1910677 -369.93194962 19.18686867 C-364.58419246 19.16601863 -359.23646087 19.15171364 -353.88867188 19.14233398 C-348.38098091 19.13128637 -342.87369581 19.09690222 -337.36614799 19.05716228 C-333.11773966 19.03094068 -328.86942711 19.0226371 -324.62094498 19.01905251 C-322.59168896 19.01419901 -320.56243687 19.00262055 -318.53326035 18.98401451 C-295.44997514 18.78555436 -295.44997514 18.78555436 -288.46554565 25.18778992 C-282.99854329 30.98704597 -281.90880569 36.61048935 -282.0625 44.4296875 C-282.68331452 50.40502727 -284.98258481 54.01343901 -289.125 58.25 C-296.06121905 62.91860898 -302.18764939 63.88982012 -310.34375 63.94921875 C-311.26466431 63.96716995 -312.18557861 63.98512115 -313.13439941 64.00361633 C-316.0478877 64.05738015 -318.9612154 64.09150545 -321.875 64.125 C-323.86200135 64.15820307 -325.8489816 64.19269546 -327.8359375 64.22851562 C-332.68217514 64.31308684 -337.52836796 64.38005891 -342.375 64.4375 C-338.51342972 70.64181703 -334.63759842 76.73351482 -330.0625 82.4375 C-329.59739014 83.02217041 -329.13228027 83.60684082 -328.65307617 84.20922852 C-321.90019251 92.61289329 -314.83353155 100.70603197 -306.375 107.4375 C-305.83133789 107.87175293 -305.28767578 108.30600586 -304.72753906 108.75341797 C-295.12531874 116.36047076 -285.27268578 122.84598851 -274.375 128.4375 C-273.76333984 128.75557617 -273.15167969 129.07365234 -272.52148438 129.40136719 C-239.29371069 146.47922939 -198.81015468 151.32544314 -162.375 143.4375 C-161.20783447 143.18806641 -161.20783447 143.18806641 -160.01708984 142.93359375 C-129.28913984 136.12617098 -102.05687908 121.1758733 -79.375 99.4375 C-78.07369141 98.2309375 -78.07369141 98.2309375 -76.74609375 97 C-64.44751812 85.24375132 -55.108681 71.52813937 -47.375 56.4375 C-46.8493042 55.42284668 -46.8493042 55.42284668 -46.31298828 54.38769531 C-40.69762008 43.42620662 -36.8447179 32.23184068 -33.375 20.4375 C-28.75681828 4.83238054 -28.75681828 4.83238054 -20.8125 0.0625 C-14.31691355 -2.85989995 -6.51732769 -2.88410478 0 0 Z " fill="#000000" transform="translate(453.375,278.5625)"/>
</svg>
