<svg width="55" height="55" viewBox="0 0 55 55" fill="none" xmlns="http://www.w3.org/2000/svg">
<path d="M22.8427 4.27506C22.9297 4.27445 23.0166 4.27383 23.1062 4.2732C23.2897 4.27219 23.4732 4.27149 23.6567 4.27107C23.9302 4.27004 24.2035 4.26671 24.4769 4.26331C26.118 4.2526 27.7186 4.44083 29.2926 4.92127C29.4336 4.96329 29.4336 4.96329 29.5774 5.00616C29.8525 5.08965 30.1266 5.17585 30.4004 5.26368C30.5144 5.29997 30.5144 5.29997 30.6306 5.337C32.5324 5.95778 34.3023 6.93984 35.879 8.16407C35.9705 8.23303 36.062 8.30199 36.1563 8.37303C37.3806 9.31848 38.4824 10.3739 39.4239 11.6016C39.5083 11.7046 39.5928 11.8076 39.6798 11.9138C42.4198 15.3152 43.7442 19.6064 43.7476 23.9349C43.7477 24.0188 43.7477 24.1026 43.7478 24.1889C43.746 25.496 43.6883 26.7578 43.3985 28.0371C43.3795 28.1222 43.3605 28.2073 43.3409 28.295C42.5684 31.6544 40.9827 34.5388 38.7793 37.168C38.9359 37.5293 39.135 37.7637 39.4146 38.0391C39.5372 38.1606 39.5372 38.1606 39.6622 38.2846C39.7475 38.3681 39.8328 38.4516 39.9207 38.5376C40.0068 38.6228 40.093 38.7079 40.1817 38.7957C40.3941 39.0055 40.607 39.2149 40.8204 39.4238C40.9354 39.3891 41.0505 39.3543 41.1691 39.3185C41.7261 39.1672 42.1806 39.1101 42.7335 39.3278C43.1614 39.5818 43.4782 39.889 43.8264 40.2414C43.8984 40.3131 43.9705 40.3847 44.0447 40.4585C44.2816 40.6946 44.5173 40.9318 44.753 41.169C44.9177 41.3338 45.0824 41.4984 45.2472 41.6631C45.5919 42.0078 45.9361 42.3531 46.2798 42.6988C46.7206 43.1419 47.1625 43.5839 47.6048 44.0255C47.9449 44.3652 48.2845 44.7055 48.6238 45.0459C48.7866 45.2091 48.9495 45.3722 49.1126 45.5351C49.3402 45.7626 49.5671 45.9909 49.7938 46.2193C49.8613 46.2865 49.9288 46.3538 49.9984 46.4231C50.0601 46.4856 50.1218 46.5481 50.1854 46.6125C50.2391 46.6663 50.2927 46.7202 50.3479 46.7756C50.7505 47.2565 50.762 47.7283 50.7502 48.3365C50.6741 48.8637 50.4238 49.1502 50.0586 49.5215C49.9876 49.5981 49.9166 49.6746 49.8434 49.7535C48.9807 50.6555 48.9807 50.6555 48.3504 50.7497C48.2428 50.7498 48.1352 50.75 48.0243 50.7501C47.8634 50.7532 47.8634 50.7532 47.6991 50.7564C46.9805 50.6389 46.4827 50.0591 45.9883 49.5626C45.8818 49.457 45.8818 49.457 45.7731 49.3492C45.5399 49.1175 45.3076 48.885 45.0753 48.6525C44.913 48.4906 44.7506 48.3287 44.5883 48.1668C44.2488 47.8281 43.9097 47.489 43.5708 47.1496C43.1366 46.7148 42.7012 46.2811 42.2654 45.8478C41.9301 45.5142 41.5956 45.1797 41.2613 44.8451C41.101 44.6849 40.9405 44.5249 40.7797 44.3652C40.5552 44.142 40.3318 43.9179 40.1086 43.6935C40.0421 43.6278 39.9755 43.5621 39.907 43.4944C39.3845 42.9654 39.1869 42.5788 39.1805 41.8148C39.2204 41.4759 39.3301 41.1485 39.4239 40.8203C38.7503 40.1468 38.0768 39.4732 37.3829 38.7793C37.0612 38.9401 36.8409 39.0685 36.5684 39.2866C36.4957 39.344 36.423 39.4014 36.3481 39.4605C36.2708 39.5215 36.1935 39.5825 36.1139 39.6454C35.2838 40.2891 34.4375 40.8543 33.5157 41.3574C33.4146 41.4128 33.4146 41.4128 33.3116 41.4693C31.8164 42.2778 30.2529 42.8706 28.6011 43.2709C28.515 43.2918 28.4288 43.3127 28.34 43.3343C26.9248 43.6571 25.5219 43.7651 24.076 43.761C23.9945 43.7609 23.913 43.7608 23.829 43.7607C19.3679 43.7438 15.0537 42.2732 11.6016 39.4238C11.5109 39.3503 11.5109 39.3503 11.4184 39.2754C7.46994 36.0678 4.94042 31.3906 4.32021 26.3396C4.28191 25.9515 4.2773 25.5646 4.2751 25.1749C4.27449 25.088 4.27387 25.001 4.27324 24.9115C4.27223 24.7279 4.27153 24.5444 4.27111 24.3609C4.27008 24.0875 4.26675 23.8141 4.26335 23.5407C4.25309 21.9538 4.43539 20.3933 4.85417 18.8593C4.87651 18.7767 4.89884 18.6941 4.92186 18.609C6.32024 13.6578 9.69281 9.33292 14.173 6.80115C14.4599 6.6431 14.7487 6.48925 15.0391 6.33789C15.104 6.30399 15.1689 6.27008 15.2357 6.23514C17.554 5.04353 20.2283 4.28983 22.8427 4.27506ZM15.3614 8.27149C15.2467 8.33338 15.1321 8.39528 15.0139 8.45906C13.7957 9.14232 12.7193 9.99657 11.709 10.957C11.6517 11.0109 11.5943 11.0647 11.5353 11.1202C8.14742 14.3187 6.22616 18.7551 6.02343 23.3994C5.93563 26.6514 6.6953 29.8134 8.27153 32.6562C8.31004 32.7259 8.34855 32.7956 8.38823 32.8673C8.91234 33.803 9.49377 34.6426 10.2051 35.4492C10.3229 35.5846 10.3229 35.5846 10.443 35.7228C13.4612 39.1388 17.5521 41.4265 22.129 41.8945C25.852 42.07 29.3616 41.6078 32.6563 39.7461C32.7253 39.7077 32.7944 39.6694 32.8655 39.6299C33.802 39.1056 34.642 38.5245 35.4493 37.8125C35.5847 37.6947 35.5847 37.6947 35.7229 37.5746C35.9935 37.3354 36.2592 37.0919 36.5235 36.8457C36.6506 36.7292 36.6506 36.7292 36.7803 36.6103C38.1046 35.3479 39.1331 33.8509 39.961 32.2266C39.9985 32.1546 40.036 32.0827 40.0746 32.0086C40.9481 30.3196 41.4841 28.5155 41.7872 26.6406C41.8169 26.458 41.8169 26.458 41.8472 26.2718C42.0801 24.3159 42.0366 22.1082 41.5723 20.1953C41.5504 20.1046 41.5285 20.0139 41.5059 19.9205C41.184 18.6308 40.7612 17.4137 40.1758 16.2207C40.144 16.1546 40.1122 16.0886 40.0795 16.0205C39.2311 14.2757 38.0908 12.7696 36.7383 11.3867C36.6619 11.3036 36.5855 11.2206 36.5067 11.135C33.4856 7.92797 28.9612 6.21264 24.6183 6.02342C21.3539 5.93501 18.2204 6.70819 15.3614 8.27149Z" fill="#0288D1"/>
<path d="M36.0938 19.873C36.0938 24.0915 36.0938 28.31 36.0938 32.6562C34.8474 33.3122 33.6021 33.964 32.3424 34.5928C32.1874 34.6703 32.0325 34.7478 31.8776 34.8253C31.5563 34.986 31.235 35.1466 30.9136 35.307C30.5096 35.5087 30.1059 35.7108 29.7022 35.9129C27.9822 36.774 26.2592 37.6263 24.5198 38.4478C24.2761 38.565 24.0355 38.6874 23.7949 38.8107C23.418 38.9941 23.418 38.9941 23.2031 38.9941C23.2031 34.7757 23.2031 30.5572 23.2031 26.2109C27.2852 24.1699 27.2852 24.1699 27.5 24.1699C27.5 25.4815 27.5 26.7932 27.5 28.1445C28.5511 27.6147 28.5511 27.6147 29.6018 27.084C29.7334 27.0178 29.8651 26.9517 29.9967 26.8857C30.0652 26.8509 30.1337 26.8161 30.2042 26.7803C30.6981 26.5332 30.6981 26.5332 30.9375 26.5332C30.9375 25.1507 30.9375 23.7682 30.9375 22.3438C31.6371 21.9915 32.3368 21.6395 33.0369 21.2882C33.2752 21.1685 33.5134 21.0486 33.7515 20.9286C34.0931 20.7565 34.435 20.585 34.777 20.4135C34.884 20.3595 34.9909 20.3054 35.1012 20.2497C35.2001 20.2003 35.299 20.1508 35.4009 20.0998C35.4882 20.056 35.5755 20.0121 35.6655 19.9668C35.8789 19.873 35.8789 19.873 36.0938 19.873Z" fill="#0288D1"/>
<path d="M12.0313 19.2285C12.1865 19.3315 12.3417 19.4347 12.4969 19.5378C12.6266 19.624 12.6266 19.624 12.7588 19.7118C13.0175 19.8861 13.2674 20.0684 13.5142 20.2591C13.6024 20.3268 13.6905 20.3945 13.7813 20.4643C13.9187 20.5704 13.9187 20.5704 14.0589 20.6787C14.792 21.2414 15.5287 21.798 16.2745 22.3438C17.0855 22.9375 17.887 23.5429 18.6826 24.1571C18.7677 24.2224 18.8527 24.2877 18.9403 24.355C19.0259 24.4236 19.1114 24.4922 19.1996 24.5629C19.4624 24.7627 19.7332 24.9128 20.0268 25.0634C20.668 25.4162 21.3264 25.7869 21.5929 26.5021C21.759 27.3594 21.7063 28.2288 21.6732 29.0966C21.6696 29.3764 21.6669 29.6562 21.665 29.936C21.659 30.5941 21.6432 31.2515 21.6237 31.9092C21.6019 32.6589 21.5914 33.4086 21.5817 34.1585C21.5616 35.6991 21.5277 37.2392 21.4844 38.7793C21.1788 38.63 20.9111 38.4706 20.6381 38.2674C20.5579 38.208 20.4777 38.1486 20.3951 38.0874C20.3093 38.0233 20.2234 37.9591 20.1349 37.8931C19.9499 37.7557 19.7648 37.6183 19.5798 37.481C19.4854 37.4108 19.3911 37.3407 19.2939 37.2684C19.0315 37.0737 18.7683 36.8801 18.5047 36.6871C17.5155 35.9624 16.5358 35.2264 15.5622 34.4809C14.8294 33.9207 14.0891 33.3713 13.3434 32.8285C13.2651 32.7712 13.1867 32.714 13.1059 32.655C13.0382 32.6057 12.9704 32.5565 12.9006 32.5057C12.8264 32.4491 12.7522 32.3924 12.6758 32.334C12.5664 32.2669 12.4569 32.1998 12.3441 32.1306C12.1199 31.941 12.0404 31.8358 11.9727 31.5472C11.9518 31.2239 11.9516 30.9061 11.9581 30.5822C11.958 30.3982 11.958 30.3982 11.9578 30.2105C11.9583 29.8053 11.9633 29.4003 11.9684 28.9951C11.9696 28.7141 11.9705 28.4331 11.9711 28.152C11.9731 27.4881 11.9784 26.8243 11.9849 26.1605C11.9921 25.4045 11.9956 24.6485 11.9989 23.8925C12.0056 22.3378 12.0169 20.7832 12.0313 19.2285Z" fill="#0288D1"/>
<path d="M25.6738 10.2051C26.7602 10.9293 26.7602 10.9293 27.1568 11.2357C27.2449 11.3034 27.333 11.3711 27.4238 11.4408C27.5154 11.5116 27.607 11.5824 27.7014 11.6553C28.4345 12.2179 29.1712 12.7745 29.917 13.3203C30.6394 13.8494 31.3543 14.3874 32.0654 14.9316C32.9678 15.6221 33.8777 16.3017 34.7938 16.9739C34.8675 17.0282 34.9413 17.0826 35.0173 17.1386C35.1627 17.2433 35.31 17.3454 35.459 17.445C35.6399 17.5667 35.8139 17.6985 35.9863 17.832C35.9863 17.9384 35.9863 18.0447 35.9863 18.1543C35.2914 18.5099 34.5954 18.8636 33.8987 19.2158C33.6618 19.3359 33.425 19.4565 33.1885 19.5775C32.8489 19.7512 32.5085 19.9233 32.1678 20.095C32.0619 20.1496 31.9561 20.2042 31.847 20.2605C31.7481 20.3099 31.6492 20.3594 31.5473 20.4104C31.4171 20.4766 31.4171 20.4766 31.2842 20.5441C31.0075 20.6377 30.8848 20.6205 30.6152 20.5176C30.4149 20.3946 30.4149 20.3946 30.2061 20.2385C30.127 20.1799 30.048 20.1212 29.9665 20.0608C29.8815 19.9966 29.7965 19.9325 29.7089 19.8663C29.6193 19.7995 29.5297 19.7327 29.4374 19.6639C28.6743 19.0933 27.9172 18.5147 27.1606 17.9357C26.4624 17.4021 25.7571 16.8792 25.0481 16.3601C24.3012 15.8119 23.5653 15.2498 22.8304 14.6857C22.2104 14.2114 21.5833 13.75 20.9375 13.3114C20.7939 13.212 20.6551 13.1057 20.5176 12.998C20.5176 12.9271 20.5176 12.8563 20.5176 12.7832C22.2191 11.9324 23.9207 11.0816 25.6738 10.2051Z" fill="#0288D1"/>
<path d="M17.4978 14.6679C17.6081 14.755 17.7184 14.842 17.832 14.9316C17.9081 14.9854 17.9841 15.0392 18.0625 15.0946C18.1266 15.1458 18.1907 15.197 18.2567 15.2497C18.3309 15.3084 18.4052 15.3671 18.4817 15.4276C18.5598 15.4899 18.6378 15.5522 18.7183 15.6165C19.3923 16.1479 20.0729 16.6677 20.766 17.1741C21.4953 17.7074 22.2172 18.2495 22.9346 18.7988C23.7465 19.4204 24.5651 20.0316 25.3899 20.636C26.1019 21.1585 26.8033 21.6935 27.5 22.2363C27.2618 22.4976 27.0296 22.6544 26.7158 22.8155C26.6229 22.8635 26.53 22.9115 26.4344 22.9609C26.3343 23.0116 26.2343 23.0623 26.1312 23.1146C25.9764 23.1933 25.9764 23.1933 25.8185 23.2737C25.6004 23.3843 25.382 23.4945 25.1635 23.6044C24.829 23.7732 24.4959 23.9448 24.1628 24.1164C23.9507 24.2235 23.7385 24.3305 23.5262 24.4372C23.4266 24.489 23.327 24.5408 23.2244 24.5942C23.1308 24.6404 23.0373 24.6867 22.9409 24.7344C22.8591 24.7759 22.7773 24.8174 22.693 24.8602C22.367 24.9433 22.2086 24.8575 21.9141 24.707C21.752 24.5981 21.594 24.483 21.4399 24.3629C21.3504 24.2938 21.2608 24.2247 21.1686 24.1536C21.0734 24.0792 20.9782 24.0048 20.8801 23.9282C20.6763 23.7709 20.4724 23.6137 20.2683 23.4566C20.1658 23.3776 20.0633 23.2986 19.9577 23.2172C19.5221 22.8842 19.0804 22.5598 18.6377 22.2363C17.8189 21.6368 17.0108 21.0242 16.205 20.4074C15.4874 19.8591 14.7624 19.3217 14.0339 18.7879C13.322 18.2653 12.6205 17.7303 11.9238 17.1875C12.2124 16.9621 12.5005 16.7756 12.8242 16.6049C12.9164 16.5562 13.0086 16.5075 13.1035 16.4574C13.523 16.2393 13.9431 16.0227 14.364 15.8076C14.5859 15.6936 14.8071 15.5782 15.0275 15.4615C15.3461 15.2931 15.6666 15.129 15.9878 14.9656C16.086 14.9127 16.1841 14.8598 16.2853 14.8053C17.0554 14.4226 17.0554 14.4226 17.4978 14.6679Z" fill="#0288D1"/>
</svg>
