<?xml version="1.0" encoding="UTF-8"?>
<svg version="1.1" xmlns="http://www.w3.org/2000/svg" width="512" height="512">
<path d="M0 0 C0.8494519 0.00021149 1.69890381 0.00042297 2.57409668 0.00064087 C17.05071438 0.03643042 30.90289056 1.20521439 45.0625 4.375 C45.87912109 4.54628418 46.69574219 4.71756836 47.53710938 4.89404297 C72.65514885 10.24782657 97.2035415 21.45104903 118.0625 36.375 C119.05765625 37.08398438 120.0528125 37.79296875 121.078125 38.5234375 C127.23929259 43.0258292 132.95580269 47.83975179 138.5390625 53.0390625 C140.71052889 55.04918155 142.9246479 56.96991108 145.1875 58.875 C158.91834663 70.9137625 170.15999884 86.67700456 179.04492188 102.55859375 C180.04932999 104.35149116 181.07856038 106.12843971 182.109375 107.90625 C196.86776474 133.88727643 206.08217627 165.89491726 206.265625 195.828125 C206.27268463 196.60205597 206.27974426 197.37598694 206.28701782 198.17337036 C206.40163653 214.43395771 206.51115003 230.40727794 203.0625 246.375 C202.87445801 247.29249023 202.68641602 248.20998047 202.49267578 249.15527344 C196.83138172 276.18716442 186.02583404 301.81811494 170.0625 324.375 C169.53140625 325.13039063 169.0003125 325.88578125 168.453125 326.6640625 C167.33393465 328.24224664 166.20046438 329.81029898 165.0625 331.375 C166.65499137 335.31668663 169.37777555 337.95085855 172.35652161 340.87588501 C172.90189864 341.41944307 173.44727568 341.96300112 174.00917929 342.52303064 C175.83842992 344.34386566 177.67471349 346.15744043 179.51098633 347.97119141 C180.82381355 349.27526898 182.13616465 350.57982604 183.44807434 351.88482666 C186.27517447 354.69543051 189.1052 357.50304404 191.93738747 360.30852127 C196.4193145 364.74908599 200.89200399 369.19887581 205.36296082 373.65048218 C218.07847761 386.30842337 230.80382309 398.95642457 243.54418945 411.58935547 C250.57973658 418.56573237 257.60622179 425.55110709 264.6229822 432.5463804 C269.06063428 436.96942703 273.50911679 441.38118419 277.96598589 445.7848618 C280.74395227 448.53498485 283.5112742 451.29563074 286.27575493 454.05930328 C287.55446129 455.33346089 288.83743769 456.60335063 290.12508392 457.86847305 C305.62666427 473.10990826 305.62666427 473.10990826 306.69140625 483.3515625 C306.5309399 492.16777229 306.16424016 498.09725234 299.96875 504.55859375 C292.50406272 511.53807635 286.89721847 512.97197679 276.71875 512.67578125 C262.54270433 511.50958946 251.69895099 496.15520537 242.17724609 486.60327148 C240.91491847 485.34066117 239.65236938 484.07827224 238.38961792 482.81608582 C234.99138249 479.41813514 231.59622064 476.01712884 228.20163679 472.61553073 C224.64271101 469.05031759 221.08091841 465.48797078 217.5194397 461.92530823 C210.78872749 455.19149849 204.0605666 448.45514564 197.33333743 441.71785647 C189.66897758 434.04228628 182.00174917 426.36958426 174.33428836 418.69711196 C158.57385034 402.92624531 142.81698601 387.15181233 127.0625 371.375 C123.57106656 372.72151079 120.81116487 374.13139463 117.8125 376.375 C96.09986385 391.81082688 71.75559671 402.11373457 45.875 408.125 C44.59423584 408.42325684 44.59423584 408.42325684 43.28759766 408.72753906 C29.08153749 411.86174269 15.17780312 412.78397854 0.6875 412.75 C-0.18912292 412.74945618 -1.06574585 412.74891235 -1.96893311 412.74835205 C-16.60641416 412.7067579 -30.63308773 411.67190882 -44.9375 408.375 C-46.31397705 408.06949219 -46.31397705 408.06949219 -47.71826172 407.7578125 C-81.70110714 400.01624673 -111.97690422 383.31729522 -137.9375 360.375 C-138.72302246 359.68422363 -138.72302246 359.68422363 -139.52441406 358.97949219 C-177.42291685 325.49270366 -201.39126391 276.71155775 -205.9375 226.375 C-206.09132944 223.4698153 -206.14621039 220.56903697 -206.17578125 217.66015625 C-206.18562042 216.85541367 -206.19545959 216.05067108 -206.20559692 215.22154236 C-206.78696418 155.26399171 -187.57499166 102.54406069 -145.75390625 59.1953125 C-118.60324095 31.66745938 -83.28813432 13.35608083 -45.8125 4.625 C-44.96719727 4.42624268 -44.12189453 4.22748535 -43.25097656 4.02270508 C-28.88654123 0.8407617 -14.65819271 -0.03394597 0 0 Z M-32.9375 55.375 C-33.75976074 55.57367676 -34.58202148 55.77235352 -35.42919922 55.97705078 C-75.54096982 65.92119447 -110.61253262 90.65527008 -132.18554688 126.18579102 C-139.71263675 138.94073589 -145.09487962 151.92802014 -149.25 166.125 C-149.49274658 166.95177246 -149.73549316 167.77854492 -149.9855957 168.63037109 C-153.44223393 181.04590154 -154.31618932 193.30727805 -154.25 206.125 C-154.24784485 206.87678528 -154.2456897 207.62857056 -154.24346924 208.40313721 C-154.19308696 219.3518182 -153.79683992 229.74688745 -150.9375 240.375 C-150.73882324 241.14344238 -150.54014648 241.91188477 -150.33544922 242.70361328 C-139.55838244 283.83406662 -114.23265354 318.53428481 -77.4777832 340.35327148 C-53.79540609 353.87234024 -27.48195666 360.81142647 -0.25 360.6875 C1.06145996 360.68186035 2.37291992 360.6762207 3.72412109 360.67041016 C40.76613192 360.20994947 75.57998619 346.11323964 103.0625 321.375 C104.35107764 320.3087558 105.64215284 319.24550982 106.9375 318.1875 C110.71642799 314.91550138 113.88967115 311.22816252 117.0625 307.375 C117.89910156 306.37597656 118.73570312 305.37695312 119.59765625 304.34765625 C135.16978222 285.40453154 145.00965725 264.04132828 151.0625 240.375 C151.33368652 239.3216748 151.33368652 239.3216748 151.61035156 238.24707031 C160.26939458 202.6296548 152.66175763 162.96529925 135.0625 131.375 C134.71461426 130.73868652 134.36672852 130.10237305 134.00830078 129.44677734 C128.69574259 119.8112313 122.5505052 111.42579219 115.0625 103.375 C114.47581543 102.73916992 113.88913086 102.10333984 113.28466797 101.44824219 C103.80222441 91.27952061 93.81886231 82.79876124 82.0625 75.375 C81.08893555 74.7550415 81.08893555 74.7550415 80.09570312 74.12255859 C56.20633574 59.16441917 28.37071517 51.93521887 0.3125 52.0625 C-1.65964478 52.07095947 -1.65964478 52.07095947 -3.67163086 52.07958984 C-13.72148122 52.20458644 -23.18388115 52.96421213 -32.9375 55.375 Z " fill="#000000" transform="translate(205.9375,-0.37499999999999994)"/>
</svg>
