<?xml version="1.0" encoding="UTF-8"?>
<svg version="1.1" xmlns="http://www.w3.org/2000/svg" width="512" height="512">
<path d="M0 0 C0.93972656 0.71671875 1.87945312 1.4334375 2.84765625 2.171875 C32.62682714 25.65242989 52.98207053 58.9703354 61 96 C61.14808105 96.64388672 61.29616211 97.28777344 61.44873047 97.95117188 C66.28816017 119.64265226 66.22182716 145.39486605 61 167 C60.70198486 168.25031006 60.70198486 168.25031006 60.39794922 169.52587891 C54.59069786 193.13333445 44.2133233 215.00516231 29 234 C28.25363281 234.93457031 27.50726563 235.86914062 26.73828125 236.83203125 C26.16464844 237.54746094 25.59101563 238.26289063 25 239 C26.57078513 242.79386304 28.94152292 245.17549456 31.84086609 248.04772949 C32.33739034 248.54243476 32.83391459 249.03714004 33.34548503 249.54683638 C35.00908696 251.20202987 36.67971199 252.84994937 38.3503418 254.49804688 C39.54482697 255.68378205 40.73883597 256.86999708 41.93240356 258.05665588 C44.50250589 260.61027136 47.07553201 263.1608914 49.65073204 265.70936584 C53.7193337 269.73663708 57.77872304 273.77310687 61.83638 277.81140137 C73.3755581 289.29296809 84.92470178 300.76444578 96.48852539 312.22119141 C102.87568734 318.54936759 109.25393311 324.88639018 115.62244159 331.23333979 C119.65704256 335.25326418 123.70249827 339.26183605 127.75615919 343.2625351 C130.27042941 345.74915143 132.77423566 348.24609603 135.27511978 350.74616814 C136.44026202 351.90672506 137.60972911 353.06295789 138.78369713 354.21458626 C140.38086361 355.78256848 141.96205694 357.36506343 143.54008484 358.95227051 C144.4307046 359.83568367 145.32132437 360.71909683 146.23893261 361.62928009 C148 364 148 364 147.94012165 366.12480927 C146.31222556 369.37185253 143.73327386 371.77874869 141.1875 374.3125 C140.38602539 375.15651367 140.38602539 375.15651367 139.56835938 376.01757812 C137.98046875 377.61328125 137.98046875 377.61328125 135 380 C130.85845512 379.88055148 128.67305993 377.04242123 125.88739014 374.24815369 C125.38577905 373.74910587 124.88416796 373.25005806 124.36735654 372.73588759 C122.68658397 371.06006061 121.01676545 369.37372829 119.34667969 367.68725586 C118.14477888 366.48450895 116.94221731 365.28242202 115.73904419 364.08094788 C112.47230262 360.81506834 109.2149042 357.54001034 105.95907497 354.26325679 C102.55581266 350.84126239 99.1440737 347.42774101 95.73321533 344.01332092 C89.27453164 337.54530658 82.82353444 331.06968172 76.37524724 324.59130436 C69.0341705 317.21671541 61.68459076 309.85062585 54.33427572 302.48524654 C39.21335354 287.33295221 24.10316968 272.16998797 9 257 C5.74147713 258.54687315 2.99936764 260.43865054 0.12963867 262.62963867 C-19.33226853 277.46558274 -41.23349115 287.33518163 -65 293 C-65.7420166 293.17934082 -66.4840332 293.35868164 -67.24853516 293.54345703 C-104.97815938 302.18821962 -147.5922216 294.87804621 -181 276 C-181.96389648 275.46439453 -181.96389648 275.46439453 -182.94726562 274.91796875 C-191.66503834 270.0373957 -199.485696 264.62823752 -207 258 C-207.85207031 257.2575 -208.70414063 256.515 -209.58203125 255.75 C-212.08759688 253.533094 -214.55215808 251.28039996 -217 249 C-218.12535156 247.95585938 -218.12535156 247.95585938 -219.2734375 246.890625 C-247.38143479 219.86749778 -264.7998083 178.85620642 -266 140 C-266.07734375 138.07994141 -266.07734375 138.07994141 -266.15625 136.12109375 C-266.8829425 109.83704635 -261.70319085 83.57675947 -250 60 C-249.66097656 59.30567871 -249.32195312 58.61135742 -248.97265625 57.89599609 C-240.2062697 40.09429081 -228.99621937 25.99621937 -215 12 C-214.43539062 11.38898438 -213.87078125 10.77796875 -213.2890625 10.1484375 C-203.33064135 -0.46452777 -190.75332171 -8.20322973 -178 -15 C-177.02804688 -15.53238281 -176.05609375 -16.06476563 -175.0546875 -16.61328125 C-119.75628891 -45.7692489 -48.94526534 -37.88522411 0 0 Z M-209 39 C-233.07495643 67.86874298 -246.14858317 105.89837599 -242.77294922 143.53125 C-238.70196112 182.13024827 -221.16354317 217.51314173 -191.13867188 242.55224609 C-160.84062452 266.66589014 -123.42157337 278.32628176 -84.78125 274.53125 C-59.52185409 271.61472531 -35.17852504 262.64808484 -15 247 C-14.08476562 246.30519531 -13.16953125 245.61039062 -12.2265625 244.89453125 C18.42179042 220.78859178 37.87039555 186.01642272 42.49609375 147.328125 C45.94629636 113.90923133 37.79132517 78.42512203 18 51 C17.44070801 50.22293701 17.44070801 50.22293701 16.87011719 49.43017578 C-6.68524628 17.10980696 -40.41033522 -3.48616203 -79.875 -9.8125 C-128.46870581 -16.80149021 -176.68588637 2.50542291 -209 39 Z " fill="#000000" transform="translate(314,82)"/>
</svg>
