<svg width="52" height="52" viewBox="0 0 52 52" fill="none" xmlns="http://www.w3.org/2000/svg">
<g clip-path="url(#clip0_5_263)">
<path d="M43.2393 13.5898C43.3193 13.589 43.3992 13.5881 43.4816 13.5873C43.7465 13.5848 44.0113 13.5831 44.2761 13.5816C44.3667 13.5811 44.4573 13.5805 44.5506 13.58C45.0303 13.5773 45.5099 13.5753 45.9896 13.5738C46.386 13.5725 46.7822 13.5696 47.1785 13.5655C47.6576 13.5605 48.1367 13.558 48.6158 13.5572C48.798 13.5566 48.9802 13.555 49.1623 13.5526C50.8736 13.531 50.8736 13.531 51.4428 13.9385C52.0478 14.6545 52.0582 15.2446 52.0516 16.1588C52.052 16.2947 52.0527 16.4306 52.0535 16.5665C52.0552 16.9389 52.0544 17.3113 52.0531 17.6837C52.0522 18.0857 52.0536 18.4878 52.0547 18.8898C52.0565 19.6769 52.0561 20.464 52.055 21.2512C52.054 21.8909 52.0539 22.5305 52.0544 23.1702C52.0544 23.2613 52.0545 23.3523 52.0545 23.4461C52.0547 23.6311 52.0548 23.8161 52.0549 24.0011C52.0561 25.7353 52.0548 27.4696 52.0526 29.2039C52.0508 30.692 52.0511 32.1802 52.053 33.6684C52.0551 35.3966 52.056 37.1249 52.0547 38.8531C52.0546 39.0374 52.0545 39.2216 52.0544 39.4059C52.0543 39.4965 52.0542 39.5872 52.0542 39.6806C52.0538 40.3196 52.0544 40.9586 52.0554 41.5976C52.0565 42.3762 52.0562 43.1548 52.054 43.9334C52.053 44.3306 52.0525 44.7279 52.0539 45.1252C52.0551 45.4888 52.0544 45.8525 52.0523 46.2161C52.0516 46.41 52.0529 46.6039 52.0543 46.7978C52.0472 47.5725 51.9746 47.9517 51.4315 48.5108C50.9183 48.92 50.5489 48.9687 49.9121 48.9711C49.8341 48.9718 49.7562 48.9724 49.6758 48.9731C49.4176 48.9751 49.1594 48.9763 48.9011 48.9773C48.8128 48.9777 48.7245 48.9782 48.6334 48.9786C48.1656 48.9807 47.6978 48.9822 47.23 48.9831C46.7479 48.9842 46.2658 48.9877 45.7837 48.9918C45.4121 48.9944 45.0405 48.9953 44.6689 48.9956C44.4912 48.9961 44.3136 48.9973 44.136 48.9992C43.8866 49.0017 43.6373 49.0016 43.3879 49.0009C43.2791 49.0028 43.2791 49.0028 43.168 49.0048C42.5075 48.9981 41.9753 48.7738 41.501 48.312C41.0645 47.5901 41.1038 46.8507 41.1063 46.0304C41.1059 45.8994 41.1056 45.7683 41.1052 45.6334C41.1041 45.2708 41.1043 44.9083 41.1048 44.5457C41.105 44.1543 41.1041 43.7628 41.1033 43.3714C41.102 42.6049 41.1019 41.8385 41.1021 41.072C41.1023 40.4489 41.1021 39.8259 41.1017 39.2028C41.1016 39.0697 41.1016 39.0697 41.1015 38.934C41.1014 38.7538 41.1012 38.5735 41.1011 38.3933C41.1 36.7035 41.1002 35.0137 41.1009 33.3239C41.1014 31.7785 41.1002 30.2332 41.0983 28.6878C41.0963 27.1005 41.0955 25.5131 41.0959 23.9257C41.0961 23.0348 41.0958 22.1439 41.0944 21.2529C41.0932 20.4944 41.093 19.736 41.0943 18.9775C41.0949 18.5907 41.095 18.2039 41.0938 17.817C41.0924 17.3973 41.0935 16.9776 41.0948 16.5579C41.094 16.4362 41.0933 16.3145 41.0925 16.189C41.0973 15.4451 41.1313 14.7045 41.6121 14.1013C41.6718 14.0563 41.7315 14.0112 41.793 13.9648C41.8527 13.9177 41.9124 13.8706 41.9739 13.822C42.3746 13.567 42.7822 13.5924 43.2393 13.5898Z" fill="#FDFDFD"/>
<path d="M3.0948 13.5455C3.27865 13.5454 3.46251 13.5452 3.64636 13.5448C4.03062 13.5445 4.41482 13.5459 4.79907 13.5487C5.2904 13.5522 5.78161 13.5516 6.27294 13.5497C6.65223 13.5486 7.03149 13.5495 7.41078 13.5511C7.59189 13.5516 7.77301 13.5515 7.95413 13.5509C8.20763 13.5503 8.46099 13.5524 8.71448 13.5552C8.78852 13.5545 8.86257 13.5539 8.93885 13.5532C9.55435 13.5646 9.99759 13.7549 10.4347 14.193C10.4916 14.278 10.4916 14.278 10.5497 14.3647C10.609 14.4494 10.609 14.4494 10.6695 14.5357C10.8706 14.9353 10.8799 15.3556 10.8805 15.7958C10.8808 15.9081 10.8812 16.0204 10.8816 16.1361C10.8815 16.259 10.8815 16.3818 10.8814 16.5084C10.8817 16.6393 10.882 16.7702 10.8823 16.9051C10.8831 17.2683 10.8833 17.6315 10.8834 17.9947C10.8835 18.3865 10.8843 18.7783 10.885 19.1701C10.8864 20.0266 10.887 20.8832 10.8874 21.7398C10.8877 22.2746 10.8881 22.8095 10.8886 23.3444C10.8898 24.8254 10.8909 26.3065 10.8912 27.7875C10.8913 27.9296 10.8913 27.9296 10.8913 28.0747C10.8913 28.2172 10.8913 28.2172 10.8914 28.3625C10.8914 28.555 10.8915 28.7475 10.8915 28.94C10.8915 29.0355 10.8916 29.1309 10.8916 29.2293C10.892 30.7767 10.8937 32.3241 10.8961 33.8715C10.8985 35.4603 10.8998 37.0492 10.8999 38.6381C10.9 39.5301 10.9006 40.4221 10.9024 41.3141C10.904 42.0736 10.9045 42.8331 10.9037 43.5926C10.9033 43.98 10.9034 44.3674 10.9048 44.7548C10.9063 45.175 10.9055 45.5952 10.9044 46.0154C10.9057 46.1987 10.9057 46.1987 10.9069 46.3856C10.9022 47.1759 10.8464 47.7952 10.3276 48.4263C9.78655 48.8666 9.3286 48.9984 8.63987 48.9925C8.52234 48.9933 8.52234 48.9933 8.40242 48.9942C8.14486 48.9955 7.88736 48.9946 7.6298 48.9936C7.44997 48.9938 7.27013 48.9941 7.0903 48.9945C6.71398 48.9949 6.33768 48.9943 5.96136 48.9928C5.47983 48.9911 4.99834 48.9921 4.51681 48.9939C4.14564 48.995 3.77447 48.9947 3.4033 48.9939C3.22578 48.9937 3.04827 48.9939 2.87075 48.9946C2.62234 48.9954 2.374 48.9942 2.12559 48.9925C2.05276 48.9932 1.97994 48.9938 1.9049 48.9944C1.28417 48.9866 0.891675 48.8087 0.43156 48.4009C0.0711148 47.9904 -0.0254235 47.7185 -0.0262093 47.1725C-0.0268643 47.0575 -0.0275193 46.9425 -0.0281941 46.824C-0.0278796 46.6976 -0.027565 46.5713 -0.0272409 46.4411C-0.0276203 46.3055 -0.0280877 46.1699 -0.0286354 46.0343C-0.0298798 45.6614 -0.0298508 45.2885 -0.0296116 44.9156C-0.0295702 44.5136 -0.0306907 44.1116 -0.0316545 43.7095C-0.0333428 42.9217 -0.0338999 42.1339 -0.0340132 41.3461C-0.0341096 40.7058 -0.0345269 40.0655 -0.0351712 39.4251C-0.0369603 37.6102 -0.037897 35.7952 -0.0377447 33.9803C-0.0377366 33.8824 -0.0377284 33.7845 -0.0377201 33.6837C-0.0377076 33.5367 -0.0377076 33.5367 -0.0376949 33.3868C-0.0376123 31.7986 -0.039556 30.2104 -0.04242 28.6222C-0.0453367 26.9919 -0.0467407 25.3616 -0.0465651 23.7314C-0.0464976 22.8159 -0.0470571 21.9004 -0.0492419 20.985C-0.0510901 20.2055 -0.0515343 19.4261 -0.0501541 18.6466C-0.0494902 18.2489 -0.0494815 17.8512 -0.0512414 17.4535C-0.0528364 17.0893 -0.052551 16.7252 -0.0507775 16.361C-0.0503173 16.1671 -0.0518549 15.9732 -0.0534668 15.7793C-0.0471458 14.9957 0.043578 14.544 0.557619 13.9389C1.28767 13.4188 2.23922 13.5384 3.0948 13.5455Z" fill="#FDFDFD"/>
<path d="M29.5222 26.7961C29.6015 26.7956 29.6808 26.7951 29.7625 26.7946C30.025 26.7931 30.2875 26.7924 30.55 26.7919C30.7325 26.7913 30.9151 26.7907 31.0976 26.7901C31.4806 26.7891 31.8635 26.7885 32.2464 26.7881C32.7365 26.7875 33.2265 26.7851 33.7166 26.7822C34.0938 26.7803 34.4709 26.7798 34.8481 26.7796C35.0288 26.7793 35.2094 26.7785 35.39 26.7772C35.6431 26.7754 35.8961 26.7756 36.1492 26.7763C36.2234 26.7754 36.2977 26.7744 36.3742 26.7735C36.9367 26.778 37.351 26.9078 37.7673 27.2918C37.8159 27.3515 37.8644 27.4112 37.9145 27.4727C37.9893 27.5622 37.9893 27.5622 38.0656 27.6536C38.3378 28.0436 38.3038 28.451 38.3032 28.9057C38.3035 28.9851 38.3038 29.0646 38.3042 29.1464C38.305 29.4136 38.3052 29.6807 38.3053 29.9478C38.3058 30.1389 38.3063 30.3301 38.3069 30.5213C38.3082 31.0413 38.3089 31.5613 38.3093 32.0813C38.3096 32.406 38.31 32.7308 38.3105 33.0555C38.3119 34.0713 38.3129 35.0871 38.3132 36.1029C38.3137 37.2761 38.3155 38.4493 38.3184 39.6224C38.3206 40.5289 38.3216 41.4353 38.3218 42.3417C38.3219 42.8833 38.3225 43.4248 38.3243 43.9664C38.326 44.4758 38.3262 44.9852 38.3253 45.4946C38.3252 45.6816 38.3257 45.8685 38.3267 46.0555C38.328 46.3108 38.3274 46.566 38.3263 46.8213C38.3275 46.9321 38.3275 46.9321 38.3288 47.0452C38.3234 47.6043 38.1913 48.0178 37.8097 48.4314C37.75 48.48 37.6903 48.5286 37.6288 48.5786C37.5691 48.6285 37.5094 48.6784 37.4479 48.7298C37.06 49.0004 36.6537 48.9694 36.2011 48.9711C36.1231 48.9718 36.0451 48.9724 35.9648 48.9731C35.7066 48.9751 35.4484 48.9763 35.1901 48.9773C35.1018 48.9777 35.0134 48.9782 34.9224 48.9786C34.4546 48.9807 33.9868 48.9822 33.5189 48.9831C33.0368 48.9842 32.5548 48.9877 32.0727 48.9918C31.7011 48.9944 31.3295 48.9953 30.9579 48.9956C30.7802 48.9961 30.6026 48.9973 30.425 48.9992C30.1756 49.0017 29.9263 49.0016 29.6769 49.0009C29.5681 49.0028 29.5681 49.0028 29.457 49.0048C28.9094 48.9992 28.491 48.8446 28.0312 48.5469C27.5008 48.0025 27.3914 47.4842 27.3946 46.7431C27.3942 46.6644 27.3937 46.5858 27.3932 46.5047C27.392 46.2415 27.3921 45.9783 27.3923 45.7151C27.3917 45.5262 27.391 45.3374 27.3902 45.1485C27.3884 44.6356 27.3879 44.1228 27.3878 43.6099C27.3877 43.2894 27.3872 42.9689 27.3867 42.6484C27.3848 41.5299 27.384 40.4115 27.3842 39.2931C27.3843 38.251 27.3821 37.2089 27.3789 36.1668C27.3763 35.2718 27.3752 34.3767 27.3753 33.4817C27.3754 32.9473 27.3748 32.4129 27.3726 31.8785C27.3707 31.3757 27.3707 30.873 27.3721 30.3702C27.3723 30.186 27.3719 30.0017 27.3706 29.8175C27.3691 29.5654 27.37 29.3134 27.3716 29.0613C27.3705 28.9889 27.3695 28.9165 27.3684 28.842C27.3766 28.2384 27.5616 27.7039 27.9786 27.2625C28.4788 26.8293 28.8878 26.7971 29.5222 26.7961Z" fill="#FEFEFE"/>
<path d="M15.7988 33.4977C15.8768 33.497 15.9547 33.4963 16.0351 33.4956C16.2933 33.4936 16.5515 33.4924 16.8098 33.4914C16.8981 33.491 16.9865 33.4906 17.0775 33.4902C17.5453 33.4881 18.0131 33.4866 18.481 33.4857C18.963 33.4845 19.4451 33.481 19.9272 33.477C20.2988 33.4743 20.6704 33.4735 21.042 33.4731C21.2197 33.4726 21.3973 33.4715 21.5749 33.4696C21.8243 33.4671 22.0736 33.4672 22.323 33.4679C22.3955 33.4666 22.4681 33.4653 22.5429 33.464C23.0905 33.4696 23.5089 33.6241 23.9687 33.9219C24.4156 34.3805 24.6029 34.8339 24.6053 35.4712C24.6061 35.5767 24.607 35.6822 24.6079 35.7909C24.6078 35.9055 24.6077 36.0202 24.6076 36.1383C24.6083 36.2599 24.609 36.3815 24.6097 36.5068C24.6113 36.8396 24.6119 37.1725 24.6121 37.5053C24.6122 37.7135 24.6127 37.9217 24.6132 38.13C24.6151 38.8573 24.6159 39.5845 24.6157 40.3118C24.6156 40.9884 24.6178 41.6649 24.621 42.3414C24.6236 42.9234 24.6247 43.5054 24.6246 44.0873C24.6245 44.4344 24.6251 44.7815 24.6273 45.1286C24.6293 45.5161 24.6287 45.9035 24.6274 46.291C24.6286 46.4051 24.6297 46.5191 24.6309 46.6366C24.6254 47.3206 24.5371 47.761 24.1718 48.3438C23.6267 48.8749 23.1062 48.9836 22.364 48.9826C22.2858 48.9833 22.2076 48.984 22.1271 48.9847C21.8695 48.9866 21.6119 48.987 21.3543 48.9873C21.1745 48.9879 20.9948 48.9886 20.8151 48.9893C20.4386 48.9905 20.0621 48.9909 19.6856 48.9908C19.2042 48.9908 18.7228 48.9935 18.2414 48.997C17.8702 48.9993 17.4991 48.9997 17.1279 48.9996C16.9504 48.9998 16.773 49.0007 16.5956 49.0023C16.3469 49.0043 16.0984 49.0037 15.8497 49.0025C15.7771 49.0036 15.7045 49.0048 15.6297 49.0059C15.0158 48.9983 14.5947 48.7986 14.1433 48.3846C13.8055 47.9478 13.6984 47.6597 13.6966 47.1145C13.6961 47.0072 13.6955 46.9 13.6949 46.7896C13.6948 46.672 13.6947 46.5544 13.6945 46.4332C13.694 46.3093 13.6935 46.1854 13.693 46.0578C13.6918 45.7178 13.691 45.3779 13.6906 45.0379C13.6903 44.8255 13.6899 44.613 13.6894 44.4005C13.688 43.7354 13.687 43.0704 13.6866 42.4053C13.6862 41.6381 13.6844 40.8709 13.6815 40.1037C13.6793 39.5104 13.6783 38.917 13.6781 38.3237C13.678 37.9694 13.6774 37.6152 13.6756 37.261C13.6736 36.8657 13.6741 36.4703 13.6747 36.075C13.6738 35.958 13.6728 35.841 13.6719 35.7205C13.6754 35.0473 13.714 34.5536 14.1902 34.0373C14.2499 33.9888 14.3096 33.9402 14.3711 33.8901C14.4308 33.8403 14.4905 33.7904 14.552 33.739C14.9399 33.4683 15.3462 33.4993 15.7988 33.4977Z" fill="#FEFEFE"/>
<path d="M5.5686 3.39519C5.91119 3.6429 6.08908 3.89831 6.29699 4.26561C6.29699 4.33265 6.29699 4.39968 6.29699 4.46874C6.43395 4.46772 6.43395 4.46772 6.57367 4.46669C7.43584 4.46057 8.298 4.45594 9.16018 4.45295C9.60339 4.45137 10.0466 4.44921 10.4898 4.44575C10.9178 4.44243 11.3459 4.44062 11.7739 4.43983C11.9369 4.43927 12.0999 4.43817 12.2628 4.43652C12.4918 4.4343 12.7208 4.43401 12.9498 4.43415C13.0799 4.43347 13.21 4.4328 13.3441 4.4321C13.8767 4.48528 14.2622 4.62445 14.6562 4.99182C14.8812 5.37037 14.959 5.72468 15.0411 6.15412C15.0591 6.24172 15.0771 6.32932 15.0956 6.41957C15.1552 6.71206 15.2127 7.00491 15.2702 7.29781C15.3124 7.50687 15.3546 7.71591 15.3971 7.92492C15.5113 8.48965 15.6237 9.05473 15.7357 9.6199C15.8526 10.2079 15.9712 10.7955 16.0895 11.3832C16.2845 12.3525 16.4785 13.322 16.6717 14.2916C16.927 15.573 17.1843 16.8541 17.4421 18.135C17.6312 19.0744 17.8199 20.014 18.0084 20.9536C18.0285 21.0536 18.0485 21.1535 18.0692 21.2565C18.1838 21.8278 18.2982 22.3991 18.4122 22.9705C18.4466 23.1427 18.481 23.3148 18.5155 23.487C18.5623 23.7202 18.6088 23.9534 18.6552 24.1867C18.6813 24.317 18.7073 24.4474 18.7341 24.5818C18.7892 24.8828 18.7892 24.8828 18.7892 25.0859C18.8516 25.0847 18.9141 25.0836 18.9784 25.0824C19.0605 25.0814 19.1426 25.0805 19.2272 25.0796C19.3491 25.0778 19.3491 25.0778 19.4735 25.076C19.7032 25.0859 19.7032 25.0859 20.0079 25.1875C20.0444 25.0057 20.0444 25.0057 20.0815 24.8203C20.2318 24.1462 20.4476 23.4928 20.6582 22.8357C20.7027 22.6957 20.7472 22.5557 20.7917 22.4157C20.9098 22.0446 21.0283 21.6737 21.1471 21.3029C21.2204 21.074 21.2937 20.845 21.3669 20.6161C21.6289 19.7969 21.8917 18.978 22.1549 18.1592C22.3155 17.6592 22.4748 17.1588 22.6336 16.6582C22.734 16.3425 22.8357 16.0272 22.9379 15.7121C22.9815 15.5772 23.0245 15.442 23.067 15.3067C23.4447 14.1067 23.4447 14.1067 23.9689 13.7109C24.25 13.5703 24.4771 13.5972 24.7917 13.5978C24.9219 13.5978 25.052 13.5978 25.186 13.5979C25.3286 13.5984 25.4711 13.5989 25.6137 13.5994C25.7591 13.5996 25.9046 13.5998 26.05 13.5999C26.4331 13.6003 26.8161 13.6013 27.1991 13.6024C27.5898 13.6034 27.9806 13.6039 28.3714 13.6044C29.1382 13.6055 29.9051 13.6072 30.672 13.6094C30.6854 13.4974 30.6988 13.3854 30.7126 13.2701C30.8088 12.6834 31.1569 12.3739 31.5861 11.9844C31.9561 11.7401 32.1743 11.6599 32.6148 11.7309C33.0338 11.7893 33.3108 11.7998 33.7189 11.6797C34.1911 11.2386 34.4707 10.6119 34.7723 10.0495C35.0674 9.51488 35.3983 9.00259 35.7247 8.48681C35.8541 8.28028 35.9835 8.07372 36.1127 7.86712C36.2288 7.68224 36.3449 7.49736 36.4611 7.31249C36.5067 7.23934 36.5524 7.16619 36.5994 7.09082C36.7087 6.9164 36.8196 6.74304 36.9308 6.56981C37.0144 6.43843 37.0144 6.43843 37.0998 6.3044C37.3811 5.96334 37.6526 5.80578 38.0931 5.74856C38.2092 5.74743 38.3254 5.7463 38.445 5.74514C38.5771 5.74313 38.7093 5.74112 38.8454 5.73905C38.9886 5.73836 39.1318 5.7377 39.275 5.73708C39.4223 5.73537 39.5696 5.73352 39.7169 5.73156C40.1034 5.72674 40.4899 5.72371 40.8765 5.72105C41.2713 5.71802 41.6662 5.71329 42.0611 5.70871C42.835 5.69999 43.609 5.69314 44.3829 5.68749C44.4236 5.60309 44.4236 5.60309 44.465 5.51698C44.501 5.44342 44.537 5.36987 44.574 5.29408C44.6095 5.22106 44.645 5.14803 44.6815 5.07279C44.9483 4.58267 45.4422 4.33481 45.9381 4.11962C46.6529 4.01058 47.2907 4.03846 47.9249 4.41161C48.502 4.84777 48.7932 5.38366 48.8961 6.09691C48.9223 6.74553 48.8597 7.30337 48.4454 7.8203C47.8253 8.40032 47.2376 8.69215 46.3828 8.67049C45.6993 8.57625 45.1589 8.25661 44.732 7.71874C44.5175 7.4173 44.4491 7.16625 44.3829 6.80468C43.5848 6.76828 42.7872 6.74381 41.9883 6.7339C41.6171 6.72893 41.2468 6.72011 40.876 6.70195C39.2672 6.57153 39.2672 6.57153 37.8272 7.10828C37.3996 7.60446 37.1351 8.15748 36.8892 8.76011C36.6844 9.22286 36.4035 9.63398 36.1246 10.0547C36.0248 10.2122 35.9253 10.3699 35.8263 10.528C35.6486 10.8095 35.4688 11.0895 35.2867 11.3682C35.2106 11.4869 35.1344 11.6055 35.0582 11.7241C34.9598 11.8747 34.9598 11.8747 34.8595 12.0284C34.7141 12.2741 34.7141 12.2741 34.7551 12.5076C34.8289 12.6787 34.9114 12.846 34.9947 13.0127C35.2511 13.6012 35.2107 14.1926 35.0265 14.7964C34.6772 15.4134 34.3054 15.9056 33.6173 16.1484C32.8555 16.3172 32.2415 16.2425 31.5607 15.8628C31.1413 15.5292 30.9111 15.2048 30.672 14.7266C28.594 14.7266 26.5161 14.7266 24.3751 14.7266C24.3081 15.0282 24.2411 15.3298 24.172 15.6406C24.1041 15.8756 24.0329 16.1096 23.9583 16.3426C23.938 16.4065 23.9176 16.4704 23.8966 16.5362C23.83 16.7452 23.7628 16.954 23.6955 17.1629C23.6479 17.3118 23.6003 17.4608 23.5527 17.6099C23.4273 18.0021 23.3015 18.3941 23.1756 18.7862C23.0508 19.1747 22.9266 19.5634 22.8023 19.9521C22.7287 20.1819 22.6552 20.4117 22.5816 20.6416C22.5329 20.7936 22.4843 20.9456 22.4357 21.0976C22.2021 21.8277 21.9681 22.5575 21.7287 23.2856C21.6627 23.4864 21.597 23.6873 21.5314 23.8882C21.4514 24.1326 21.3708 24.3769 21.2894 24.6209C21.2366 24.7828 21.2366 24.7828 21.1827 24.9479C21.1518 25.0413 21.1209 25.1348 21.089 25.231C20.9869 25.6384 20.9697 25.8993 21.1695 26.2729C21.4523 26.8723 21.5049 27.4696 21.3155 28.1074C21.0652 28.7439 20.6783 29.2019 20.0524 29.4841C19.4013 29.6698 18.6583 29.6729 18.0338 29.396C17.5283 29.0935 17.1799 28.6774 16.923 28.1518C16.7443 27.2408 16.8558 26.5822 17.3673 25.7969C17.4487 25.73 17.4487 25.73 17.5318 25.6617C17.6957 25.5001 17.6957 25.5001 17.6723 25.2681C17.6544 25.1798 17.6365 25.0915 17.6181 25.0005C17.5982 24.8981 17.5784 24.7958 17.5579 24.6903C17.5341 24.5771 17.5103 24.4639 17.4858 24.3472C17.4619 24.2266 17.4381 24.1059 17.4134 23.9816C17.3603 23.7141 17.3065 23.4469 17.2518 23.1798C17.1617 22.7395 17.0747 22.2986 16.9882 21.8576C16.8072 20.9374 16.6235 20.0177 16.4393 19.0981C16.3469 18.6367 16.2547 18.1753 16.1625 17.7139C16.0083 16.9426 15.854 16.1714 15.6995 15.4001C15.5211 14.509 15.3429 13.6178 15.1649 12.7265C15.0111 11.9569 14.8572 11.1873 14.7032 10.4177C14.6116 9.95985 14.52 9.50197 14.4285 9.04405C14.343 8.61584 14.2573 8.18767 14.1714 7.75953C14.14 7.60245 14.1086 7.44535 14.0772 7.28823C14.0345 7.07431 13.9916 6.86042 13.9487 6.64656C13.9247 6.52682 13.9007 6.40708 13.876 6.28372C13.817 5.98705 13.817 5.98705 13.7111 5.68749C10.1416 5.63722 10.1416 5.63722 6.50012 5.58593C6.39957 5.88757 6.29902 6.18921 6.19543 6.49999C5.85737 7.05868 5.40999 7.40875 4.77078 7.5664C4.0713 7.68441 3.45158 7.54721 2.83911 7.19188C2.31999 6.80144 2.09568 6.30556 1.9298 5.68749C1.84956 5.03408 1.99082 4.38864 2.38803 3.85698C3.28053 2.90631 4.44014 2.76627 5.5686 3.39519Z" fill="#D32F2F"/>
<path d="M43.2393 13.5898C43.3193 13.589 43.3992 13.5881 43.4816 13.5873C43.7465 13.5848 44.0113 13.5831 44.2761 13.5816C44.3667 13.5811 44.4573 13.5805 44.5506 13.58C45.0303 13.5773 45.5099 13.5753 45.9896 13.5738C46.386 13.5725 46.7822 13.5696 47.1785 13.5655C47.6576 13.5605 48.1367 13.558 48.6158 13.5572C48.798 13.5566 48.9802 13.555 49.1623 13.5526C50.8736 13.531 50.8736 13.531 51.4428 13.9385C52.0478 14.6545 52.0582 15.2446 52.0516 16.1588C52.052 16.2947 52.0527 16.4306 52.0535 16.5665C52.0552 16.9389 52.0544 17.3113 52.0531 17.6837C52.0522 18.0857 52.0536 18.4878 52.0547 18.8898C52.0565 19.6769 52.0561 20.464 52.055 21.2512C52.054 21.8909 52.0539 22.5305 52.0544 23.1702C52.0544 23.2613 52.0545 23.3523 52.0545 23.4461C52.0547 23.6311 52.0548 23.8161 52.0549 24.0011C52.0561 25.7353 52.0548 27.4696 52.0526 29.2039C52.0508 30.692 52.0511 32.1802 52.053 33.6684C52.0551 35.3966 52.056 37.1249 52.0547 38.8531C52.0546 39.0374 52.0545 39.2216 52.0544 39.4059C52.0543 39.4965 52.0542 39.5872 52.0542 39.6806C52.0538 40.3196 52.0544 40.9586 52.0554 41.5976C52.0565 42.3762 52.0562 43.1548 52.054 43.9334C52.053 44.3306 52.0525 44.7279 52.0539 45.1252C52.0551 45.4888 52.0544 45.8525 52.0523 46.2161C52.0516 46.41 52.0529 46.6039 52.0543 46.7978C52.0472 47.5725 51.9746 47.9517 51.4315 48.5108C50.9183 48.92 50.5489 48.9687 49.9121 48.9711C49.8341 48.9718 49.7562 48.9724 49.6758 48.9731C49.4176 48.9751 49.1594 48.9763 48.9011 48.9773C48.8128 48.9777 48.7245 48.9782 48.6334 48.9786C48.1656 48.9807 47.6978 48.9822 47.23 48.9831C46.7479 48.9842 46.2658 48.9877 45.7837 48.9918C45.4121 48.9944 45.0405 48.9953 44.6689 48.9956C44.4912 48.9961 44.3136 48.9973 44.136 48.9992C43.8866 49.0017 43.6373 49.0016 43.3879 49.0009C43.2791 49.0028 43.2791 49.0028 43.168 49.0048C42.5075 48.9981 41.9753 48.7738 41.501 48.312C41.0645 47.5901 41.1038 46.8507 41.1063 46.0304C41.1059 45.8994 41.1056 45.7683 41.1052 45.6334C41.1041 45.2708 41.1043 44.9083 41.1048 44.5457C41.105 44.1543 41.1041 43.7628 41.1033 43.3714C41.102 42.6049 41.1019 41.8385 41.1021 41.072C41.1023 40.4489 41.1021 39.8259 41.1017 39.2028C41.1016 39.0697 41.1016 39.0697 41.1015 38.934C41.1014 38.7538 41.1012 38.5735 41.1011 38.3933C41.1 36.7035 41.1002 35.0137 41.1009 33.3239C41.1014 31.7785 41.1002 30.2332 41.0983 28.6878C41.0963 27.1005 41.0955 25.5131 41.0959 23.9257C41.0961 23.0348 41.0958 22.1439 41.0944 21.2529C41.0932 20.4944 41.093 19.736 41.0943 18.9775C41.0949 18.5907 41.095 18.2039 41.0938 17.817C41.0924 17.3973 41.0935 16.9776 41.0948 16.5579C41.094 16.4362 41.0933 16.3145 41.0925 16.189C41.0973 15.4451 41.1313 14.7045 41.6121 14.1013C41.6718 14.0563 41.7315 14.0112 41.793 13.9648C41.8527 13.9177 41.9124 13.8706 41.9739 13.822C42.3746 13.567 42.7822 13.5924 43.2393 13.5898ZM42.25 14.9297C42.1207 15.1883 42.1352 15.3692 42.1345 15.6589C42.134 15.7711 42.1335 15.8833 42.133 15.9988C42.1329 16.1231 42.1329 16.2474 42.1328 16.3754C42.1324 16.5066 42.1319 16.6378 42.1315 16.773C42.1302 17.1385 42.1297 17.5039 42.1292 17.8693C42.1286 18.263 42.1274 18.6567 42.1263 19.0503C42.1238 20.0016 42.1223 20.9529 42.121 21.9043C42.1207 22.1728 42.1203 22.4414 42.1198 22.71C42.1173 24.3771 42.115 26.0441 42.1138 27.7112C42.1135 28.0974 42.1132 28.4837 42.1129 28.87C42.1128 28.966 42.1127 29.062 42.1126 29.1609C42.1114 30.7167 42.108 32.2724 42.1038 33.8282C42.0994 35.4246 42.0971 37.021 42.0965 38.6175C42.0962 39.5141 42.095 40.4108 42.0916 41.3075C42.0888 42.071 42.0877 42.8346 42.0888 43.5981C42.0893 43.9878 42.089 44.3774 42.0865 44.7671C42.0838 45.1894 42.0851 45.6116 42.0867 46.034C42.0853 46.1573 42.0839 46.2807 42.0824 46.4078C42.0794 47.1043 42.0794 47.1043 42.384 47.709C42.7287 47.9983 42.9918 48.0226 43.4237 48.0131C43.537 48.0142 43.537 48.0142 43.6526 48.0154C43.9014 48.017 44.1499 48.0143 44.3987 48.0113C44.5721 48.0112 44.7455 48.0113 44.9188 48.0116C45.2819 48.0116 45.6448 48.0095 46.0079 48.0058C46.4727 48.0012 46.9374 48.0011 47.4022 48.0024C47.7602 48.0031 48.1181 48.0018 48.476 47.9998C48.6474 47.999 48.8187 47.9988 48.9901 47.9991C49.2298 47.9992 49.4694 47.9966 49.7091 47.9933C49.7796 47.9938 49.8501 47.9943 49.9227 47.9948C50.4027 47.9843 50.6464 47.8693 50.9844 47.5313C51.1136 47.2728 51.0989 47.0928 51.0993 46.8033C51.0999 46.6355 51.0999 46.6355 51.1005 46.4643C51.1004 46.3403 51.1003 46.2164 51.1002 46.0887C51.1005 45.9578 51.1008 45.827 51.1011 45.6921C51.1019 45.3277 51.1021 44.9632 51.1022 44.5987C51.1024 44.2061 51.1031 43.8135 51.1038 43.4208C51.1052 42.5618 51.1058 41.7027 51.1063 40.8436C51.1065 40.3075 51.107 39.7713 51.1074 39.2352C51.1087 37.7515 51.1097 36.2679 51.1101 34.7842C51.1101 34.6892 51.1101 34.5942 51.1101 34.4963C51.1101 34.4011 51.1102 34.3059 51.1102 34.2078C51.1102 34.0148 51.1103 33.8218 51.1103 33.6288C51.1104 33.533 51.1104 33.4373 51.1104 33.3387C51.1108 31.7871 51.1126 30.2356 51.1149 28.684C51.1173 27.0921 51.1186 25.5001 51.1187 23.9082C51.1188 23.0139 51.1194 22.1197 51.1212 21.2255C51.1228 20.4641 51.1233 19.7027 51.1225 18.9413C51.1221 18.5527 51.1222 18.1641 51.1236 17.7754C51.1251 17.3544 51.1243 16.9335 51.1233 16.5125C51.1241 16.3892 51.1249 16.266 51.1257 16.139C51.1251 16.0263 51.1244 15.9136 51.1237 15.7975C51.1238 15.6517 51.1238 15.6517 51.1239 15.503C51.0784 15.1814 50.9681 14.9898 50.7812 14.7266C50.4322 14.467 50.0722 14.4964 49.6486 14.4939C49.5762 14.4933 49.5039 14.4926 49.4293 14.4919C49.1904 14.4899 48.9516 14.4895 48.7127 14.4893C48.5462 14.4887 48.3798 14.488 48.2133 14.4873C47.8645 14.4861 47.5156 14.4857 47.1668 14.4858C46.7205 14.4858 46.2744 14.483 45.8281 14.4795C45.4843 14.4773 45.1405 14.4769 44.7967 14.477C44.6322 14.4767 44.4677 14.4759 44.3032 14.4743C44.0728 14.4723 43.8425 14.4729 43.612 14.4741C43.4811 14.4738 43.3501 14.4735 43.2152 14.4732C42.797 14.5322 42.5765 14.6666 42.25 14.9297Z" fill="#D32F2F"/>
<path d="M3.0948 13.5455C3.27865 13.5454 3.46251 13.5452 3.64636 13.5448C4.03062 13.5445 4.41482 13.5459 4.79907 13.5487C5.2904 13.5522 5.78161 13.5516 6.27294 13.5497C6.65223 13.5486 7.03149 13.5495 7.41078 13.5511C7.59189 13.5516 7.77301 13.5515 7.95413 13.5509C8.20763 13.5503 8.46099 13.5524 8.71448 13.5552C8.78852 13.5545 8.86257 13.5539 8.93885 13.5532C9.55435 13.5646 9.99759 13.7549 10.4347 14.193C10.4916 14.278 10.4916 14.278 10.5497 14.3647C10.609 14.4494 10.609 14.4494 10.6695 14.5357C10.8706 14.9353 10.8799 15.3556 10.8805 15.7958C10.8808 15.9081 10.8812 16.0204 10.8816 16.1361C10.8815 16.259 10.8815 16.3818 10.8814 16.5084C10.8817 16.6393 10.882 16.7702 10.8823 16.9051C10.8831 17.2683 10.8833 17.6315 10.8834 17.9947C10.8835 18.3865 10.8843 18.7783 10.885 19.1701C10.8864 20.0266 10.887 20.8832 10.8874 21.7398C10.8877 22.2746 10.8881 22.8095 10.8886 23.3444C10.8898 24.8254 10.8909 26.3065 10.8912 27.7875C10.8913 27.9296 10.8913 27.9296 10.8913 28.0747C10.8913 28.2172 10.8913 28.2172 10.8914 28.3625C10.8914 28.555 10.8915 28.7475 10.8915 28.94C10.8915 29.0355 10.8916 29.1309 10.8916 29.2293C10.892 30.7767 10.8937 32.3241 10.8961 33.8715C10.8985 35.4603 10.8998 37.0492 10.8999 38.6381C10.9 39.5301 10.9006 40.4221 10.9024 41.3141C10.904 42.0736 10.9045 42.8331 10.9037 43.5926C10.9033 43.98 10.9034 44.3674 10.9048 44.7548C10.9063 45.175 10.9055 45.5952 10.9044 46.0154C10.9057 46.1987 10.9057 46.1987 10.9069 46.3856C10.9022 47.1759 10.8464 47.7952 10.3276 48.4263C9.78655 48.8666 9.3286 48.9984 8.63987 48.9925C8.52234 48.9933 8.52234 48.9933 8.40242 48.9942C8.14486 48.9955 7.88736 48.9946 7.6298 48.9936C7.44997 48.9938 7.27013 48.9941 7.0903 48.9945C6.71398 48.9949 6.33768 48.9943 5.96136 48.9928C5.47983 48.9911 4.99834 48.9921 4.51681 48.9939C4.14564 48.995 3.77447 48.9947 3.4033 48.9939C3.22578 48.9937 3.04827 48.9939 2.87075 48.9946C2.62234 48.9954 2.374 48.9942 2.12559 48.9925C2.05276 48.9932 1.97994 48.9938 1.9049 48.9944C1.28417 48.9866 0.891675 48.8087 0.43156 48.4009C0.0711148 47.9904 -0.0254235 47.7185 -0.0262093 47.1725C-0.0268643 47.0575 -0.0275193 46.9425 -0.0281941 46.824C-0.0278796 46.6976 -0.027565 46.5713 -0.0272409 46.4411C-0.0276203 46.3055 -0.0280877 46.1699 -0.0286354 46.0343C-0.0298798 45.6614 -0.0298508 45.2885 -0.0296116 44.9156C-0.0295702 44.5136 -0.0306907 44.1116 -0.0316545 43.7095C-0.0333428 42.9217 -0.0338999 42.1339 -0.0340132 41.3461C-0.0341096 40.7058 -0.0345269 40.0655 -0.0351712 39.4251C-0.0369603 37.6102 -0.037897 35.7952 -0.0377447 33.9803C-0.0377366 33.8824 -0.0377284 33.7845 -0.0377201 33.6837C-0.0377076 33.5367 -0.0377076 33.5367 -0.0376949 33.3868C-0.0376123 31.7986 -0.039556 30.2104 -0.04242 28.6222C-0.0453367 26.9919 -0.0467407 25.3616 -0.0465651 23.7314C-0.0464976 22.8159 -0.0470571 21.9004 -0.0492419 20.985C-0.0510901 20.2055 -0.0515343 19.4261 -0.0501541 18.6466C-0.0494902 18.2489 -0.0494815 17.8512 -0.0512414 17.4535C-0.0528364 17.0893 -0.052551 16.7252 -0.0507775 16.361C-0.0503173 16.1671 -0.0518549 15.9732 -0.0534668 15.7793C-0.0471458 14.9957 0.043578 14.544 0.557619 13.9389C1.28767 13.4188 2.23922 13.5384 3.0948 13.5455ZM1.11711 14.8281C0.91276 15.1513 0.888343 15.4052 0.887569 15.7839C0.886852 15.8961 0.886134 16.0083 0.885395 16.124C0.88564 16.2472 0.885885 16.3705 0.886138 16.4975C0.885606 16.6285 0.885074 16.7595 0.884526 16.8944C0.883085 17.2582 0.882918 17.6221 0.882962 17.9859C0.882795 18.3782 0.881468 18.7704 0.880302 19.1627C0.877981 20.0205 0.877177 20.8783 0.876663 21.7362C0.876333 22.2717 0.87567 22.8072 0.874937 23.3427C0.872949 24.825 0.871283 26.3073 0.870988 27.7897C0.870969 27.8846 0.87095 27.9794 0.870931 28.0772C0.870893 28.2695 0.870856 28.4618 0.87082 28.6542C0.870801 28.7496 0.870783 28.8451 0.870763 28.9435C0.870745 29.0391 0.870727 29.1347 0.870708 29.2331C0.870348 30.7827 0.867603 32.3322 0.863807 33.8817C0.859941 35.4721 0.857972 37.0626 0.857942 38.653C0.857882 39.5462 0.857016 40.4393 0.854082 41.3325C0.851596 42.0929 0.850851 42.8532 0.852381 43.6136C0.85311 44.0017 0.853016 44.3897 0.850714 44.7777C0.848243 45.1982 0.8497 45.6186 0.851548 46.0392C0.850208 46.162 0.848867 46.2848 0.847486 46.4114C0.845216 47.1058 0.845216 47.1058 1.14939 47.7085C1.49593 47.9998 1.76397 48.0238 2.19859 48.0163C2.27511 48.0174 2.35164 48.0185 2.43048 48.0196C2.68256 48.0223 2.93437 48.0205 3.18644 48.0184C3.36211 48.0188 3.53778 48.0194 3.71345 48.0202C4.08126 48.0211 4.44899 48.0198 4.8168 48.0169C5.28781 48.0135 5.75861 48.0155 6.22962 48.0191C6.59227 48.0213 6.95486 48.0206 7.31751 48.019C7.49114 48.0186 7.66478 48.0191 7.8384 48.0205C8.08135 48.0221 8.32395 48.0197 8.56688 48.0163C8.67405 48.0182 8.67405 48.0182 8.7834 48.0201C9.15617 48.0105 9.32919 47.9497 9.61595 47.7087C9.99585 47.2191 9.92141 46.6279 9.91597 46.036C9.91676 45.9044 9.91755 45.7727 9.91837 45.6371C9.92049 45.2724 9.91944 44.9077 9.91787 44.5429C9.91672 44.1494 9.91849 43.7558 9.91989 43.3622C9.92214 42.5914 9.92166 41.8207 9.92019 41.05C9.91904 40.4236 9.91888 39.7973 9.91944 39.171C9.91951 39.0819 9.91959 38.9928 9.91967 38.9009C9.91983 38.7199 9.92 38.5388 9.92017 38.3578C9.92161 36.66 9.91995 34.9622 9.91722 33.2644C9.91495 31.8072 9.91535 30.3501 9.91769 28.893C9.9204 27.2011 9.92147 25.5093 9.91991 23.8174C9.91975 23.637 9.91959 23.4567 9.91944 23.2763C9.91936 23.1876 9.91928 23.0989 9.9192 23.0074C9.91876 22.3817 9.9195 21.756 9.92069 21.1303C9.92212 20.368 9.92173 19.6057 9.91903 18.8434C9.91769 18.4543 9.91717 18.0653 9.91885 17.6763C9.92064 17.2548 9.91851 16.8335 9.91597 16.412C9.9171 16.2887 9.91823 16.1653 9.9194 16.0382C9.93217 15.3634 9.93217 15.3634 9.60624 14.8053C9.18355 14.515 8.95083 14.5098 8.43563 14.5071C8.36311 14.5066 8.2906 14.5061 8.21588 14.5055C7.97543 14.5041 7.73498 14.5034 7.49452 14.5028C7.32752 14.5022 7.16053 14.5016 6.99353 14.501C6.64305 14.5 6.29258 14.4994 5.94209 14.499C5.49333 14.4985 5.0446 14.496 4.59585 14.4931C4.25073 14.4913 3.90562 14.4907 3.5605 14.4906C3.39508 14.4903 3.22967 14.4894 3.06427 14.4881C2.83257 14.4864 2.60095 14.4866 2.36926 14.4872C2.23748 14.4869 2.10571 14.4865 1.96994 14.4861C1.59647 14.5265 1.4093 14.5952 1.11711 14.8281Z" fill="#D32F2F"/>
<path d="M29.5222 26.7961C29.6015 26.7956 29.6808 26.7951 29.7625 26.7946C30.025 26.7931 30.2875 26.7924 30.55 26.7919C30.7325 26.7913 30.9151 26.7907 31.0976 26.7901C31.4806 26.7891 31.8635 26.7885 32.2464 26.7881C32.7365 26.7875 33.2265 26.7851 33.7166 26.7822C34.0938 26.7803 34.4709 26.7798 34.8481 26.7796C35.0288 26.7793 35.2094 26.7785 35.39 26.7772C35.6431 26.7754 35.8961 26.7756 36.1492 26.7763C36.2234 26.7754 36.2977 26.7744 36.3742 26.7735C36.9367 26.778 37.351 26.9078 37.7673 27.2918C37.8159 27.3515 37.8644 27.4112 37.9145 27.4727C37.9893 27.5622 37.9893 27.5622 38.0656 27.6536C38.3378 28.0436 38.3038 28.451 38.3032 28.9057C38.3035 28.9851 38.3038 29.0646 38.3042 29.1464C38.305 29.4136 38.3052 29.6807 38.3053 29.9478C38.3058 30.1389 38.3063 30.3301 38.3069 30.5213C38.3082 31.0413 38.3089 31.5613 38.3093 32.0813C38.3096 32.406 38.31 32.7308 38.3105 33.0555C38.3119 34.0713 38.3129 35.0871 38.3132 36.1029C38.3137 37.2761 38.3155 38.4493 38.3184 39.6224C38.3206 40.5289 38.3216 41.4353 38.3218 42.3417C38.3219 42.8833 38.3225 43.4248 38.3243 43.9664C38.326 44.4758 38.3262 44.9852 38.3253 45.4946C38.3252 45.6816 38.3257 45.8685 38.3267 46.0555C38.328 46.3108 38.3274 46.566 38.3263 46.8213C38.3275 46.9321 38.3275 46.9321 38.3288 47.0452C38.3234 47.6043 38.1913 48.0178 37.8097 48.4314C37.75 48.48 37.6903 48.5286 37.6288 48.5786C37.5691 48.6285 37.5094 48.6784 37.4479 48.7298C37.06 49.0004 36.6537 48.9694 36.2011 48.9711C36.1231 48.9718 36.0451 48.9724 35.9648 48.9731C35.7066 48.9751 35.4484 48.9763 35.1901 48.9773C35.1018 48.9777 35.0134 48.9782 34.9224 48.9786C34.4546 48.9807 33.9868 48.9822 33.5189 48.9831C33.0368 48.9842 32.5548 48.9877 32.0727 48.9918C31.7011 48.9944 31.3295 48.9953 30.9579 48.9956C30.7802 48.9961 30.6026 48.9973 30.425 48.9992C30.1756 49.0017 29.9263 49.0016 29.6769 49.0009C29.5681 49.0028 29.5681 49.0028 29.457 49.0048C28.9094 48.9992 28.491 48.8446 28.0312 48.5469C27.5008 48.0025 27.3914 47.4842 27.3946 46.7431C27.3942 46.6644 27.3937 46.5858 27.3932 46.5047C27.392 46.2415 27.3921 45.9783 27.3923 45.7151C27.3917 45.5262 27.391 45.3374 27.3902 45.1485C27.3884 44.6356 27.3879 44.1228 27.3878 43.6099C27.3877 43.2894 27.3872 42.9689 27.3867 42.6484C27.3848 41.5299 27.384 40.4115 27.3842 39.2931C27.3843 38.251 27.3821 37.2089 27.3789 36.1668C27.3763 35.2718 27.3752 34.3767 27.3753 33.4817C27.3754 32.9473 27.3748 32.4129 27.3726 31.8785C27.3707 31.3757 27.3707 30.873 27.3721 30.3702C27.3723 30.186 27.3719 30.0017 27.3706 29.8175C27.3691 29.5654 27.37 29.3134 27.3716 29.0613C27.3705 28.9889 27.3695 28.9165 27.3684 28.842C27.3766 28.2384 27.5616 27.7039 27.9786 27.2625C28.4788 26.8293 28.8878 26.7971 29.5222 26.7961ZM28.4374 28.3359C28.3877 28.6167 28.3694 28.8347 28.3743 29.1146C28.3737 29.1922 28.373 29.2699 28.3723 29.3499C28.3708 29.6096 28.3729 29.8692 28.3749 30.129C28.3746 30.3153 28.374 30.5017 28.3732 30.688C28.3718 31.194 28.3735 31.6999 28.3759 32.2058C28.3779 32.7351 28.3773 33.2645 28.3771 33.7938C28.3771 34.6828 28.3791 35.5717 28.3824 36.4607C28.3861 37.4886 28.387 38.5165 28.3863 39.5444C28.3857 40.533 28.3868 41.5216 28.3887 42.5102C28.3896 42.9311 28.3898 43.3519 28.3897 43.7727C28.3896 44.2682 28.391 44.7637 28.3937 45.2592C28.3944 45.4411 28.3946 45.623 28.3943 45.8049C28.3939 46.0531 28.3954 46.3013 28.3974 46.5495C28.3968 46.6215 28.3963 46.6936 28.3957 46.7679C28.4018 47.2074 28.4732 47.4859 28.7421 47.8359C29.0425 47.9862 29.3486 47.9551 29.6781 47.9571C29.7913 47.9583 29.7913 47.9583 29.9069 47.9596C30.1572 47.9621 30.4076 47.9638 30.6579 47.9653C30.7434 47.9658 30.8288 47.9664 30.9169 47.9669C31.3692 47.9696 31.8215 47.9716 32.2739 47.9731C32.7411 47.9748 33.2082 47.9793 33.6754 47.9845C34.0347 47.9879 34.3939 47.9891 34.7531 47.9896C34.9254 47.9903 35.0976 47.9919 35.2698 47.9943C35.511 47.9975 35.752 47.9975 35.9932 47.9968C36.0642 47.9984 36.1352 48.0001 36.2083 48.0018C36.5704 47.9972 36.7482 47.9508 37.0378 47.7289C37.3273 47.3612 37.3446 47.0918 37.3372 46.6426C37.3379 46.5641 37.3386 46.4856 37.3393 46.4047C37.3411 46.1419 37.3393 45.8792 37.3375 45.6164C37.338 45.4279 37.3387 45.2394 37.3397 45.0508C37.3415 44.539 37.3402 44.0273 37.3382 43.5155C37.3366 42.9801 37.3375 42.4448 37.338 41.9094C37.3384 41.0105 37.3368 40.1115 37.334 39.2126C37.3307 38.1728 37.3307 37.133 37.3325 36.0933C37.3341 35.0935 37.3334 34.0937 37.3317 33.0939C37.331 32.6681 37.3311 32.2424 37.3318 31.8167C37.3326 31.3156 37.3314 30.8145 37.3286 30.3134C37.3279 30.1294 37.3279 29.9453 37.3286 29.7612C37.3295 29.5103 37.3279 29.2595 37.3256 29.0085C37.3265 28.9354 37.3273 28.8622 37.3282 28.7869C37.3225 28.4461 37.2944 28.2627 37.0886 27.9861C36.7721 27.7604 36.4766 27.7705 36.1018 27.774C36.0253 27.7731 35.9488 27.7722 35.87 27.7713C35.6174 27.769 35.365 27.7697 35.1124 27.7706C34.9366 27.7701 34.7607 27.7694 34.5849 27.7687C34.2165 27.7676 33.8482 27.7681 33.4798 27.7696C33.008 27.7713 32.5363 27.7689 32.0645 27.7654C31.7015 27.7631 31.3384 27.7633 30.9753 27.7641C30.8014 27.7642 30.6275 27.7635 30.4536 27.762C30.2102 27.7602 29.967 27.7617 29.7236 27.764C29.6162 27.7623 29.6162 27.7623 29.5066 27.7604C28.9716 27.7707 28.7635 27.9224 28.4374 28.3359Z" fill="#D32F2F"/>
<path d="M15.7988 33.4977C15.8768 33.497 15.9547 33.4963 16.0351 33.4956C16.2933 33.4936 16.5515 33.4924 16.8098 33.4914C16.8981 33.491 16.9865 33.4906 17.0775 33.4902C17.5453 33.4881 18.0131 33.4866 18.481 33.4857C18.963 33.4845 19.4451 33.481 19.9272 33.477C20.2988 33.4743 20.6704 33.4735 21.042 33.4731C21.2197 33.4726 21.3973 33.4715 21.5749 33.4696C21.8243 33.4671 22.0736 33.4672 22.323 33.4679C22.3955 33.4666 22.4681 33.4653 22.5429 33.464C23.0905 33.4696 23.5089 33.6241 23.9687 33.9219C24.4156 34.3805 24.6029 34.8339 24.6053 35.4712C24.6061 35.5767 24.607 35.6822 24.6079 35.7909C24.6078 35.9055 24.6077 36.0202 24.6076 36.1383C24.6083 36.2599 24.609 36.3815 24.6097 36.5068C24.6113 36.8396 24.6119 37.1725 24.6121 37.5053C24.6122 37.7135 24.6127 37.9217 24.6132 38.13C24.6151 38.8573 24.6159 39.5845 24.6157 40.3118C24.6156 40.9884 24.6178 41.6649 24.621 42.3414C24.6236 42.9234 24.6247 43.5054 24.6246 44.0873C24.6245 44.4344 24.6251 44.7815 24.6273 45.1286C24.6293 45.5161 24.6287 45.9035 24.6274 46.291C24.6286 46.4051 24.6297 46.5191 24.6309 46.6366C24.6254 47.3206 24.5371 47.761 24.1718 48.3438C23.6267 48.8749 23.1062 48.9836 22.364 48.9826C22.2858 48.9833 22.2076 48.984 22.1271 48.9847C21.8695 48.9866 21.6119 48.987 21.3543 48.9873C21.1745 48.9879 20.9948 48.9886 20.8151 48.9893C20.4386 48.9905 20.0621 48.9909 19.6856 48.9908C19.2042 48.9908 18.7228 48.9935 18.2414 48.997C17.8702 48.9993 17.4991 48.9997 17.1279 48.9996C16.9504 48.9998 16.773 49.0007 16.5956 49.0023C16.3469 49.0043 16.0984 49.0037 15.8497 49.0025C15.7771 49.0036 15.7045 49.0048 15.6297 49.0059C15.0158 48.9983 14.5947 48.7986 14.1433 48.3846C13.8055 47.9478 13.6984 47.6597 13.6966 47.1145C13.6961 47.0072 13.6955 46.9 13.6949 46.7896C13.6948 46.672 13.6947 46.5544 13.6945 46.4332C13.694 46.3093 13.6935 46.1854 13.693 46.0578C13.6918 45.7178 13.691 45.3779 13.6906 45.0379C13.6903 44.8255 13.6899 44.613 13.6894 44.4005C13.688 43.7354 13.687 43.0704 13.6866 42.4053C13.6862 41.6381 13.6844 40.8709 13.6815 40.1037C13.6793 39.5104 13.6783 38.917 13.6781 38.3237C13.678 37.9694 13.6774 37.6152 13.6756 37.261C13.6736 36.8657 13.6741 36.4703 13.6747 36.075C13.6738 35.958 13.6728 35.841 13.6719 35.7205C13.6754 35.0473 13.714 34.5536 14.1902 34.0373C14.2499 33.9888 14.3096 33.9402 14.3711 33.8901C14.4308 33.8403 14.4905 33.7904 14.552 33.739C14.9399 33.4683 15.3462 33.4993 15.7988 33.4977ZM14.7265 34.9375C14.6506 35.332 14.6572 35.7216 14.6608 36.1223C14.6599 36.2434 14.659 36.3645 14.6581 36.4892C14.6563 36.821 14.6567 37.1527 14.6583 37.4845C14.6596 37.832 14.6584 38.1794 14.6576 38.5268C14.6567 39.1104 14.6579 39.6939 14.6603 40.2775C14.6631 40.9517 14.6622 41.6258 14.6594 42.3C14.6571 42.8792 14.6568 43.4584 14.6581 44.0376C14.6589 44.3834 14.659 44.7291 14.6573 45.0749C14.656 45.4606 14.658 45.8461 14.6608 46.2317C14.6598 46.3461 14.6588 46.4604 14.6577 46.5783C14.6643 47.0598 14.6712 47.3441 14.9365 47.7546C15.3007 47.9783 15.588 48.0079 16.0034 48C16.0791 48.0006 16.1548 48.0011 16.2328 48.0017C16.4821 48.0029 16.7311 48.0004 16.9804 47.9978C17.154 47.9976 17.3276 47.9976 17.5013 47.9978C17.8647 47.9977 18.2281 47.9958 18.5915 47.9926C19.0573 47.9885 19.5229 47.9881 19.9887 47.9888C20.347 47.9892 20.7054 47.9879 21.0637 47.9862C21.2355 47.9855 21.4072 47.9852 21.5789 47.9852C21.8189 47.9851 22.0588 47.9829 22.2987 47.9802C22.3696 47.9805 22.4405 47.9808 22.5135 47.9811C22.8196 47.9757 23.0291 47.9517 23.2987 47.8015C23.5808 47.5081 23.5757 47.2153 23.5781 46.8284C23.579 46.7253 23.5799 46.6222 23.5808 46.516C23.5812 46.403 23.5816 46.2899 23.5821 46.1735C23.5829 46.0544 23.5837 45.9353 23.5846 45.8126C23.5871 45.4177 23.5888 45.0229 23.5902 44.628C23.5908 44.492 23.5913 44.3559 23.5919 44.2199C23.5941 43.6541 23.596 43.0883 23.5971 42.5225C23.5988 41.712 23.6021 40.9015 23.6079 40.091C23.6119 39.5209 23.6138 38.9508 23.6144 38.3806C23.6148 38.0402 23.616 37.6998 23.6193 37.3593C23.6225 36.9795 23.6225 36.5998 23.6217 36.22C23.6234 36.1074 23.6251 35.9948 23.6268 35.8787C23.6229 35.4004 23.6169 35.1231 23.3528 34.7154C22.9891 34.4908 22.7027 34.4602 22.2872 34.4672C22.1739 34.4661 22.1739 34.4661 22.0583 34.465C21.8095 34.4632 21.561 34.4652 21.3122 34.4674C21.1388 34.4673 20.9654 34.4671 20.7921 34.4666C20.429 34.4664 20.0661 34.4678 19.7031 34.4706C19.2382 34.4741 18.7735 34.4735 18.3087 34.4716C17.9507 34.4705 17.5928 34.4714 17.2349 34.4729C17.0635 34.4735 16.8922 34.4734 16.7208 34.4728C16.4811 34.4722 16.2415 34.4743 16.0018 34.4771C15.8961 34.4761 15.8961 34.4761 15.7882 34.4751C15.3046 34.4846 15.025 34.5485 14.7265 34.9375Z" fill="#D32F2F"/>
</g>
<defs>
<clipPath id="clip0_5_263">
<rect width="52" height="52" fill="white"/>
</clipPath>
</defs>
</svg>
