<svg width="65" height="65" viewBox="0 0 65 65" fill="none" xmlns="http://www.w3.org/2000/svg">
<path d="M39.8999 3.98514C40.7479 4.58859 41.4135 5.36027 41.7675 6.34766C41.8122 6.64353 41.8547 6.93975 41.8945 7.23633C42.0846 7.23234 42.0846 7.23234 42.2786 7.22827C42.7513 7.21904 43.224 7.21324 43.6968 7.20843C43.9009 7.20589 44.1051 7.20243 44.3092 7.19802C44.6036 7.19182 44.8978 7.18897 45.1923 7.18674C45.2827 7.18412 45.3732 7.1815 45.4665 7.1788C46.2678 7.17844 46.7007 7.48699 47.2662 8.02185C47.4839 8.38479 47.5198 8.56187 47.5573 8.97251C47.5671 9.07534 47.577 9.17816 47.5871 9.2841C47.5971 9.40161 47.5971 9.40161 47.6073 9.52149C47.759 9.52016 47.9107 9.51883 48.067 9.51746C48.6342 9.51283 49.2013 9.50994 49.7684 9.50754C50.0131 9.50627 50.2577 9.50454 50.5024 9.50233C50.8557 9.49922 51.2089 9.4978 51.5622 9.49669C51.6702 9.49538 51.7781 9.49407 51.8894 9.49272C52.9375 9.49253 53.8847 9.5991 54.7167 10.2832C55.5041 11.0763 55.8293 11.8053 55.8737 12.9345C55.873 13.0582 55.8724 13.1818 55.8717 13.3093C55.8713 13.4443 55.8709 13.5793 55.8705 13.7184C55.8694 13.8573 55.8683 13.9963 55.8672 14.1394C55.8667 14.2813 55.8661 14.4232 55.8655 14.5694C55.864 14.918 55.8619 15.2666 55.8593 15.6152C55.9296 15.6126 55.9998 15.6099 56.0722 15.6072C59.1272 15.5067 59.1272 15.5067 60.3617 16.6507C61.1009 17.5385 61.337 18.4952 61.3387 19.6203C61.3394 19.7161 61.34 19.812 61.3406 19.9107C61.3425 20.2275 61.3434 20.5442 61.3441 20.861C61.3448 21.0821 61.3455 21.3032 61.3463 21.5243C61.3476 21.9881 61.3483 22.4519 61.3488 22.9157C61.3495 23.5073 61.3525 24.0989 61.3561 24.6905C61.3585 25.1475 61.3592 25.6045 61.3594 26.0615C61.3597 26.2795 61.3608 26.4974 61.3624 26.7153C61.3744 28.3963 61.3269 29.6959 60.1092 30.9592C59.1623 31.7762 58.102 31.8863 56.8987 31.8732C56.7486 31.8723 56.7486 31.8723 56.5955 31.8714C56.3501 31.8699 56.1047 31.8677 55.8593 31.8652C55.8596 32.0177 55.8596 32.0177 55.86 32.1733C55.8656 34.6497 55.8698 37.126 55.8725 39.6023C55.8738 40.7999 55.8755 41.9974 55.8785 43.195C55.881 44.239 55.8826 45.2831 55.8832 46.3271C55.8835 46.8797 55.8843 47.4322 55.8861 47.9848C55.8879 48.5055 55.8884 49.0262 55.888 49.5469C55.8881 49.7374 55.8886 49.9279 55.8896 50.1185C55.9023 52.7225 55.9023 52.7225 55.0976 53.7012C54.3687 54.4248 53.7865 54.749 52.7363 54.7473C52.6126 54.7477 52.6126 54.7477 52.4865 54.748C52.2112 54.7484 51.936 54.747 51.6608 54.7456C51.4631 54.7456 51.2653 54.7456 51.0676 54.7457C50.5315 54.7458 49.9955 54.7443 49.4594 54.7425C48.8989 54.741 48.3384 54.7408 47.7779 54.7405C46.7168 54.7397 45.6558 54.7376 44.5947 54.7351C43.3866 54.7322 42.1784 54.7309 40.9703 54.7296C38.4854 54.7269 36.0005 54.7225 33.5155 54.7168C33.5574 54.8006 33.5993 54.8844 33.6425 54.9707C33.7448 55.4479 33.7736 55.6538 33.6425 56.1133C33.2551 56.6469 32.8101 57.0995 32.3353 57.5555C32.1112 57.7715 31.893 57.9925 31.675 58.2147C31.5335 58.3545 31.3918 58.4939 31.2497 58.633C31.1849 58.6988 31.1201 58.7647 31.0533 58.8325C30.6994 59.1662 30.4957 59.284 30.0076 59.3404C29.643 59.295 29.3917 59.2484 29.0667 59.0883C28.9802 59.0476 28.8938 59.0069 28.8046 58.965C28.6739 58.9006 28.6739 58.9006 28.5406 58.8348C27.9474 58.5044 27.9474 58.5044 27.3003 58.4362C27.024 58.5312 26.7581 58.638 26.4905 58.7555C26.3348 58.8228 26.3348 58.8228 26.1761 58.8914C25.96 58.9856 25.7441 59.0801 25.5284 59.175C24.9738 59.414 24.4742 59.6047 23.8671 59.668C23.8455 59.7449 23.8239 59.8218 23.8016 59.9011C23.6332 60.4836 23.4521 61.0595 23.2403 61.6278C23.2025 61.7298 23.1647 61.8317 23.1257 61.9368C22.9408 62.2762 22.808 62.3943 22.4706 62.5879C22.1186 62.6281 21.7957 62.6473 21.4436 62.6474C21.3444 62.6484 21.2452 62.6493 21.1429 62.6503C20.9335 62.6517 20.724 62.6521 20.5145 62.6515C20.1948 62.6514 19.8755 62.6567 19.5559 62.6623C19.352 62.6629 19.1481 62.6633 18.9442 62.6633C18.8491 62.6654 18.754 62.6674 18.656 62.6696C18.1581 62.663 17.927 62.609 17.532 62.2969C17.3091 62.0093 17.1576 61.794 17.0369 61.4557C17.0046 61.3673 16.9723 61.2788 16.939 61.1877C16.908 61.0973 16.877 61.0069 16.845 60.9137C16.8115 60.8218 16.7781 60.7299 16.7436 60.6352C16.5038 59.9657 16.5038 59.9657 16.5038 59.668C16.3572 59.6444 16.2106 59.6208 16.0595 59.5966C15.3445 59.4415 14.7013 59.1426 14.0392 58.8398C13.4488 58.5618 13.4488 58.5618 12.8222 58.3984C12.3906 58.5682 11.9817 58.7602 11.5663 58.965C10.992 59.235 10.5504 59.3767 9.90227 59.2871C9.59579 59.0952 9.59579 59.0952 9.31511 58.819C9.20873 58.716 9.10236 58.6131 8.99277 58.507C8.87275 58.3862 8.75274 58.2654 8.63273 58.1445C8.48642 58.0011 8.33996 57.8577 8.19336 57.7146C6.75728 56.3023 6.75728 56.3023 6.65703 55.6451C6.65703 55.0918 6.83834 54.7355 7.09228 54.2612C7.51109 53.5111 7.51109 53.5111 7.57812 52.6798C7.37734 52.0887 7.04656 51.5691 6.72844 51.0352C6.52269 50.5329 6.34758 50.0597 6.34758 49.5117C6.27066 49.4901 6.19375 49.4685 6.1145 49.4463C5.53197 49.2778 4.9561 49.0967 4.38774 48.8849C4.28578 48.8471 4.18383 48.8093 4.07879 48.7703C3.73814 48.5847 3.62094 48.4548 3.42766 48.1152C3.38897 47.7527 3.37124 47.4185 3.37261 47.056C3.37194 46.9536 3.37128 46.8513 3.37059 46.7459C3.36978 46.5299 3.36995 46.3139 3.37103 46.0979C3.37211 45.7677 3.36846 45.4377 3.36443 45.1075C3.36422 44.8974 3.3643 44.6873 3.36468 44.4772C3.36325 44.3787 3.36182 44.2802 3.36035 44.1786C3.36605 43.7364 3.38972 43.4702 3.65311 43.1078C3.93223 42.9124 4.12387 42.8235 4.4537 42.751C5.56436 42.4778 5.56436 42.4778 6.40566 41.7592C6.69386 41.1607 6.85974 40.5354 7.02068 39.8932C7.11148 39.6024 7.23026 39.3716 7.3875 39.1115C7.65882 38.7445 7.65882 38.7445 7.56157 38.3716C7.44404 38.1271 7.32508 37.8833 7.20302 37.6411C7.14591 37.5234 7.0888 37.4058 7.02995 37.2845C6.97333 37.1751 6.9167 37.0656 6.85837 36.9528C6.67303 36.3961 6.55015 35.995 6.72844 35.4199C7.10011 34.9084 7.52491 34.4749 7.98139 34.0389C8.19607 33.8333 8.40519 33.623 8.61414 33.4115C8.7498 33.2779 8.88575 33.1447 9.02202 33.0118C9.11511 32.9182 9.11511 32.9182 9.21008 32.8227C9.67289 32.3874 10.0328 32.2636 10.664 32.2461C10.9392 32.3153 10.9392 32.3153 11.1683 32.4326C11.2537 32.4736 11.339 32.5147 11.4269 32.557C11.5129 32.6011 11.5989 32.6451 11.6875 32.6904C12.5315 33.1239 12.5315 33.1239 13.457 33.0078C13.799 32.8748 14.1318 32.726 14.4646 32.5714C14.6375 32.4917 14.8105 32.4125 14.9839 32.3339C15.068 32.2951 15.1521 32.2564 15.2388 32.2164C15.4882 32.1191 15.4882 32.1191 15.9638 32.0428C16.4439 31.8364 16.4697 31.7609 16.6635 31.2984C16.746 31.068 16.8249 30.8363 16.9006 30.6036C17.2986 29.4153 17.2986 29.4153 17.6772 29.0559C18.1467 28.9076 18.5506 28.9383 19.0429 28.9453C19.0425 28.8592 19.0422 28.7731 19.0418 28.6845C19.0334 26.5875 19.0271 24.4905 19.0232 22.3934C19.0212 21.3793 19.0185 20.3652 19.0142 19.3511C19.0104 18.467 19.0079 17.5828 19.0071 16.6987C19.0066 16.2307 19.0054 15.7628 19.0026 15.2949C18.9995 14.7719 18.9995 14.2489 18.9997 13.7258C18.9983 13.5716 18.9969 13.4173 18.9955 13.2584C18.9997 12.1072 19.1646 11.2213 19.9648 10.3516C20.9032 9.5208 22.0105 9.50215 23.2036 9.50909C23.3209 9.50927 23.4381 9.50945 23.559 9.50963C23.9314 9.51034 24.3039 9.51193 24.6764 9.51355C24.9298 9.51419 25.1833 9.51477 25.4367 9.51529C26.0561 9.51668 26.6755 9.51887 27.2948 9.52149C27.2924 9.35969 27.29 9.19789 27.2876 9.03119C27.2813 8.61052 27.3039 8.3616 27.5726 8.02185C27.6241 7.95296 27.6757 7.88406 27.7288 7.81307C28.2171 7.33676 28.6292 7.19296 29.3138 7.19318C29.4077 7.19515 29.5016 7.19711 29.5983 7.19914C29.6961 7.19968 29.7938 7.20021 29.8945 7.20077C30.2049 7.20289 30.5153 7.20767 30.8257 7.21253C31.0369 7.21444 31.2481 7.21618 31.4593 7.21773C31.9755 7.22192 32.4916 7.22849 33.0077 7.23633C33.0267 7.07474 33.0456 6.91314 33.0652 6.74665C33.1899 5.683 33.8028 4.7947 34.6343 4.13342C36.2541 3.03945 38.2254 2.96785 39.8999 3.98514ZM35.5627 6.33179C35.089 7.02834 35.0073 7.64823 34.9681 8.47164C34.8996 8.82378 34.8224 8.93386 34.5312 9.14063C33.9811 9.28694 33.4281 9.29497 32.8624 9.30775C32.7158 9.31171 32.7158 9.31171 32.5663 9.31574C32.2559 9.32401 31.9455 9.33151 31.6351 9.33899C31.4239 9.34448 31.2127 9.35002 31.0015 9.3556C30.4854 9.36925 29.9692 9.38186 29.453 9.39453C29.453 10.3162 29.453 11.2379 29.453 12.1875C34.7318 12.1875 40.0105 12.1875 45.4491 12.1875C45.4491 11.2658 45.4491 10.3441 45.4491 9.39453C45.1281 9.38831 44.807 9.3821 44.4762 9.37569C44.1635 9.36882 43.8509 9.36155 43.5383 9.35424C43.3219 9.34939 43.1054 9.34497 42.8889 9.34097C42.5769 9.33515 42.265 9.32779 41.953 9.32015C41.8569 9.31868 41.7609 9.31721 41.6619 9.3157C41.1038 9.30031 40.629 9.24269 40.1171 9.01367C39.8409 8.59931 39.8332 8.45563 39.8156 7.97424C39.754 7.19728 39.602 6.56196 39.0107 6.02184C37.8656 5.17204 36.529 5.25494 35.5627 6.33179ZM21.455 12.0605C21.1718 12.4853 21.1696 12.6184 21.1706 13.1138C21.1702 13.2531 21.1699 13.3925 21.1695 13.5362C21.1704 13.6891 21.1713 13.8421 21.1723 13.9997C21.1722 14.1607 21.1722 14.3217 21.1722 14.4876C21.1721 14.9293 21.1736 15.371 21.1753 15.8126C21.1769 16.2742 21.1771 16.7357 21.1774 17.1973C21.1782 18.0713 21.1803 18.9453 21.1828 19.8194C21.1856 20.8144 21.187 21.8095 21.1883 22.8045C21.191 24.8515 21.1954 26.8984 21.2011 28.9453C21.2975 28.9592 21.3939 28.9731 21.4932 28.9875C21.6194 29.0076 21.7455 29.0277 21.8755 29.0485C22.0633 29.0772 22.0633 29.0772 22.2549 29.1065C22.6178 29.2047 22.7516 29.2871 22.9784 29.5801C23.0871 29.827 23.0871 29.827 23.1743 30.1038C23.2086 30.2039 23.2429 30.3041 23.2782 30.4073C23.3479 30.6168 23.4154 30.8271 23.4805 31.0381C23.6696 31.6051 23.6696 31.6051 24.0875 32.0053C24.3499 32.1017 24.6129 32.1736 24.8827 32.2461C25.0564 32.3184 25.2288 32.3941 25.3995 32.4732C25.5269 32.5307 25.5269 32.5307 25.6569 32.5893C25.8296 32.6678 26.0022 32.7469 26.1746 32.8263C27.0134 33.2301 27.0134 33.2301 27.9108 33.1852C28.2626 33.032 28.6025 32.8588 28.944 32.684C29.0293 32.6429 29.1147 32.6018 29.2026 32.5595C29.316 32.5015 29.316 32.5015 29.4317 32.4422C29.8592 32.3348 30.1696 32.3946 30.5956 32.5C31.0811 32.8479 31.4913 33.2702 31.9102 33.6943C32.1105 33.8958 32.3153 34.0917 32.521 34.2878C33.6016 35.3472 33.6016 35.3472 33.6321 36.0249C33.5545 36.5823 33.3263 37.0585 33.0553 37.5464C32.7068 38.1259 32.7068 38.1259 32.6998 38.7753C32.7595 38.8829 32.8192 38.9906 32.8808 39.1016C32.9511 39.2685 33.0196 39.4362 33.0866 39.6044C33.1634 39.7912 33.2403 39.978 33.3172 40.1648C33.3552 40.2574 33.3933 40.35 33.4325 40.4455C33.5083 40.6297 33.5854 40.8134 33.6638 40.9965C33.7695 41.2598 33.7695 41.2598 33.9078 41.7383C34.2727 42.3554 34.7772 42.4723 35.4357 42.6959C35.669 42.7794 35.9021 42.8635 36.1349 42.9483C36.2382 42.9839 36.3415 43.0195 36.4479 43.0561C36.6894 43.1641 36.6894 43.1641 36.8163 43.418C36.8335 43.7639 36.8433 44.1064 36.8466 44.4524C36.8476 44.5551 36.8486 44.6578 36.8497 44.7636C36.8514 44.9811 36.8528 45.1986 36.8538 45.4161C36.856 45.7486 36.8616 46.0809 36.8672 46.4133C36.8684 46.6245 36.8695 46.8358 36.8704 47.047C36.8726 47.1464 36.8748 47.2457 36.8771 47.348C36.8753 47.793 36.8559 48.0606 36.5914 48.426C36.3122 48.6205 36.1198 48.7098 35.7903 48.7822C34.6787 49.0572 34.6787 49.0572 33.8342 49.776C33.5422 50.3676 33.3586 50.989 33.2088 51.63C33.1183 51.9888 32.999 52.3351 32.8808 52.6856C35.4498 52.6944 38.0189 52.7012 40.5879 52.7053C41.7808 52.7072 42.9737 52.7099 44.1665 52.7143C45.2062 52.7181 46.246 52.7205 47.2857 52.7214C47.8362 52.7219 48.3867 52.723 48.9372 52.7258C49.4555 52.7284 49.9738 52.7292 50.4921 52.7286C50.6821 52.7287 50.8722 52.7295 51.0623 52.7309C51.3222 52.7328 51.5821 52.7324 51.842 52.7313C52.06 52.7319 52.06 52.7319 52.2824 52.7324C52.7443 52.6787 53.051 52.5445 53.4472 52.3047C53.6256 51.9479 53.5897 51.6532 53.5894 51.2539C53.5895 51.1713 53.5896 51.0886 53.5897 51.0035C53.5899 50.7253 53.5892 50.4472 53.5886 50.169C53.5885 49.9701 53.5885 49.7712 53.5886 49.5723C53.5886 49.0312 53.5879 48.4901 53.587 47.949C53.5862 47.3839 53.5861 46.8189 53.586 46.2538C53.5856 45.1833 53.5846 44.1127 53.5833 43.0422C53.5819 41.8237 53.5812 40.6051 53.5805 39.3866C53.5792 36.8795 53.577 34.3723 53.5741 31.8652C52.7973 31.8306 52.0208 31.8053 51.2434 31.7885C50.9793 31.7815 50.7153 31.772 50.4514 31.7599C48.9416 31.6328 48.9416 31.6328 47.5961 32.1633C47.3358 32.5206 47.1519 32.8589 46.9726 33.2617C46.8522 33.4441 46.7288 33.6246 46.6001 33.8013C46.4939 33.9598 46.3879 34.1185 46.2823 34.2773C46.2274 34.3587 46.1725 34.44 46.1159 34.5238C45.89 34.8625 45.7055 35.1588 45.5761 35.5469C44.6876 35.7125 44.6876 35.7125 44.1955 35.5627C43.5252 34.8924 43.5881 33.5692 43.4769 32.6597C43.4305 32.2459 43.4305 32.2459 43.2909 31.8652C43.2207 31.8634 43.1504 31.8615 43.078 31.8596C39.6508 31.7587 39.6508 31.7587 38.4667 30.5957C37.4215 29.359 37.5397 27.7623 37.5443 26.2317C37.5442 26.0316 37.5439 25.8315 37.5436 25.6315C37.5432 25.214 37.5438 24.7966 37.5449 24.3792C37.5464 23.8474 37.5456 23.3156 37.544 22.7838C37.5431 22.3712 37.5434 21.9586 37.5441 21.546C37.5442 21.3501 37.544 21.1541 37.5434 20.9582C37.5361 17.8857 37.5361 17.8857 38.67 16.6661C39.5675 15.8321 40.5155 15.6855 41.6983 15.6873C41.8272 15.686 41.9562 15.6847 42.089 15.6834C42.5121 15.6796 42.9352 15.6784 43.3584 15.6772C43.6529 15.6751 43.9475 15.6728 44.2421 15.6703C45.0151 15.6643 45.7882 15.6605 46.5612 15.6572C47.351 15.6534 48.1407 15.6475 48.9304 15.6418C50.4783 15.6309 52.0262 15.6223 53.5741 15.6152C53.5889 15.0757 53.5979 14.5362 53.6059 13.9966C53.6123 13.7668 53.6123 13.7668 53.6188 13.5324C53.6204 13.3851 53.622 13.2378 53.6237 13.0861C53.6264 12.9505 53.6291 12.8148 53.6318 12.6751C53.5602 12.2273 53.4151 12.086 53.0663 11.8066C52.6301 11.5885 52.1289 11.6645 51.649 11.6673C51.5338 11.6675 51.4187 11.6677 51.3 11.6678C50.9313 11.6685 50.5627 11.6701 50.194 11.6718C49.9444 11.6724 49.6948 11.673 49.4452 11.6735C48.8326 11.6749 48.22 11.6771 47.6073 11.6797C47.5925 11.7843 47.5777 11.889 47.5624 11.9968C47.5416 12.134 47.5207 12.2712 47.4992 12.4126C47.4792 12.5487 47.4591 12.6848 47.4384 12.8249C47.3159 13.37 47.1301 13.5926 46.7187 13.9648C46.3028 14.2249 45.9773 14.2511 45.4907 14.2527C45.2704 14.2543 45.2704 14.2543 45.0457 14.256C44.8851 14.2559 44.7245 14.2558 44.5591 14.2556C44.3878 14.2564 44.2166 14.2573 44.0454 14.2582C43.5806 14.2605 43.1157 14.2611 42.6509 14.2612C42.3603 14.2614 42.0698 14.2619 41.7792 14.2626C40.7649 14.265 39.7505 14.266 38.7362 14.2658C37.7917 14.2656 36.8471 14.2683 35.9026 14.2723C35.0909 14.2757 34.2793 14.277 33.4676 14.2769C32.9832 14.2768 32.4988 14.2775 32.0143 14.2802C31.5584 14.2827 31.1026 14.2827 30.6467 14.2808C30.4005 14.2804 30.1543 14.2826 29.9081 14.2848C29.0537 14.2786 28.4897 14.2383 27.8027 13.7109C27.4705 13.2459 27.3993 12.8441 27.3494 12.2877C27.3389 12.1737 27.3284 12.0598 27.3176 11.9423C27.3101 11.8557 27.3026 11.769 27.2948 11.6797C26.5652 11.6703 25.8356 11.6634 25.1059 11.6588C24.8577 11.6569 24.6096 11.6543 24.3615 11.651C24.0044 11.6463 23.6474 11.6442 23.2904 11.6425C23.1798 11.6405 23.0692 11.6386 22.9553 11.6365C22.3508 11.6364 21.9419 11.6609 21.455 12.0605ZM39.9902 18.2813C39.5834 18.8914 39.5929 19.4493 39.5888 20.1706C39.5882 20.256 39.5876 20.3413 39.5869 20.4292C39.5851 20.71 39.5842 20.9908 39.5835 21.2716C39.5828 21.4678 39.582 21.664 39.5813 21.8602C39.58 22.2711 39.5792 22.6819 39.5788 23.0928C39.5781 23.6177 39.5751 24.1425 39.5714 24.6674C39.5691 25.0726 39.5684 25.4778 39.5682 25.8829C39.5678 26.0764 39.5668 26.2698 39.5651 26.4633C39.563 26.7345 39.5632 27.0057 39.564 27.277C39.5636 27.431 39.5631 27.585 39.5626 27.7436C39.633 28.4069 39.8134 28.9044 40.3075 29.3738C40.8255 29.7105 41.2249 29.7236 41.8305 29.7293C41.9931 29.7324 42.1557 29.7354 42.3232 29.7385C42.5812 29.743 42.8391 29.7467 43.0971 29.7484C43.3467 29.7504 43.5963 29.7557 43.8459 29.7611C43.995 29.7629 44.1442 29.7648 44.2979 29.7667C44.7627 29.847 44.9109 29.9727 45.1952 30.3418C45.3004 30.6691 45.3004 30.6691 45.3539 31.0083C45.3729 31.1215 45.3919 31.2348 45.4114 31.3515C45.4239 31.4372 45.4363 31.523 45.4491 31.6113C45.9123 31.2016 46.2177 30.7237 46.5451 30.2054C46.7187 29.9609 46.7187 29.9609 46.9726 29.834C47.3126 29.8211 47.6495 29.8158 47.9895 29.816C48.0946 29.8155 48.1997 29.8151 48.308 29.8146C48.5368 29.8137 48.7655 29.813 48.9942 29.8126C49.3566 29.8117 49.7189 29.8097 50.0813 29.8073C51.1118 29.8007 52.1423 29.7946 53.1728 29.7926C53.8028 29.7913 54.4328 29.7876 55.0628 29.7823C55.3027 29.7807 55.5425 29.7801 55.7824 29.7804C56.1188 29.7807 56.4551 29.7778 56.7915 29.7743C56.8899 29.7752 56.9884 29.776 57.0899 29.7769C57.7909 29.7649 58.2123 29.6212 58.7792 29.1992C59.1674 28.6342 59.2086 28.1652 59.2114 27.4891C59.2122 27.3973 59.2131 27.3056 59.214 27.211C59.2163 26.9097 59.2158 26.6084 59.2151 26.3071C59.2157 26.0965 59.2164 25.8859 59.2171 25.6754C59.2183 25.2349 59.218 24.7944 59.2167 24.3539C59.2152 23.7904 59.2178 23.2269 59.2215 22.6635C59.2239 22.2289 59.2238 21.7943 59.2231 21.3598C59.2231 21.1521 59.2238 20.9443 59.2254 20.7366C59.2273 20.4458 59.2259 20.1552 59.2238 19.8644C59.2238 19.6993 59.2237 19.5341 59.2237 19.364C59.1479 18.83 58.9973 18.5658 58.6523 18.1543C58.1851 17.8178 57.8633 17.7256 57.2908 17.7242C57.1458 17.723 57.0007 17.7217 56.8513 17.7204C56.6933 17.721 56.5354 17.7216 56.3726 17.7221C56.2053 17.7213 56.0381 17.7204 55.8657 17.7195C55.4077 17.7172 54.9498 17.7174 54.4918 17.7181C54.1091 17.7185 53.7264 17.7177 53.3437 17.717C52.4407 17.7152 51.5378 17.7154 50.6348 17.7168C49.704 17.7183 48.7732 17.7165 47.8425 17.7131C47.0426 17.7103 46.2427 17.7094 45.4427 17.7102C44.9653 17.7106 44.4879 17.7103 44.0105 17.7081C43.4781 17.7058 42.9457 17.7076 42.4132 17.7097C42.2555 17.7085 42.0978 17.7073 41.9353 17.706C40.8606 17.7152 40.8606 17.7152 39.9902 18.2813ZM19.0429 31.1035C18.9846 31.2641 18.9264 31.4246 18.8663 31.59C18.7877 31.8008 18.7091 32.0116 18.6303 32.2223C18.5922 32.3281 18.554 32.4339 18.5147 32.5429C18.1411 33.5326 18.1411 33.5326 17.6464 33.7695C17.3396 33.8714 17.0373 33.9623 16.726 34.0472C15.8525 34.2998 15.0684 34.6458 14.2701 35.0798C13.7831 35.3405 13.3785 35.539 12.8222 35.5469C12.4613 35.4291 12.129 35.2656 11.7907 35.0946C11.183 34.7506 11.183 34.7506 10.5162 34.7172C10.1978 34.9835 9.90633 35.2654 9.61662 35.5627C9.44675 35.7361 9.44675 35.7361 9.27345 35.9129C9.1877 36.0016 9.10194 36.0903 9.01359 36.1816C9.07774 36.3286 9.1419 36.4756 9.20799 36.627C9.29138 36.8223 9.37468 37.0177 9.45793 37.2131C9.52151 37.358 9.52151 37.358 9.58637 37.5057C9.81743 38.0527 10.0002 38.4996 9.90227 39.1016C9.75398 39.4454 9.56836 39.763 9.37858 40.0855C8.93044 40.8732 8.63097 41.6264 8.38676 42.4976C8.10689 43.4442 8.10689 43.4442 7.70935 43.8117C7.38508 43.9744 7.07682 44.0802 6.72844 44.1797C6.51031 44.2747 6.29333 44.3725 6.0778 44.4733C5.91546 44.544 5.75312 44.6147 5.58586 44.6875C5.58586 45.4416 5.58586 46.1957 5.58586 46.9727C5.82667 47.0556 5.82667 47.0556 6.07235 47.1403C6.28316 47.2165 6.49392 47.2929 6.70463 47.3694C6.81043 47.4054 6.91623 47.4414 7.02524 47.4785C7.52822 47.6643 7.80671 47.768 8.11699 48.2184C8.1615 48.3519 8.20601 48.4855 8.25187 48.6231C8.29819 48.7615 8.3445 48.8999 8.39222 49.0426C8.43755 49.1922 8.48288 49.3417 8.52958 49.4959C8.79236 50.3346 9.14808 51.0973 9.57332 51.866C9.84757 52.3776 9.98521 52.7412 9.90227 53.3203C9.72303 53.7531 9.51062 54.1589 9.29478 54.5745C9.12324 55.0152 9.0924 55.1709 9.2675 55.6055C9.53287 55.9607 9.53287 55.9607 9.87053 56.2878C9.97985 56.4014 10.0892 56.515 10.2018 56.632C10.5108 56.9074 10.5108 56.9074 10.8539 56.8686C11.3157 56.6935 11.7474 56.4737 12.1859 56.2477C12.8686 56.0077 13.3718 56.0181 14.0193 56.3087C14.166 56.3954 14.3118 56.4837 14.4567 56.5735C15.2816 57.0525 16.1106 57.367 17.024 57.6378C17.5015 57.7827 17.834 57.8851 18.1542 58.2715C18.279 58.5128 18.279 58.5128 18.3858 58.7808C18.4385 58.9108 18.4385 58.9108 18.4923 59.0435C18.5352 59.1527 18.5781 59.2619 18.6224 59.3744C18.7611 59.7226 18.8999 60.0709 19.0429 60.4297C19.797 60.4297 20.5511 60.4297 21.328 60.4297C21.3896 60.26 21.4511 60.0903 21.5145 59.9154C21.6003 59.6927 21.6862 59.47 21.7724 59.2474C21.8323 59.0797 21.8323 59.0797 21.8934 58.9085C22.2116 58.1038 22.2116 58.1038 22.5762 57.8658C22.8356 57.7676 23.0891 57.6985 23.3593 57.6367C23.5012 57.5889 23.6431 57.5411 23.7893 57.4919C23.9275 57.4454 24.0658 57.399 24.2083 57.3511C24.8501 57.1261 25.4201 56.8568 26.0094 56.5179C26.9845 55.9823 26.9845 55.9823 27.5269 56.031C28.0724 56.1938 28.5749 56.4578 29.0781 56.7208C29.4258 56.8923 29.4258 56.8923 29.7144 56.872C30.0812 56.6875 30.3409 56.438 30.6353 56.153C30.8074 55.9912 30.8074 55.9912 30.9829 55.8262C31.2682 55.4981 31.2682 55.4981 31.2244 55.0991C31.0649 54.5949 30.8417 54.144 30.6031 53.6734C30.3769 53.0791 30.401 52.7108 30.6596 52.1291C30.7456 51.9702 30.8328 51.8118 30.9209 51.6541C31.2387 51.0645 31.5089 50.4883 31.7094 49.8479C31.7452 49.7341 31.7809 49.6202 31.8178 49.5029C31.885 49.2806 31.9486 49.0572 32.008 48.8328C32.237 48.0809 32.237 48.0809 32.6309 47.8126C32.9222 47.6816 33.2113 47.577 33.5155 47.4805C33.644 47.4274 33.7725 47.3744 33.9048 47.3198C34.1982 47.2041 34.4917 47.0884 34.7851 46.9727C34.7851 46.2186 34.7851 45.4645 34.7851 44.6875C34.6227 44.6168 34.4604 44.5461 34.2931 44.4733C34.1897 44.4261 34.0863 44.379 33.9797 44.3304C33.7546 44.2298 33.527 44.1346 33.2973 44.0448C32.4613 43.6907 32.4613 43.6907 32.2351 43.3173C32.1508 43.053 32.1508 43.053 32.0799 42.7554C31.9692 42.31 31.8057 41.8911 31.6351 41.4661C31.6027 41.3841 31.5703 41.3021 31.5369 41.2177C31.2815 40.5863 30.9699 40.0051 30.6085 39.4269C30.3906 38.92 30.3824 38.4792 30.5533 37.9516C30.6651 37.6768 30.786 37.4099 30.913 37.1417C31.0596 36.8249 31.2063 36.5081 31.3573 36.1816C30.8546 35.6789 30.3519 35.1762 29.8339 34.6582C29.1338 34.8805 28.485 35.1226 27.8329 35.4616C27.1947 35.6532 26.676 35.3874 26.1137 35.0863C26.0321 35.0419 25.9506 34.9975 25.8666 34.9518C25.0086 34.4993 24.1456 34.1742 23.2136 33.9066C22.8398 33.7941 22.5319 33.6985 22.2405 33.4323C22.0195 32.996 21.8498 32.5475 21.6851 32.0874C21.5673 31.7627 21.4494 31.438 21.328 31.1035C20.5739 31.1035 19.8198 31.1035 19.0429 31.1035Z" fill="#F57C00"/>
<path d="M25.8984 36.8164C26.345 37.132 26.7578 37.4711 27.168 37.832C27.3211 37.9481 27.3211 37.9481 27.4774 38.0666C29.3542 39.643 30.4397 42.1713 30.7227 44.5605C30.9099 47.8239 30.0951 50.6189 27.9059 53.0902C26.0315 55.1165 23.3536 56.2196 20.6239 56.387C17.7154 56.4813 14.9607 55.4046 12.8223 53.4473C10.7002 51.3836 9.6463 48.7451 9.60083 45.8142C9.60865 43.2124 10.4355 40.7982 12.1875 38.8477C12.287 38.7167 12.3865 38.5858 12.489 38.4509C15.8697 34.7483 21.7196 34.2534 25.8984 36.8164ZM14.2014 39.8568C12.9161 41.1868 12.0285 42.8218 11.9336 44.6875C12.0498 44.7014 12.166 44.7153 12.2857 44.7296C12.512 44.7598 12.512 44.7598 12.7429 44.7906C12.8932 44.8098 13.0434 44.8289 13.1982 44.8487C13.584 44.9414 13.584 44.9414 13.8379 45.3223C13.8805 45.5682 13.8805 45.5682 13.8855 45.8301C13.8891 45.9165 13.8927 46.0029 13.8964 46.0919C13.8379 46.3379 13.8379 46.3379 13.6266 46.5546C13.2706 46.7516 13.0048 46.7819 12.6001 46.806C12.4751 46.8144 12.35 46.8227 12.2212 46.8313C12.0788 46.8384 12.0788 46.8384 11.9336 46.8457C11.9842 48.9234 13.1323 50.7002 14.5966 52.1043C15.876 53.1952 17.3558 53.9547 19.043 54.082C19.0539 53.9673 19.0649 53.8526 19.0762 53.7344C19.094 53.5847 19.1119 53.4349 19.1302 53.2806C19.1465 53.1319 19.1627 52.9831 19.1793 52.8299C19.2969 52.4316 19.2969 52.4316 19.5954 52.1872C20.053 52.0015 20.348 52.053 20.8203 52.1777C21.1084 52.6099 21.1206 52.8335 21.1536 53.3441C21.1678 53.551 21.1678 53.551 21.1823 53.7622C21.1885 53.8677 21.1948 53.9733 21.2012 54.082C23.3092 54.0081 25.1022 52.8247 26.5253 51.3406C27.6156 50.0686 28.3963 48.5377 28.4375 46.8457C28.3426 46.841 28.2477 46.8362 28.1499 46.8313C28.0248 46.823 27.8998 46.8146 27.771 46.806C27.6473 46.7987 27.5236 46.7913 27.3961 46.7837C27 46.7112 26.8135 46.6254 26.5332 46.3379C26.4747 46.0919 26.4747 46.0919 26.4856 45.8301C26.4872 45.7437 26.4889 45.6573 26.4906 45.5682C26.5332 45.3223 26.5332 45.3223 26.7871 44.9414C27.1729 44.8487 27.1729 44.8487 27.6282 44.7906C27.7791 44.7705 27.9299 44.7504 28.0854 44.7296C28.2016 44.7157 28.3178 44.7018 28.4375 44.6875C28.3342 42.6569 27.2548 40.828 25.7903 39.4532C24.4465 38.3463 22.9232 37.6783 21.2012 37.4512C21.1979 37.5659 21.1946 37.6806 21.1913 37.7988C21.1805 38.0234 21.1805 38.0234 21.1694 38.2526C21.1635 38.4013 21.1577 38.5501 21.1516 38.7033C21.0742 39.1016 21.0742 39.1016 20.8382 39.3421C20.467 39.5338 20.2171 39.534 19.8047 39.4824C19.5369 39.3421 19.5369 39.3421 19.2969 39.1016C19.1917 38.7033 19.1917 38.7033 19.1382 38.2526C19.1192 38.1028 19.1002 37.9531 19.0807 37.7988C19.0682 37.6841 19.0558 37.5694 19.043 37.4512C17.2782 37.4512 15.4018 38.6766 14.2014 39.8568Z" fill="#F57C00"/>
<path d="M24.5602 16.6921C24.7021 16.6908 24.7021 16.6908 24.8468 16.6894C25.1591 16.6872 25.4711 16.6887 25.7833 16.6904C26.0006 16.69 26.2178 16.6895 26.435 16.6889C26.8901 16.6882 27.3451 16.6892 27.8001 16.6916C28.3833 16.6945 28.9664 16.6928 29.5496 16.6898C29.9981 16.688 30.4465 16.6885 30.895 16.6899C31.1101 16.6902 31.3251 16.6898 31.5401 16.6886C31.8407 16.6873 32.1411 16.6893 32.4417 16.6921C32.5305 16.6911 32.6192 16.6901 32.7107 16.689C33.1114 16.696 33.3587 16.7385 33.6977 16.9574C33.9635 17.3697 33.9668 17.7258 33.9601 18.2009C33.9612 18.341 33.9612 18.341 33.9622 18.4838C33.9638 18.7919 33.9617 19.0999 33.9594 19.408C33.9594 19.6223 33.9596 19.8367 33.96 20.0511C33.9601 20.5002 33.9586 20.9492 33.9557 21.3983C33.9521 21.9738 33.9524 22.5492 33.954 23.1247C33.9549 23.5673 33.9539 24.0099 33.9523 24.4525C33.9518 24.6647 33.9517 24.8769 33.9522 25.089C33.9526 25.3857 33.9505 25.6822 33.9477 25.9788C33.9483 26.0664 33.9489 26.154 33.9495 26.2442C33.9436 26.6249 33.9136 26.8834 33.7266 27.2185C33.2974 27.6321 32.8037 27.5677 32.2392 27.5733C32.1485 27.5744 32.0578 27.5754 31.9644 27.5765C31.6645 27.5796 31.3647 27.5817 31.0648 27.5835C30.911 27.5846 30.911 27.5846 30.7542 27.5856C30.2118 27.589 29.6694 27.5914 29.1271 27.5933C28.6783 27.595 28.2296 27.5985 27.7809 27.6037C27.2388 27.61 26.6968 27.6131 26.1547 27.614C25.9483 27.6149 25.7419 27.6168 25.5355 27.6198C25.2464 27.6238 24.9577 27.6239 24.6686 27.6229C24.5043 27.6239 24.3399 27.625 24.1706 27.626C23.6136 27.5261 23.4316 27.3732 23.1054 26.9141C23.043 26.5705 23.0195 26.3068 23.0253 25.9644C23.0244 25.871 23.0235 25.7776 23.0225 25.6814C23.0204 25.374 23.0229 25.0668 23.0256 24.7593C23.0255 24.5451 23.0252 24.3309 23.0246 24.1167C23.0243 23.6684 23.0261 23.2201 23.0296 22.7718C23.034 22.1973 23.0332 21.623 23.0308 21.0485C23.0295 20.6064 23.0306 20.1643 23.0325 19.7223C23.0332 19.5104 23.0331 19.2986 23.0323 19.0868C23.0316 18.7907 23.0342 18.4949 23.0377 18.1989C23.0369 18.1115 23.036 18.0241 23.0352 17.9341C23.0431 17.5372 23.0876 17.2932 23.3044 16.9575C23.7196 16.689 24.0812 16.6866 24.5602 16.6921ZM25.2636 18.916C25.2636 21.0526 25.2636 23.1893 25.2636 25.3906C27.4002 25.3906 29.5369 25.3906 31.7382 25.3906C31.7382 24.05 31.7382 22.7094 31.7382 21.3281C31.1561 21.8271 30.6423 22.2917 30.1434 22.8595C28.9724 24.1907 28.9724 24.1907 28.3026 24.3274C27.5207 24.1611 27.0224 23.2996 26.557 22.6849C26.4932 22.6055 26.4295 22.526 26.3638 22.4442C25.9059 21.8368 25.8179 21.4518 25.8984 20.6934C26.0253 20.4395 26.0253 20.4395 26.2792 20.3125C26.6716 20.2619 26.9192 20.2331 27.2949 20.3125C27.7072 20.6424 28.0075 21.0245 28.3105 21.4551C29.3504 20.9884 30.228 19.8483 30.8496 18.916C29.0062 18.916 27.1628 18.916 25.2636 18.916Z" fill="#F57C00"/>
<path d="M55.0248 19.5324C55.2936 19.6854 55.5051 19.8491 55.7324 20.0586C55.8118 20.1309 55.8912 20.2033 55.973 20.2778C56.8894 21.2154 57.1994 22.4136 57.2876 23.6926C57.2664 24.9267 56.8684 26.2137 56.0374 27.1402C55.3864 27.7453 54.7209 28.0132 53.844 28.1122C52.9031 28.0642 52.1422 27.7045 51.4954 27.0252C50.5355 25.85 50.2766 24.4631 50.4004 22.9785C50.6659 21.6754 51.1289 20.5174 52.2412 19.7333C53.0983 19.2698 54.1034 19.2075 55.0248 19.5324ZM53.0982 21.9074C52.5994 22.5922 52.4364 23.4132 52.5586 24.2481C52.7587 24.9412 52.9331 25.5125 53.5742 25.8985C53.8947 25.9277 53.8947 25.9277 54.209 25.7715C54.8081 25.1863 55.0915 24.6469 55.1016 23.7854C55.0521 22.8795 54.8646 22.2377 54.209 21.582C53.6655 21.4854 53.5078 21.5257 53.0982 21.9074Z" fill="#F57C00"/>
<path d="M20.4351 39.9317C20.8471 40.025 20.9656 40.1428 21.2012 40.498C21.2722 41.0811 21.2409 41.6702 21.2186 42.256C21.2054 42.9549 21.2054 42.9549 21.5497 43.5317C21.8166 43.7319 21.8166 43.7319 22.0948 43.8877C22.5199 44.1694 22.7089 44.5895 22.8516 45.0683C22.8546 45.233 22.8575 45.3976 22.8606 45.5672C22.8986 45.9077 22.9323 46.0411 23.1865 46.2766C23.468 46.4516 23.7526 46.6037 24.0498 46.7505C24.2486 46.8531 24.4468 46.9568 24.6444 47.0619C24.7326 47.106 24.8209 47.15 24.9119 47.1954C25.1884 47.3897 25.2772 47.5449 25.3907 47.8613C25.3683 48.2875 25.3426 48.6185 25.1209 48.988C24.7387 49.2174 24.4398 49.2408 23.9942 49.2578C23.6193 49.1117 23.2923 48.9039 22.9548 48.6865C22.7793 48.5753 22.6029 48.4655 22.4256 48.3572C22.3489 48.3079 22.2721 48.2585 22.193 48.2077C21.7833 48.043 21.4579 48.2412 21.0584 48.385C20.2829 48.5601 19.5286 48.5275 18.8129 48.1549C18.2057 47.7143 17.7068 47.2136 17.5196 46.4648C17.423 45.4544 17.5735 44.7971 18.1385 43.9496C18.4303 43.6492 18.6553 43.5594 19.043 43.418C19.0401 43.2527 19.0371 43.0874 19.0341 42.9171C19.0317 42.6979 19.0294 42.4787 19.0272 42.2595C19.024 42.0965 19.024 42.0965 19.0207 41.9302C19.016 41.3216 19.0325 40.8062 19.2969 40.2441C19.705 39.9721 19.9538 39.9521 20.4351 39.9317ZM19.9317 45.3223C19.8479 45.406 19.7641 45.4898 19.6778 45.5762C19.7185 45.9066 19.7185 45.9066 19.8048 46.2109C20.038 46.309 20.038 46.309 20.3126 46.3379C20.5559 46.2003 20.5559 46.2003 20.6934 45.957C20.6645 45.6824 20.6645 45.6824 20.5665 45.4492C20.2621 45.3629 20.2621 45.3629 19.9317 45.3223Z" fill="#F57C00"/>
<path d="M36.8956 36.2764C37.0763 36.2753 37.0763 36.2753 37.2607 36.2742C37.3927 36.2747 37.5247 36.2752 37.6607 36.2758C37.7998 36.2753 37.939 36.2749 38.0824 36.2744C38.5436 36.2733 39.0048 36.274 39.4661 36.2749C39.7859 36.2747 40.1058 36.2745 40.4257 36.2742C41.0966 36.2738 41.7676 36.2743 42.4386 36.2755C43.214 36.2769 43.9895 36.2764 44.7649 36.275C45.511 36.2738 46.2571 36.2739 47.0032 36.2746C47.3206 36.2748 47.6381 36.2746 47.9555 36.274C48.3989 36.2734 48.8424 36.2743 49.2858 36.2758C49.4175 36.2752 49.5492 36.2747 49.6849 36.2742C49.8058 36.2749 49.9267 36.2756 50.0512 36.2764C50.156 36.2765 50.2608 36.2766 50.3688 36.2767C50.7823 36.3229 51.066 36.4435 51.3287 36.7688C51.4571 37.2123 51.4451 37.6494 51.2891 38.086C50.9161 38.4275 50.671 38.5146 50.1693 38.516C50.0465 38.5173 49.9237 38.5185 49.7972 38.5198C49.6633 38.5193 49.5294 38.5187 49.3915 38.5181C49.179 38.5194 49.179 38.5194 48.9622 38.5208C48.4934 38.5231 48.0247 38.5226 47.5558 38.5219C47.2305 38.5224 46.9051 38.5231 46.5797 38.5239C45.8975 38.525 45.2154 38.5247 44.5332 38.5234C43.7448 38.522 42.9565 38.5238 42.1682 38.5272C41.4094 38.5303 40.6506 38.5306 39.8918 38.5298C39.5691 38.5298 39.2463 38.5306 38.9236 38.5321C38.4728 38.534 38.0222 38.5327 37.5714 38.5305C37.4375 38.5317 37.3036 38.533 37.1657 38.5342C36.2644 38.5251 36.2644 38.5251 35.8483 38.2322C35.6189 37.873 35.5556 37.6239 35.5469 37.1973C35.8443 36.5429 36.1774 36.277 36.8956 36.2764Z" fill="#F57C00"/>
<path d="M46.4807 19.3841C46.5982 19.3805 46.7157 19.3768 46.8368 19.373C47.7597 19.3645 48.4133 19.5491 49.1294 20.1399C49.7988 20.9535 50.1023 21.7224 50.0632 22.7861C49.9421 23.6719 49.5186 24.3537 48.8671 24.9537C48.1806 25.4685 47.5642 25.5348 46.7188 25.5176C46.7261 25.6583 46.7335 25.799 46.7411 25.9441C46.747 26.1298 46.7528 26.3156 46.7584 26.5015C46.7638 26.5941 46.7691 26.6867 46.7746 26.7821C46.7859 27.2789 46.7685 27.4959 46.4227 27.8642C46.0071 28.1003 45.7933 28.1351 45.3223 28.0566C44.7369 27.6924 44.7369 27.6924 44.608 27.3177C44.5543 27.0046 44.5425 26.7091 44.5401 26.3915C44.5389 26.2622 44.5377 26.1329 44.5364 25.9998C44.5359 25.8608 44.5353 25.7218 44.5348 25.5786C44.5341 25.4349 44.5333 25.2912 44.5326 25.1431C44.5314 24.8391 44.5306 24.535 44.5301 24.231C44.5288 23.7671 44.5249 23.3033 44.5209 22.8394C44.5201 22.5438 44.5194 22.2481 44.5189 21.9525C44.5173 21.8142 44.5158 21.676 44.5142 21.5336C44.5164 20.7759 44.5631 20.2151 44.9414 19.5508C45.4105 19.3163 45.9644 19.3894 46.4807 19.3841ZM46.7188 21.582C46.7188 22.1685 46.7188 22.7551 46.7188 23.3594C47.4347 23.3063 47.4347 23.3063 47.7265 23.0261C47.9224 22.5881 47.8529 22.293 47.7344 21.8359C47.3418 21.5233 47.3418 21.5233 46.7188 21.582Z" fill="#F57C00"/>
<path d="M40.5693 41.9578C40.7335 41.9567 40.7335 41.9567 40.901 41.9557C41.2627 41.9541 41.6242 41.9562 41.9859 41.9585C42.2372 41.9585 42.4886 41.9583 42.74 41.9579C43.2668 41.9577 43.7935 41.9593 44.3203 41.9622C44.9957 41.9658 45.671 41.9655 46.3464 41.9639C46.8654 41.963 47.3845 41.964 47.9036 41.9656C48.1526 41.9661 48.4016 41.9662 48.6507 41.9657C48.9987 41.9653 49.3466 41.9674 49.6945 41.9702C49.7976 41.9696 49.9006 41.969 50.0067 41.9684C50.427 41.974 50.7275 41.991 51.0972 42.2003C51.387 42.5053 51.4046 42.7559 51.4384 43.1635C51.4025 43.5735 51.1992 43.7785 50.9083 44.0527C50.5067 44.2535 50.0745 44.1995 49.6334 44.2001C49.4751 44.2011 49.4751 44.2011 49.3137 44.202C48.9636 44.2039 48.6136 44.2048 48.2636 44.2055C48.0207 44.2062 47.7778 44.2069 47.5349 44.2076C47.0251 44.209 46.5153 44.2097 46.0054 44.2102C45.3523 44.2109 44.6991 44.2139 44.046 44.2175C43.544 44.2199 43.042 44.2206 42.5401 44.2207C42.2993 44.2211 42.0585 44.2222 41.8177 44.2238C41.4807 44.226 41.1437 44.2257 40.8067 44.2249C40.7073 44.2261 40.6079 44.2273 40.5054 44.2285C39.9311 44.2241 39.5571 44.1574 39.1016 43.7988C38.903 43.4015 38.8862 42.9595 38.9747 42.5293C39.4026 41.9273 39.8852 41.9496 40.5693 41.9578Z" fill="#F57C00"/>
<path d="M41.5672 47.587C41.6628 47.5863 41.7584 47.5857 41.8569 47.5851C42.1733 47.5832 42.4896 47.5823 42.806 47.5816C43.026 47.5809 43.2459 47.5802 43.4658 47.5794C43.9271 47.5781 44.3883 47.5774 44.8496 47.5769C45.4403 47.5762 46.0309 47.5732 46.6216 47.5696C47.076 47.5672 47.5304 47.5665 47.9847 47.5663C48.2025 47.566 48.4202 47.5649 48.638 47.5633C48.9428 47.5611 49.2475 47.5613 49.5523 47.5622C49.642 47.561 49.7317 47.5598 49.8242 47.5586C50.377 47.5633 50.7237 47.6479 51.1621 47.9883C51.4599 48.4349 51.4896 48.605 51.416 49.1309C51.0701 49.5846 50.8822 49.7486 50.3131 49.8445C50.1293 49.8475 49.9454 49.847 49.7616 49.8437C49.6608 49.8444 49.56 49.8451 49.4561 49.8459C49.124 49.8474 48.792 49.8443 48.4599 49.841C48.2286 49.8408 47.9973 49.8408 47.7661 49.841C47.2819 49.8408 46.7977 49.8384 46.3136 49.8344C45.693 49.8294 45.0725 49.8288 44.4519 49.8298C43.9745 49.8302 43.4972 49.8286 43.0198 49.8265C42.791 49.8256 42.5621 49.8252 42.3333 49.8253C42.0136 49.8251 41.694 49.8224 41.3743 49.8189C41.2798 49.8193 41.1852 49.8197 41.0879 49.8201C40.5624 49.8114 40.2375 49.7681 39.8633 49.3848C39.7282 49.0484 39.7054 48.7293 39.7363 48.3691C40.2038 47.5844 40.7232 47.5883 41.5672 47.587Z" fill="#F57C00"/>
<path d="M42.9224 19.3738C43.2949 19.451 43.4552 19.6284 43.6718 19.9317C43.7993 20.3144 43.8163 20.5747 43.8192 20.975C43.8204 21.1102 43.8216 21.2453 43.8229 21.3846C43.8234 21.5306 43.8239 21.6766 43.8245 21.827C43.8252 21.9771 43.8259 22.1273 43.8267 22.2819C43.8279 22.5997 43.8287 22.9175 43.8292 23.2353C43.8304 23.7216 43.8344 24.2077 43.8384 24.6939C43.8392 25.0025 43.8399 25.3111 43.8404 25.6197C43.8419 25.7652 43.8435 25.9107 43.8451 26.0606C43.8447 26.1966 43.8444 26.3326 43.844 26.4727C43.8444 26.5919 43.8449 26.7111 43.8454 26.834C43.7888 27.2392 43.6579 27.4736 43.4179 27.8027C42.9712 28.1005 42.8011 28.1303 42.2753 28.0567C41.9476 27.8471 41.8219 27.754 41.6405 27.4219C41.5449 26.8616 41.5547 26.3065 41.5607 25.7393C41.5604 25.5751 41.5601 25.411 41.5597 25.2418C41.5594 24.8951 41.5612 24.5484 41.5647 24.2017C41.5691 23.7579 41.5683 23.3142 41.5659 22.8703C41.5642 22.446 41.5666 22.0217 41.5686 21.5974C41.568 21.4382 41.5673 21.279 41.5667 21.1149C41.5687 20.967 41.5707 20.8192 41.5728 20.6668C41.5736 20.5368 41.5744 20.4068 41.5752 20.2728C41.7218 19.5072 42.2249 19.3387 42.9224 19.3738Z" fill="#F57C00"/>
</svg>
