<svg width="56" height="56" viewBox="0 0 56 56" fill="none" xmlns="http://www.w3.org/2000/svg">
<path d="M40.9883 2.49512C41.118 2.49378 41.2477 2.49244 41.3814 2.49106C42.2426 2.48965 43.135 2.49657 43.9688 2.73437C44.2218 3.11395 44.2433 3.27232 44.1875 3.71875C43.8109 4.09831 43.3006 4.21545 42.8067 4.38184C40.2917 5.275 37.7281 6.93397 36.0938 9.07812C37.2668 9.75713 38.4621 10.3869 39.6671 11.0072C40.4415 11.4069 41.2098 11.8152 41.9727 12.2363C42.939 12.7692 43.9166 13.2777 44.8984 13.7812C45.9913 14.3418 47.0784 14.9102 48.1534 15.5045C48.2811 15.5751 48.2811 15.5751 48.4113 15.647C48.4999 15.6978 48.5885 15.7486 48.6798 15.8009C48.9341 15.9342 49.1796 16.0438 49.4447 16.1511C50.9048 16.7752 51.3555 17.6399 51.9326 19.0723C52.0188 19.2736 52.1055 19.4748 52.1927 19.6757C52.3652 20.0749 52.5346 20.4751 52.7014 20.8767C52.9102 21.3772 53.1314 21.8706 53.3605 22.3621C53.4233 22.4979 53.4862 22.6337 53.549 22.7695C53.662 23.0134 53.7754 23.2572 53.8891 23.5008C54.3898 24.6148 54.3898 24.6148 54.25 25.1563C54.0923 25.2867 54.0923 25.2867 53.8822 25.4112C53.8031 25.4581 53.7239 25.505 53.6424 25.5533C53.1573 25.8251 52.6659 26.0837 52.1719 26.3389C52.0663 26.3938 51.9607 26.4487 51.8519 26.5053C51.5941 26.6393 51.3362 26.7729 51.0781 26.9063C51.0784 26.9801 51.0786 27.0539 51.0789 27.1299C51.0845 28.9265 51.0853 30.7229 51.0807 32.5195C51.0786 33.3883 51.0781 34.2571 51.0815 35.1259C51.0844 35.8832 51.0843 36.6405 51.0805 37.3978C51.0786 37.7988 51.0782 38.1996 51.0815 38.6006C51.0852 39.0485 51.0819 39.4961 51.0781 39.9439C51.0803 40.0766 51.0824 40.2092 51.0846 40.3459C51.0693 41.2241 51.0693 41.2241 50.7805 41.5678C50.5583 41.7382 50.3424 41.872 50.0938 42C50.0236 42.0402 49.9535 42.0804 49.8813 42.1218C49.6917 42.2298 49.4989 42.3277 49.3034 42.4247C49.231 42.4614 49.1587 42.4982 49.0842 42.5361C48.9307 42.6141 48.777 42.6917 48.6231 42.769C48.2158 42.9736 47.8098 43.181 47.4038 43.3881C47.3235 43.429 47.2432 43.4699 47.1605 43.512C46.5231 43.8374 45.8936 44.1756 45.2676 44.5225C44.3152 45.0491 43.3511 45.5503 42.3828 46.0469C41.3094 46.5974 40.2437 47.1583 39.1875 47.7413C38.2964 48.2311 37.3932 48.6961 36.4889 49.1607C35.6264 49.6042 34.7691 50.0556 33.9199 50.5244C32.7857 51.1505 31.6353 51.7438 30.4821 52.334C30.4126 52.3697 30.343 52.4053 30.2714 52.4421C30.1358 52.5115 30.0001 52.5809 29.8643 52.65C29.4151 52.8802 28.979 53.1263 28.5511 53.3938C28.1412 53.5603 27.7931 53.5307 27.3846 53.3747C27.2888 53.3235 27.193 53.2723 27.0942 53.2195C26.9854 53.1621 26.8766 53.1048 26.7645 53.0456C26.6489 52.9829 26.5332 52.9201 26.4141 52.8555C26.2925 52.7909 26.1709 52.7263 26.0457 52.6597C25.1837 52.2003 24.3269 51.731 23.4712 51.26C22.5687 50.7653 21.6545 50.2941 20.7391 49.8237C19.8765 49.3802 19.0192 48.9288 18.1699 48.46C17.1354 47.889 16.0872 47.3472 15.0359 46.808C14.0417 46.2979 13.0561 45.7754 12.0778 45.2351C11.2137 44.7603 10.3381 44.3094 9.46095 43.8594C8.42627 43.328 7.39399 42.7931 6.3711 42.2393C6.2722 42.1862 6.17329 42.1331 6.07139 42.0784C5.98137 42.0293 5.89134 41.9801 5.79859 41.9295C5.72108 41.8874 5.64357 41.8452 5.56371 41.8018C5.34312 41.6615 5.19499 41.5486 5.03126 41.3438C4.98918 41.0779 4.98917 41.0779 4.98765 40.7562C4.98559 40.5733 4.98559 40.5733 4.98349 40.3867C4.98365 40.2529 4.98381 40.1191 4.98397 39.9812C4.98285 39.8403 4.98174 39.6995 4.98059 39.5543C4.97757 39.1679 4.97656 38.7815 4.9759 38.3951C4.97488 37.9914 4.97201 37.5876 4.96934 37.1838C4.96456 36.4192 4.96144 35.6546 4.95891 34.8899C4.95596 34.0194 4.95115 33.1489 4.94619 32.2784C4.93603 30.4877 4.9282 28.697 4.92188 26.9063C4.78941 26.8384 4.78941 26.8384 4.65427 26.7692C4.32674 26.6011 3.9994 26.4327 3.67219 26.264C3.53053 26.1911 3.38879 26.1183 3.24697 26.0457C3.04315 25.9413 2.83961 25.8364 2.63612 25.7313C2.51354 25.6683 2.39097 25.6053 2.26468 25.5404C1.96876 25.375 1.96876 25.375 1.75001 25.1563C1.69644 24.5736 1.80113 24.1861 2.04737 23.6609C2.07891 23.5923 2.11044 23.5236 2.14294 23.4529C2.28385 23.1476 2.42896 22.8443 2.57386 22.5409C2.69089 22.2956 2.80743 22.0501 2.92365 21.8045C2.98313 21.6792 2.98313 21.6792 3.04381 21.5514C3.31747 20.965 3.54463 20.3718 3.75849 19.7614C4.48777 17.7489 5.2266 16.6224 7.19914 15.6955C7.6008 15.5128 8.00598 15.3402 8.41403 15.1723C9.03014 14.9173 9.61293 14.6036 10.1992 14.2871C10.3988 14.1831 10.5984 14.0792 10.7982 13.9756C11.382 13.67 11.9598 13.3538 12.5371 13.0361C13.5404 12.4842 14.5552 11.9563 15.5736 11.433C16.4316 10.9919 17.2843 10.5428 18.1289 10.0762C19.1307 9.52302 20.1456 8.99805 21.1641 8.47656C22.2006 7.94578 23.2335 7.41093 24.2539 6.84961C24.3475 6.79825 24.4412 6.7469 24.5376 6.69398C24.7221 6.59275 24.9066 6.49149 25.0911 6.39021C25.1848 6.33879 25.2785 6.28736 25.375 6.23437C25.5299 6.1492 25.5299 6.1492 25.688 6.0623C26.0022 5.89036 26.3173 5.72037 26.6328 5.55078C26.7277 5.49842 26.8225 5.44606 26.9203 5.39211C27.7929 4.92675 27.7929 4.92675 28.3281 5.03125C28.6651 5.17289 28.9807 5.34388 29.2988 5.52344C29.3846 5.57039 29.4703 5.61734 29.5586 5.66571C29.7689 5.78114 29.9785 5.89779 30.1875 6.01562C30.2541 5.97178 30.3206 5.92793 30.3892 5.88275C33.6446 3.7715 37.0795 2.49721 40.9883 2.49512ZM30.2969 7.76562C30.1903 7.85769 30.0837 7.94976 29.9739 8.04462C27.4871 10.2263 26.0341 13.003 25.0081 16.1097C24.9375 16.2969 24.9375 16.2969 24.8281 16.4062C24.5936 16.4236 24.3586 16.4337 24.1236 16.4409C23.9809 16.4454 23.8381 16.45 23.691 16.4547C23.5391 16.4591 23.3872 16.4634 23.2354 16.4678C23.083 16.4725 22.9307 16.4773 22.7784 16.4821C22.4044 16.4937 22.0303 16.5049 21.6563 16.5156C22.5151 17.52 23.393 18.4856 24.3368 19.4109C24.6767 19.746 25.0032 20.0858 25.3148 20.4476C25.7201 20.9175 26.1559 21.3517 26.5986 21.7861C27.5091 22.6798 27.5091 22.6798 27.8906 23.1875C28.2726 23.0274 28.4785 22.8247 28.7451 22.5107C29.2559 21.9271 29.7986 21.382 30.3523 20.8393C30.6926 20.5036 31.0196 20.1634 31.3317 19.8011C31.7982 19.2602 32.3071 18.7655 32.8168 18.2656C33.6771 17.4654 33.6771 17.4654 34.3438 16.5156C34.2154 16.5115 34.2154 16.5115 34.0844 16.5073C33.6992 16.4947 33.314 16.4812 32.9287 16.4678C32.794 16.4635 32.6593 16.4592 32.5205 16.4547C32.3925 16.4502 32.2646 16.4456 32.1328 16.4409C32.0142 16.4368 31.8956 16.4328 31.7735 16.4287C31.5 16.4062 31.5 16.4062 31.3906 16.2969C31.3593 15.6855 31.4229 15.1611 31.6025 14.5742C31.6383 14.4558 31.6383 14.4558 31.6749 14.335C33.1164 9.78621 36.313 6.19851 40.4688 3.9375C40.4688 3.90141 40.4688 3.86531 40.4688 3.82812C36.7726 3.76232 33.0432 5.34027 30.2969 7.76562ZM27.1643 6.81372C27.0911 6.85141 27.0178 6.88909 26.9424 6.92792C26.7022 7.05173 26.4624 7.17623 26.2227 7.30078C26.0562 7.38687 25.8897 7.47295 25.7233 7.55902C24.7371 8.07001 23.7581 8.59219 22.786 9.1295C21.9256 9.60286 21.0534 10.0519 20.1797 10.5C19.2069 10.9989 18.2383 11.5026 17.2813 12.0312C16.3242 12.5599 15.3556 13.0636 14.3828 13.5625C13.3112 14.1121 12.2472 14.6719 11.1927 15.2541C9.84647 15.9941 8.47618 16.6895 7.10938 17.3906C7.44328 17.6551 7.78785 17.8593 8.1634 18.0597C8.28612 18.1254 8.40883 18.191 8.53526 18.2587C8.66836 18.3294 8.80147 18.4 8.93458 18.4707C9.07254 18.5443 9.21048 18.6179 9.34842 18.6915C10.3481 19.2242 11.3527 19.7471 12.359 20.2673C13.08 20.6411 13.7946 21.025 14.5059 21.417C15.5497 21.9921 16.6069 22.5387 17.6672 23.0825C18.6614 23.5927 19.647 24.1152 20.6253 24.6555C21.5613 25.1698 22.511 25.6563 23.4612 26.1436C24.6943 26.7762 25.9152 27.4286 27.127 28.1012C27.1985 28.14 27.2701 28.1788 27.3438 28.2188C27.4194 28.26 27.495 28.3013 27.5729 28.3439C27.9042 28.4928 28.0876 28.4265 28.4375 28.3281C28.83 28.1523 29.2073 27.9508 29.5859 27.7471C29.7534 27.6584 29.7534 27.6584 29.9242 27.5679C30.7462 27.131 31.5621 26.6831 32.3776 26.2341C33.3758 25.6877 34.3885 25.1706 35.4013 24.652C36.4358 24.122 37.4624 23.5809 38.4799 23.0187C39.2993 22.5679 40.1292 22.1383 40.9609 21.7109C41.9875 21.1835 43.0064 20.6449 44.0164 20.0863C44.6182 19.7555 45.225 19.436 45.8363 19.1231C45.9129 19.0838 45.9896 19.0445 46.0685 19.0041C46.4494 18.8091 46.8307 18.615 47.2126 18.422C47.3528 18.3505 47.493 18.279 47.6333 18.2075C47.8191 18.1135 47.8191 18.1135 48.0086 18.0176C48.3329 17.8343 48.6075 17.6318 48.8906 17.3906C48.7939 17.3412 48.6972 17.2917 48.5975 17.2408C45.358 15.5836 45.358 15.5836 43.7707 14.7066C42.9511 14.2556 42.121 13.826 41.2891 13.3984C40.2326 12.8555 39.1834 12.3013 38.1426 11.7287C37.1748 11.1966 36.1978 10.6829 35.2188 10.1719C34.4544 11.102 33.9003 12.0951 33.4346 13.2002C33.3812 13.3267 33.3812 13.3267 33.3268 13.4557C33.0783 14.0637 32.882 14.6808 32.7031 15.3125C32.8119 15.3152 32.9207 15.318 33.0327 15.3208C33.4349 15.3311 33.8371 15.342 34.2392 15.3532C34.4135 15.358 34.5878 15.3625 34.7622 15.3669C35.0122 15.3732 35.2622 15.3802 35.5123 15.3873C35.5907 15.3891 35.669 15.3909 35.7498 15.3928C36.3001 15.4094 36.3001 15.4094 36.4219 15.5312C36.4699 15.9806 36.4854 16.2121 36.2095 16.5801C36.1149 16.6649 36.0203 16.7496 35.9229 16.8369C35.5824 17.1473 35.263 17.459 34.9628 17.808C34.4919 18.3546 33.9792 18.8545 33.4645 19.3594C33.106 19.7137 32.7588 20.0711 32.4297 20.4531C31.9648 20.9928 31.4571 21.4859 30.9489 21.9844C30.5165 22.4117 30.1061 22.8499 29.709 23.3101C29.454 23.6049 29.192 23.8898 28.9229 24.1719C28.8257 24.2756 28.7286 24.3794 28.6285 24.4863C28.3281 24.7188 28.3281 24.7188 28.0205 24.8076C27.4547 24.6634 27.1409 24.2602 26.749 23.8438C26.6697 23.7624 26.5904 23.681 26.5087 23.5972C26.1364 23.2125 25.7756 22.8204 25.4259 22.415C25.0295 21.9571 24.604 21.5332 24.1719 21.1094C23.6679 20.615 23.1864 20.113 22.7257 19.5781C22.3865 19.1964 22.0207 18.8418 21.6563 18.4844C21.141 17.979 20.6459 17.4673 20.1784 16.9171C20.008 16.7173 20.008 16.7173 19.749 16.5088C19.4927 16.191 19.541 15.9251 19.5781 15.5312C19.8086 15.3008 20.3123 15.3936 20.6313 15.3873C20.7258 15.385 20.8203 15.3827 20.9177 15.3804C21.2209 15.3732 21.524 15.3668 21.8272 15.3604C22.0322 15.3556 22.2372 15.3509 22.4422 15.346C22.9458 15.3343 23.4495 15.3232 23.9531 15.3125C23.9763 15.2475 23.9994 15.1824 24.0232 15.1154C25.1288 12.0166 26.7071 9.38997 29.0938 7.10937C28.7991 6.79534 28.5039 6.62941 28.1094 6.45312C27.7562 6.45312 27.4718 6.65378 27.1643 6.81372ZM6.01563 18.375C5.41429 19.5611 4.83319 20.7554 4.27421 21.962C4.18981 22.1436 4.10484 22.3249 4.01935 22.506C3.89385 22.7719 3.77002 23.0386 3.64655 23.3054C3.60806 23.3862 3.56957 23.467 3.52991 23.5502C3.33238 23.9606 3.33238 23.9606 3.31159 24.4046C3.4358 24.7264 3.65968 24.7906 3.96272 24.9409C4.08316 25.0018 4.2036 25.0627 4.32769 25.1254C4.39215 25.1572 4.4566 25.1889 4.52301 25.2216C4.79541 25.3556 5.06614 25.493 5.33698 25.6301C5.47512 25.7001 5.61335 25.7699 5.75165 25.8395C6.34865 26.1407 6.93493 26.4589 7.51954 26.7832C8.55855 27.3565 9.61144 27.9004 10.6672 28.4419C11.6614 28.9521 12.6471 29.4745 13.6253 30.0149C14.4894 30.4897 15.365 30.9407 16.2422 31.3906C17.2195 31.8919 18.1926 32.398 19.1543 32.9287C20.1035 33.4525 21.0622 33.9559 22.0254 34.4531C22.0936 34.4883 22.1617 34.5235 22.232 34.5598C22.9493 34.9299 23.6682 35.2963 24.3906 35.6562C24.6572 35.0809 24.9236 34.5055 25.1897 33.9299C25.2799 33.7349 25.3702 33.54 25.4605 33.3451C26.0299 32.1164 26.5884 30.884 27.125 29.6406C26.8459 29.3198 26.5327 29.1587 26.1556 28.9677C26.0606 28.9192 26.0606 28.9192 25.9636 28.8697C25.8274 28.8001 25.691 28.7308 25.5545 28.6618C25.191 28.4779 24.8287 28.2919 24.4663 28.106C24.3936 28.0687 24.3209 28.0315 24.2461 27.9931C23.6368 27.6799 23.035 27.3541 22.4356 27.0225C21.4739 26.4916 20.5007 25.9856 19.5234 25.4844C18.45 24.9338 17.3843 24.373 16.3281 23.7899C15.5048 23.3374 14.6714 22.9059 13.8359 22.4766C12.9044 21.9979 11.9775 21.513 11.0606 21.0068C9.4008 20.0909 7.71317 19.2188 6.01563 18.375ZM49.2905 18.6839C49.1668 18.7506 49.043 18.8173 48.9155 18.8861C48.8491 18.922 48.7827 18.9578 48.7143 18.9948C47.6159 19.5886 46.5138 20.1742 45.4043 20.7471C44.5689 21.1788 43.7396 21.6193 42.916 22.0732C41.8722 22.6483 40.815 23.195 39.7547 23.7388C38.856 24.2 37.9624 24.6678 37.0781 25.1563C36.121 25.6849 35.1525 26.1886 34.1797 26.6875C32.8919 27.3481 31.6151 28.0256 30.3484 28.726C29.8582 28.9962 29.3666 29.2636 28.875 29.5313C29.275 30.5969 29.7644 31.6231 30.2422 32.6553C30.3675 32.9264 30.4926 33.1976 30.6178 33.4688C30.6951 33.6364 30.7725 33.8039 30.85 33.9714C31.1085 34.5307 31.3605 35.0926 31.6094 35.6562C33.6873 34.6316 35.7459 33.5681 37.7748 32.4494C38.7194 31.9314 39.6773 31.4404 40.6357 30.9488C41.6351 30.436 42.626 29.911 43.6094 29.368C44.4327 28.9156 45.2661 28.484 46.1016 28.0547C47.1481 27.5169 48.1881 26.9693 49.2176 26.3993C49.7396 26.1112 50.265 25.8329 50.7974 25.5643C50.9139 25.5052 51.0304 25.446 51.1504 25.3851C51.3756 25.2713 51.6014 25.1588 51.8279 25.0477C51.9286 24.9966 52.0293 24.9456 52.133 24.8931C52.2225 24.8487 52.312 24.8044 52.4042 24.7587C52.6231 24.6277 52.6231 24.6277 52.6874 24.4088C52.7255 24.1212 52.6737 23.9924 52.5508 23.7314C52.5113 23.6459 52.4718 23.5604 52.4311 23.4723C52.3872 23.3805 52.3432 23.2888 52.2979 23.1943C52.2532 23.0985 52.2085 23.0027 52.1624 22.904C52.0186 22.5969 51.8731 22.2907 51.7276 21.9844C51.6324 21.7815 51.5373 21.5785 51.4424 21.3756C50.97 20.3685 50.4902 19.3658 49.9844 18.375C49.7476 18.375 49.4895 18.5763 49.2905 18.6839ZM6.34376 27.6719C6.34376 31.967 6.34376 36.2622 6.34376 40.6875C7.2461 41.1567 8.14845 41.6259 9.07813 42.1094C10.2539 42.752 10.2539 42.752 10.5821 42.9324C11.4719 43.4206 12.3739 43.8843 13.2765 44.3481C14.1392 44.7917 14.9965 45.2431 15.8457 45.7119C16.8802 46.2829 17.9285 46.8247 18.9798 47.3638C19.8784 47.825 20.772 48.2928 21.6563 48.7812C22.641 49.3249 23.6369 49.8452 24.6367 50.3604C24.7092 50.3977 24.7817 50.4351 24.8563 50.4735C25.6829 50.8993 26.5121 51.3186 27.3438 51.7344C27.3438 45.3458 27.3438 38.9572 27.3438 32.375C27.1092 32.7269 26.9341 33.0918 26.7563 33.4739C26.7033 33.587 26.7033 33.587 26.6492 33.7024C26.5746 33.8619 26.5 34.0215 26.4256 34.1812C26.3126 34.4235 26.1992 34.6656 26.0857 34.9077C26.013 35.0632 25.9403 35.2187 25.8676 35.3743C25.8341 35.4458 25.8006 35.5174 25.7661 35.5912C25.6059 35.9351 25.4529 36.2794 25.31 36.6309C25.1563 36.9688 25.1563 36.9688 24.9375 37.0781C24.2607 37.1782 23.8127 36.8586 23.249 36.5312C23.0341 36.4101 22.8189 36.2893 22.6035 36.1689C22.487 36.1038 22.3706 36.0387 22.2506 35.9716C21.6396 35.6365 21.0193 35.3199 20.3989 35.0027C19.2517 34.4161 18.1124 33.8189 16.9843 33.1962C16.1611 32.7437 15.3277 32.3121 14.4922 31.8828C13.4657 31.3554 12.4471 30.8164 11.4368 30.2585C10.3823 29.6794 9.3115 29.1321 8.24057 28.5843C8.16966 28.5479 8.09875 28.5116 8.0257 28.4742C7.83206 28.375 7.6383 28.276 7.44453 28.1771C7.22768 28.0625 7.01411 27.9414 6.80521 27.8129C6.57777 27.6536 6.57777 27.6536 6.34376 27.6719ZM48.85 27.9769C48.7278 28.0431 48.6055 28.1092 48.4795 28.1774C48.414 28.213 48.3485 28.2487 48.2811 28.2854C47.9332 28.4748 47.5846 28.6628 47.2359 28.8506C47.1642 28.8893 47.0925 28.928 47.0186 28.9678C46.3025 29.3531 45.5805 29.7265 44.8574 30.0986C43.9808 30.5504 43.1097 31.0101 42.2461 31.4863C41.2069 32.0593 40.1542 32.6036 39.0984 33.1451C38.1059 33.6544 37.1218 34.1756 36.1454 34.7154C35.082 35.3001 34.0013 35.8513 32.9208 36.4037C32.8491 36.4405 32.7774 36.4772 32.7036 36.515C32.507 36.6157 32.3103 36.7161 32.1136 36.8165C31.8435 36.9428 31.8435 36.9428 31.7188 37.0781C31.1255 37.1297 31.1255 37.1297 30.8892 36.9361C30.6332 36.6285 30.4893 36.2625 30.3272 35.8998C30.2894 35.8166 30.2515 35.7334 30.2125 35.6476C30.0918 35.3819 29.9722 35.1158 29.8525 34.8496C29.7717 34.6713 29.6907 34.493 29.6097 34.3147C28.9767 32.9186 28.9767 32.9186 28.7656 32.375C28.7295 32.375 28.6934 32.375 28.6563 32.375C28.6563 38.7636 28.6563 45.1522 28.6563 51.7344C29.7577 51.1837 30.8575 50.632 31.9512 50.0664C32.0192 50.0313 32.0871 49.9962 32.1572 49.96C33.1293 49.4572 34.0933 48.9414 35.0515 48.4126C35.9924 47.8962 36.9468 47.4072 37.9016 46.9174C38.8003 46.4562 39.6939 45.9884 40.5781 45.5C41.5352 44.9714 42.5038 44.4677 43.4766 43.9688C44.5631 43.4114 45.6441 42.8469 46.7123 42.2551C47.686 41.7166 48.6705 41.2063 49.6563 40.6875C49.6563 36.3923 49.6563 32.0972 49.6563 27.6719C49.3337 27.6719 49.1327 27.8231 48.85 27.9769Z" fill="#388E3C"/>
<path d="M9.29694 34.3438C9.58773 34.4552 9.58773 34.4552 9.88226 34.6125C9.99244 34.6705 10.1026 34.7286 10.2161 34.7884C10.3905 34.883 10.3905 34.883 10.5684 34.9795C10.6884 35.0433 10.8084 35.1072 10.932 35.173C11.2993 35.369 11.6654 35.5671 12.0313 35.7656C12.1428 35.8257 12.2543 35.8857 12.3691 35.9475C12.6739 36.1117 12.9783 36.2767 13.2823 36.4424C13.3741 36.4923 13.4659 36.5423 13.5605 36.5938C13.6445 36.6401 13.7285 36.6864 13.8151 36.7342C13.8882 36.7744 13.9613 36.8146 14.0366 36.856C14.2188 36.9688 14.2188 36.9688 14.4376 37.1875C14.4649 37.5703 14.4649 37.5703 14.4376 37.9531C14.2188 38.1719 14.2188 38.1719 13.9022 38.2253C13.2641 38.205 12.7211 37.8348 12.1749 37.5361C11.9956 37.4404 11.9956 37.4404 11.8127 37.3427C11.4472 37.1467 11.0829 36.9486 10.7188 36.75C10.4995 36.6317 10.2802 36.5135 10.0609 36.3954C9.86309 36.2882 9.66542 36.1808 9.46784 36.0732C9.37602 36.0233 9.28421 35.9733 9.18962 35.9219C9.06361 35.8524 9.06361 35.8524 8.93506 35.7814C8.86197 35.7412 8.78887 35.701 8.71356 35.6596C8.53131 35.5469 8.53131 35.5469 8.31256 35.3281C8.27645 34.9887 8.25729 34.764 8.43561 34.4668C8.73332 34.2882 8.95347 34.3199 9.29694 34.3438Z" fill="#388E3C"/>
<path d="M8.89038 37.8638C9.30943 37.9559 9.62496 38.0889 10.004 38.2881C10.0686 38.3217 10.1333 38.3553 10.1999 38.3899C10.4077 38.4983 10.6145 38.6084 10.8213 38.7188C10.9638 38.7941 11.1063 38.8695 11.2489 38.9448C11.5287 39.0929 11.8082 39.2418 12.0874 39.3912C12.4106 39.5629 12.7354 39.73 13.0622 39.8945C13.2199 39.9764 13.3776 40.0585 13.5352 40.1406C13.6054 40.1748 13.6756 40.2089 13.7479 40.244C13.9368 40.3457 13.9368 40.3457 14.2188 40.5781C14.3889 41.226 14.3889 41.226 14.2188 41.5557C13.8834 41.7339 13.6098 41.697 13.2344 41.6719C12.8958 41.5369 12.8958 41.5369 12.5551 41.3476C12.4287 41.2785 12.3023 41.2095 12.1722 41.1383C12.0386 41.0633 11.905 40.9882 11.7715 40.9131C11.6345 40.8375 11.4975 40.7621 11.3603 40.6868C11.0891 40.5378 10.8183 40.3881 10.5477 40.2379C9.97991 39.9257 9.40498 39.6274 8.82781 39.333C8.32447 39.0708 8.32447 39.0708 8.20313 38.8281C8.17578 38.4453 8.17578 38.4453 8.20313 38.0625C8.53125 37.8438 8.53125 37.8438 8.89038 37.8638Z" fill="#388E3C"/>
</svg>
