<svg width="56" height="56" viewBox="0 0 56 56" fill="none" xmlns="http://www.w3.org/2000/svg">
<g clip-path="url(#clip0_337_28)">
<path d="M30.2951 1.60817C30.4567 1.67291 30.6184 1.73754 30.78 1.80207C31.1239 1.93958 31.4675 2.07784 31.8109 2.21671C32.3536 2.43622 32.897 2.65406 33.4404 2.87164C34.0807 3.12808 34.7208 3.38488 35.3607 3.64224C36.6609 4.16513 37.9632 4.68239 39.2666 5.19734C39.8416 5.42461 40.4164 5.65244 40.9912 5.8802C41.2258 5.97311 41.4603 6.06602 41.6948 6.15893C45.1357 7.52208 45.1357 7.52208 46.7744 8.17318C46.8457 8.20153 46.9171 8.22988 46.9906 8.25909C47.277 8.37287 47.5633 8.48667 47.8497 8.60048C48.6879 8.93364 49.5264 9.2661 50.3654 9.59722C50.9473 9.82693 51.529 10.0574 52.1105 10.2882C52.35 10.3831 52.5896 10.4777 52.8293 10.5719C53.1568 10.7007 53.4838 10.8305 53.8107 10.9606C53.9068 10.9981 54.0028 11.0355 54.1017 11.0741C54.1892 11.1092 54.2768 11.1442 54.3669 11.1803C54.4804 11.2252 54.4804 11.2252 54.5961 11.2709C54.8283 11.3914 54.9644 11.4957 55.1249 11.7031C55.2322 12.1171 55.2481 12.5074 55.2484 12.9338C55.2487 13.0724 55.2491 13.211 55.2495 13.3538C55.2493 13.5074 55.2491 13.6609 55.2489 13.8145C55.2492 13.9778 55.2494 14.1411 55.2497 14.3045C55.2504 14.7534 55.2504 15.2023 55.2502 15.6512C55.2502 16.1353 55.2508 16.6195 55.2513 17.1036C55.2522 18.052 55.2525 19.0005 55.2526 19.9489C55.2526 20.7197 55.2529 21.4904 55.2532 22.2612C55.2542 24.4456 55.2547 26.6301 55.2546 28.8146C55.2546 28.9912 55.2546 28.9912 55.2546 29.1715C55.2546 29.2894 55.2546 29.4074 55.2546 29.5289C55.2545 31.4409 55.2556 33.3528 55.2571 35.2648C55.2587 37.2273 55.2594 39.1898 55.2594 41.1522C55.2593 42.2543 55.2596 43.3564 55.2608 44.4585C55.2618 45.3967 55.262 46.3348 55.2613 47.273C55.2609 47.7518 55.2609 48.2305 55.2619 48.7093C55.2627 49.1475 55.2626 49.5857 55.2616 50.0239C55.2615 50.1825 55.2617 50.3411 55.2623 50.4997C55.263 50.7152 55.2623 50.9307 55.2615 51.1462C55.2616 51.3258 55.2616 51.3258 55.2616 51.509C55.2318 51.8749 55.1605 52.1629 55.0156 52.5C54.6743 52.7275 54.5938 52.7467 54.2053 52.7505C54.1082 52.7519 54.0111 52.7533 53.9111 52.7548C53.7542 52.7551 53.7542 52.7551 53.5941 52.7555C53.4864 52.7562 53.3786 52.757 53.2676 52.7577C53.0397 52.7588 52.8118 52.7593 52.5839 52.7593C52.235 52.7598 51.8864 52.7637 51.5376 52.7679C51.3162 52.7685 51.0948 52.769 50.8734 52.7692C50.769 52.7707 50.6647 52.7723 50.5571 52.7739C50.4597 52.7733 50.3622 52.7726 50.2618 52.7719C50.1336 52.7724 50.1336 52.7724 50.0028 52.7728C49.6669 52.6963 49.5446 52.5457 49.3281 52.2813C49.2737 52.0011 49.2737 52.0011 49.2742 51.6774C49.2729 51.492 49.2729 51.492 49.2716 51.3029C49.2729 51.1672 49.2741 51.0314 49.2755 50.8916C49.2751 50.7478 49.2747 50.6039 49.2743 50.4557C49.2733 50.0553 49.2751 49.6549 49.2773 49.2545C49.2792 48.8166 49.2786 48.3786 49.2782 47.9406C49.278 47.09 49.28 46.2394 49.2828 45.3888C49.286 44.4051 49.2863 43.4215 49.2867 42.4378C49.289 39.84 49.2951 37.2423 49.3007 34.6445C49.3098 28.8425 49.3188 23.0404 49.3281 17.0625C35.2515 17.0625 21.175 17.0625 6.67183 17.0625C6.68916 28.6334 6.68916 28.6334 6.71124 40.2042C6.71322 42.4378 6.71322 42.4378 6.71358 43.4821C6.71399 44.2144 6.7156 44.9466 6.71801 45.6788C6.72079 46.5227 6.72207 47.3665 6.72146 48.2103C6.72119 48.6423 6.72162 49.0742 6.72398 49.5062C6.72649 49.968 6.72564 50.4298 6.72444 50.8916C6.72571 51.0273 6.72699 51.1631 6.7283 51.3029C6.72743 51.4265 6.72656 51.5501 6.72566 51.6774C6.72582 51.7842 6.72599 51.891 6.72616 52.0011C6.65622 52.3617 6.51718 52.4921 6.23433 52.7188C5.9978 52.7743 5.9978 52.7743 5.73979 52.7754C5.64269 52.7768 5.5456 52.7781 5.44556 52.7796C5.28952 52.7782 5.28952 52.7782 5.13032 52.7769C5.02273 52.7773 4.91514 52.7777 4.80429 52.7781C4.57703 52.7784 4.34976 52.7776 4.1225 52.7758C3.77462 52.7735 3.42699 52.7758 3.07911 52.7786C2.85823 52.7783 2.63734 52.7777 2.41645 52.7769C2.31243 52.7778 2.2084 52.7786 2.10121 52.7796C1.38536 52.7694 1.38536 52.7694 1.03154 52.5237C0.749495 52.087 0.751836 51.6858 0.751507 51.1734C0.751154 51.035 0.750802 50.8966 0.750439 50.7541C0.7506 50.6002 0.750768 50.4463 0.750949 50.2924C0.750745 50.1292 0.750497 49.966 0.750202 49.8028C0.749531 49.3536 0.749546 48.9044 0.749674 48.4552C0.749697 47.971 0.749095 47.4869 0.748576 47.0027C0.747667 46.0539 0.747365 45.105 0.747304 44.1562C0.747252 43.3851 0.747027 42.614 0.74668 41.843C0.745717 39.6579 0.745213 37.4728 0.745295 35.2876C0.745299 35.1698 0.745304 35.0519 0.745308 34.9305C0.745313 34.8125 0.745317 34.6946 0.745322 34.573C0.745366 32.6603 0.74432 30.7476 0.742778 28.8349C0.741208 26.8719 0.740451 24.9089 0.740545 22.946C0.740582 21.8435 0.740279 20.7411 0.739103 19.6386C0.738109 18.7001 0.737869 17.7615 0.738613 16.8229C0.73897 16.3439 0.738975 15.8649 0.738029 15.3859C0.737171 14.9475 0.737322 14.5092 0.738279 14.0708C0.738447 13.9121 0.738246 13.7534 0.737638 13.5947C0.736867 13.3791 0.737572 13.1635 0.738352 12.9479C0.738329 12.8281 0.738307 12.7083 0.738282 12.5849C0.774033 12.1463 0.844894 11.7412 1.15384 11.4145C1.56334 11.187 1.99207 11.0211 2.42842 10.8521C2.52992 10.8121 2.63143 10.7721 2.73601 10.731C3.07245 10.5987 3.40925 10.4673 3.74604 10.336C3.98414 10.2425 4.2222 10.149 4.46024 10.0554C4.95433 9.86114 5.44854 9.66723 5.94284 9.47355C6.93309 9.08531 7.92195 8.69358 8.91076 8.30168C9.23294 8.17402 9.55517 8.04645 9.8774 7.91891C11.5937 7.23962 13.3095 6.55937 15.0253 5.87892C15.1569 5.82673 15.2885 5.77455 15.4241 5.72078C16.7261 5.20443 18.0281 4.68801 19.33 4.1714C19.8963 3.9467 20.4626 3.72203 21.0289 3.49738C21.3626 3.36498 21.6963 3.23256 22.0301 3.1001C22.2167 3.02603 22.2167 3.02603 22.407 2.95047C22.5298 2.90173 22.6525 2.85299 22.7789 2.80278C23.0214 2.70671 23.2639 2.61092 23.5066 2.51544C24.0829 2.28851 24.6578 2.05915 25.2296 1.8211C25.507 1.7059 25.7851 1.59237 26.0633 1.47901C26.2586 1.39865 26.453 1.31603 26.6474 1.23333C28.0588 0.660629 28.9383 1.05573 30.2951 1.60817ZM27.2499 3.03477C27.1431 3.07711 27.0364 3.11946 26.9264 3.16309C26.7518 3.23364 26.7518 3.23364 26.5738 3.30562C26.3895 3.37905 26.3895 3.37905 26.2016 3.45398C25.9343 3.5606 25.6672 3.66748 25.4003 3.77484C24.9728 3.94673 24.545 4.11758 24.1171 4.28828C23.5953 4.49655 23.0735 4.70505 22.5518 4.91385C21.2544 5.43313 19.9553 5.94802 18.656 6.46257C17.9978 6.72326 17.3398 6.98427 16.6818 7.24525C16.4175 7.35004 16.1533 7.45482 15.8891 7.5596C14.9549 7.93004 14.0208 8.30051 13.0867 8.67098C12.0358 9.08774 10.985 9.50443 9.93407 9.92109C9.19035 10.216 8.44665 10.5109 7.703 10.806C7.09015 11.0492 6.47727 11.2922 5.86437 11.5353C5.60689 11.6374 5.34942 11.7395 5.09196 11.8417C4.73806 11.9822 4.38412 12.1225 4.03016 12.2628C3.92522 12.3045 3.82027 12.3462 3.71214 12.3891C3.61633 12.4271 3.52051 12.4651 3.42179 12.5042C3.33867 12.5371 3.25556 12.5701 3.16992 12.6041C2.99008 12.6733 2.80775 12.736 2.62495 12.7969C2.62495 25.3575 2.62495 37.9181 2.62495 50.8594C3.34683 50.8594 4.0687 50.8594 4.81245 50.8594C4.81271 50.6801 4.81297 50.5008 4.81324 50.316C4.81951 46.0616 4.82747 41.8072 4.8375 37.5527C4.83873 37.0293 4.83995 36.5059 4.84116 35.9825C4.8414 35.8783 4.84164 35.7741 4.84189 35.6668C4.84576 33.9785 4.84848 32.2903 4.85077 30.602C4.85315 28.8703 4.85676 27.1386 4.86153 25.4069C4.86443 24.338 4.86636 23.269 4.86707 22.2001C4.86764 21.4675 4.86941 20.735 4.87213 20.0024C4.87367 19.5795 4.87467 19.1566 4.87425 18.7336C4.87381 18.2754 4.87588 17.8173 4.87821 17.3591C4.87768 17.2249 4.87715 17.0908 4.87661 16.9525C4.87816 16.7686 4.87816 16.7686 4.87974 16.581C4.87995 16.4752 4.88016 16.3694 4.88037 16.2604C4.93065 15.9066 5.03059 15.7031 5.24995 15.4219C5.6174 15.2539 6.03844 15.2985 6.43638 15.2981C6.54985 15.2978 6.54985 15.2978 6.66562 15.2975C6.92035 15.2968 7.17506 15.297 7.42978 15.2972C7.61376 15.2969 7.79774 15.2965 7.98172 15.2962C8.48826 15.2953 8.9948 15.2951 9.50134 15.295C10.0473 15.2948 10.5932 15.294 11.1391 15.2932C12.3332 15.2918 13.5272 15.2911 14.7213 15.2906C15.4665 15.2903 16.2118 15.2899 16.957 15.2894C19.0195 15.288 21.082 15.2869 23.1445 15.2865C23.2765 15.2865 23.4086 15.2865 23.5446 15.2865C23.677 15.2864 23.8093 15.2864 23.9457 15.2864C24.2139 15.2863 24.4821 15.2863 24.7503 15.2862C24.9498 15.2862 24.9498 15.2862 25.1534 15.2862C27.3101 15.2857 29.4668 15.2838 31.6236 15.2813C33.8367 15.2787 36.0498 15.2773 38.2629 15.2772C39.506 15.2771 40.749 15.2765 41.9921 15.2745C43.0503 15.2728 44.1086 15.2722 45.1668 15.2731C45.707 15.2736 46.2471 15.2735 46.7872 15.2719C47.2815 15.2705 47.7757 15.2707 48.27 15.272C48.449 15.2722 48.628 15.2719 48.807 15.2709C49.05 15.2697 49.293 15.2705 49.536 15.2718C49.6711 15.2718 49.8061 15.2717 49.9453 15.2716C50.3563 15.3174 50.6205 15.4194 50.9687 15.6406C51.0804 15.9756 51.0923 16.2033 51.0932 16.554C51.0938 16.6762 51.0944 16.7984 51.0951 16.9243C51.0952 17.1265 51.0952 17.1265 51.0954 17.3328C51.0959 17.4756 51.0965 17.6183 51.097 17.7654C51.0985 18.1625 51.0993 18.5595 51.1 18.9566C51.1009 19.3845 51.1024 19.8124 51.1038 20.2402C51.1062 20.9818 51.1082 21.7235 51.1099 22.4651C51.1124 23.5373 51.1155 24.6095 51.1187 25.6818C51.1239 27.4213 51.1286 29.1609 51.1331 30.9004C51.1374 32.5904 51.1419 34.2805 51.1467 35.9705C51.147 36.0747 51.1473 36.1788 51.1476 36.2861C51.1491 36.8085 51.1506 37.3309 51.1521 37.8532C51.1646 42.1886 51.1763 46.524 51.1874 50.8594C51.9093 50.8594 52.6312 50.8594 53.3749 50.8594C53.3749 38.2988 53.3749 25.7381 53.3749 12.7969C51.8951 12.2194 50.4153 11.6419 48.8906 11.0469C47.2101 10.3762 47.2101 10.3762 46.5424 10.1078C45.3306 9.62158 44.1163 9.14183 42.9023 8.66115C42.6529 8.56237 42.4034 8.4636 42.154 8.36482C41.769 8.21237 41.384 8.05991 40.999 7.90746C39.8019 7.43343 38.6051 6.95882 37.4083 6.48406C36.8763 6.27304 36.3443 6.06217 35.8122 5.85142C34.6402 5.38712 33.4685 4.9223 32.2982 4.45382C31.8065 4.25708 31.3147 4.06087 30.8228 3.86473C30.5925 3.77271 30.3623 3.68042 30.1322 3.58786C29.8173 3.46121 29.5021 3.33546 29.1868 3.20991C29.0944 3.17245 29.002 3.13499 28.9068 3.09639C28.8219 3.0628 28.7371 3.02921 28.6496 2.99461C28.5765 2.96528 28.5033 2.93595 28.4279 2.90573C27.9842 2.77431 27.6606 2.87019 27.2499 3.03477Z" fill="#BC3F3F"/>
<path d="M28.6119 20.5694C28.7535 20.651 28.7535 20.651 28.898 20.7343C29.0057 20.7954 29.1134 20.8566 29.2244 20.9197C29.3391 20.9868 29.4539 21.0539 29.5722 21.1231C29.6929 21.1922 29.8137 21.2614 29.9381 21.3327C30.3138 21.5484 30.6882 21.7661 31.0624 21.9844C31.2836 22.1127 31.5047 22.241 31.7259 22.3693C32.1582 22.6207 32.5899 22.8731 33.0213 23.126C33.711 23.5301 34.403 23.93 35.0956 24.3291C35.2134 24.397 35.3313 24.465 35.4526 24.535C36.0544 24.8818 36.6563 25.2283 37.2583 25.5745C37.8491 25.9145 38.4393 26.2553 39.0291 26.5969C39.2619 26.7315 39.4948 26.8658 39.728 26.9999C40.0642 27.1934 40.3998 27.3881 40.7353 27.583C40.8363 27.6408 40.9374 27.6987 41.0415 27.7582C41.1343 27.8125 41.2271 27.8668 41.3227 27.9227C41.4037 27.9695 41.4847 28.0164 41.5681 28.0646C41.8229 28.249 41.9497 28.3825 42.1093 28.6563C42.1425 28.9554 42.1571 29.2301 42.1566 29.5292C42.1577 29.6168 42.1588 29.7043 42.1599 29.7945C42.1632 30.0833 42.1643 30.3721 42.1652 30.6609C42.1671 30.8614 42.1691 31.0618 42.1712 31.2623C42.1764 31.7895 42.1796 32.3167 42.1825 32.8439C42.1858 33.382 42.1909 33.9201 42.1958 34.4583C42.2052 35.5138 42.2126 36.5694 42.2186 37.625C42.3219 37.6609 42.4251 37.6968 42.5315 37.7338C42.6693 37.7823 42.8072 37.8307 42.945 37.8792C43.1472 37.95 43.1472 37.95 43.3535 38.0222C45.2499 38.7383 46.8025 40.1388 47.7968 41.8906C47.8474 41.9796 47.898 42.0686 47.9502 42.1602C48.9852 44.1014 49.2426 46.5036 48.6459 48.6256C48.5852 48.8245 48.5192 49.0217 48.453 49.2188C48.4147 49.334 48.3763 49.4491 48.3368 49.5678C47.5587 51.6402 45.8631 53.4212 43.8589 54.3518C41.6764 55.2929 39.2185 55.4758 36.9657 54.6392C35.068 53.8841 33.6018 52.6838 32.4843 50.9688C32.376 50.8063 32.376 50.8063 32.2655 50.6406C31.6916 50.8035 31.2262 51.0657 30.7206 51.3721C30.639 51.4205 30.5574 51.4689 30.4733 51.5188C30.1015 51.7395 29.7322 51.9631 29.3675 52.1954C29.2568 52.2643 29.1462 52.3333 29.0321 52.4043C28.9372 52.4655 28.8424 52.5267 28.7446 52.5897C28.3253 52.7659 28.0025 52.8179 27.5624 52.7188C27.0662 52.497 26.6052 52.2198 26.1405 51.9395C26.0041 51.859 25.8675 51.7788 25.7308 51.6987C25.4527 51.5354 25.1752 51.3711 24.8982 51.2058C24.4315 50.9275 23.9619 50.6544 23.4921 50.3814C23.1709 50.1946 22.8501 50.0071 22.5294 49.8195C21.8433 49.4185 21.1552 49.0209 20.4667 48.624C20.3492 48.5563 20.2318 48.4886 20.1108 48.4189C19.6269 48.14 19.1429 47.8612 18.6589 47.5825C18.0531 47.2337 17.4475 46.8845 16.8424 46.5344C16.433 46.2975 16.0226 46.0625 15.611 45.8294C15.4431 45.7333 15.2752 45.6372 15.1073 45.541C15.0332 45.4997 14.9591 45.4585 14.8828 45.4159C14.4517 45.1672 14.1667 44.9295 13.8905 44.5156C13.8355 44.2022 13.8355 44.2022 13.835 43.8515C13.8337 43.7181 13.8325 43.5847 13.8312 43.4472C13.8321 43.3003 13.833 43.1533 13.8339 43.0064C13.8333 42.851 13.8325 42.6955 13.8316 42.5401C13.8296 42.1186 13.8304 41.6972 13.8318 41.2757C13.8329 40.8344 13.8318 40.3931 13.8312 39.9518C13.8304 39.2107 13.8314 38.4696 13.8335 37.7286C13.8359 36.8721 13.8351 36.0157 13.8327 35.1592C13.8307 34.4235 13.8304 33.6879 13.8316 32.9522C13.8322 32.5129 13.8323 32.0737 13.8309 31.6345C13.8296 31.2215 13.8305 30.8086 13.833 30.3956C13.8336 30.2441 13.8334 30.0927 13.8325 29.9412C13.8313 29.7343 13.8331 29.5274 13.835 29.3204C13.8351 29.2047 13.8353 29.089 13.8355 28.9697C13.9045 28.5767 14.0555 28.3956 14.328 28.1094C14.587 27.931 14.587 27.931 14.8766 27.7749C14.985 27.7154 15.0934 27.656 15.2051 27.5948C15.3217 27.5323 15.4384 27.4697 15.5585 27.4053C15.8077 27.2688 16.0568 27.1321 16.3057 26.9951C16.4323 26.9258 16.5589 26.8564 16.6893 26.7849C17.2541 26.4719 17.8113 26.1465 18.3681 25.8194C18.5858 25.6917 18.8036 25.5641 19.0213 25.4365C19.1848 25.3407 19.1848 25.3407 19.3516 25.243C20.2885 24.6958 21.2296 24.1561 22.1698 23.6145C22.6555 23.3346 23.1409 23.0542 23.6263 22.7737C23.8648 22.6361 24.1034 22.4987 24.3421 22.3614C24.9105 22.0347 25.4773 21.7057 26.041 21.3709C26.1979 21.2786 26.1979 21.2786 26.3581 21.1845C26.5535 21.0695 26.7482 20.9536 26.9422 20.8363C27.029 20.7856 27.1158 20.7348 27.2052 20.6826C27.2799 20.638 27.3546 20.5935 27.4316 20.5476C27.8526 20.382 28.1955 20.3988 28.6119 20.5694ZM27.2642 22.8085C27.1618 22.8692 27.0595 22.9298 26.9541 22.9922C26.8435 23.0589 26.7329 23.1256 26.619 23.1944C26.3804 23.336 26.1417 23.4776 25.903 23.619C25.7795 23.6925 25.6561 23.766 25.5289 23.8417C24.9382 24.1916 24.3431 24.5338 23.7479 24.876C23.5093 25.0136 23.2706 25.1511 23.0319 25.2887C22.6721 25.496 22.3123 25.7032 21.9524 25.9105C21.2433 26.319 20.5344 26.728 19.8258 27.1376C19.5174 27.3156 19.2087 27.4932 18.8999 27.6706C18.5947 27.846 18.29 28.0222 17.9853 28.1983C17.8719 28.2631 17.7586 28.328 17.6419 28.3948C17.5385 28.4547 17.4351 28.5146 17.3286 28.5764C17.2373 28.6289 17.146 28.6815 17.0519 28.7357C16.8285 28.8603 16.8285 28.8603 16.7343 29.0938C17.044 29.2673 17.354 29.4403 17.664 29.6133C17.7938 29.686 17.7938 29.686 17.9263 29.7603C18.1004 29.8573 18.2754 29.9526 18.4513 30.0462C18.703 30.1875 18.703 30.1875 18.9176 30.3453C19.148 30.5014 19.3017 30.5844 19.578 30.625C20.0565 30.4701 20.4559 30.2058 20.8769 29.9346C21.0022 29.8575 21.1279 29.7807 21.2537 29.7043C21.5149 29.5453 21.7751 29.3847 22.0346 29.223C22.6286 28.8545 23.2367 28.5106 23.8436 28.1641C24.0804 28.0276 24.3171 27.891 24.5537 27.7543C25.0304 27.4793 25.5073 27.2045 25.9842 26.9298C27.5706 26.0157 29.1538 25.0962 30.7343 24.1719C30.2946 23.7065 29.8088 23.4222 29.2577 23.1055C29.1642 23.0501 29.0708 22.9947 28.9744 22.9376C28.8841 22.8853 28.7937 22.833 28.7006 22.7791C28.6186 22.7314 28.5366 22.6838 28.4521 22.6348C27.9743 22.4229 27.6802 22.5591 27.2642 22.8085ZM32.1087 25.4335C32.0053 25.4942 31.9019 25.5548 31.7954 25.6172C31.6254 25.7173 31.6254 25.7173 31.452 25.8194C31.2104 25.961 30.9687 26.1025 30.727 26.244C30.6645 26.2807 30.6019 26.3173 30.5374 26.3551C29.8801 26.7399 29.2204 27.1207 28.5604 27.501C28.4425 27.569 28.3246 27.6369 28.2031 27.707C27.9634 27.8451 27.7236 27.9832 27.4839 28.1213C26.8901 28.4634 26.2966 28.806 25.703 29.1485C25.4697 29.283 25.2365 29.4176 25.0032 29.5522C24.8279 29.6533 24.8279 29.6533 24.6491 29.7565C23.5785 30.3741 22.508 30.9918 21.4374 31.6094C21.7743 31.9557 22.1043 32.2174 22.5175 32.4707C22.6829 32.5752 22.6829 32.5752 22.8516 32.6818C23.1746 32.8398 23.1746 32.8398 23.4839 32.7668C24.0134 32.5121 24.5151 32.2179 25.0194 31.917C25.2561 31.7774 25.4928 31.6378 25.7295 31.4983C25.8516 31.4262 25.9736 31.3541 26.0994 31.2798C26.6897 30.9324 27.2832 30.5907 27.8769 30.249C27.9945 30.1812 28.1122 30.1134 28.2334 30.0435C28.8353 29.6965 29.4374 29.35 30.0396 29.0036C31.5533 28.1324 33.0611 27.2519 34.5624 26.3594C34.2387 26.0157 33.864 25.8017 33.455 25.5733C33.3843 25.533 33.3137 25.4928 33.2409 25.4513C32.6662 25.1263 32.6662 25.1263 32.1087 25.4335ZM35.6997 27.7783C35.5166 27.884 35.5166 27.884 35.3297 27.9919C35.197 28.0698 35.0642 28.1477 34.9315 28.2256C34.7936 28.3056 34.6556 28.3856 34.5176 28.4655C34.2333 28.6301 33.9493 28.7953 33.6656 28.9609C33.1658 29.2525 32.6642 29.5411 32.1627 29.8297C31.5768 30.1671 30.9915 30.5055 30.4061 30.8438C28.695 31.8323 26.9825 32.8184 25.2655 33.7969C25.2655 33.8691 25.2655 33.9413 25.2655 34.0156C25.3223 34.0471 25.3791 34.0785 25.4376 34.1108C25.697 34.2545 25.9564 34.3982 26.2157 34.542C26.305 34.5914 26.3944 34.6408 26.4864 34.6918C26.5734 34.74 26.6605 34.7883 26.7502 34.8381C26.8774 34.908 26.8774 34.908 27.0071 34.9793C27.2343 35.1094 27.2343 35.1094 27.5304 35.3157C27.8762 35.4836 28.0665 35.415 28.4374 35.3281C28.7335 35.194 28.7335 35.194 29.0236 35.0162C29.1351 34.951 29.2466 34.8858 29.3615 34.8186C29.4807 34.7477 29.5998 34.6767 29.7226 34.6035C29.8491 34.5292 29.9757 34.4549 30.1024 34.3807C30.3653 34.2267 30.628 34.0721 30.8904 33.9173C31.4921 33.5628 32.0977 33.2154 32.703 32.8672C32.9393 32.7309 33.1756 32.5947 33.4118 32.4583C33.529 32.3907 33.6463 32.3231 33.767 32.2534C34.1298 32.0441 34.4924 31.8347 34.8551 31.6252C36.323 30.7775 37.7928 29.9331 39.2655 29.0938C38.8548 28.6145 38.329 28.3377 37.789 28.0274C37.6955 27.9719 37.602 27.9165 37.5057 27.8595C37.4153 27.8071 37.3249 27.7548 37.2318 27.7009C37.1498 27.6533 37.0679 27.6057 36.9834 27.5566C36.4658 27.3272 36.1507 27.5155 35.6997 27.7783ZM15.7499 30.625C15.7269 32.3107 15.7095 33.9963 15.6989 35.6821C15.6938 36.4649 15.6869 37.2475 15.6756 38.0303C15.6658 38.7126 15.6595 39.3949 15.6573 40.0773C15.656 40.4385 15.6525 40.7996 15.6458 41.1608C15.6387 41.5644 15.6377 41.9677 15.6381 42.3713C15.6346 42.4907 15.6311 42.61 15.6274 42.733C15.6287 43.3586 15.6287 43.3586 15.966 43.8583C16.2158 44.027 16.4632 44.1657 16.7343 44.2969C16.8336 44.3565 16.9329 44.4162 17.0353 44.4776C17.1188 44.524 17.2024 44.5704 17.2884 44.6182C17.3852 44.6723 17.4819 44.7264 17.5816 44.7822C17.6832 44.8386 17.7849 44.895 17.8895 44.9531C18.7784 45.4511 19.6627 45.9558 20.5419 46.4707C21.9306 47.2835 23.3238 48.0883 24.7186 48.8906C24.8331 48.9566 24.9475 49.0225 25.0655 49.0904C25.3895 49.277 25.7137 49.4633 26.038 49.6494C26.1356 49.7057 26.2333 49.762 26.3339 49.82C26.4668 49.8961 26.4668 49.8961 26.6024 49.9737C26.7187 50.0405 26.7187 50.0405 26.8374 50.1087C26.998 50.2117 26.998 50.2117 27.1249 50.2031C27.1582 48.5213 27.1832 46.8395 27.1986 45.1574C27.2059 44.3763 27.2159 43.5954 27.2322 42.8144C27.2464 42.1334 27.2555 41.4526 27.2587 40.7715C27.2605 40.4109 27.2656 40.0509 27.2752 39.6905C27.3861 38.2829 27.3861 38.2829 26.9854 36.9828C26.6106 36.6296 26.1906 36.4711 25.703 36.3125C25.5597 36.2327 25.4182 36.1493 25.2809 36.0596C25.1766 35.9987 25.0722 35.9378 24.9647 35.875C24.857 35.8119 24.7493 35.7487 24.6383 35.6836C24.4217 35.5381 24.4217 35.5381 24.2811 35.5469C24.279 35.6838 24.2768 35.8206 24.2746 35.9616C24.2663 36.4696 24.2566 36.9776 24.2464 37.4855C24.2422 37.7053 24.2384 37.9251 24.235 38.145C24.23 38.461 24.2237 38.777 24.2171 39.093C24.2158 39.1913 24.2145 39.2895 24.2132 39.3907C24.2111 39.4826 24.2089 39.5746 24.2066 39.6693C24.2052 39.7499 24.2037 39.8306 24.2022 39.9136C24.167 40.1762 24.0917 40.3532 23.953 40.5781C23.6051 40.7521 23.3563 40.7234 22.9686 40.6875C22.6078 40.5422 22.2785 40.3508 21.9433 40.1543C21.8486 40.1004 21.7539 40.0465 21.6564 39.9909C21.4607 39.879 21.2654 39.7663 21.0706 39.6528C20.7923 39.4909 20.5126 39.3314 20.2326 39.1725C20.0644 39.0761 19.8964 38.9795 19.7284 38.8828C19.6501 38.8382 19.5718 38.7935 19.4911 38.7474C19.1416 38.5427 18.9312 38.4047 18.703 38.0625C18.6821 37.8089 18.6821 37.8089 18.6907 37.507C18.6931 37.3938 18.6955 37.2806 18.698 37.164C18.7012 37.0416 18.7044 36.9192 18.7077 36.7932C18.7103 36.534 18.7125 36.2749 18.7143 36.0158C18.7179 35.6071 18.7235 35.1989 18.7356 34.7903C18.8477 33.3745 18.8477 33.3745 18.4598 32.0605C18.0882 31.7059 17.656 31.5519 17.1718 31.3906C17.0284 31.3109 16.8869 31.2275 16.7497 31.1377C16.6453 31.0768 16.541 31.0159 16.4335 30.9531C16.3258 30.89 16.2181 30.8268 16.1071 30.7617C15.8905 30.6162 15.8905 30.6162 15.7499 30.625ZM39.6077 30.9262C39.4945 30.9918 39.3812 31.0573 39.2645 31.1249C39.0789 31.2328 39.0789 31.2328 38.8895 31.3428C38.7605 31.4176 38.6314 31.4923 38.5022 31.5671C38.2335 31.7227 37.9649 31.8784 37.6963 32.0341C37.0898 32.3858 36.4823 32.7358 35.8749 33.086C35.6382 33.2225 35.4015 33.3591 35.1648 33.4957C34.6881 33.7707 34.2113 34.0456 33.7344 34.3203C32.5303 35.014 31.327 35.7093 30.1259 36.4082C30.0126 36.474 29.8993 36.5398 29.7825 36.6076C29.6274 36.698 29.6274 36.698 29.4692 36.7902C29.3322 36.8699 29.3322 36.8699 29.1925 36.9512C28.991 37.0628 28.991 37.0628 28.8749 37.1875C28.8644 37.3563 28.8616 37.5256 28.8617 37.6948C28.8616 37.8045 28.8614 37.9141 28.8613 38.0271C28.8617 38.1484 28.8621 38.2697 28.8625 38.3947C28.8625 38.5217 28.8625 38.6487 28.8624 38.7795C28.8625 39.2014 28.8634 39.6234 28.8642 40.0454C28.8644 40.337 28.8646 40.6287 28.8647 40.9203C28.865 41.611 28.8659 42.3017 28.867 42.9923C28.8682 43.7784 28.8688 44.5645 28.8694 45.3507C28.8705 46.9682 28.8725 48.5856 28.8749 50.2031C29.0851 50.0987 29.2951 49.9941 29.5052 49.8895C29.6222 49.8313 29.7392 49.773 29.8597 49.7131C30.224 49.5283 30.5748 49.3319 30.9257 49.1231C31.0906 49.0254 31.0906 49.0254 31.2589 48.9257C31.3385 48.878 31.418 48.8304 31.4999 48.7813C31.4841 48.6623 31.4683 48.5433 31.452 48.4207C31.0929 45.6269 31.3721 43.0908 33.1405 40.7969C35.0153 38.4826 37.3494 37.7475 40.2499 37.4063C40.2499 35.1685 40.2499 32.9306 40.2499 30.625C40.0238 30.625 39.7951 30.8175 39.6077 30.9262ZM20.453 33.3594C20.1589 35.4861 20.1589 35.4861 20.6337 37.4762C21.0844 37.8869 21.793 38.2813 22.4218 38.2813C22.7159 36.1546 22.7159 36.1546 22.241 34.1645C21.7904 33.7538 21.0818 33.3594 20.453 33.3594ZM34.9999 41.4531C34.9317 41.5177 34.8634 41.5823 34.7931 41.6488C33.6082 42.8604 33.0613 44.6061 32.9901 46.2656C33.0736 48.2121 33.8302 50.0268 35.2186 51.4063C36.7652 52.726 38.6417 53.4477 40.6842 53.29C42.6866 53.0699 44.3369 52.118 45.6234 50.5813C46.8151 48.9623 47.2903 47.0375 46.9973 45.0522C46.6225 43.0845 45.4847 41.4992 43.8593 40.3594C40.938 38.5351 37.3986 39.0289 34.9999 41.4531Z" fill="#BC3F3F"/>
<path d="M37.0577 41.207C37.169 41.2042 37.2802 41.2014 37.3948 41.1985C38.2039 41.284 38.6613 41.7908 39.1974 42.3486C39.2675 42.4202 39.3375 42.4917 39.4097 42.5655C39.5813 42.7408 39.752 42.9169 39.922 43.0938C40.4443 42.8561 40.7831 42.4594 41.1691 42.0472C41.7152 41.4809 42.2111 41.1876 43.0187 41.1729C43.7435 41.1927 44.2303 41.3614 44.7345 41.8906C45.1347 42.4811 45.2611 43.0485 45.172 43.75C44.9192 44.4571 44.4785 44.9367 43.9415 45.4453C43.8705 45.5144 43.7994 45.5835 43.7262 45.6547C43.5528 45.8229 43.3786 45.99 43.2032 46.1562C43.3447 46.4707 43.4893 46.684 43.7429 46.9167C43.8048 46.9755 43.8668 47.0343 43.9306 47.0949C44.0599 47.2155 44.1897 47.3355 44.3203 47.4547C44.8811 47.9907 45.1303 48.4943 45.213 49.2803C45.14 49.9496 44.8746 50.4871 44.4064 50.9688C43.84 51.3375 43.2076 51.4845 42.5389 51.3661C41.5516 51.0519 40.8432 50.1568 40.1407 49.4375C39.8263 49.5789 39.613 49.7236 39.3802 49.9771C39.3215 50.0391 39.2627 50.101 39.2021 50.1649C39.0815 50.2941 38.9615 50.424 38.8423 50.5545C38.3379 51.0823 37.8418 51.3723 37.1047 51.4297C36.339 51.34 35.8631 51.1118 35.3488 50.5244C34.8999 49.9217 34.9239 49.2889 35.0001 48.5625C35.2847 47.6848 36.2106 46.996 36.8595 46.375C36.6561 45.8469 36.2161 45.5054 35.813 45.1279C35.3577 44.6889 35.0426 44.2888 34.9565 43.6406C34.9665 42.3617 34.9665 42.3617 35.509 41.8193C36.0157 41.3639 36.3669 41.2175 37.0577 41.207ZM36.8595 43.0938C36.9101 43.6018 37.0863 43.8021 37.4581 44.1418C37.5564 44.2348 37.6548 44.3278 37.7561 44.4236C37.9646 44.6167 38.1739 44.809 38.3841 45.0003C39.2251 45.8003 39.2251 45.8003 39.2499 46.3028C39.1488 46.7353 39.0572 46.9117 38.7462 47.2227C38.658 47.3137 38.5697 47.4048 38.4788 47.4987C38.2569 47.7144 38.0341 47.929 37.8105 48.1429C37.7503 48.2013 37.6901 48.2598 37.628 48.3199C37.509 48.4347 37.3886 48.5481 37.2668 48.6598C37.0801 48.8322 37.0801 48.8322 36.8595 49.1094C36.8604 49.3619 36.8604 49.3619 36.9689 49.5469C37.3572 49.382 37.6023 49.1562 37.896 48.856C38.033 48.7172 38.033 48.7172 38.1729 48.5755C38.2673 48.4787 38.3618 48.382 38.4591 48.2822C38.6471 48.0904 38.8354 47.8989 39.0239 47.7076C39.1486 47.5799 39.1486 47.5799 39.2758 47.4497C39.5233 47.2129 39.654 47.15 39.9904 47.0859C40.7025 47.1914 41.1306 47.8011 41.6194 48.2942C41.6877 48.3629 41.7559 48.4316 41.8262 48.5024C41.9638 48.6416 42.1007 48.7815 42.2368 48.9221C42.3004 48.987 42.364 49.0519 42.4295 49.1188C42.5148 49.2068 42.5148 49.2068 42.6018 49.2967C42.7753 49.4637 42.7753 49.4637 43.0939 49.5469C43.1661 49.4025 43.2382 49.2581 43.3126 49.1094C43.2436 49.0438 43.1746 48.9782 43.1035 48.9107C42.8468 48.6652 42.5916 48.4182 42.3373 48.1701C42.2272 48.0633 42.1166 47.9571 42.0053 47.8516C41.8449 47.6992 41.6868 47.5447 41.5289 47.3897C41.4332 47.2975 41.3376 47.2053 41.239 47.1103C40.9621 46.7409 40.9089 46.5066 40.9064 46.0469C41.095 45.6162 41.3888 45.3199 41.7211 44.992C41.8138 44.9 41.9065 44.808 42.002 44.7132C42.0984 44.6187 42.1948 44.5242 42.2941 44.4268C42.3917 44.3301 42.4893 44.2335 42.5899 44.1339C42.8303 43.896 43.0712 43.6587 43.3126 43.4219C43.2585 43.2595 43.2585 43.2595 43.2032 43.0938C42.7826 43.1549 42.5955 43.3362 42.3039 43.6368C42.175 43.768 42.175 43.768 42.0435 43.9019C41.9547 43.9939 41.866 44.0859 41.7745 44.1807C41.598 44.3619 41.4213 44.5429 41.2443 44.7237C41.1663 44.8043 41.0884 44.885 41.008 44.9681C40.7179 45.2483 40.5208 45.3815 40.1202 45.4521C39.3675 45.3411 38.9595 44.7602 38.4476 44.2332C38.3798 44.164 38.312 44.0948 38.2421 44.0235C38.1054 43.8833 37.9698 43.742 37.8355 43.5996C37.7723 43.5343 37.7091 43.469 37.6439 43.4018C37.5876 43.3425 37.5313 43.2832 37.4733 43.2222C37.2744 43.0508 37.2744 43.0508 36.8595 43.0938Z" fill="#BC3F3F"/>
<path d="M22.5065 8.67923C22.6381 8.67827 22.7698 8.67731 22.9054 8.67633C23.2661 8.67433 23.6267 8.6748 23.9874 8.67653C24.3649 8.67792 24.7425 8.67663 25.1201 8.67578C25.7542 8.67478 26.3882 8.67609 27.0222 8.6787C27.7551 8.68167 28.488 8.68071 29.2209 8.6777C29.8503 8.67521 30.4797 8.67487 31.1091 8.6763C31.485 8.67715 31.8608 8.67726 32.2366 8.67546C32.6556 8.67358 33.0745 8.67618 33.4935 8.67923C33.6804 8.67757 33.6804 8.67757 33.871 8.67588C34.7073 8.68718 34.7073 8.68718 35.0769 9.00119C35.2713 9.40649 35.2815 9.77969 35.2769 10.2201C35.2773 10.3082 35.2777 10.3962 35.2781 10.4869C35.2784 10.6723 35.2776 10.8577 35.2758 11.0431C35.2734 11.3267 35.2758 11.6099 35.2786 11.8935C35.2783 12.074 35.2777 12.2545 35.2769 12.435C35.2777 12.5195 35.2786 12.6041 35.2795 12.6912C35.2731 13.0586 35.2606 13.2898 35.0317 13.5848C34.732 13.8199 34.5935 13.8362 34.2167 13.8368C34.0456 13.8386 34.0456 13.8386 33.871 13.8405C33.7464 13.8397 33.6219 13.8388 33.4935 13.8379C33.3619 13.8386 33.2302 13.8394 33.0946 13.8402C32.7339 13.8418 32.3733 13.8414 32.0126 13.84C31.6351 13.8389 31.2575 13.8399 30.8799 13.8406C30.2458 13.8414 29.6118 13.8404 28.9778 13.8383C28.2449 13.8359 27.512 13.8367 26.7791 13.8391C26.1497 13.8411 25.5203 13.8413 24.8909 13.8402C24.515 13.8395 24.1392 13.8394 23.7634 13.8409C23.3444 13.8424 22.9254 13.8403 22.5065 13.8379C22.3819 13.8387 22.2573 13.8396 22.129 13.8405C22.0149 13.8393 21.9008 13.8381 21.7833 13.8368C21.6843 13.8366 21.5852 13.8365 21.4832 13.8363C21.1305 13.7629 20.9997 13.6254 20.7812 13.3437C20.7377 13.0266 20.7198 12.7519 20.7231 12.435C20.7227 12.3471 20.7223 12.2592 20.7219 12.1686C20.7216 11.983 20.7224 11.7974 20.7242 11.6118C20.7265 11.3284 20.7242 11.0454 20.7214 10.7621C20.7217 10.5815 20.7223 10.4008 20.7231 10.2201C20.7223 10.1358 20.7214 10.0515 20.7205 9.96461C20.7267 9.60458 20.7669 9.32684 20.9231 9.00119C21.3995 8.59645 21.9009 8.67385 22.5065 8.67923ZM22.6406 10.6094C22.6406 11.0786 22.6406 11.5478 22.6406 12.0312C26.1778 12.0312 29.715 12.0312 33.3594 12.0312C33.3594 11.562 33.3594 11.0928 33.3594 10.6094C29.8222 10.6094 26.285 10.6094 22.6406 10.6094Z" fill="#BC3F3F"/>
</g>
<defs>
<clipPath id="clip0_337_28">
<rect width="56" height="56" fill="white"/>
</clipPath>
</defs>
</svg>
