<svg width="60" height="60" viewBox="0 0 60 60" fill="none" xmlns="http://www.w3.org/2000/svg">
<path d="M40.96 22.8546C41.2889 23.0134 41.6135 23.1797 41.9381 23.3469C42.1132 23.4347 42.2885 23.5223 42.4638 23.6098C42.829 23.7927 43.1932 23.9774 43.5567 24.1637C44.0212 24.4016 44.4875 24.6355 44.9547 24.8681C45.3159 25.0484 45.6764 25.2304 46.0365 25.4129C46.2082 25.4997 46.3801 25.5861 46.5522 25.6721C46.7927 25.7927 47.0321 25.9155 47.2712 26.0388C47.4072 26.108 47.5433 26.1772 47.6834 26.2486C48.1579 26.5564 48.4937 26.9092 48.7501 27.4219C48.7609 27.7044 48.7648 27.9835 48.7634 28.266C48.7634 28.3529 48.7634 28.4398 48.7634 28.5294C48.7633 28.8173 48.7624 29.1051 48.7615 29.393C48.7613 29.5923 48.7611 29.7917 48.761 29.991C48.7605 30.5162 48.7594 31.0414 48.7581 31.5666C48.7569 32.1023 48.7564 32.638 48.7558 33.1737C48.7545 34.2252 48.7525 35.2766 48.7501 36.3281C48.8531 36.3607 48.9561 36.3933 49.0622 36.4269C49.4186 36.5505 49.7449 36.6917 50.0831 36.8576C50.2031 36.9164 50.3232 36.9751 50.4469 37.0356C50.5747 37.0988 50.7026 37.162 50.8343 37.2272C50.9671 37.2928 51.1 37.3584 51.2369 37.426C51.5173 37.5649 51.7975 37.7039 52.0776 37.8433C52.4349 38.021 52.7931 38.1967 53.1517 38.372C53.4956 38.5407 53.8384 38.7117 54.1814 38.8824C54.3095 38.9447 54.4375 39.007 54.5695 39.0712C55.324 39.4506 55.8628 39.7723 56.2501 40.5469C56.2634 40.8828 56.2697 41.216 56.2708 41.552C56.2716 41.6561 56.2723 41.7601 56.2731 41.8673C56.2754 42.2127 56.2768 42.5581 56.278 42.9034C56.2785 43.0213 56.2789 43.1391 56.2794 43.2606C56.2819 43.8844 56.2835 44.5083 56.2846 45.1322C56.2859 45.7766 56.29 46.421 56.2946 47.0654C56.2977 47.5608 56.2987 48.0563 56.2991 48.5517C56.2997 48.7892 56.301 49.0268 56.3032 49.2643C56.306 49.597 56.3059 49.9296 56.3051 50.2623C56.3074 50.4092 56.3074 50.4092 56.3097 50.559C56.3041 51.1825 56.1975 51.5385 55.7813 52.0312C55.5878 52.1981 55.5878 52.1981 55.3852 52.3149C55.3032 52.3624 55.2212 52.4099 55.1367 52.4588C54.4992 52.8035 53.8579 53.1399 53.2123 53.4691C53.1348 53.5086 53.0572 53.5482 52.9774 53.5889C52.5673 53.7977 52.1568 54.0058 51.7461 54.2135C51.4089 54.3842 51.0726 54.5564 50.737 54.7301C50.3284 54.9415 49.9184 55.15 49.5074 55.3567C49.3523 55.4352 49.1978 55.5146 49.0438 55.5951C48.1014 56.0864 47.2514 56.471 46.1719 56.25C45.6283 56.0567 45.1312 55.8011 44.6238 55.5281C44.4805 55.454 44.337 55.3801 44.1935 55.3066C43.8191 55.1141 43.4464 54.9186 43.0742 54.7221C42.4765 54.4067 41.8773 54.0942 41.2763 53.7851C41.0679 53.677 40.8607 53.5664 40.6536 53.4557C40.5268 53.39 40.4 53.3243 40.2694 53.2567C40.1586 53.1981 40.0478 53.1395 39.9337 53.0792C39.4277 52.9068 39.0726 53.0152 38.591 53.2201C38.431 53.3041 38.431 53.3041 38.2679 53.3897C38.1458 53.453 38.0237 53.5164 37.8979 53.5816C37.7023 53.6845 37.7023 53.6845 37.5028 53.7895C37.2947 53.8966 37.0867 54.0037 36.8785 54.1106C36.3677 54.3731 35.8578 54.6374 35.3493 54.9046C35.0635 55.0547 34.777 55.2031 34.4896 55.35C34.22 55.4879 33.9515 55.628 33.6843 55.7706C32.8351 56.2007 32.1227 56.4427 31.1719 56.25C30.5246 56.0178 29.9226 55.7176 29.312 55.4031C29.1369 55.3153 28.9616 55.2276 28.7863 55.1402C28.4211 54.9573 28.0569 54.7726 27.6934 54.5863C27.2289 54.3484 26.7626 54.1145 26.2954 53.8819C25.9342 53.7016 25.5737 53.5196 25.2136 53.3371C25.0419 53.2503 24.87 53.1638 24.6979 53.0779C24.4574 52.9572 24.218 52.8345 23.9789 52.7112C23.7749 52.6074 23.7749 52.6074 23.5667 52.5014C23.0922 52.1936 22.7564 51.8408 22.5001 51.3281C22.4867 50.9922 22.4804 50.659 22.4793 50.323C22.4785 50.2189 22.4778 50.1149 22.477 50.0077C22.4747 49.6623 22.4733 49.3169 22.4721 48.9716C22.4717 48.8537 22.4712 48.7358 22.4707 48.6144C22.4682 47.9906 22.4666 47.3667 22.4655 46.7428C22.4642 46.0984 22.4601 45.454 22.4555 44.8096C22.4524 44.3141 22.4514 43.8187 22.451 43.3233C22.4504 43.0858 22.4491 42.8482 22.4469 42.6107C22.4441 42.278 22.4442 41.9454 22.445 41.6127C22.4435 41.5147 22.442 41.4168 22.4404 41.3159C22.446 40.6925 22.5521 40.3361 22.9688 39.8437C23.1717 39.6714 23.1717 39.6714 23.3815 39.5505C23.4634 39.503 23.5453 39.4556 23.6297 39.4068C24.1722 39.1146 24.7198 38.8344 25.2714 38.5597C25.4636 38.4634 25.4636 38.4634 25.6598 38.3652C25.9289 38.2305 26.1982 38.0961 26.4675 37.9619C26.8814 37.7556 27.2947 37.5483 27.708 37.3409C27.97 37.21 28.232 37.0792 28.494 36.9484C28.68 36.855 28.68 36.855 28.8698 36.7598C28.9841 36.703 29.0983 36.6462 29.2161 36.5878C29.3168 36.5375 29.4176 36.4872 29.5214 36.4354C29.7657 36.3281 29.7657 36.3281 30.0001 36.3281C29.999 36.2181 29.998 36.1081 29.9969 35.9947C29.9874 34.9568 29.9804 33.9188 29.9758 32.8809C29.9733 32.3472 29.97 31.8137 29.9647 31.2801C29.9596 30.7649 29.9568 30.2498 29.9556 29.7346C29.9547 29.5383 29.953 29.3419 29.9505 29.1456C29.9471 28.8701 29.9466 28.5948 29.9468 28.3193C29.9452 28.2385 29.9435 28.1578 29.9417 28.0746C29.9467 27.4925 30.1036 27.1659 30.4688 26.7187C30.6623 26.5519 30.6623 26.5519 30.8649 26.4351C30.9879 26.3639 30.9879 26.3639 31.1134 26.2912C31.7509 25.9464 32.3922 25.6101 33.0378 25.2809C33.1153 25.2414 33.1929 25.2018 33.2728 25.1611C33.6828 24.9522 34.0933 24.7441 34.504 24.5365C34.8412 24.3658 35.1775 24.1936 35.5131 24.0199C35.9217 23.8085 36.3317 23.6 36.7428 23.3933C36.8978 23.3148 37.0523 23.2353 37.2063 23.1549C38.5503 22.4542 39.5379 22.205 40.96 22.8546ZM38.4797 26.9092C38.3543 26.9726 38.2289 27.0361 38.0997 27.1014C37.9044 27.202 37.9044 27.202 37.7051 27.3047C37.5071 27.4053 37.5071 27.4053 37.305 27.5079C36.979 27.6737 36.6534 27.8404 36.3282 28.0078C36.3282 28.0852 36.3282 28.1625 36.3282 28.2422C36.7807 28.4821 37.2353 28.7177 37.6905 28.9526C37.8187 29.0207 37.947 29.0887 38.0791 29.1589C38.2661 29.2546 38.2661 29.2546 38.4568 29.3523C38.5709 29.4118 38.6851 29.4713 38.8027 29.5326C39.317 29.7088 39.6685 29.6041 40.1603 29.3996C40.2646 29.3462 40.3689 29.2928 40.4764 29.2378C40.5905 29.18 40.7045 29.1223 40.822 29.0627C40.9977 28.972 40.9977 28.972 41.1768 28.8794C41.2966 28.8184 41.4164 28.7575 41.5398 28.6947C41.8343 28.5447 42.1283 28.3938 42.4219 28.2422C42.4219 28.1648 42.4219 28.0875 42.4219 28.0078C41.9637 27.7719 41.5045 27.5381 41.045 27.3047C40.9148 27.2376 40.7845 27.1705 40.6504 27.1014C40.4623 27.0063 40.4623 27.0063 40.2704 26.9092C40.1551 26.8503 40.0397 26.7913 39.9208 26.7306C39.3447 26.4918 39.0045 26.6412 38.4797 26.9092ZM33.7501 31.2891C33.7501 32.9519 33.7501 34.6148 33.7501 36.3281C34.3253 36.6182 34.9005 36.9082 35.4932 37.207C35.6746 37.2988 35.856 37.3906 36.0429 37.4851C36.1865 37.5573 36.3301 37.6294 36.4737 37.7014C36.5485 37.7394 36.6232 37.7773 36.7001 37.8164C37.0813 38.0196 37.0813 38.0196 37.5001 38.0859C37.5001 36.423 37.5001 34.7602 37.5001 33.0469C36.9248 32.7568 36.3496 32.4668 35.7569 32.168C35.5755 32.0762 35.3941 31.9844 35.2072 31.8899C35.0636 31.8177 34.92 31.7456 34.7764 31.6736C34.7016 31.6356 34.6269 31.5977 34.55 31.5586C34.1688 31.3554 34.1688 31.3554 33.7501 31.2891ZM43.9737 31.6736C43.9049 31.7081 43.836 31.7427 43.765 31.7783C43.5075 31.9077 43.2504 32.0379 42.9932 32.168C42.1304 32.603 42.1304 32.603 41.2501 33.0469C41.2501 34.7098 41.2501 36.3727 41.2501 38.0859C41.7701 37.9126 42.2051 37.7394 42.6883 37.4954C42.8103 37.4341 42.9323 37.3729 43.0579 37.3097C43.2106 37.2323 43.3633 37.1549 43.5206 37.0752C44.2529 36.7054 44.2529 36.7054 45.0001 36.3281C45.0001 34.6652 45.0001 33.0023 45.0001 31.2891C44.6188 31.2891 44.3076 31.504 43.9737 31.6736ZM30.9797 40.0342C30.8543 40.0976 30.7289 40.1611 30.5997 40.2264C30.4044 40.327 30.4044 40.327 30.2051 40.4297C30.0071 40.5303 30.0071 40.5303 29.805 40.6329C29.479 40.7987 29.1534 40.9654 28.8282 41.1328C28.8282 41.2102 28.8282 41.2875 28.8282 41.3672C29.2807 41.6071 29.7353 41.8427 30.1905 42.0776C30.3187 42.1457 30.447 42.2137 30.5791 42.2839C30.7661 42.3796 30.7661 42.3796 30.9568 42.4773C31.0709 42.5368 31.1851 42.5963 31.3027 42.6576C31.817 42.8338 32.1685 42.7291 32.6603 42.5246C32.7646 42.4712 32.8689 42.4178 32.9764 42.3628C33.0905 42.305 33.2045 42.2473 33.322 42.1877C33.4977 42.097 33.4977 42.097 33.6768 42.0044C33.7966 41.9434 33.9164 41.8825 34.0398 41.8197C34.3343 41.6697 34.6283 41.5188 34.9219 41.3672C34.9219 41.2898 34.9219 41.2125 34.9219 41.1328C34.4637 40.8969 34.0045 40.6631 33.545 40.4297C33.4148 40.3626 33.2845 40.2955 33.1504 40.2264C32.9623 40.1313 32.9623 40.1313 32.7704 40.0342C32.6551 39.9753 32.5397 39.9163 32.4208 39.8556C31.8447 39.6168 31.5045 39.7662 30.9797 40.0342ZM45.9797 40.0342C45.8543 40.0976 45.7289 40.1611 45.5997 40.2264C45.4044 40.327 45.4044 40.327 45.2051 40.4297C45.0071 40.5303 45.0071 40.5303 44.805 40.6329C44.479 40.7987 44.1534 40.9654 43.8282 41.1328C43.8282 41.2102 43.8282 41.2875 43.8282 41.3672C44.2807 41.6071 44.7353 41.8427 45.1905 42.0776C45.3187 42.1457 45.447 42.2137 45.5791 42.2839C45.7661 42.3796 45.7661 42.3796 45.9568 42.4773C46.0709 42.5368 46.1851 42.5963 46.3027 42.6576C46.817 42.8338 47.1685 42.7291 47.6603 42.5246C47.7646 42.4712 47.8689 42.4178 47.9764 42.3628C48.0905 42.305 48.2045 42.2473 48.322 42.1877C48.4977 42.097 48.4977 42.097 48.6768 42.0044C48.7966 41.9434 48.9164 41.8825 49.0398 41.8197C49.3343 41.6697 49.6283 41.5188 49.9219 41.3672C49.9219 41.2898 49.9219 41.2125 49.9219 41.1328C49.4637 40.8969 49.0045 40.6631 48.545 40.4297C48.4148 40.3626 48.2845 40.2955 48.1504 40.2264C47.9623 40.1313 47.9623 40.1313 47.7704 40.0342C47.6551 39.9753 47.5397 39.9163 47.4208 39.8556C46.8447 39.6168 46.5045 39.7662 45.9797 40.0342ZM26.2501 44.4141C26.2501 46.0769 26.2501 47.7398 26.2501 49.4531C26.8253 49.7432 27.4005 50.0332 27.9932 50.332C28.1746 50.4238 28.356 50.5156 28.5429 50.6101C28.6865 50.6823 28.8301 50.7544 28.9737 50.8264C29.0485 50.8644 29.1232 50.9023 29.2001 50.9414C29.5813 51.1446 29.5813 51.1446 30.0001 51.2109C30.0001 49.548 30.0001 47.8852 30.0001 46.1719C29.4248 45.8818 28.8496 45.5918 28.2569 45.293C28.0755 45.2012 27.8941 45.1094 27.7072 45.0149C27.5636 44.9427 27.42 44.8706 27.2764 44.7986C27.2017 44.7606 27.1269 44.7227 27.05 44.6836C26.6688 44.4804 26.6688 44.4804 26.2501 44.4141ZM36.4737 44.7986C36.4049 44.8331 36.336 44.8677 36.265 44.9033C36.0075 45.0327 35.7504 45.1629 35.4932 45.293C34.6304 45.728 34.6304 45.728 33.7501 46.1719C33.7501 47.8348 33.7501 49.4977 33.7501 51.2109C34.2701 51.0376 34.7051 50.8644 35.1883 50.6204C35.3103 50.5591 35.4323 50.4979 35.5579 50.4347C35.7106 50.3573 35.8633 50.2799 36.0206 50.2002C36.7529 49.8304 36.7529 49.8304 37.5001 49.4531C37.5001 47.7902 37.5001 46.1273 37.5001 44.4141C37.1188 44.4141 36.8076 44.629 36.4737 44.7986ZM41.2501 44.4141C41.2501 46.0769 41.2501 47.7398 41.2501 49.4531C41.8253 49.7432 42.4005 50.0332 42.9932 50.332C43.1746 50.4238 43.356 50.5156 43.5429 50.6101C43.6865 50.6823 43.8301 50.7544 43.9737 50.8264C44.0485 50.8644 44.1232 50.9023 44.2001 50.9414C44.5813 51.1446 44.5813 51.1446 45.0001 51.2109C45.0001 49.548 45.0001 47.8852 45.0001 46.1719C44.4248 45.8818 43.8496 45.5918 43.2569 45.293C43.0755 45.2012 42.8941 45.1094 42.7072 45.0149C42.5636 44.9427 42.42 44.8706 42.2764 44.7986C42.2017 44.7606 42.1269 44.7227 42.05 44.6836C41.6688 44.4804 41.6688 44.4804 41.2501 44.4141ZM51.4737 44.7986C51.4049 44.8331 51.336 44.8677 51.265 44.9033C51.0075 45.0327 50.7504 45.1629 50.4932 45.293C49.6304 45.728 49.6304 45.728 48.7501 46.1719C48.7501 47.8348 48.7501 49.4977 48.7501 51.2109C49.2701 51.0376 49.7051 50.8644 50.1883 50.6204C50.3103 50.5591 50.4323 50.4979 50.5579 50.4347C50.7106 50.3573 50.8633 50.2799 51.0206 50.2002C51.7529 49.8304 51.7529 49.8304 52.5001 49.4531C52.5001 47.7902 52.5001 46.1273 52.5001 44.4141C52.1188 44.4141 51.8076 44.629 51.4737 44.7986Z" fill="#7B1FA2"/>
<path d="M6.33631 3.69048C6.55181 3.68938 6.55181 3.68938 6.77166 3.68826C7.16959 3.68672 7.56741 3.68727 7.96533 3.68872C8.39479 3.68979 8.82424 3.68815 9.25369 3.68686C10.0946 3.68477 10.9356 3.68522 11.7765 3.68658C12.46 3.68764 13.1435 3.68779 13.8269 3.68728C13.9242 3.6872 14.0215 3.68713 14.1217 3.68706C14.3193 3.68691 14.5169 3.68676 14.7145 3.6866C16.5675 3.68527 18.4205 3.6868 20.2734 3.68932C21.8634 3.69142 23.4533 3.69105 25.0433 3.68889C26.8896 3.68638 28.736 3.68539 30.5823 3.68683C30.7792 3.68698 30.9761 3.68713 31.173 3.68728C31.2698 3.68735 31.3667 3.68742 31.4665 3.68749C32.1491 3.6879 32.8318 3.68722 33.5144 3.68611C34.3463 3.6848 35.1782 3.68515 36.0101 3.68765C36.4346 3.68888 36.859 3.68937 37.2835 3.68782C37.7435 3.68616 38.2035 3.68814 38.6636 3.69048C38.7978 3.68943 38.9321 3.68839 39.0704 3.68731C39.7956 3.69449 40.2312 3.73026 40.7812 4.21875C41.374 4.85191 41.3165 5.504 41.3106 6.32446C41.3118 6.53552 41.3118 6.53552 41.3131 6.75084C41.3148 7.13535 41.3144 7.51979 41.3129 7.9043C41.3117 8.30748 41.3128 8.71066 41.3136 9.11385C41.3144 9.79081 41.3133 10.4678 41.3111 11.1447C41.3085 11.9264 41.3093 12.708 41.3119 13.4896C41.314 14.1618 41.3143 14.834 41.3131 15.5062C41.3124 15.9072 41.3123 16.3082 41.3138 16.7091C41.315 17.1563 41.3132 17.6034 41.3106 18.0505C41.3115 18.1828 41.3125 18.315 41.3135 18.4513C41.3056 19.1747 41.2672 19.607 40.7812 20.1563C40.3336 20.5814 39.9746 20.6613 39.3749 20.6836C38.7753 20.6613 38.4163 20.5814 37.9687 20.1563C37.4452 19.5361 37.4348 19.0507 37.4467 18.276C37.4467 18.1594 37.4466 18.0427 37.4465 17.9224C37.4468 17.5382 37.4505 17.154 37.4542 16.7697C37.455 16.5027 37.4557 16.2357 37.4562 15.9688C37.458 15.2671 37.4626 14.5655 37.4678 13.8638C37.4734 13.0214 37.4755 12.179 37.4783 11.3366C37.4828 10.0577 37.4918 8.77889 37.4999 7.5C35.489 7.5 33.4781 7.5 31.4062 7.5C31.2902 7.92539 31.1742 8.35078 31.0546 8.78906C30.8981 9.29556 30.7305 9.79784 30.5596 10.2997C30.5085 10.4506 30.4581 10.6019 30.4083 10.7533C29.807 12.5839 29.807 12.5839 29.0779 13.0222C28.7982 13.1373 28.5977 13.1551 28.2959 13.1563C28.1898 13.1573 28.0837 13.1583 27.9744 13.1594C27.8588 13.1593 27.7433 13.1592 27.6242 13.159C27.5018 13.1598 27.3794 13.1606 27.2533 13.1614C26.8484 13.1637 26.4434 13.1641 26.0385 13.1644C25.7571 13.1651 25.4756 13.1659 25.1942 13.1667C24.6042 13.1681 24.0141 13.1686 23.424 13.1684C22.6679 13.1684 21.9119 13.1716 21.1558 13.1756C20.5745 13.1783 19.9932 13.1787 19.412 13.1786C19.1332 13.1789 18.8545 13.1799 18.5757 13.1817C18.1858 13.184 17.7959 13.1833 17.406 13.1819C17.2909 13.1833 17.1758 13.1846 17.0573 13.1859C16.3899 13.1798 15.994 13.1098 15.4687 12.6563C15.0512 12.1358 14.8482 11.5955 14.6465 10.9699C14.6007 10.8317 14.6007 10.8317 14.554 10.6908C14.4901 10.4975 14.4267 10.3041 14.3638 10.1105C14.2672 9.81339 14.1691 9.51681 14.0707 9.22028C14.0086 9.03201 13.9467 8.84372 13.8848 8.6554C13.8555 8.56653 13.8262 8.47767 13.7961 8.38611C13.5937 7.76186 13.5937 7.76186 13.5937 7.5C11.5828 7.5 9.57182 7.5 7.49994 7.5C7.49994 22.35 7.49994 37.2 7.49994 52.5C12.0632 52.5 16.6265 52.5 21.3281 52.5C22.2373 53.1061 22.2373 53.1061 22.4999 53.6719C22.5883 54.3281 22.5905 54.883 22.3095 55.4883C21.7577 56.0691 21.4311 56.2753 20.6254 56.3095C20.3347 56.3123 20.044 56.3125 19.7534 56.3107C19.5928 56.3113 19.4322 56.3121 19.2716 56.3131C18.8367 56.3153 18.4019 56.3145 17.967 56.313C17.5113 56.3118 17.0556 56.3129 16.5998 56.3136C15.8346 56.3145 15.0694 56.3133 14.3041 56.3111C13.4202 56.3086 12.5364 56.3094 11.6525 56.312C10.8927 56.3141 10.133 56.3144 9.3732 56.3132C8.9198 56.3124 8.46643 56.3123 8.01304 56.3139C7.58671 56.3152 7.16045 56.3143 6.73413 56.3116C6.50364 56.3107 6.27314 56.3121 6.04265 56.3135C4.7536 56.3012 4.7536 56.3012 4.21869 55.7812C3.79352 55.2429 3.6913 54.8929 3.69095 54.2103C3.69027 54.125 3.68959 54.0397 3.68889 53.9518C3.68718 53.6659 3.6888 53.3801 3.69042 53.0942C3.68988 52.8872 3.68913 52.6802 3.6882 52.4732C3.68624 51.9043 3.68721 51.3354 3.68866 50.7665C3.68972 50.153 3.68809 49.5395 3.6868 48.926C3.68471 47.724 3.68516 46.5222 3.68652 45.3202C3.68758 44.3436 3.68773 43.3669 3.68721 42.3903C3.68714 42.2514 3.68707 42.1125 3.687 41.9694C3.68685 41.6872 3.6867 41.405 3.68654 41.1229C3.6852 38.4759 3.68674 35.8289 3.68926 33.1819C3.69135 30.9097 3.69099 28.6375 3.68883 26.3654C3.68632 23.7279 3.68533 21.0905 3.68677 18.4531C3.68692 18.172 3.68707 17.8908 3.68721 17.6097C3.68732 17.4022 3.68732 17.4022 3.68743 17.1905C3.68784 16.2148 3.68715 15.2392 3.68605 14.2635C3.68474 13.0747 3.68509 11.886 3.68759 10.6973C3.68882 10.0905 3.6893 9.48382 3.68775 8.87709C3.68636 8.32194 3.68712 7.76683 3.68962 7.21168C3.69014 7.0106 3.68987 6.80951 3.68874 6.60843C3.68732 6.33547 3.68877 6.06268 3.69095 5.78974C3.69103 5.63802 3.69111 5.48631 3.69118 5.33C3.77944 4.71699 4.0676 4.36061 4.51114 3.94415C5.11753 3.65747 5.67338 3.68532 6.33631 3.69048ZM17.6953 7.5C17.9918 8.68377 17.9918 8.68377 18.2812 9.375C21.0656 9.375 23.8499 9.375 26.7187 9.375C27.1218 8.45658 27.1218 8.45658 27.3046 7.5C24.1335 7.5 20.9624 7.5 17.6953 7.5Z" fill="#7B1FA2"/>
<path d="M14.9871 41.5713C15.965 42.1544 16.5731 42.9616 16.8749 44.0625C16.9919 45.3632 16.9159 46.4923 16.0839 47.5561C15.4209 48.266 14.5951 48.7021 13.6248 48.7894C12.3674 48.8176 11.3311 48.6709 10.3747 47.7777C9.50822 46.814 9.30672 45.7928 9.33829 44.5299C9.39387 43.5472 9.81726 42.7262 10.5468 42.0703C11.8052 41.124 13.5429 40.8783 14.9871 41.5713Z" fill="#7B1FA2"/>
<path d="M14.9871 28.4464C15.965 29.0295 16.5731 29.8366 16.8749 30.9375C16.9919 32.2383 16.9159 33.3673 16.0839 34.4312C15.4209 35.1411 14.5951 35.5771 13.6248 35.6644C12.3674 35.6927 11.3311 35.546 10.3747 34.6527C9.50822 33.689 9.30672 32.6679 9.33829 31.4049C9.39387 30.4222 9.81726 29.6012 10.5468 28.9453C11.8052 27.999 13.5429 27.7533 14.9871 28.4464Z" fill="#7B1FA2"/>
<path d="M14.9871 15.3214C15.965 15.9045 16.5731 16.7116 16.8749 17.8125C16.9919 19.1133 16.9159 20.2423 16.0839 21.3062C15.4209 22.0161 14.5951 22.4521 13.6248 22.5394C12.3674 22.5677 11.3311 22.421 10.3747 21.5277C9.50822 20.564 9.30672 19.5429 9.33829 18.2799C9.39387 17.2972 9.81726 16.4762 10.5468 15.8203C11.8052 14.874 13.5429 14.6283 14.9871 15.3214Z" fill="#7B1FA2"/>
</svg>
