<?xml version="1.0" encoding="UTF-8"?>
<svg version="1.1" xmlns="http://www.w3.org/2000/svg" width="512" height="512">
<path d="M0 0 C1.19778438 0.01058189 1.19778438 0.01058189 2.41976643 0.02137756 C14.95852648 0.3318529 27.39979238 2.33661482 39.80505157 4.06831741 C43.51147101 4.58262148 47.21997484 5.08143623 50.92829895 5.58178711 C57.92829226 6.52839225 64.92660652 7.48681031 71.92426902 8.45048046 C84.47490709 10.17861759 97.02793304 11.88922706 109.58217126 13.59100056 C113.97715034 14.18727639 118.37122579 14.78971868 122.76464403 15.39738464 C124.83656146 15.68325906 126.90878926 15.96674729 128.98117065 16.24923706 C131.49801715 16.59246756 134.01434475 16.93953541 136.53001404 17.29129028 C142.35329392 18.07914456 148.00405958 18.81310665 153.8815918 18.43359375 C155.82225535 16.74462702 155.82225535 16.74462702 156.8815918 14.30859375 C161.13855397 6.97139066 166.98456336 3.33910421 174.8815918 0.43359375 C185.43676842 -0.98033957 194.03568966 0.16659098 202.8815918 6.43359375 C205.36697402 8.54667175 207.15262648 10.67411931 208.8815918 13.43359375 C209.29151367 14.05492187 209.70143555 14.67625 210.1237793 15.31640625 C213.97185318 22.29601613 214.13213703 30.6940442 212.8815918 38.43359375 C210.47627334 46.0235209 206.62397432 52.09024501 199.8815918 56.43359375 C198.4275293 57.11421875 198.4275293 57.11421875 196.9440918 57.80859375 C196.2634668 58.34484375 195.5828418 58.88109375 194.8815918 59.43359375 C194.3855548 66.47499797 195.55154727 73.36312899 196.53393555 80.32519531 C196.80346563 82.28417021 197.07299231 84.24314558 197.34239197 86.20213842 C197.63137259 88.29649234 197.92292757 90.39047431 198.21511841 92.48438263 C198.82729051 96.87497127 199.42943707 101.26689971 200.02978516 105.65911865 C201.73786485 118.14555538 203.45634738 130.63053 205.19116211 143.11328125 C206.15045202 150.01642409 207.09987007 156.92085532 208.0389986 163.82677054 C208.53462371 167.46800908 209.03509518 171.10842211 209.54806519 174.74726105 C215.87566977 219.68744189 215.87566977 219.68744189 208.8815918 231.43359375 C208.3247168 232.42359375 207.7678418 233.41359375 207.1940918 234.43359375 C200.56215239 243.03719082 192.77966279 250.68489004 185.10987854 258.35247803 C184.04896122 259.41670374 182.98825381 260.48113873 181.92773575 261.5457623 C179.03939721 264.44401619 176.14800831 267.33920934 173.25604331 270.23384404 C170.12745425 273.366367 167.00168979 276.50170659 163.87548828 279.63661194 C156.34376147 287.18800485 148.80727465 294.73463834 141.2701675 302.28066051 C137.71524588 305.83997657 134.16080909 309.39977672 130.60630608 312.9595108 C118.78444819 324.79836232 106.96134207 336.63596515 95.13461399 348.46995163 C92.07296883 351.53350642 89.01132904 354.5970666 85.94970703 357.66064453 C85.18883165 358.42200365 84.42795627 359.18336277 83.64402407 359.96779338 C71.30311073 372.31701726 58.97074754 384.67474302 46.64191032 397.03602192 C33.96806938 409.74293923 21.28670545 422.44230899 8.59791321 435.13429666 C1.47998403 442.25438913 -5.63462961 449.37772647 -12.74084282 456.50951385 C-18.78793878 462.57832366 -24.84182788 468.64025244 -30.90464955 474.6933538 C-33.99553046 477.77969366 -37.08311407 480.86914947 -40.16199684 483.96746254 C-42.98409897 486.80722016 -45.81539272 489.63747282 -48.65408016 492.46064857 C-49.67564472 493.47984088 -50.69388425 494.50238006 -51.7082954 495.52869245 C-60.60398634 504.52219491 -69.89768874 512.47611892 -83.08032227 512.86621094 C-94.88537161 512.8928589 -103.11591049 510.63002385 -111.90467834 502.29251099 C-112.46068287 501.77178548 -113.01668739 501.25105997 -113.58954054 500.71455491 C-121.30289651 493.44149401 -128.78614762 485.93042677 -136.28808594 478.44091797 C-137.97464969 476.76063431 -139.66139711 475.080535 -141.34831238 473.40060425 C-146.36344744 468.40450654 -151.37443862 463.40426757 -156.38453087 458.40311354 C-158.27737784 456.51379033 -160.17053452 454.62477762 -162.06370525 452.73577883 C-170.42912809 444.3887815 -178.79321459 436.04044776 -187.15328884 427.68809319 C-189.18746931 425.65582194 -191.2216554 423.62355632 -193.25585938 421.59130859 C-193.76131973 421.08633198 -194.26678009 420.58135536 -194.78755743 420.06107642 C-202.99479054 411.86216256 -211.2105216 403.67181908 -219.42978322 395.48496543 C-227.89700665 387.05085324 -236.35664279 378.60919066 -244.8089233 370.16010296 C-249.5435359 365.42764897 -254.28156076 360.69872997 -259.02767754 355.97780991 C-263.4860972 351.54268598 -267.93487915 347.09811585 -272.37652779 342.64619827 C-274.0040356 341.01819563 -275.63494791 339.39358796 -277.26956177 337.77272034 C-279.50731814 335.55272951 -281.73226115 333.32060965 -283.95457458 331.08517456 C-284.59747309 330.4532453 -285.24037159 329.82131605 -285.90275186 329.17023742 C-295.18189054 319.75906952 -299.54826001 310.07926299 -299.48193359 296.90429688 C-299.0963449 280.98719561 -288.12055872 271.1322757 -277.43534851 260.48983765 C-276.35944126 259.41090466 -275.28396747 258.33153928 -274.20888644 257.25178301 C-271.27266838 254.30533086 -268.33030184 251.36508846 -265.38681901 248.42589617 C-262.20590798 245.24746069 -259.03075828 242.06327831 -255.85482788 238.87986755 C-249.63969406 232.65200832 -243.41911734 226.42961358 -237.19644626 220.2092862 C-232.13741577 215.15204122 -227.0801598 210.09302826 -222.02414894 205.03276443 C-221.30361532 204.31163562 -220.58308169 203.59050681 -219.84071371 202.8475256 C-218.3768036 201.3824037 -216.91289465 199.91728062 -215.44898687 198.45215638 C-201.7320062 184.72430877 -188.00852319 171.00297582 -174.28305785 157.28361221 C-161.73518814 144.74091253 -149.19555291 132.19001718 -136.65977611 119.63523225 C-123.77629597 106.73236714 -110.8872567 93.8350795 -97.9922021 80.9437815 C-90.75734967 73.71083989 -83.52470667 66.47572188 -76.2978878 59.23475266 C-70.14651434 53.07145615 -63.98989861 46.9134553 -57.82651409 40.76216911 C-54.68429666 37.62583343 -51.54450609 34.48716852 -48.41123772 31.34189034 C-45.53880569 28.45857672 -42.65944567 25.58236999 -39.77458201 22.71149631 C-38.73634438 21.6758993 -37.70059003 20.6378049 -36.66769787 19.59687631 C-26.01932927 8.87147821 -15.80541401 -0.22904564 0 0 Z M-32.01278687 41.18753052 C-33.07431054 42.24646361 -34.1360462 43.30518422 -35.19797289 44.36371315 C-38.08869006 47.24643983 -40.97633803 50.13222323 -43.8634336 53.01857638 C-46.98771589 56.14099437 -50.11483967 59.26056458 -53.24154663 62.3805542 C-60.06194617 69.18743179 -66.87862076 75.99803137 -73.69446898 82.80946589 C-77.95245401 87.06468096 -82.21117272 91.31916125 -86.47002029 95.57351303 C-98.27086989 107.36218348 -110.07078224 119.15179029 -121.867239 130.94485664 C-122.62059002 131.6979881 -123.37394105 132.45111956 -124.15012089 133.22707319 C-124.90520474 133.98193875 -125.66028858 134.73680432 -126.43825376 135.51454461 C-127.96819301 137.0440404 -129.49813382 138.57353465 -131.02807617 140.10302734 C-131.7869693 140.86169904 -132.54586242 141.62037073 -133.32775231 142.40203248 C-145.64414951 154.71447556 -157.9672943 167.02014158 -170.29333656 179.32292821 C-182.9599609 191.96584739 -195.62096033 204.61437669 -208.27632105 217.26857078 C-215.37753873 224.36887181 -222.48115413 231.46673658 -229.59098434 238.55841446 C-235.63931452 244.59135575 -241.68249465 250.6293966 -247.71900122 256.67416944 C-250.79824344 259.75732092 -253.87986265 262.83799371 -256.96806335 265.91217422 C-259.7956401 268.72703078 -262.61618641 271.54873941 -265.43132861 274.37603019 C-266.45000851 275.39667019 -267.4712227 276.41478846 -268.4952281 277.43008532 C-278.15430288 286.52529015 -278.15430288 286.52529015 -281.7434082 298.80859375 C-281.77692383 299.66195313 -281.81043945 300.5153125 -281.8449707 301.39453125 C-279.94132731 309.35708263 -273.38251154 315.60725787 -267.72438049 321.20857239 C-267.00140414 321.93622872 -266.27842778 322.66388504 -265.53354305 323.41359156 C-263.12951297 325.82950719 -260.71500005 328.23465226 -258.30029297 330.63989258 C-256.56632376 332.37793025 -254.83299268 334.11660476 -253.10025024 335.85586548 C-248.89341877 340.07492688 -244.67965358 344.28694326 -240.46234984 348.49552796 C-237.03407121 351.9170136 -233.60875365 355.34143784 -230.18549919 358.76795006 C-229.69709425 359.2568147 -229.20868931 359.74567934 -228.70548422 360.24935805 C-227.71313786 361.24266365 -226.72079821 362.23597594 -225.72846519 363.22929486 C-216.4393126 372.52698705 -207.14101331 381.81548804 -197.83952337 391.10083558 C-189.86565763 399.06129101 -181.89970176 407.02959075 -173.93945312 415.00366211 C-164.68274892 424.27643288 -155.42118232 433.54430235 -146.15183872 442.80443972 C-145.16293054 443.7923923 -144.1740286 444.78035113 -143.18513298 445.76831627 C-142.69864037 446.25434605 -142.21214777 446.74037583 -141.71091296 447.24113378 C-138.28943913 450.66002159 -134.87144998 454.08236933 -131.45480537 457.50608253 C-126.85477216 462.11542382 -122.24680822 466.71672983 -117.63345718 471.31274796 C-115.94220691 473.00003309 -114.25350138 474.68987339 -112.56754494 476.3824482 C-110.26504146 478.69315536 -107.95348586 480.99441419 -105.63941956 483.29353333 C-104.97520432 483.96444073 -104.31098908 484.63534814 -103.6266461 485.32658607 C-98.52882644 490.36077842 -93.27766338 494.99071758 -85.7434082 495.05859375 C-84.46336914 495.10886719 -84.46336914 495.10886719 -83.1574707 495.16015625 C-73.75313197 492.9118182 -66.72575443 484.47040597 -60.16119385 477.86405945 C-59.08104594 476.78809062 -58.00024835 475.71277368 -56.91886306 474.63804847 C-53.96629081 471.69987373 -51.0230725 468.75248565 -48.08139253 465.80341113 C-44.90069922 462.61797443 -41.71138328 459.44119028 -38.52320862 456.26324463 C-32.28587107 450.04307638 -26.05671204 443.81478008 -19.83057722 437.58340033 C-14.76943041 432.51820778 -9.70554198 427.45577174 -4.63970184 422.39527321 C-3.91799558 421.67431537 -3.19628932 420.95335753 -2.45271318 420.21055249 C-0.98646204 418.74583287 0.47979251 417.28111666 1.94605044 415.81640384 C15.68577039 402.0904017 29.41590426 388.354842 43.14302638 374.61624268 C55.69732781 362.05200552 68.26303592 349.49924865 80.83425888 336.95194437 C93.75034029 324.06025243 106.65901483 311.16118792 119.55958104 298.25396949 C126.79924141 291.0108171 134.04173498 283.77055456 141.29189301 276.53790855 C147.46232321 270.38219818 153.62566528 264.21949622 159.78001919 258.04771145 C162.91891322 254.90030418 166.06090864 251.75617083 169.21170616 248.62067604 C172.09831933 245.74790927 174.97546799 242.86599832 177.84548703 239.97665594 C178.88286731 238.93551532 179.92360218 237.89770363 180.9680756 236.86367901 C190.76083185 227.2987106 190.76083185 227.2987106 195.43007469 214.78655052 C195.36624061 213.05243888 195.36624061 213.05243888 195.30111694 211.28329468 C195.2321628 209.33999331 195.2321628 209.33999331 195.16181564 207.35743332 C194.71826785 201.14664718 194.02355017 195.00533543 193.16918945 188.83837891 C192.98441164 187.45188283 192.80049366 186.06527194 192.61735535 184.67855835 C192.12410791 180.96284179 191.61877033 177.24886657 191.11080217 173.53513765 C190.57786016 169.62453382 190.05567894 165.71249152 189.53207397 161.80062866 C188.65262855 155.24198849 187.76574363 148.68439017 186.8737793 142.12744141 C185.84538496 134.56725834 184.82655746 127.00583651 183.81331408 119.44360888 C182.72922259 111.3528365 181.63916564 103.26287691 180.54683256 95.17321348 C180.23442464 92.85707433 179.92300853 90.54080353 179.61177444 88.22450638 C179.12141489 84.57787739 178.62696213 80.93182485 178.12943459 77.28616714 C177.8624999 75.323871 177.59927809 73.36107088 177.3361969 71.39825439 C176.00469835 58.85164741 176.00469835 58.85164741 171.0690918 47.49609375 C170.34786133 46.39974609 170.34786133 46.39974609 169.61206055 45.28125 C167.55875704 43.0888966 165.71242014 42.35157034 162.8815918 41.43359375 C159.25925231 47.087859 155.91897382 52.85739086 152.6940918 58.74609375 C151.82677649 60.32616597 150.95833278 61.90561946 150.08862305 63.484375 C149.7119751 64.17184814 149.33532715 64.85932129 148.94726562 65.56762695 C147.99653748 67.23232689 146.94498403 68.8385054 145.8815918 70.43359375 C146.07333933 73.78917564 147.27249198 76.26996189 148.8190918 79.18359375 C153.65243654 88.51634305 153.77821139 97.73812104 150.86206055 107.71875 C147.44707032 117.17459943 140.74139712 123.86750963 131.8815918 128.43359375 C122.74349645 132.15122571 111.31938052 131.87793582 102.1940918 128.24609375 C92.12915509 123.3028779 86.73593601 115.93754983 82.8815918 105.43359375 C80.58271322 95.08864016 82.07041231 85.36813631 87.2019043 76.03125 C93.00553324 67.76980005 101.08800857 62.71572033 110.8815918 60.43359375 C117.65816759 59.82532968 124.169664 60.54684067 130.8815918 61.43359375 C133.05516623 57.64584681 135.219269 53.85277346 137.3815918 50.05859375 C138.00163086 48.97835937 138.62166992 47.898125 139.26049805 46.78515625 C139.84702148 45.75390625 140.43354492 44.72265625 141.0378418 43.66015625 C141.5824707 42.70705566 142.12709961 41.75395508 142.68823242 40.77197266 C144.03311303 38.57423654 144.03311303 38.57423654 143.8815918 36.43359375 C126.52308263 34.07538493 109.16316322 31.72788089 91.80151939 29.39286804 C83.73898161 28.3082664 75.67693175 27.22025868 67.6159668 26.12402344 C60.58433291 25.1677791 53.55184309 24.2181378 46.51827967 23.27618694 C42.79927811 22.77790134 39.08076524 22.27647537 35.36326218 21.76712036 C31.85299218 21.28626616 28.34162776 20.81435333 24.8292942 20.34881973 C22.94894252 20.09736033 21.0698088 19.83684311 19.19075012 19.57589722 C-6.06643341 16.26437854 -14.6625321 23.82004442 -32.01278687 41.18753052 Z M172.8815918 22.43359375 C172.5515918 23.42359375 172.2215918 24.41359375 171.8815918 25.43359375 C172.46166992 25.77390625 173.04174805 26.11421875 173.6394043 26.46484375 C178.74919943 29.6352777 182.30322173 32.72009245 185.69018555 37.69921875 C186.90052937 39.57417486 186.90052937 39.57417486 188.8815918 41.43359375 C193.73557712 36.90469331 193.73557712 36.90469331 195.1940918 30.68359375 C195.13813822 26.28724147 193.76829224 23.80141093 190.8815918 20.43359375 C187.89412199 18.08629604 184.66542697 18.01828561 180.91674805 18.109375 C177.55366772 18.64514403 175.42541481 20.26203752 172.8815918 22.43359375 Z M105.1315918 82.74609375 C101.28793714 87.3371257 99.25603509 91.21052472 99.5378418 97.3515625 C100.45825702 102.92635016 102.90601476 107.02522339 107.4440918 110.37109375 C112.03666957 113.38848894 116.44989528 114.00154681 121.8815918 113.43359375 C127.93242779 111.17936073 131.63594152 107.67576424 134.7565918 102.05859375 C136.00798116 98.02633912 135.79773031 95.51457438 134.8815918 91.43359375 C133.8915918 92.09359375 132.9015918 92.75359375 131.8815918 93.43359375 C124.97748221 94.091128 124.97748221 94.091128 121.3815918 91.93359375 C118.87305604 87.75270082 119.45022565 83.5904245 120.3815918 78.93359375 C120.5465918 78.43859375 120.7115918 77.94359375 120.8815918 77.43359375 C114.516214 76.9678344 110.01029817 78.64354521 105.1315918 82.74609375 Z " fill="#000000" transform="translate(299.118408203125,-0.43359375)"/>
</svg>
