<svg width="45" height="46" viewBox="0 0 45 46" fill="none" xmlns="http://www.w3.org/2000/svg">
<g clip-path="url(#clip0_5_273)">
<path d="M23.3231 -0.0240288C23.398 -0.0244359 23.4728 -0.024843 23.55 -0.0252624C23.8013 -0.0264015 24.0526 -0.0262526 24.3039 -0.0261044C24.4839 -0.0266419 24.664 -0.0272533 24.844 -0.0279331C25.3336 -0.0295228 25.8232 -0.0299418 26.3128 -0.0300563C26.619 -0.030184 26.9251 -0.0305675 27.2312 -0.0310441C28.2999 -0.0327077 29.3686 -0.0334401 30.4373 -0.0332989C31.4321 -0.0331911 32.4268 -0.0350832 33.4216 -0.0379247C34.2765 -0.0402789 35.1313 -0.041238 35.9861 -0.0411233C36.4963 -0.0410776 37.0064 -0.0415837 37.5166 -0.0434912C37.9971 -0.0452387 38.4776 -0.0452396 38.9582 -0.0439374C39.1339 -0.0437505 39.3096 -0.0441686 39.4852 -0.04526C41.0833 -0.0545391 42.4346 0.199716 43.6596 1.35327C44.8831 2.68808 45.0397 4.1336 45.0354 5.87856C45.0359 6.06371 45.0365 6.24886 45.0373 6.43401C45.0388 6.93443 45.0387 7.43483 45.0382 7.93525C45.038 8.35348 45.0385 8.7717 45.039 9.18992C45.0403 10.1762 45.0401 11.1625 45.0391 12.1488C45.0381 13.1661 45.0393 14.1834 45.0417 15.2007C45.0436 16.075 45.0442 16.9494 45.0437 17.8237C45.0434 18.3456 45.0436 18.8674 45.0451 19.3892C45.0465 19.8794 45.0462 20.3696 45.0445 20.8598C45.0442 21.0396 45.0445 21.2195 45.0454 21.3993C45.0465 21.6448 45.0455 21.8902 45.044 22.1357C45.0448 22.2069 45.0457 22.278 45.0465 22.3514C45.0348 23.2498 44.4013 23.7281 43.8136 24.3278C43.7271 24.4167 43.6407 24.5056 43.5543 24.5945C43.3173 24.8381 43.0798 25.0812 42.8423 25.3242C42.5859 25.5866 42.33 25.8496 42.074 26.1124C41.5144 26.6869 40.9542 27.2607 40.3938 27.8343C40.0436 28.1928 39.6935 28.5514 39.3434 28.91C38.3734 29.9038 37.4032 30.8975 36.4324 31.8905C36.3392 31.9857 36.3392 31.9857 36.2442 32.0829C36.1819 32.1466 36.1197 32.2103 36.0556 32.2759C35.9294 32.4049 35.8033 32.5339 35.6772 32.6629C35.5834 32.7589 35.5834 32.7589 35.4876 32.8568C34.4747 33.8929 33.463 34.9303 32.4518 35.9681C31.4125 37.0348 30.3723 38.1004 29.331 39.165C28.7468 39.7623 28.1631 40.36 27.5804 40.9589C27.0841 41.469 26.5869 41.9782 26.0885 42.4862C25.8346 42.7451 25.581 43.0044 25.3287 43.2649C25.097 43.504 24.8641 43.7419 24.6302 43.9788C24.5072 44.104 24.3855 44.2305 24.2639 44.3571C23.1011 45.5275 21.8361 46.0498 20.2136 46.0441C19.0905 46.0104 18.1934 45.647 17.3144 44.9219C17.2364 44.8644 17.1585 44.807 17.0782 44.7478C16.8388 44.5296 16.641 44.2879 16.4337 44.0382C16.1833 43.7584 15.9041 43.5178 15.6201 43.2745C15.5451 43.2005 15.5451 43.2005 15.4687 43.125C15.4687 43.0657 15.4687 43.0064 15.4687 42.9453C15.3817 42.9157 15.2946 42.886 15.205 42.8555C15.205 42.7962 15.205 42.7369 15.205 42.6758C15.147 42.6758 15.089 42.6758 15.0292 42.6758C14.8994 42.5414 14.8994 42.5414 14.7496 42.357C14.4445 41.9905 14.1238 41.6477 13.7905 41.3081C13.7316 41.2477 13.6726 41.1872 13.6118 41.125C13.419 40.9275 13.2259 40.7303 13.0328 40.5332C12.8974 40.3948 12.762 40.2563 12.6267 40.1178C12.3438 39.8285 12.0608 39.5394 11.7776 39.2504C11.4161 38.8813 11.055 38.5119 10.694 38.1424C10.4148 37.8566 10.1354 37.5711 9.8559 37.2856C9.72272 37.1496 9.58961 37.0134 9.45656 36.8772C9.27007 36.6863 9.08331 36.4958 8.89646 36.3053C8.84243 36.2499 8.78839 36.1944 8.73272 36.1373C8.41008 35.8091 8.07605 35.5002 7.73186 35.1958C7.45225 34.943 7.18887 34.6745 6.92508 34.4046C6.8661 34.3446 6.80712 34.2846 6.74635 34.2228C6.55359 34.0266 6.36114 33.8301 6.16874 33.6335C6.0335 33.4955 5.89825 33.3576 5.763 33.2196C5.48035 32.9313 5.19789 32.6427 4.91553 32.354C4.55547 31.9859 4.19481 31.6185 3.83398 31.2512C3.55469 30.9667 3.27579 30.6818 2.99701 30.3967C2.86429 30.2612 2.73142 30.1257 2.59841 29.9905C-0.0161598 27.3303 -0.0161612 27.3303 -0.0412598 25.3276C-0.0403605 25.2451 -0.0394612 25.1626 -0.0385346 25.0776C-0.0378053 24.9908 -0.0370733 24.9041 -0.0363218 24.8146C0.000262015 23.2333 0.767562 22.0544 1.84581 20.968C1.93391 20.8776 2.02192 20.7871 2.10985 20.6966C2.34931 20.4504 2.5901 20.2057 2.83116 19.9612C3.09179 19.6964 3.35115 19.4302 3.61067 19.1642C4.11815 18.6445 4.62678 18.126 5.13583 17.6079C5.72874 17.0043 6.32047 16.3996 6.91216 15.7947C7.96759 14.716 9.02407 13.6382 10.0811 12.5611C11.1069 11.5159 12.1319 10.47 13.1562 9.42328C13.2194 9.35872 13.2825 9.29416 13.3476 9.22765C13.4107 9.1632 13.4737 9.09875 13.5387 9.03235C13.6657 8.90259 13.7927 8.77283 13.9196 8.64307C13.9823 8.57908 14.0449 8.51509 14.1094 8.44915C15.086 7.45119 16.0632 6.4539 17.0405 5.45667C17.3947 5.09524 17.7488 4.73371 18.1028 4.37211C18.6639 3.799 19.2253 3.22618 19.7872 2.65396C20.044 2.3925 20.3006 2.1309 20.5569 1.86891C20.7913 1.62926 21.0261 1.39004 21.2612 1.15114C21.3868 1.02337 21.5119 0.895146 21.637 0.766914C21.7487 0.65377 21.7487 0.65377 21.8625 0.53834C21.9267 0.472945 21.9908 0.40755 22.0569 0.340173C22.4569 -0.0178099 22.8069 -0.0260803 23.3231 -0.0240288ZM12.5714 12.9237C12.3976 13.112 12.2237 13.3001 12.0497 13.4881C9.63557 16.0996 7.26447 18.7503 4.96031 21.4638C4.83313 21.6136 4.70577 21.7632 4.5784 21.9127C4.34554 22.1865 4.11417 22.4616 3.88308 22.7369C3.81595 22.816 3.74883 22.8951 3.67967 22.9766C3.15769 23.6039 2.65871 24.214 2.67509 25.072C2.67498 25.1731 2.67486 25.2742 2.67475 25.3784C2.79196 26.1246 3.21202 26.6054 3.72425 27.1223C3.78973 27.1898 3.85521 27.2573 3.92268 27.3268C4.1414 27.5518 4.36134 27.7755 4.5813 27.9992C4.73875 28.1607 4.89612 28.3222 5.05342 28.4837C5.43597 28.8763 5.81933 29.2679 6.20311 29.6592C6.5151 29.9773 6.82675 30.2958 7.13816 30.6145C7.18255 30.6599 7.22693 30.7053 7.27267 30.7522C7.36285 30.8445 7.45303 30.9368 7.54322 31.0291C8.38811 31.8938 9.23407 32.7573 10.0804 33.6206C10.806 34.3606 11.5306 35.1016 12.2545 35.8433C13.096 36.7054 13.9381 37.567 14.7811 38.4276C14.8711 38.5194 14.961 38.6113 15.051 38.7031C15.0952 38.7483 15.1395 38.7935 15.1851 38.84C15.4963 39.1579 15.8071 39.4761 16.1178 39.7946C16.5362 40.2234 16.9556 40.6513 17.3756 41.0786C17.5295 41.2355 17.6832 41.3926 17.8365 41.5501C18.0459 41.7652 18.2565 41.9792 18.4673 42.1929C18.5276 42.2553 18.5879 42.3178 18.65 42.3821C19.1648 42.8999 19.6788 43.2663 20.4235 43.2654C20.5578 43.2683 20.5578 43.2683 20.6947 43.2713C21.5201 43.1214 22.1474 42.5827 22.7639 42.0346C22.8478 41.9611 22.9318 41.8876 23.0183 41.8118C23.2496 41.6091 23.4796 41.4049 23.7093 41.2003C23.8567 41.0691 24.0043 40.9381 24.152 40.8072C26.806 38.4522 29.3935 36.0227 31.9463 33.554C32.129 33.3773 32.3119 33.2009 32.4948 33.0244C40.5731 25.5433 40.5731 25.5433 43.7432 15.295C43.7626 14.2517 43.6972 13.2179 43.6046 12.1794C43.5967 12.0876 43.5888 11.9958 43.5807 11.9012C43.3812 9.63316 43.009 7.4267 42.4358 5.22683C42.3718 4.97519 42.3141 4.72359 42.2607 4.46943C42.1163 3.80614 41.7838 3.37335 41.2261 3.00976C40.9709 2.85706 40.7888 2.78626 40.4942 2.74357C40.1859 2.69825 39.902 2.62939 39.6025 2.54364C37.4753 1.95647 35.3385 1.59613 33.1457 1.38135C33.0567 1.37238 32.9677 1.3634 32.8761 1.35416C23.6688 0.453282 18.4056 6.60127 12.5714 12.9237Z" fill="#12538D"/>
<path d="M35.7498 8.30843C36.6978 8.9657 37.2818 9.90912 37.5293 11.0508C37.6457 12.4003 37.4959 13.511 36.6614 14.6024C35.8554 15.5595 34.8362 16.089 33.6055 16.1912C32.3794 16.236 31.2883 15.8054 30.3882 14.959C29.5276 14.0302 29.1301 12.8679 29.1584 11.5993C29.2436 10.4819 29.6914 9.43429 30.5101 8.67167C32.0438 7.39307 34.0687 7.20923 35.7498 8.30843ZM32.135 11.0227C31.9275 11.4551 31.824 11.8552 31.9627 12.3279C32.1756 12.803 32.4524 13.0622 32.8931 13.3249C33.3122 13.4321 33.7122 13.4018 34.1043 13.2091C34.4612 12.9695 34.6717 12.7323 34.8047 12.3086C34.8624 11.8561 34.858 11.5191 34.6564 11.1069C34.3795 10.7857 34.0841 10.4499 33.6501 10.4005C32.9757 10.3804 32.5965 10.4889 32.135 11.0227Z" fill="#12538D"/>
</g>
<defs>
<clipPath id="clip0_5_273">
<rect width="45" height="46" fill="white"/>
</clipPath>
</defs>
</svg>
