<?xml version="1.0" encoding="UTF-8"?>
<svg version="1.1" xmlns="http://www.w3.org/2000/svg" width="512" height="512">
<path d="M0 0 C1.3365287 -0.01469078 1.3365287 -0.01469078 2.70005798 -0.02967834 C31.02930163 -0.27680589 57.17994109 2.00410905 84.4453125 10.23828125 C85.69803955 10.61460693 85.69803955 10.61460693 86.97607422 10.99853516 C113.72287759 19.23606323 138.56658543 32.86305859 160.4453125 50.23828125 C161.31800781 50.91890625 162.19070313 51.59953125 163.08984375 52.30078125 C213.1610795 92.18182407 244.28196368 150.07860416 251.97583008 213.45776367 C252.49531749 218.24021438 252.63971312 222.98519736 252.68359375 227.79296875 C252.6933876 228.68398788 252.70318146 229.57500702 252.71327209 230.49302673 C253.23397222 290.18301748 237.46998542 346.91861502 198.4453125 393.23828125 C198.00074707 393.77163086 197.55618164 394.30498047 197.09814453 394.85449219 C188.22536736 405.48522354 179.07675597 415.36819695 168.21484375 424.02734375 C166.40012249 425.47604929 164.60476024 426.94942113 162.83203125 428.44921875 C121.52207816 463.33317913 66.69507132 480.72710773 13.1328125 480.61328125 C12.16687164 480.61273743 11.20093079 480.6121936 10.20571899 480.6116333 C-5.69146444 480.57060916 -20.9742443 479.64585488 -36.5546875 476.23828125 C-37.54082031 476.02397461 -38.52695313 475.80966797 -39.54296875 475.58886719 C-80.68601851 466.32763679 -118.66455293 447.01341561 -149.5546875 418.23828125 C-150.94613416 417.02489906 -152.34177389 415.81630322 -153.7421875 414.61328125 C-160.23579506 408.92488103 -165.82997583 402.84849748 -171.23828125 396.11328125 C-172.72964128 394.26228465 -174.24130496 392.42737276 -175.77734375 390.61328125 C-186.48593264 377.92162035 -194.84788293 363.9027082 -202.5546875 349.23828125 C-202.90241211 348.58762695 -203.25013672 347.93697266 -203.60839844 347.26660156 C-214.77726192 326.11658788 -221.86063665 301.78641992 -225.5546875 278.23828125 C-225.73725098 277.08271729 -225.91981445 275.92715332 -226.10791016 274.73657227 C-227.70824137 263.46656388 -227.95385383 252.29750635 -227.9296875 240.92578125 C-227.92914368 239.95984039 -227.92859985 238.99389954 -227.92803955 237.99868774 C-227.88701541 222.10150431 -226.96226113 206.81872445 -223.5546875 191.23828125 C-223.34038086 190.25214844 -223.12607422 189.26601562 -222.90527344 188.25 C-213.64404304 147.10695024 -194.32982186 109.12841582 -165.5546875 78.23828125 C-164.34130531 76.84683459 -163.13270947 75.45119486 -161.9296875 74.05078125 C-123.16385022 29.67058133 -58.73818865 0.53610464 0 0 Z M-15.3671875 109.11328125 C-29.29663427 125.9837481 -23.14363447 150.85580981 -21.4375 170.9296875 C-21.21761765 173.57279233 -20.99820161 176.21593251 -20.77926636 178.8591156 C-20.32212853 184.36363993 -19.85896958 189.86763183 -19.39208984 195.37133789 C-18.85444505 201.71015857 -18.32664903 208.04974242 -17.80397713 214.38981396 C-17.29714481 220.53484196 -16.78324403 226.67925647 -16.26626205 232.82343864 C-16.04842989 235.41993525 -15.83235596 238.01658 -15.61810684 240.61337471 C-15.31803287 244.23831544 -15.00993358 247.86248814 -14.69970703 251.48657227 C-14.6133902 252.5480246 -14.52707336 253.60947693 -14.43814087 254.70309448 C-13.40016115 266.6017852 -11.71696327 274.96115382 -2.4921875 283.11328125 C4.38937076 288.09142978 11.1823743 287.96046768 19.4453125 287.23828125 C26.5326311 285.52675699 31.31467795 279.98820211 35.4453125 274.23828125 C37.44677121 270.09106702 37.99379861 266.00327989 38.43505859 261.47265625 C38.51618078 260.69235046 38.59730297 259.91204468 38.68088341 259.10809326 C39.78641008 248.24707757 40.693722 237.36657767 41.609375 226.48828125 C41.75556337 224.75946716 41.75556337 224.75946716 41.90470505 222.99572754 C42.41959808 216.90622692 42.93172964 210.81650187 43.44140625 204.7265625 C43.96359658 198.49323968 44.49501295 192.26073967 45.02857399 186.02838135 C45.44201212 181.17962374 45.84866548 176.33031348 46.25355148 171.48083496 C46.4464118 169.18447971 46.64171698 166.88832824 46.83967972 164.59240723 C47.74207944 154.1017793 48.60821207 143.63210219 48.68505859 133.09765625 C48.69869666 132.03378693 48.69869666 132.03378693 48.71261024 130.94842529 C48.65423963 120.61883871 44.070311 112.7392219 37.05078125 105.4375 C20.70655587 91.64169957 -1.07079778 93.63059536 -15.3671875 109.11328125 Z M-11.9296875 331.55078125 C-12.84408515 332.75092817 -13.72016498 333.9812817 -14.5546875 335.23828125 C-14.9671875 335.85960937 -15.3796875 336.4809375 -15.8046875 337.12109375 C-19.6387234 344.12353431 -19.79298561 352.48445194 -18.5546875 360.23828125 C-15.48585146 370.13919751 -9.49861364 376.78319261 -0.4921875 381.67578125 C7.39815275 384.82918713 17.02471946 384.49129826 24.9453125 381.61328125 C33.45565538 377.55536942 38.30714428 371.65348239 42.4453125 363.23828125 C45.19645265 355.16827016 44.36412509 345.10065384 40.75390625 337.48046875 C35.50896448 328.4936133 28.10967297 323.32743757 18.0234375 320.578125 C6.73036454 318.83610843 -4.23083511 323.23292566 -11.9296875 331.55078125 Z " fill="#000000" transform="translate(243.5546875,15.76171875)"/>
</svg>
